999
dxfrw 0.6.3
  0
SECTION
  2
HEADER
  9
$ACADVER
  1
AC1021
  9
$DWGCODEPAGE
  3
ANSI_1252
  9
$INSBASE
 10
0
 20
0
 30
0
  9
$EXTMIN
 10
-9.525680399999992
 20
-85.72430699999998
 30
0
  9
$EXTMAX
 10
295.275235
 20
9.525500000000008
 30
0
  9
$LIMMIN
 10
0
 20
0
  9
$LIMMAX
 10
420
 20
297
  9
$ORTHOMODE
 70
    0
  9
$REGENMODE
 70
    1
  9
$FILLMODE
 70
    0
  9
$QTEXTMODE
 70
    0
  9
$MIRRTEXT
 70
    0
  9
$LTSCALE
 40
1
  9
$ATTMODE
 70
    0
  9
$TEXTSIZE
 40
2.5
  9
$TRACEWID
 40
15.68
  9
$TEXTSTYLE
  7
STANDARD
  9
$CLAYER
  8
user_drawings
  9
$CELTYPE
  6
BYLAYER
  9
$CECOLOR
 62
  256
  9
$CELTSCALE
 40
1
  9
$DISPSILH
 70
    0
  9
$DIMSCALE
 40
2.5
  9
$DIMASZ
 40
2.5
  9
$DIMEXO
 40
0.625
  9
$DIMDLI
 40
3.75
  9
$DIMRND
 40
0
  9
$DIMDLE
 40
0
  9
$DIMEXE
 40
1.25
  9
$DIMTP
 40
0
  9
$DIMTM
 40
0
  9
$DIMTXT
 40
2.5
  9
$DIMCEN
 40
2.5
  9
$DIMTSZ
 40
0
  9
$DIMTOL
 70
    0
  9
$DIMLIM
 70
    0
  9
$DIMTIH
 70
    0
  9
$DIMTOH
 70
    0
  9
$DIMSE1
 70
    0
  9
$DIMSE2
 70
    0
  9
$DIMTAD
 70
    1
  9
$DIMZIN
 70
    8
  9
$DIMBLK
  1

  9
$DIMASO
 70
    1
  9
$DIMSHO
 70
    1
  9
$DIMPOST
  1

  9
$DIMAPOST
  1

  9
$DIMALT
 70
    0
  9
$DIMALTD
 70
    3
  9
$DIMALTF
 40
0.03937
  9
$DIMLFAC
 40
1
  9
$DIMTOFL
 70
    1
  9
$DIMTVP
 40
0
  9
$DIMTIX
 70
    0
  9
$DIMSOXD
 70
    0
  9
$DIMSAH
 70
    0
  9
$DIMBLK1
  1

  9
$DIMBLK2
  1

  9
$DIMSTYLE
  2
Standard
  9
$DIMCLRD
 70
    0
  9
$DIMCLRE
 70
    0
  9
$DIMCLRT
 70
    0
  9
$DIMTFAC
 40
1
  9
$DIMGAP
 40
0.625
  9
$DIMJUST
 70
    0
  9
$DIMSD1
 70
    0
  9
$DIMSD2
 70
    0
  9
$DIMTOLJ
 70
    0
  9
$DIMTZIN
 70
    8
  9
$DIMALTZ
 70
    0
  9
$DIMALTTZ
 70
    0
  9
$DIMUPT
 70
    0
  9
$DIMDEC
 70
    2
  9
$DIMTDEC
 70
    2
  9
$DIMALTU
 70
    2
  9
$DIMALTTD
 70
    3
  9
$DIMTXSTY
  7
STANDARD
  9
$DIMAUNIT
 70
    0
  9
$DIMADEC
 70
    0
  9
$DIMALTRND
 40
0
  9
$DIMAZIN
 70
    0
  9
$DIMDSEP
 70
   44
  9
$DIMATFIT
 70
    3
  9
$DIMFRAC
 70
    0
  9
$DIMLDRBLK
  1
STANDARD
  9
$DIMLUNIT
 70
    2
  9
$DIMLWD
 70
   -2
  9
$DIMLWE
 70
   -2
  9
$DIMTMOVE
 70
    0
  9
$DIMFXL
 40
1
  9
$DIMFXLON
 70
    0
  9
$DIMJOGANG
 40
0.7854
  9
$DIMTFILL
 70
    0
  9
$DIMTFILLCLR
 70
    0
  9
$DIMARCSYM
 70
    0
  9
$DIMLTYPE
  6

  9
$DIMLTEX1
  6

  9
$DIMLTEX2
  6

  9
$LUNITS
 70
    2
  9
$LUPREC
 70
    4
  9
$SKETCHINC
 40
1
  9
$FILLETRAD
 40
0
  9
$AUNITS
 70
    0
  9
$AUPREC
 70
    2
  9
$MENU
  1
.
  9
$ELEVATION
 40
0
  9
$PELEVATION
 40
0
  9
$THICKNESS
 40
0
  9
$LIMCHECK
 70
    0
  9
$CHAMFERA
 40
0
  9
$CHAMFERB
 40
0
  9
$CHAMFERC
 40
0
  9
$CHAMFERD
 40
0
  9
$SKPOLY
 70
    0
  9
$USRTIMER
 70
    1
  9
$ANGBASE
 50
0
  9
$ANGDIR
 70
    0
  9
$PDMODE
 70
   34
  9
$PDSIZE
 40
0
  9
$PLINEWID
 40
0
  9
$SPLFRAME
 70
    1
  9
$SPLINETYPE
 70
    2
  9
$SPLINESEGS
 70
    8
  9
$HANDSEED
  5
20000
  9
$SURFTAB1
 70
    6
  9
$SURFTAB2
 70
    6
  9
$SURFTYPE
 70
    6
  9
$SURFU
 70
    6
  9
$SURFV
 70
    6
  9
$UCSBASE
  2

  9
$UCSNAME
  2

  9
$UCSORG
 10
0
 20
0
 30
0
  9
$UCSXDIR
 10
1
 20
0
 30
0
  9
$UCSYDIR
 10
0
 20
1
 30
0
  9
$UCSORTHOREF
  2

  9
$UCSORTHOVIEW
 70
    0
  9
$UCSORGTOP
 10
0
 20
0
 30
0
  9
$UCSORGBOTTOM
 10
0
 20
0
 30
0
  9
$UCSORGLEFT
 10
0
 20
0
 30
0
  9
$UCSORGRIGHT
 10
0
 20
0
 30
0
  9
$UCSORGFRONT
 10
0
 20
0
 30
0
  9
$UCSORGBACK
 10
0
 20
0
 30
0
  9
$PUCSBASE
  2

  9
$PUCSNAME
  2

  9
$PUCSORG
 10
0
 20
0
 30
0
  9
$PUCSXDIR
 10
1
 20
0
 30
0
  9
$PUCSYDIR
 10
0
 20
1
 30
0
  9
$PUCSORTHOREF
  2

  9
$PUCSORTHOVIEW
 70
    0
  9
$PUCSORGTOP
 10
0
 20
0
 30
0
  9
$PUCSORGBOTTOM
 10
0
 20
0
 30
0
  9
$PUCSORGLEFT
 10
0
 20
0
 30
0
  9
$PUCSORGRIGHT
 10
0
 20
0
 30
0
  9
$PUCSORGFRONT
 10
0
 20
0
 30
0
  9
$PUCSORGBACK
 10
0
 20
0
 30
0
  9
$USERI1
 70
    0
  9
$USERI2
 70
    0
  9
$USERI3
 70
    0
  9
$USERI4
 70
    0
  9
$USERI5
 70
    0
  9
$USERR1
 40
0
  9
$USERR2
 40
0
  9
$USERR3
 40
0
  9
$USERR4
 40
0
  9
$USERR5
 40
0
  9
$WORLDVIEW
 70
    1
  9
$SHADEDGE
 70
    3
  9
$SHADEDIF
 70
   70
  9
$TILEMODE
 70
    1
  9
$MAXACTVP
 70
   64
  9
$PINSBASE
 10
0
 20
0
 30
0
  9
$PLIMCHECK
 70
    0
  9
$PEXTMIN
 10
0
 20
0
 30
0
  9
$PEXTMAX
 10
0
 20
0
 30
0
  9
$GRIDMODE
 70
    1
  9
$SNAPSTYLE
 70
    0
  9
$PLIMMIN
 10
0
 20
0
  9
$PLIMMAX
 10
210
 20
297
  9
$UNITMODE
 70
    0
  9
$VISRETAIN
 70
    1
  9
$PLINEGEN
 70
    0
  9
$PSLTSCALE
 70
    1
  9
$TREEDEPTH
 70
 3020
  9
$CMLSTYLE
  2
Standard
  9
$CMLJUST
 70
    0
  9
$CMLSCALE
 40
20
  9
$PROXYGRAPHICS
 70
    1
  9
$MEASUREMENT
 70
    1
  9
$CELWEIGHT
370
   -1
  9
$ENDCAPS
280
    0
  9
$JOINSTYLE
280
    0
  9
$LWDISPLAY
290
    0
  9
$INSUNITS
 70
    4
  9
$HYPERLINKBASE
  1

  9
$STYLESHEET
  1

  9
$XEDIT
290
    1
  9
$CEPSNTYPE
380
    0
  9
$PSTYLEMODE
290
    1
  9
$EXTNAMES
290
    1
  9
$PSVPSCALE
 40
1
  9
$OLESTARTUP
290
    0
  9
$SORTENTS
280
  127
  9
$INDEXCTL
280
    0
  9
$HIDETEXT
280
    1
  9
$XCLIPFRAME
290
    0
  9
$HALOGAP
280
    0
  9
$OBSCOLOR
 70
  257
  9
$OBSLTYPE
280
    0
  9
$INTERSECTIONDISPLAY
280
    0
  9
$INTERSECTIONCOLOR
 70
  257
  9
$DIMASSOC
280
    1
  9
$PROJECTNAME
  1

  9
$CAMERADISPLAY
290
    0
  9
$LENSLENGTH
 40
50
  9
$CAMERAHEIGHT
 40
0
  9
$STEPSPERSEC
 40
2
  9
$STEPSIZE
 40
50
  9
$3DDWFPREC
 40
2
  9
$PSOLWIDTH
 40
5
  9
$PSOLHEIGHT
 40
80
  9
$LOFTANG1
 40
1.570796326794897
  9
$LOFTANG2
 40
1.570796326794897
  9
$LOFTMAG1
 40
0
  9
$LOFTMAG2
 40
0
  9
$LOFTPARAM
 70
    7
  9
$LOFTNORMALS
280
    1
  9
$LATITUDE
 40
1
  9
$LONGITUDE
 40
1
  9
$NORTHDIRECTION
 40
0
  9
$TIMEZONE
 70
-8000
  9
$LIGHTGLYPHDISPLAY
280
    1
  9
$TILEMODELIGHTSYNCH
280
    1
  9
$SOLIDHIST
280
    1
  9
$SHOWHIST
280
    1
  9
$DWFFRAME
280
    2
  9
$DGNFRAME
280
    0
  9
$REALWORLDSCALE
290
    1
  9
$INTERFERECOLOR
 62
    1
  9
$CSHADOW
280
    0
  9
$SHADOWPLANELOCATION
 40
0
  0
ENDSEC
  0
SECTION
  2
CLASSES
  0
ENDSEC
  0
SECTION
  2
TABLES
  0
TABLE
  2
VPORT
  5
8
330
0
100
AcDbSymbolTable
 70
    1
  0
VPORT
  5
31
330
2
100
AcDbSymbolTableRecord
100
AcDbViewportTableRecord
  2
*ACTIVE
 70
    0
 10
0
 20
0
 11
1
 21
1
 12
202.8211144548382
 22
95.13085210266453
 13
0
 23
0
 14
10
 24
10
 15
10
 25
10
 16
0
 26
0
 36
1
 17
0
 27
0
 37
0
 40
442.5187951741923
 41
1.716183574879227
 42
50
 43
0
 44
0
 50
0
 51
0
 71
    0
 72
  100
 73
    1
 74
    3
 75
    0
 76
    1
 77
    0
 78
    0
281
    0
 65
    1
110
0
120
0
130
0
111
1
121
0
131
0
112
0
122
1
132
0
 79
    0
146
0
348
10020
 60
    7
 61
    5
292
1
282
    1
141
0
142
0
 63
  250
421
3358443
  0
ENDTAB
  0
TABLE
  2
LTYPE
  5
5
330
0
100
AcDbSymbolTable
 70
    4
  0
LTYPE
  5
14
330
5
100
AcDbSymbolTableRecord
100
AcDbLinetypeTableRecord
  2
ByBlock
 70
    0
  3

 72
   65
 73
    0
 40
0
  0
LTYPE
  5
15
330
5
100
AcDbSymbolTableRecord
100
AcDbLinetypeTableRecord
  2
ByLayer
 70
    0
  3

 72
   65
 73
    0
 40
0
  0
LTYPE
  5
16
330
5
100
AcDbSymbolTableRecord
100
AcDbLinetypeTableRecord
  2
Continuous
 70
    0
  3
Solid line
 72
   65
 73
    0
 40
0
  0
LTYPE
  5
32
330
5
100
AcDbSymbolTableRecord
100
AcDbLinetypeTableRecord
  2
DOT
 70
    0
  3
Dot . . . . . . . . . . . . . . . . . . . . . .
 72
   65
 73
    2
 40
6.35
 49
0
 74
    0
 49
-6.35
 74
    0
  0
LTYPE
  5
33
330
5
100
AcDbSymbolTableRecord
100
AcDbLinetypeTableRecord
  2
DOTTINY
 70
    0
  3
Dot (.15x) .....................................
 72
   65
 73
    2
 40
0.9525
 49
0
 74
    0
 49
-0.9525
 74
    0
  0
LTYPE
  5
34
330
5
100
AcDbSymbolTableRecord
100
AcDbLinetypeTableRecord
  2
DOT2
 70
    0
  3
Dot (.5x) .....................................
 72
   65
 73
    2
 40
3.175
 49
0
 74
    0
 49
-3.175
 74
    0
  0
LTYPE
  5
35
330
5
100
AcDbSymbolTableRecord
100
AcDbLinetypeTableRecord
  2
DOTX2
 70
    0
  3
Dot (2x) .  .  .  .  .  .  .  .  .  .  .  .  .
 72
   65
 73
    2
 40
12.7
 49
0
 74
    0
 49
-12.7
 74
    0
  0
LTYPE
  5
36
330
5
100
AcDbSymbolTableRecord
100
AcDbLinetypeTableRecord
  2
DASHED
 70
    0
  3
Dashed _ _ _ _ _ _ _ _ _ _ _ _ _ _ _ _ _
 72
   65
 73
    2
 40
19.05
 49
12.7
 74
    0
 49
-6.35
 74
    0
  0
LTYPE
  5
37
330
5
100
AcDbSymbolTableRecord
100
AcDbLinetypeTableRecord
  2
DASHEDTINY
 70
    0
  3
Dashed (.15x) _ _ _ _ _ _ _ _ _ _ _ _ _ _ _ _ _
 72
   65
 73
    2
 40
2.8575
 49
1.905
 74
    0
 49
-0.9525
 74
    0
  0
LTYPE
  5
38
330
5
100
AcDbSymbolTableRecord
100
AcDbLinetypeTableRecord
  2
DASHED2
 70
    0
  3
Dashed (.5x) _ _ _ _ _ _ _ _ _ _ _ _ _ _ _ _ _
 72
   65
 73
    2
 40
9.524999999999999
 49
6.35
 74
    0
 49
-3.175
 74
    0
  0
LTYPE
  5
39
330
5
100
AcDbSymbolTableRecord
100
AcDbLinetypeTableRecord
  2
DASHEDX2
 70
    0
  3
Dashed (2x) ____  ____  ____  ____  ____  ___
 72
   65
 73
    2
 40
38.09999999999999
 49
25.4
 74
    0
 49
-12.7
 74
    0
  0
LTYPE
  5
3A
330
5
100
AcDbSymbolTableRecord
100
AcDbLinetypeTableRecord
  2
DASHDOT
 70
    0
  3
Dash dot __ . __ . __ . __ . __ . __ . __ . __
 72
   65
 73
    4
 40
25.4
 49
12.7
 74
    0
 49
-6.35
 74
    0
 49
0
 74
    0
 49
-6.35
 74
    0
  0
LTYPE
  5
3B
330
5
100
AcDbSymbolTableRecord
100
AcDbLinetypeTableRecord
  2
DASHDOTTINY
 70
    0
  3
Dash dot (.15x) _._._._._._._._._._._._._._._.
 72
   65
 73
    4
 40
3.81
 49
1.905
 74
    0
 49
-0.9525
 74
    0
 49
0
 74
    0
 49
-0.9525
 74
    0
  0
LTYPE
  5
3C
330
5
100
AcDbSymbolTableRecord
100
AcDbLinetypeTableRecord
  2
DASHDOT2
 70
    0
  3
Dash dot (.5x) _._._._._._._._._._._._._._._.
 72
   65
 73
    4
 40
12.7
 49
6.35
 74
    0
 49
-3.175
 74
    0
 49
0
 74
    0
 49
-3.175
 74
    0
  0
LTYPE
  5
3D
330
5
100
AcDbSymbolTableRecord
100
AcDbLinetypeTableRecord
  2
DASHDOTX2
 70
    0
  3
Dash dot (2x) ____  .  ____  .  ____  .  ___
 72
   65
 73
    4
 40
50.8
 49
25.4
 74
    0
 49
-12.7
 74
    0
 49
0
 74
    0
 49
-12.7
 74
    0
  0
LTYPE
  5
3E
330
5
100
AcDbSymbolTableRecord
100
AcDbLinetypeTableRecord
  2
DIVIDE
 70
    0
  3
Divide ____ . . ____ . . ____ . . ____ . . ____
 72
   65
 73
    6
 40
31.75
 49
12.7
 74
    0
 49
-6.35
 74
    0
 49
0
 74
    0
 49
-6.35
 74
    0
 49
0
 74
    0
 49
-6.35
 74
    0
  0
LTYPE
  5
3F
330
5
100
AcDbSymbolTableRecord
100
AcDbLinetypeTableRecord
  2
DIVIDETINY
 70
    0
  3
Divide (.15x) __..__..__..__..__..__..__..__.._
 72
   65
 73
    6
 40
4.7625
 49
1.905
 74
    0
 49
-0.9525
 74
    0
 49
0
 74
    0
 49
-0.9525
 74
    0
 49
0
 74
    0
 49
-0.9525
 74
    0
  0
LTYPE
  5
40
330
5
100
AcDbSymbolTableRecord
100
AcDbLinetypeTableRecord
  2
DIVIDE2
 70
    0
  3
Divide (.5x) __..__..__..__..__..__..__..__.._
 72
   65
 73
    6
 40
15.875
 49
6.35
 74
    0
 49
-3.175
 74
    0
 49
0
 74
    0
 49
-3.175
 74
    0
 49
0
 74
    0
 49
-3.175
 74
    0
  0
LTYPE
  5
41
330
5
100
AcDbSymbolTableRecord
100
AcDbLinetypeTableRecord
  2
DIVIDEX2
 70
    0
  3
Divide (2x) ________  .  .  ________  .  .  _
 72
   65
 73
    6
 40
63.5
 49
25.4
 74
    0
 49
-12.7
 74
    0
 49
0
 74
    0
 49
-12.7
 74
    0
 49
0
 74
    0
 49
-12.7
 74
    0
  0
LTYPE
  5
42
330
5
100
AcDbSymbolTableRecord
100
AcDbLinetypeTableRecord
  2
BORDER
 70
    0
  3
Border __ __ . __ __ . __ __ . __ __ . __ __ .
 72
   65
 73
    6
 40
44.45
 49
12.7
 74
    0
 49
-6.35
 74
    0
 49
12.7
 74
    0
 49
-6.35
 74
    0
 49
0
 74
    0
 49
-6.35
 74
    0
  0
LTYPE
  5
43
330
5
100
AcDbSymbolTableRecord
100
AcDbLinetypeTableRecord
  2
BORDERTINY
 70
    0
  3
Border (.15x) __.__.__.__.__.__.__.__.__.__.__.
 72
   65
 73
    6
 40
6.6675
 49
1.905
 74
    0
 49
-0.9525
 74
    0
 49
1.905
 74
    0
 49
-0.9525
 74
    0
 49
0
 74
    0
 49
-0.9525
 74
    0
  0
LTYPE
  5
44
330
5
100
AcDbSymbolTableRecord
100
AcDbLinetypeTableRecord
  2
BORDER2
 70
    0
  3
Border (.5x) __.__.__.__.__.__.__.__.__.__.__.
 72
   65
 73
    6
 40
22.225
 49
6.35
 74
    0
 49
-3.175
 74
    0
 49
6.35
 74
    0
 49
-3.175
 74
    0
 49
0
 74
    0
 49
-3.175
 74
    0
  0
LTYPE
  5
45
330
5
100
AcDbSymbolTableRecord
100
AcDbLinetypeTableRecord
  2
BORDERX2
 70
    0
  3
Border (2x) ____  ____  .  ____  ____  .  ___
 72
   65
 73
    6
 40
88.89999999999999
 49
25.4
 74
    0
 49
-12.7
 74
    0
 49
25.4
 74
    0
 49
-12.7
 74
    0
 49
0
 74
    0
 49
-12.7
 74
    0
  0
LTYPE
  5
46
330
5
100
AcDbSymbolTableRecord
100
AcDbLinetypeTableRecord
  2
CENTER
 70
    0
  3
Center ____ _ ____ _ ____ _ ____ _ ____ _ ____
 72
   65
 73
    4
 40
50.8
 49
31.75
 74
    0
 49
-6.35
 74
    0
 49
6.35
 74
    0
 49
-6.35
 74
    0
  0
LTYPE
  5
47
330
5
100
AcDbSymbolTableRecord
100
AcDbLinetypeTableRecord
  2
CENTERTINY
 70
    0
  3
Center (.15x) ___ _ ___ _ ___ _ ___ _ ___ _ ___
 72
   65
 73
    4
 40
7.619999999999999
 49
4.7625
 74
    0
 49
-0.9525
 74
    0
 49
0.9525
 74
    0
 49
-0.9525
 74
    0
  0
LTYPE
  5
48
330
5
100
AcDbSymbolTableRecord
100
AcDbLinetypeTableRecord
  2
CENTER2
 70
    0
  3
Center (.5x) ___ _ ___ _ ___ _ ___ _ ___ _ ___
 72
   65
 73
    4
 40
28.575
 49
19.05
 74
    0
 49
-3.175
 74
    0
 49
3.175
 74
    0
 49
-3.175
 74
    0
  0
LTYPE
  5
49
330
5
100
AcDbSymbolTableRecord
100
AcDbLinetypeTableRecord
  2
CENTERX2
 70
    0
  3
Center (2x) ________  __  ________  __  _____
 72
   65
 73
    4
 40
101.6
 49
63.5
 74
    0
 49
-12.7
 74
    0
 49
12.7
 74
    0
 49
-12.7
 74
    0
  0
ENDTAB
  0
TABLE
  2
LAYER
  5
2
330
0
100
AcDbSymbolTable
 70
    1
  0
LAYER
  5
10
330
2
100
AcDbSymbolTableRecord
100
AcDbLayerTableRecord
  2
0
 70
    0
 62
    7
  6
CONTINUOUS
370
   -3
390
F
  0
LAYER
  5
4A
330
2
100
AcDbSymbolTableRecord
100
AcDbLayerTableRecord
  2
edge_cuts
 70
    0
 62
    2
  6
CONTINUOUS
370
    0
390
F
  0
LAYER
  5
4B
330
2
100
AcDbSymbolTableRecord
100
AcDbLayerTableRecord
  2
user_drawings
 70
    0
 62
  253
420
10526884
  6
CONTINUOUS
370
    0
390
F
  0
ENDTAB
  0
TABLE
  2
STYLE
  5
3
330
0
100
AcDbSymbolTable
 70
    3
  0
STYLE
  5
4C
330
2
100
AcDbSymbolTableRecord
100
AcDbTextStyleTableRecord
  2
Standard
 70
    0
 40
0
 41
1
 50
0
 71
    0
 42
1
  3
txt
  4

  0
ENDTAB
  0
TABLE
  2
VIEW
  5
6
330
0
100
AcDbSymbolTable
 70
    0
  0
ENDTAB
  0
TABLE
  2
UCS
  5
7
330
0
100
AcDbSymbolTable
 70
    0
  0
ENDTAB
  0
TABLE
  2
APPID
  5
9
330
0
100
AcDbSymbolTable
 70
    1
  0
APPID
  5
12
330
9
100
AcDbSymbolTableRecord
100
AcDbRegAppTableRecord
  2
ACAD
 70
    0
  0
APPID
  5
4D
330
9
100
AcDbSymbolTableRecord
100
AcDbRegAppTableRecord
  2
LibreCad
 70
    0
  0
ENDTAB
  0
TABLE
  2
DIMSTYLE
  5
A
330
0
100
AcDbSymbolTable
 70
    1
100
AcDbDimStyleTable
 71
    1
  0
DIMSTYLE
105
4E
330
A
100
AcDbSymbolTableRecord
100
AcDbDimStyleTableRecord
  2
Standard
 70
    0
 40
2.5
 41
2.5
 42
0.625
 43
0.38
 44
1.25
 45
0
 46
0
 47
0
 48
0
 49
1
140
2.5
141
0.09
142
0
143
25.4
144
1
145
0
146
1
147
0.625
148
0
 71
    0
 72
    0
 73
    0
 74
    1
 75
    0
 76
    0
 77
    0
 78
    8
 79
    0
170
    0
171
    2
172
    0
173
    0
174
    0
175
    0
176
    0
177
    0
178
    0
179
    0
271
    2
272
    4
273
    2
274
    2
275
    0
276
    0
277
    2
278
   44
279
    0
280
    0
281
    0
282
    0
283
    1
284
    0
285
    0
286
    0
288
    0
289
    3
340
STANDARD
341

371
   -2
372
   -2
  0
ENDTAB
  0
TABLE
  2
BLOCK_RECORD
  5
1
330
0
100
AcDbSymbolTable
 70
    2
  0
BLOCK_RECORD
  5
1F
330
1
100
AcDbSymbolTableRecord
100
AcDbBlockTableRecord
  2
*Model_Space
 70
    0
280
    1
281
    0
  0
BLOCK_RECORD
  5
1E
330
1
100
AcDbSymbolTableRecord
100
AcDbBlockTableRecord
  2
*Paper_Space
 70
    0
280
    1
281
    0
  0
ENDTAB
  0
ENDSEC
  0
SECTION
  2
BLOCKS
  0
BLOCK
  5
20
330
1F
100
AcDbEntity
  8
0
100
AcDbBlockBegin
  2
*Model_Space
 70
    0
 10
0
 20
0
 30
0
  3
*Model_Space
  1

  0
ENDBLK
  5
21
330
1F
100
AcDbEntity
  8
0
100
AcDbBlockEnd
  0
BLOCK
  5
1C
330
1B
100
AcDbEntity
  8
0
100
AcDbBlockBegin
  2
*Paper_Space
 70
    0
 10
0
 20
0
 30
0
  3
*Paper_Space
  1

  0
ENDBLK
  5
1D
330
1F
100
AcDbEntity
  8
0
100
AcDbBlockEnd
  0
ENDSEC
  0
SECTION
  2
ENTITIES
  0
LINE
  5
4F
100
AcDbEntity
  8
edge_cuts
  6
ByLayer
 62
    2
370
   -1
100
AcDbLine
 10
293.276235
 20
9.525500000000008
 11
293.432235
 21
9.518800000000013
  0
LINE
  5
50
100
AcDbEntity
  8
edge_cuts
  6
ByLayer
 62
    2
370
   -1
100
AcDbLine
 10
293.432235
 20
9.518800000000013
 11
293.587235
 21
9.500800000000012
  0
LINE
  5
51
100
AcDbEntity
  8
edge_cuts
  6
ByLayer
 62
    2
370
   -1
100
AcDbLine
 10
293.587235
 20
9.500800000000012
 11
293.742235
 21
9.470500000000015
  0
LINE
  5
52
100
AcDbEntity
  8
edge_cuts
  6
ByLayer
 62
    2
370
   -1
100
AcDbLine
 10
293.742235
 20
9.470500000000015
 11
293.893235
 21
9.427800000000019
  0
LINE
  5
53
100
AcDbEntity
  8
edge_cuts
  6
ByLayer
 62
    2
370
   -1
100
AcDbLine
 10
293.893235
 20
9.427800000000019
 11
294.041235
 21
9.372800000000012
  0
LINE
  5
54
100
AcDbEntity
  8
edge_cuts
  6
ByLayer
 62
    2
370
   -1
100
AcDbLine
 10
294.041235
 20
9.372800000000012
 11
294.183235
 21
9.307900000000018
  0
LINE
  5
55
100
AcDbEntity
  8
edge_cuts
  6
ByLayer
 62
    2
370
   -1
100
AcDbLine
 10
294.183235
 20
9.307900000000018
 11
294.319235
 21
9.231000000000009
  0
LINE
  5
56
100
AcDbEntity
  8
edge_cuts
  6
ByLayer
 62
    2
370
   -1
100
AcDbLine
 10
294.319235
 20
9.231000000000009
 11
294.450235
 21
9.143800000000013
  0
LINE
  5
57
100
AcDbEntity
  8
edge_cuts
  6
ByLayer
 62
    2
370
   -1
100
AcDbLine
 10
294.450235
 20
9.143800000000013
 11
294.574235
 21
9.04610000000001
  0
LINE
  5
58
100
AcDbEntity
  8
edge_cuts
  6
ByLayer
 62
    2
370
   -1
100
AcDbLine
 10
294.574235
 20
9.04610000000001
 11
294.690235
 21
8.939900000000009
  0
LINE
  5
59
100
AcDbEntity
  8
edge_cuts
  6
ByLayer
 62
    2
370
   -1
100
AcDbLine
 10
294.690235
 20
8.939900000000009
 11
294.796235
 21
8.824200000000019
  0
LINE
  5
5A
100
AcDbEntity
  8
edge_cuts
  6
ByLayer
 62
    2
370
   -1
100
AcDbLine
 10
294.796235
 20
8.824200000000019
 11
294.894235
 21
8.70180000000002
  0
LINE
  5
5B
100
AcDbEntity
  8
edge_cuts
  6
ByLayer
 62
    2
370
   -1
100
AcDbLine
 10
294.894235
 20
8.70180000000002
 11
294.981235
 21
8.570600000000013
  0
LINE
  5
5C
100
AcDbEntity
  8
edge_cuts
  6
ByLayer
 62
    2
370
   -1
100
AcDbLine
 10
294.981235
 20
8.570600000000013
 11
295.058235
 21
8.433000000000021
  0
LINE
  5
5D
100
AcDbEntity
  8
edge_cuts
  6
ByLayer
 62
    2
370
   -1
100
AcDbLine
 10
295.058235
 20
8.433000000000021
 11
295.123235
 21
8.290800000000019
  0
LINE
  5
5E
100
AcDbEntity
  8
edge_cuts
  6
ByLayer
 62
    2
370
   -1
100
AcDbLine
 10
295.123235
 20
8.290800000000019
 11
295.178235
 21
8.144800000000018
  0
LINE
  5
5F
100
AcDbEntity
  8
edge_cuts
  6
ByLayer
 62
    2
370
   -1
100
AcDbLine
 10
295.178235
 20
8.144800000000018
 11
295.219235
 21
7.992000000000019
  0
LINE
  5
60
100
AcDbEntity
  8
edge_cuts
  6
ByLayer
 62
    2
370
   -1
100
AcDbLine
 10
295.219235
 20
7.992000000000019
 11
295.251235
 21
7.83890000000001
  0
LINE
  5
61
100
AcDbEntity
  8
edge_cuts
  6
ByLayer
 62
    2
370
   -1
100
AcDbLine
 10
295.251235
 20
7.83890000000001
 11
295.269235
 21
7.681900000000013
  0
LINE
  5
62
100
AcDbEntity
  8
edge_cuts
  6
ByLayer
 62
    2
370
   -1
100
AcDbLine
 10
295.269235
 20
7.681900000000013
 11
295.275235
 21
7.524900000000017
  0
LINE
  5
63
100
AcDbEntity
  8
edge_cuts
  6
ByLayer
 62
    2
370
   -1
100
AcDbLine
 10
295.275235
 20
7.524900000000017
 11
295.275235
 21
-83.72476999999998
  0
LINE
  5
64
100
AcDbEntity
  8
edge_cuts
  6
ByLayer
 62
    2
370
   -1
100
AcDbLine
 10
295.275235
 20
-83.72476999999998
 11
295.269235
 21
-83.88186999999999
  0
LINE
  5
65
100
AcDbEntity
  8
edge_cuts
  6
ByLayer
 62
    2
370
   -1
100
AcDbLine
 10
295.269235
 20
-83.88186999999999
 11
295.251235
 21
-84.03758999999998
  0
LINE
  5
66
100
AcDbEntity
  8
edge_cuts
  6
ByLayer
 62
    2
370
   -1
100
AcDbLine
 10
295.251235
 20
-84.03758999999998
 11
295.219235
 21
-84.19192999999999
  0
LINE
  5
67
100
AcDbEntity
  8
edge_cuts
  6
ByLayer
 62
    2
370
   -1
100
AcDbLine
 10
295.219235
 20
-84.19192999999999
 11
295.178235
 21
-84.34350999999998
  0
LINE
  5
68
100
AcDbEntity
  8
edge_cuts
  6
ByLayer
 62
    2
370
   -1
100
AcDbLine
 10
295.178235
 20
-84.34350999999998
 11
295.123235
 21
-84.49095999999999
  0
LINE
  5
69
100
AcDbEntity
  8
edge_cuts
  6
ByLayer
 62
    2
370
   -1
100
AcDbLine
 10
295.123235
 20
-84.49095999999999
 11
295.058235
 21
-84.63289999999998
  0
LINE
  5
6A
100
AcDbEntity
  8
edge_cuts
  6
ByLayer
 62
    2
370
   -1
100
AcDbLine
 10
295.058235
 20
-84.63289999999998
 11
294.981235
 21
-84.76932999999998
  0
LINE
  5
6B
100
AcDbEntity
  8
edge_cuts
  6
ByLayer
 62
    2
370
   -1
100
AcDbLine
 10
294.981235
 20
-84.76932999999998
 11
294.894235
 21
-84.90023999999998
  0
LINE
  5
6C
100
AcDbEntity
  8
edge_cuts
  6
ByLayer
 62
    2
370
   -1
100
AcDbLine
 10
294.894235
 20
-84.90023999999998
 11
294.796235
 21
-85.02426499999999
  0
LINE
  5
6D
100
AcDbEntity
  8
edge_cuts
  6
ByLayer
 62
    2
370
   -1
100
AcDbLine
 10
294.796235
 20
-85.02426499999999
 11
294.690235
 21
-85.14001799999998
  0
LINE
  5
6E
100
AcDbEntity
  8
edge_cuts
  6
ByLayer
 62
    2
370
   -1
100
AcDbLine
 10
294.690235
 20
-85.14001799999998
 11
294.574235
 21
-85.24612699999999
  0
LINE
  5
6F
100
AcDbEntity
  8
edge_cuts
  6
ByLayer
 62
    2
370
   -1
100
AcDbLine
 10
294.574235
 20
-85.24612699999999
 11
294.450235
 21
-85.34396999999998
  0
LINE
  5
70
100
AcDbEntity
  8
edge_cuts
  6
ByLayer
 62
    2
370
   -1
100
AcDbLine
 10
294.450235
 20
-85.34396999999998
 11
294.319235
 21
-85.43078499999999
  0
LINE
  5
71
100
AcDbEntity
  8
edge_cuts
  6
ByLayer
 62
    2
370
   -1
100
AcDbLine
 10
294.319235
 20
-85.43078499999999
 11
294.183235
 21
-85.50795499999998
  0
LINE
  5
72
100
AcDbEntity
  8
edge_cuts
  6
ByLayer
 62
    2
370
   -1
100
AcDbLine
 10
294.183235
 20
-85.50795499999998
 11
294.041235
 21
-85.57272099999999
  0
LINE
  5
73
100
AcDbEntity
  8
edge_cuts
  6
ByLayer
 62
    2
370
   -1
100
AcDbLine
 10
294.041235
 20
-85.57272099999999
 11
293.893235
 21
-85.62784299999998
  0
LINE
  5
74
100
AcDbEntity
  8
edge_cuts
  6
ByLayer
 62
    2
370
   -1
100
AcDbLine
 10
293.893235
 20
-85.62784299999998
 11
293.742235
 21
-85.66918499999998
  0
LINE
  5
75
100
AcDbEntity
  8
edge_cuts
  6
ByLayer
 62
    2
370
   -1
100
AcDbLine
 10
293.742235
 20
-85.66918499999998
 11
293.587235
 21
-85.70087999999998
  0
LINE
  5
76
100
AcDbEntity
  8
edge_cuts
  6
ByLayer
 62
    2
370
   -1
100
AcDbLine
 10
293.587235
 20
-85.70087999999998
 11
293.432235
 21
-85.71879499999999
  0
LINE
  5
77
100
AcDbEntity
  8
edge_cuts
  6
ByLayer
 62
    2
370
   -1
100
AcDbLine
 10
293.432235
 20
-85.71879499999999
 11
293.276235
 21
-85.72430699999998
  0
LINE
  5
78
100
AcDbEntity
  8
edge_cuts
  6
ByLayer
 62
    2
370
   -1
100
AcDbLine
 10
293.276235
 20
-85.72430699999998
 11
-7.524764999999991
 21
-85.72430699999998
  0
LINE
  5
79
100
AcDbEntity
  8
edge_cuts
  6
ByLayer
 62
    2
370
   -1
100
AcDbLine
 10
-7.524764999999991
 20
-85.72430699999998
 11
-7.681864999999991
 21
-85.71879499999999
  0
LINE
  5
7A
100
AcDbEntity
  8
edge_cuts
  6
ByLayer
 62
    2
370
   -1
100
AcDbLine
 10
-7.681864999999991
 20
-85.71879499999999
 11
-7.838964999999991
 21
-85.70087999999998
  0
LINE
  5
7B
100
AcDbEntity
  8
edge_cuts
  6
ByLayer
 62
    2
370
   -1
100
AcDbLine
 10
-7.838964999999991
 20
-85.70087999999998
 11
-7.991924999999991
 21
-85.66918499999998
  0
LINE
  5
7C
100
AcDbEntity
  8
edge_cuts
  6
ByLayer
 62
    2
370
   -1
100
AcDbLine
 10
-7.991924999999991
 20
-85.66918499999998
 11
-8.144884999999991
 21
-85.62784299999998
  0
LINE
  5
7D
100
AcDbEntity
  8
edge_cuts
  6
ByLayer
 62
    2
370
   -1
100
AcDbLine
 10
-8.144884999999991
 20
-85.62784299999998
 11
-8.290954999999991
 21
-85.57272099999999
  0
LINE
  5
7E
100
AcDbEntity
  8
edge_cuts
  6
ByLayer
 62
    2
370
   -1
100
AcDbLine
 10
-8.290954999999991
 20
-85.57272099999999
 11
-8.432894999999991
 21
-85.50795499999998
  0
LINE
  5
7F
100
AcDbEntity
  8
edge_cuts
  6
ByLayer
 62
    2
370
   -1
100
AcDbLine
 10
-8.432894999999991
 20
-85.50795499999998
 11
-8.570704999999991
 21
-85.43078499999999
  0
LINE
  5
80
100
AcDbEntity
  8
edge_cuts
  6
ByLayer
 62
    2
370
   -1
100
AcDbLine
 10
-8.570704999999991
 20
-85.43078499999999
 11
-8.701612999999991
 21
-85.34396999999998
  0
LINE
  5
81
100
AcDbEntity
  8
edge_cuts
  6
ByLayer
 62
    2
370
   -1
100
AcDbLine
 10
-8.701612999999991
 20
-85.34396999999998
 11
-8.824259999999992
 21
-85.24612699999999
  0
LINE
  5
82
100
AcDbEntity
  8
edge_cuts
  6
ByLayer
 62
    2
370
   -1
100
AcDbLine
 10
-8.824259999999992
 20
-85.24612699999999
 11
-8.940012999999992
 21
-85.14001799999998
  0
LINE
  5
83
100
AcDbEntity
  8
edge_cuts
  6
ByLayer
 62
    2
370
   -1
100
AcDbLine
 10
-8.940012999999992
 20
-85.14001799999998
 11
-9.046121999999992
 21
-85.02426499999999
  0
LINE
  5
84
100
AcDbEntity
  8
edge_cuts
  6
ByLayer
 62
    2
370
   -1
100
AcDbLine
 10
-9.046121999999992
 20
-85.02426499999999
 11
-9.143964999999991
 21
-84.90023999999998
  0
LINE
  5
85
100
AcDbEntity
  8
edge_cuts
  6
ByLayer
 62
    2
370
   -1
100
AcDbLine
 10
-9.143964999999991
 20
-84.90023999999998
 11
-9.230779999999992
 21
-84.76932999999998
  0
LINE
  5
86
100
AcDbEntity
  8
edge_cuts
  6
ByLayer
 62
    2
370
   -1
100
AcDbLine
 10
-9.230779999999992
 20
-84.76932999999998
 11
-9.307949999999991
 21
-84.63289999999998
  0
LINE
  5
87
100
AcDbEntity
  8
edge_cuts
  6
ByLayer
 62
    2
370
   -1
100
AcDbLine
 10
-9.307949999999991
 20
-84.63289999999998
 11
-9.372717999999992
 21
-84.49095999999999
  0
LINE
  5
88
100
AcDbEntity
  8
edge_cuts
  6
ByLayer
 62
    2
370
   -1
100
AcDbLine
 10
-9.372717999999992
 20
-84.49095999999999
 11
-9.427839999999991
 21
-84.34350999999998
  0
LINE
  5
89
100
AcDbEntity
  8
edge_cuts
  6
ByLayer
 62
    2
370
   -1
100
AcDbLine
 10
-9.427839999999991
 20
-84.34350999999998
 11
-9.470558999999991
 21
-84.19192999999999
  0
LINE
  5
8A
100
AcDbEntity
  8
edge_cuts
  6
ByLayer
 62
    2
370
   -1
100
AcDbLine
 10
-9.470558999999991
 20
-84.19192999999999
 11
-9.500875999999991
 21
-84.03758999999998
  0
LINE
  5
8B
100
AcDbEntity
  8
edge_cuts
  6
ByLayer
 62
    2
370
   -1
100
AcDbLine
 10
-9.500875999999991
 20
-84.03758999999998
 11
-9.518789999999992
 21
-83.88186999999999
  0
LINE
  5
8C
100
AcDbEntity
  8
edge_cuts
  6
ByLayer
 62
    2
370
   -1
100
AcDbLine
 10
-9.518789999999992
 20
-83.88186999999999
 11
-9.525680399999992
 21
-83.72614999999999
  0
LINE
  5
8D
100
AcDbEntity
  8
edge_cuts
  6
ByLayer
 62
    2
370
   -1
100
AcDbLine
 10
87.72033500000001
 20
9.525500000000008
 11
293.276235
 21
9.525500000000008
  0
ARC
  5
8E
100
AcDbEntity
  8
edge_cuts
  6
ByLayer
 62
    2
370
   -1
100
AcDbCircle
 10
87.72033500000001
 20
7.525500000000008
 40
2
100
AcDbArc
 50
90
 51
180
  0
LINE
  5
8F
100
AcDbEntity
  8
edge_cuts
  6
ByLayer
 62
    2
370
   -1
100
AcDbLine
 10
85.72033500000001
 20
7.525500000000008
 11
85.72033499999999
 21
-45.62039999999998
  0
ARC
  5
90
100
AcDbEntity
  8
edge_cuts
  6
ByLayer
 62
    2
370
   -1
100
AcDbCircle
 10
83.72033499999998
 20
-45.62039999999998
 40
2
100
AcDbArc
 50
270
 51
0
  0
LINE
  5
91
100
AcDbEntity
  8
edge_cuts
  6
ByLayer
 62
    2
370
   -1
100
AcDbLine
 10
-9.525680399999992
 20
-83.72614999999999
 11
-9.525680399999992
 21
-49.62039999999999
  0
LINE
  5
92
100
AcDbEntity
  8
edge_cuts
  6
ByLayer
 62
    2
370
   -1
100
AcDbLine
 10
-7.525680399999992
 20
-47.62039999999998
 11
83.72033499999998
 21
-47.62039999999998
  0
ARC
  5
93
100
AcDbEntity
  8
edge_cuts
  6
ByLayer
 62
    2
370
   -1
100
AcDbCircle
 10
-7.525680399999992
 20
-49.62039999999998
 40
2
100
AcDbArc
 50
90
 51
180.0000000000002
  0
LINE
  5
94
100
AcDbEntity
  8
user_drawings
  6
ByLayer
 62
  253
420
10526884
370
   -1
100
AcDbLine
 10
278.750235
 20
-69.20029999999998
 11
292.749235
 21
-69.20029999999998
  0
LINE
  5
95
100
AcDbEntity
  8
user_drawings
  6
ByLayer
 62
  253
420
10526884
370
   -1
100
AcDbLine
 10
292.749235
 20
-69.20029999999998
 11
292.749235
 21
-83.19973999999999
  0
LINE
  5
96
100
AcDbEntity
  8
user_drawings
  6
ByLayer
 62
  253
420
10526884
370
   -1
100
AcDbLine
 10
292.749235
 20
-83.19973999999999
 11
278.750235
 21
-83.19973999999999
  0
LINE
  5
97
100
AcDbEntity
  8
user_drawings
  6
ByLayer
 62
  253
420
10526884
370
   -1
100
AcDbLine
 10
278.750235
 20
-83.19973999999999
 11
278.750235
 21
-69.20029999999998
  0
LINE
  5
98
100
AcDbEntity
  8
user_drawings
  6
ByLayer
 62
  253
420
10526884
370
   -1
100
AcDbLine
 10
259.700235
 20
-69.20029999999998
 11
273.699235
 21
-69.20029999999998
  0
LINE
  5
99
100
AcDbEntity
  8
user_drawings
  6
ByLayer
 62
  253
420
10526884
370
   -1
100
AcDbLine
 10
273.699235
 20
-69.20029999999998
 11
273.699235
 21
-83.19973999999999
  0
LINE
  5
9A
100
AcDbEntity
  8
user_drawings
  6
ByLayer
 62
  253
420
10526884
370
   -1
100
AcDbLine
 10
273.699235
 20
-83.19973999999999
 11
259.700235
 21
-83.19973999999999
  0
LINE
  5
9B
100
AcDbEntity
  8
user_drawings
  6
ByLayer
 62
  253
420
10526884
370
   -1
100
AcDbLine
 10
259.700235
 20
-83.19973999999999
 11
259.700235
 21
-69.20029999999998
  0
LINE
  5
9C
100
AcDbEntity
  8
user_drawings
  6
ByLayer
 62
  253
420
10526884
370
   -1
100
AcDbLine
 10
240.650235
 20
-69.20029999999998
 11
254.649235
 21
-69.20029999999998
  0
LINE
  5
9D
100
AcDbEntity
  8
user_drawings
  6
ByLayer
 62
  253
420
10526884
370
   -1
100
AcDbLine
 10
254.649235
 20
-69.20029999999998
 11
254.649235
 21
-83.19973999999999
  0
LINE
  5
9E
100
AcDbEntity
  8
user_drawings
  6
ByLayer
 62
  253
420
10526884
370
   -1
100
AcDbLine
 10
254.649235
 20
-83.19973999999999
 11
240.650235
 21
-83.19973999999999
  0
LINE
  5
9F
100
AcDbEntity
  8
user_drawings
  6
ByLayer
 62
  253
420
10526884
370
   -1
100
AcDbLine
 10
240.650235
 20
-83.19973999999999
 11
240.650235
 21
-69.20029999999998
  0
LINE
  5
A0
100
AcDbEntity
  8
user_drawings
  6
ByLayer
 62
  253
420
10526884
370
   -1
100
AcDbLine
 10
221.600235
 20
-69.20029999999998
 11
235.599235
 21
-69.20029999999998
  0
LINE
  5
A1
100
AcDbEntity
  8
user_drawings
  6
ByLayer
 62
  253
420
10526884
370
   -1
100
AcDbLine
 10
235.599235
 20
-69.20029999999998
 11
235.599235
 21
-83.19973999999999
  0
LINE
  5
A2
100
AcDbEntity
  8
user_drawings
  6
ByLayer
 62
  253
420
10526884
370
   -1
100
AcDbLine
 10
235.599235
 20
-83.19973999999999
 11
221.600235
 21
-83.19973999999999
  0
LINE
  5
A3
100
AcDbEntity
  8
user_drawings
  6
ByLayer
 62
  253
420
10526884
370
   -1
100
AcDbLine
 10
221.600235
 20
-83.19973999999999
 11
221.600235
 21
-69.20029999999998
  0
LINE
  5
A4
100
AcDbEntity
  8
user_drawings
  6
ByLayer
 62
  253
420
10526884
370
   -1
100
AcDbLine
 10
202.550235
 20
-69.20029999999998
 11
216.549235
 21
-69.20029999999998
  0
LINE
  5
A5
100
AcDbEntity
  8
user_drawings
  6
ByLayer
 62
  253
420
10526884
370
   -1
100
AcDbLine
 10
216.549235
 20
-69.20029999999998
 11
216.549235
 21
-83.19973999999999
  0
LINE
  5
A6
100
AcDbEntity
  8
user_drawings
  6
ByLayer
 62
  253
420
10526884
370
   -1
100
AcDbLine
 10
216.549235
 20
-83.19973999999999
 11
202.550235
 21
-83.19973999999999
  0
LINE
  5
A7
100
AcDbEntity
  8
user_drawings
  6
ByLayer
 62
  253
420
10526884
370
   -1
100
AcDbLine
 10
202.550235
 20
-83.19973999999999
 11
202.550235
 21
-69.20029999999998
  0
LINE
  5
A8
100
AcDbEntity
  8
user_drawings
  6
ByLayer
 62
  253
420
10526884
370
   -1
100
AcDbLine
 10
183.500235
 20
-69.20029999999998
 11
197.499235
 21
-69.20029999999998
  0
LINE
  5
A9
100
AcDbEntity
  8
user_drawings
  6
ByLayer
 62
  253
420
10526884
370
   -1
100
AcDbLine
 10
197.499235
 20
-69.20029999999998
 11
197.499235
 21
-83.19973999999999
  0
LINE
  5
AA
100
AcDbEntity
  8
user_drawings
  6
ByLayer
 62
  253
420
10526884
370
   -1
100
AcDbLine
 10
197.499235
 20
-83.19973999999999
 11
183.500235
 21
-83.19973999999999
  0
LINE
  5
AB
100
AcDbEntity
  8
user_drawings
  6
ByLayer
 62
  253
420
10526884
370
   -1
100
AcDbLine
 10
183.500235
 20
-83.19973999999999
 11
183.500235
 21
-69.20029999999998
  0
LINE
  5
AC
100
AcDbEntity
  8
user_drawings
  6
ByLayer
 62
  253
420
10526884
370
   -1
100
AcDbLine
 10
164.450235
 20
-69.20029999999998
 11
178.449235
 21
-69.20029999999998
  0
LINE
  5
AD
100
AcDbEntity
  8
user_drawings
  6
ByLayer
 62
  253
420
10526884
370
   -1
100
AcDbLine
 10
178.449235
 20
-69.20029999999998
 11
178.449235
 21
-83.19973999999999
  0
LINE
  5
AE
100
AcDbEntity
  8
user_drawings
  6
ByLayer
 62
  253
420
10526884
370
   -1
100
AcDbLine
 10
178.449235
 20
-83.19973999999999
 11
164.450235
 21
-83.19973999999999
  0
LINE
  5
AF
100
AcDbEntity
  8
user_drawings
  6
ByLayer
 62
  253
420
10526884
370
   -1
100
AcDbLine
 10
164.450235
 20
-83.19973999999999
 11
164.450235
 21
-69.20029999999998
  0
LINE
  5
B0
100
AcDbEntity
  8
user_drawings
  6
ByLayer
 62
  253
420
10526884
370
   -1
100
AcDbLine
 10
145.400235
 20
-69.20029999999998
 11
159.399235
 21
-69.20029999999998
  0
LINE
  5
B1
100
AcDbEntity
  8
user_drawings
  6
ByLayer
 62
  253
420
10526884
370
   -1
100
AcDbLine
 10
159.399235
 20
-69.20029999999998
 11
159.399235
 21
-83.19973999999999
  0
LINE
  5
B2
100
AcDbEntity
  8
user_drawings
  6
ByLayer
 62
  253
420
10526884
370
   -1
100
AcDbLine
 10
159.399235
 20
-83.19973999999999
 11
145.400235
 21
-83.19973999999999
  0
LINE
  5
B3
100
AcDbEntity
  8
user_drawings
  6
ByLayer
 62
  253
420
10526884
370
   -1
100
AcDbLine
 10
145.400235
 20
-83.19973999999999
 11
145.400235
 21
-69.20029999999998
  0
LINE
  5
B4
100
AcDbEntity
  8
user_drawings
  6
ByLayer
 62
  253
420
10526884
370
   -1
100
AcDbLine
 10
126.350235
 20
-69.20029999999998
 11
140.349235
 21
-69.20029999999998
  0
LINE
  5
B5
100
AcDbEntity
  8
user_drawings
  6
ByLayer
 62
  253
420
10526884
370
   -1
100
AcDbLine
 10
140.349235
 20
-69.20029999999998
 11
140.349235
 21
-83.19973999999999
  0
LINE
  5
B6
100
AcDbEntity
  8
user_drawings
  6
ByLayer
 62
  253
420
10526884
370
   -1
100
AcDbLine
 10
140.349235
 20
-83.19973999999999
 11
126.350235
 21
-83.19973999999999
  0
LINE
  5
B7
100
AcDbEntity
  8
user_drawings
  6
ByLayer
 62
  253
420
10526884
370
   -1
100
AcDbLine
 10
126.350235
 20
-83.19973999999999
 11
126.350235
 21
-69.20029999999998
  0
LINE
  5
B8
100
AcDbEntity
  8
user_drawings
  6
ByLayer
 62
  253
420
10526884
370
   -1
100
AcDbLine
 10
107.299235
 20
-69.20029999999998
 11
121.299235
 21
-69.20029999999998
  0
LINE
  5
B9
100
AcDbEntity
  8
user_drawings
  6
ByLayer
 62
  253
420
10526884
370
   -1
100
AcDbLine
 10
121.299235
 20
-69.20029999999998
 11
121.299235
 21
-83.19973999999999
  0
LINE
  5
BA
100
AcDbEntity
  8
user_drawings
  6
ByLayer
 62
  253
420
10526884
370
   -1
100
AcDbLine
 10
121.299235
 20
-83.19973999999999
 11
107.299235
 21
-83.19973999999999
  0
LINE
  5
BB
100
AcDbEntity
  8
user_drawings
  6
ByLayer
 62
  253
420
10526884
370
   -1
100
AcDbLine
 10
107.299235
 20
-83.19973999999999
 11
107.299235
 21
-69.20029999999998
  0
LINE
  5
BC
100
AcDbEntity
  8
user_drawings
  6
ByLayer
 62
  253
420
10526884
370
   -1
100
AcDbLine
 10
88.248935
 20
-69.20029999999998
 11
102.248235
 21
-69.20029999999998
  0
LINE
  5
BD
100
AcDbEntity
  8
user_drawings
  6
ByLayer
 62
  253
420
10526884
370
   -1
100
AcDbLine
 10
102.248235
 20
-69.20029999999998
 11
102.248235
 21
-83.19973999999999
  0
LINE
  5
BE
100
AcDbEntity
  8
user_drawings
  6
ByLayer
 62
  253
420
10526884
370
   -1
100
AcDbLine
 10
102.248235
 20
-83.19973999999999
 11
88.248935
 21
-83.19973999999999
  0
LINE
  5
BF
100
AcDbEntity
  8
user_drawings
  6
ByLayer
 62
  253
420
10526884
370
   -1
100
AcDbLine
 10
88.248935
 20
-83.19973999999999
 11
88.248935
 21
-69.20029999999998
  0
LINE
  5
C0
100
AcDbEntity
  8
user_drawings
  6
ByLayer
 62
  253
420
10526884
370
   -1
100
AcDbLine
 10
69.20033500000001
 20
-69.20029999999998
 11
83.19963500000001
 21
-69.20029999999998
  0
LINE
  5
C1
100
AcDbEntity
  8
user_drawings
  6
ByLayer
 62
  253
420
10526884
370
   -1
100
AcDbLine
 10
83.19963500000001
 20
-69.20029999999998
 11
83.19963500000001
 21
-83.19973999999999
  0
LINE
  5
C2
100
AcDbEntity
  8
user_drawings
  6
ByLayer
 62
  253
420
10526884
370
   -1
100
AcDbLine
 10
83.19963500000001
 20
-83.19973999999999
 11
69.20033500000001
 21
-83.19973999999999
  0
LINE
  5
C3
100
AcDbEntity
  8
user_drawings
  6
ByLayer
 62
  253
420
10526884
370
   -1
100
AcDbLine
 10
69.20033500000001
 20
-83.19973999999999
 11
69.20033500000001
 21
-69.20029999999998
  0
LINE
  5
C4
100
AcDbEntity
  8
user_drawings
  6
ByLayer
 62
  253
420
10526884
370
   -1
100
AcDbLine
 10
50.15033500000001
 20
-69.20029999999998
 11
64.149635
 21
-69.20029999999998
  0
LINE
  5
C5
100
AcDbEntity
  8
user_drawings
  6
ByLayer
 62
  253
420
10526884
370
   -1
100
AcDbLine
 10
64.149635
 20
-69.20029999999998
 11
64.149635
 21
-83.19973999999999
  0
LINE
  5
C6
100
AcDbEntity
  8
user_drawings
  6
ByLayer
 62
  253
420
10526884
370
   -1
100
AcDbLine
 10
64.149635
 20
-83.19973999999999
 11
50.15033500000001
 21
-83.19973999999999
  0
LINE
  5
C7
100
AcDbEntity
  8
user_drawings
  6
ByLayer
 62
  253
420
10526884
370
   -1
100
AcDbLine
 10
50.15033500000001
 20
-83.19973999999999
 11
50.15033500000001
 21
-69.20029999999998
  0
LINE
  5
C8
100
AcDbEntity
  8
user_drawings
  6
ByLayer
 62
  253
420
10526884
370
   -1
100
AcDbLine
 10
31.10033500000001
 20
-69.20029999999998
 11
45.09963500000001
 21
-69.20029999999998
  0
LINE
  5
C9
100
AcDbEntity
  8
user_drawings
  6
ByLayer
 62
  253
420
10526884
370
   -1
100
AcDbLine
 10
45.09963500000001
 20
-69.20029999999998
 11
45.09963500000001
 21
-83.19973999999999
  0
LINE
  5
CA
100
AcDbEntity
  8
user_drawings
  6
ByLayer
 62
  253
420
10526884
370
   -1
100
AcDbLine
 10
45.09963500000001
 20
-83.19973999999999
 11
31.10033500000001
 21
-83.19973999999999
  0
LINE
  5
CB
100
AcDbEntity
  8
user_drawings
  6
ByLayer
 62
  253
420
10526884
370
   -1
100
AcDbLine
 10
31.10033500000001
 20
-83.19973999999999
 11
31.10033500000001
 21
-69.20029999999998
  0
LINE
  5
CC
100
AcDbEntity
  8
user_drawings
  6
ByLayer
 62
  253
420
10526884
370
   -1
100
AcDbLine
 10
12.05023500000001
 20
-69.20029999999998
 11
26.04963500000001
 21
-69.20029999999998
  0
LINE
  5
CD
100
AcDbEntity
  8
user_drawings
  6
ByLayer
 62
  253
420
10526884
370
   -1
100
AcDbLine
 10
26.04963500000001
 20
-69.20029999999998
 11
26.04963500000001
 21
-83.19973999999999
  0
LINE
  5
CE
100
AcDbEntity
  8
user_drawings
  6
ByLayer
 62
  253
420
10526884
370
   -1
100
AcDbLine
 10
26.04963500000001
 20
-83.19973999999999
 11
12.05023500000001
 21
-83.19973999999999
  0
LINE
  5
CF
100
AcDbEntity
  8
user_drawings
  6
ByLayer
 62
  253
420
10526884
370
   -1
100
AcDbLine
 10
12.05023500000001
 20
-83.19973999999999
 11
12.05023500000001
 21
-69.20029999999998
  0
LINE
  5
D0
100
AcDbEntity
  8
user_drawings
  6
ByLayer
 62
  253
420
10526884
370
   -1
100
AcDbLine
 10
-6.999734999999991
 20
-69.20029999999998
 11
6.999735000000008
 21
-69.20029999999998
  0
LINE
  5
D1
100
AcDbEntity
  8
user_drawings
  6
ByLayer
 62
  253
420
10526884
370
   -1
100
AcDbLine
 10
6.999735000000008
 20
-69.20029999999998
 11
6.999735000000008
 21
-83.19973999999999
  0
LINE
  5
D2
100
AcDbEntity
  8
user_drawings
  6
ByLayer
 62
  253
420
10526884
370
   -1
100
AcDbLine
 10
6.999735000000008
 20
-83.19973999999999
 11
-6.999734999999991
 21
-83.19973999999999
  0
LINE
  5
D3
100
AcDbEntity
  8
user_drawings
  6
ByLayer
 62
  253
420
10526884
370
   -1
100
AcDbLine
 10
-6.999734999999991
 20
-83.19973999999999
 11
-6.999734999999991
 21
-69.20029999999998
  0
LINE
  5
D4
100
AcDbEntity
  8
user_drawings
  6
ByLayer
 62
  253
420
10526884
370
   -1
100
AcDbLine
 10
269.225235
 20
-50.15039999999998
 11
283.224235
 21
-50.15039999999998
  0
LINE
  5
D5
100
AcDbEntity
  8
user_drawings
  6
ByLayer
 62
  253
420
10526884
370
   -1
100
AcDbLine
 10
283.224235
 20
-50.15039999999998
 11
283.224235
 21
-64.14969999999998
  0
LINE
  5
D6
100
AcDbEntity
  8
user_drawings
  6
ByLayer
 62
  253
420
10526884
370
   -1
100
AcDbLine
 10
283.224235
 20
-64.14969999999998
 11
269.225235
 21
-64.14969999999998
  0
LINE
  5
D7
100
AcDbEntity
  8
user_drawings
  6
ByLayer
 62
  253
420
10526884
370
   -1
100
AcDbLine
 10
269.225235
 20
-64.14969999999998
 11
269.225235
 21
-50.15039999999998
  0
LINE
  5
D8
100
AcDbEntity
  8
user_drawings
  6
ByLayer
 62
  253
420
10526884
370
   -1
100
AcDbLine
 10
250.175235
 20
-50.15039999999998
 11
264.174235
 21
-50.15039999999998
  0
LINE
  5
D9
100
AcDbEntity
  8
user_drawings
  6
ByLayer
 62
  253
420
10526884
370
   -1
100
AcDbLine
 10
264.174235
 20
-50.15039999999998
 11
264.174235
 21
-64.14969999999998
  0
LINE
  5
DA
100
AcDbEntity
  8
user_drawings
  6
ByLayer
 62
  253
420
10526884
370
   -1
100
AcDbLine
 10
264.174235
 20
-64.14969999999998
 11
250.175235
 21
-64.14969999999998
  0
LINE
  5
DB
100
AcDbEntity
  8
user_drawings
  6
ByLayer
 62
  253
420
10526884
370
   -1
100
AcDbLine
 10
250.175235
 20
-64.14969999999998
 11
250.175235
 21
-50.15039999999998
  0
LINE
  5
DC
100
AcDbEntity
  8
user_drawings
  6
ByLayer
 62
  253
420
10526884
370
   -1
100
AcDbLine
 10
212.075235
 20
-50.15039999999998
 11
226.074235
 21
-50.15039999999998
  0
LINE
  5
DD
100
AcDbEntity
  8
user_drawings
  6
ByLayer
 62
  253
420
10526884
370
   -1
100
AcDbLine
 10
226.074235
 20
-50.15039999999998
 11
226.074235
 21
-64.14969999999998
  0
LINE
  5
DE
100
AcDbEntity
  8
user_drawings
  6
ByLayer
 62
  253
420
10526884
370
   -1
100
AcDbLine
 10
226.074235
 20
-64.14969999999998
 11
212.075235
 21
-64.14969999999998
  0
LINE
  5
DF
100
AcDbEntity
  8
user_drawings
  6
ByLayer
 62
  253
420
10526884
370
   -1
100
AcDbLine
 10
212.075235
 20
-64.14969999999998
 11
212.075235
 21
-50.15039999999998
  0
LINE
  5
E0
100
AcDbEntity
  8
user_drawings
  6
ByLayer
 62
  253
420
10526884
370
   -1
100
AcDbLine
 10
193.025235
 20
-50.15039999999998
 11
207.024235
 21
-50.15039999999998
  0
LINE
  5
E1
100
AcDbEntity
  8
user_drawings
  6
ByLayer
 62
  253
420
10526884
370
   -1
100
AcDbLine
 10
207.024235
 20
-50.15039999999998
 11
207.024235
 21
-64.14969999999998
  0
LINE
  5
E2
100
AcDbEntity
  8
user_drawings
  6
ByLayer
 62
  253
420
10526884
370
   -1
100
AcDbLine
 10
207.024235
 20
-64.14969999999998
 11
193.025235
 21
-64.14969999999998
  0
LINE
  5
E3
100
AcDbEntity
  8
user_drawings
  6
ByLayer
 62
  253
420
10526884
370
   -1
100
AcDbLine
 10
193.025235
 20
-64.14969999999998
 11
193.025235
 21
-50.15039999999998
  0
LINE
  5
E4
100
AcDbEntity
  8
user_drawings
  6
ByLayer
 62
  253
420
10526884
370
   -1
100
AcDbLine
 10
173.975235
 20
-50.15039999999998
 11
187.974235
 21
-50.15039999999998
  0
LINE
  5
E5
100
AcDbEntity
  8
user_drawings
  6
ByLayer
 62
  253
420
10526884
370
   -1
100
AcDbLine
 10
187.974235
 20
-50.15039999999998
 11
187.974235
 21
-64.14969999999998
  0
LINE
  5
E6
100
AcDbEntity
  8
user_drawings
  6
ByLayer
 62
  253
420
10526884
370
   -1
100
AcDbLine
 10
187.974235
 20
-64.14969999999998
 11
173.975235
 21
-64.14969999999998
  0
LINE
  5
E7
100
AcDbEntity
  8
user_drawings
  6
ByLayer
 62
  253
420
10526884
370
   -1
100
AcDbLine
 10
173.975235
 20
-64.14969999999998
 11
173.975235
 21
-50.15039999999998
  0
LINE
  5
E8
100
AcDbEntity
  8
user_drawings
  6
ByLayer
 62
  253
420
10526884
370
   -1
100
AcDbLine
 10
135.875235
 20
-50.15039999999998
 11
149.874235
 21
-50.15039999999998
  0
LINE
  5
E9
100
AcDbEntity
  8
user_drawings
  6
ByLayer
 62
  253
420
10526884
370
   -1
100
AcDbLine
 10
149.874235
 20
-50.15039999999998
 11
149.874235
 21
-64.14969999999998
  0
LINE
  5
EA
100
AcDbEntity
  8
user_drawings
  6
ByLayer
 62
  253
420
10526884
370
   -1
100
AcDbLine
 10
149.874235
 20
-64.14969999999998
 11
135.875235
 21
-64.14969999999998
  0
LINE
  5
EB
100
AcDbEntity
  8
user_drawings
  6
ByLayer
 62
  253
420
10526884
370
   -1
100
AcDbLine
 10
135.875235
 20
-64.14969999999998
 11
135.875235
 21
-50.15039999999998
  0
LINE
  5
EC
100
AcDbEntity
  8
user_drawings
  6
ByLayer
 62
  253
420
10526884
370
   -1
100
AcDbLine
 10
116.825235
 20
-50.15039999999998
 11
130.824235
 21
-50.15039999999998
  0
LINE
  5
ED
100
AcDbEntity
  8
user_drawings
  6
ByLayer
 62
  253
420
10526884
370
   -1
100
AcDbLine
 10
130.824235
 20
-50.15039999999998
 11
130.824235
 21
-64.14969999999998
  0
LINE
  5
EE
100
AcDbEntity
  8
user_drawings
  6
ByLayer
 62
  253
420
10526884
370
   -1
100
AcDbLine
 10
130.824235
 20
-64.14969999999998
 11
116.825235
 21
-64.14969999999998
  0
LINE
  5
EF
100
AcDbEntity
  8
user_drawings
  6
ByLayer
 62
  253
420
10526884
370
   -1
100
AcDbLine
 10
116.825235
 20
-64.14969999999998
 11
116.825235
 21
-50.15039999999998
  0
LINE
  5
F0
100
AcDbEntity
  8
user_drawings
  6
ByLayer
 62
  253
420
10526884
370
   -1
100
AcDbLine
 10
78.72533500000002
 20
-50.15039999999998
 11
92.72423500000001
 21
-50.15039999999998
  0
LINE
  5
F1
100
AcDbEntity
  8
user_drawings
  6
ByLayer
 62
  253
420
10526884
370
   -1
100
AcDbLine
 10
92.72423500000001
 20
-50.15039999999998
 11
92.72423500000001
 21
-64.14969999999998
  0
LINE
  5
F2
100
AcDbEntity
  8
user_drawings
  6
ByLayer
 62
  253
420
10526884
370
   -1
100
AcDbLine
 10
92.72423500000001
 20
-64.14969999999998
 11
78.72533500000002
 21
-64.14969999999998
  0
LINE
  5
F3
100
AcDbEntity
  8
user_drawings
  6
ByLayer
 62
  253
420
10526884
370
   -1
100
AcDbLine
 10
78.72533500000002
 20
-64.14969999999998
 11
78.72533500000002
 21
-50.15039999999998
  0
LINE
  5
F4
100
AcDbEntity
  8
user_drawings
  6
ByLayer
 62
  253
420
10526884
370
   -1
100
AcDbLine
 10
59.675335
 20
-50.15039999999998
 11
73.67463500000001
 21
-50.15039999999998
  0
LINE
  5
F5
100
AcDbEntity
  8
user_drawings
  6
ByLayer
 62
  253
420
10526884
370
   -1
100
AcDbLine
 10
73.67463500000001
 20
-50.15039999999998
 11
73.67463500000001
 21
-64.14969999999998
  0
LINE
  5
F6
100
AcDbEntity
  8
user_drawings
  6
ByLayer
 62
  253
420
10526884
370
   -1
100
AcDbLine
 10
73.67463500000001
 20
-64.14969999999998
 11
59.675335
 21
-64.14969999999998
  0
LINE
  5
F7
100
AcDbEntity
  8
user_drawings
  6
ByLayer
 62
  253
420
10526884
370
   -1
100
AcDbLine
 10
59.675335
 20
-64.14969999999998
 11
59.675335
 21
-50.15039999999998
  0
LINE
  5
F8
100
AcDbEntity
  8
user_drawings
  6
ByLayer
 62
  253
420
10526884
370
   -1
100
AcDbLine
 10
40.62533500000001
 20
-50.15039999999998
 11
54.62463500000001
 21
-50.15039999999998
  0
LINE
  5
F9
100
AcDbEntity
  8
user_drawings
  6
ByLayer
 62
  253
420
10526884
370
   -1
100
AcDbLine
 10
54.62463500000001
 20
-50.15039999999998
 11
54.62463500000001
 21
-64.14969999999998
  0
LINE
  5
FA
100
AcDbEntity
  8
user_drawings
  6
ByLayer
 62
  253
420
10526884
370
   -1
100
AcDbLine
 10
54.62463500000001
 20
-64.14969999999998
 11
40.62533500000001
 21
-64.14969999999998
  0
LINE
  5
FB
100
AcDbEntity
  8
user_drawings
  6
ByLayer
 62
  253
420
10526884
370
   -1
100
AcDbLine
 10
40.62533500000001
 20
-64.14969999999998
 11
40.62533500000001
 21
-50.15039999999998
  0
LINE
  5
FC
100
AcDbEntity
  8
user_drawings
  6
ByLayer
 62
  253
420
10526884
370
   -1
100
AcDbLine
 10
12.05023500000001
 20
-50.15039999999998
 11
26.04963500000001
 21
-50.15039999999998
  0
LINE
  5
FD
100
AcDbEntity
  8
user_drawings
  6
ByLayer
 62
  253
420
10526884
370
   -1
100
AcDbLine
 10
26.04963500000001
 20
-50.15039999999998
 11
26.04963500000001
 21
-64.14969999999998
  0
LINE
  5
FE
100
AcDbEntity
  8
user_drawings
  6
ByLayer
 62
  253
420
10526884
370
   -1
100
AcDbLine
 10
26.04963500000001
 20
-64.14969999999998
 11
12.05023500000001
 21
-64.14969999999998
  0
LINE
  5
FF
100
AcDbEntity
  8
user_drawings
  6
ByLayer
 62
  253
420
10526884
370
   -1
100
AcDbLine
 10
12.05023500000001
 20
-64.14969999999998
 11
12.05023500000001
 21
-50.15039999999998
  0
LINE
  5
100
100
AcDbEntity
  8
user_drawings
  6
ByLayer
 62
  253
420
10526884
370
   -1
100
AcDbLine
 10
-6.999734999999991
 20
-50.15039999999998
 11
6.999735000000008
 21
-50.15039999999998
  0
LINE
  5
101
100
AcDbEntity
  8
user_drawings
  6
ByLayer
 62
  253
420
10526884
370
   -1
100
AcDbLine
 10
6.999735000000008
 20
-50.15039999999998
 11
6.999735000000008
 21
-64.14969999999998
  0
LINE
  5
102
100
AcDbEntity
  8
user_drawings
  6
ByLayer
 62
  253
420
10526884
370
   -1
100
AcDbLine
 10
6.999735000000008
 20
-64.14969999999998
 11
-6.999734999999991
 21
-64.14969999999998
  0
LINE
  5
103
100
AcDbEntity
  8
user_drawings
  6
ByLayer
 62
  253
420
10526884
370
   -1
100
AcDbLine
 10
-6.999734999999991
 20
-64.14969999999998
 11
-6.999734999999991
 21
-50.15039999999998
  0
LINE
  5
104
100
AcDbEntity
  8
user_drawings
  6
ByLayer
 62
  253
420
10526884
370
   -1
100
AcDbLine
 10
278.750235
 20
-31.10039999999999
 11
292.749235
 21
-31.10039999999999
  0
LINE
  5
105
100
AcDbEntity
  8
user_drawings
  6
ByLayer
 62
  253
420
10526884
370
   -1
100
AcDbLine
 10
292.749235
 20
-31.10039999999999
 11
292.749235
 21
-45.09959999999999
  0
LINE
  5
106
100
AcDbEntity
  8
user_drawings
  6
ByLayer
 62
  253
420
10526884
370
   -1
100
AcDbLine
 10
292.749235
 20
-45.09959999999999
 11
278.750235
 21
-45.09959999999999
  0
LINE
  5
107
100
AcDbEntity
  8
user_drawings
  6
ByLayer
 62
  253
420
10526884
370
   -1
100
AcDbLine
 10
278.750235
 20
-45.09959999999999
 11
278.750235
 21
-31.10039999999999
  0
LINE
  5
108
100
AcDbEntity
  8
user_drawings
  6
ByLayer
 62
  253
420
10526884
370
   -1
100
AcDbLine
 10
259.700235
 20
-31.10039999999999
 11
273.699235
 21
-31.10039999999999
  0
LINE
  5
109
100
AcDbEntity
  8
user_drawings
  6
ByLayer
 62
  253
420
10526884
370
   -1
100
AcDbLine
 10
273.699235
 20
-31.10039999999999
 11
273.699235
 21
-45.09959999999999
  0
LINE
  5
10A
100
AcDbEntity
  8
user_drawings
  6
ByLayer
 62
  253
420
10526884
370
   -1
100
AcDbLine
 10
273.699235
 20
-45.09959999999999
 11
259.700235
 21
-45.09959999999999
  0
LINE
  5
10B
100
AcDbEntity
  8
user_drawings
  6
ByLayer
 62
  253
420
10526884
370
   -1
100
AcDbLine
 10
259.700235
 20
-45.09959999999999
 11
259.700235
 21
-31.10039999999999
  0
LINE
  5
10C
100
AcDbEntity
  8
user_drawings
  6
ByLayer
 62
  253
420
10526884
370
   -1
100
AcDbLine
 10
240.650235
 20
-31.10039999999999
 11
254.649235
 21
-31.10039999999999
  0
LINE
  5
10D
100
AcDbEntity
  8
user_drawings
  6
ByLayer
 62
  253
420
10526884
370
   -1
100
AcDbLine
 10
254.649235
 20
-31.10039999999999
 11
254.649235
 21
-45.09959999999999
  0
LINE
  5
10E
100
AcDbEntity
  8
user_drawings
  6
ByLayer
 62
  253
420
10526884
370
   -1
100
AcDbLine
 10
254.649235
 20
-45.09959999999999
 11
240.650235
 21
-45.09959999999999
  0
LINE
  5
10F
100
AcDbEntity
  8
user_drawings
  6
ByLayer
 62
  253
420
10526884
370
   -1
100
AcDbLine
 10
240.650235
 20
-45.09959999999999
 11
240.650235
 21
-31.10039999999999
  0
LINE
  5
110
100
AcDbEntity
  8
user_drawings
  6
ByLayer
 62
  253
420
10526884
370
   -1
100
AcDbLine
 10
221.600235
 20
-31.10039999999999
 11
235.599235
 21
-31.10039999999999
  0
LINE
  5
111
100
AcDbEntity
  8
user_drawings
  6
ByLayer
 62
  253
420
10526884
370
   -1
100
AcDbLine
 10
235.599235
 20
-31.10039999999999
 11
235.599235
 21
-45.09959999999999
  0
LINE
  5
112
100
AcDbEntity
  8
user_drawings
  6
ByLayer
 62
  253
420
10526884
370
   -1
100
AcDbLine
 10
235.599235
 20
-45.09959999999999
 11
221.600235
 21
-45.09959999999999
  0
LINE
  5
113
100
AcDbEntity
  8
user_drawings
  6
ByLayer
 62
  253
420
10526884
370
   -1
100
AcDbLine
 10
221.600235
 20
-45.09959999999999
 11
221.600235
 21
-31.10039999999999
  0
LINE
  5
114
100
AcDbEntity
  8
user_drawings
  6
ByLayer
 62
  253
420
10526884
370
   -1
100
AcDbLine
 10
202.550235
 20
-31.10039999999999
 11
216.549235
 21
-31.10039999999999
  0
LINE
  5
115
100
AcDbEntity
  8
user_drawings
  6
ByLayer
 62
  253
420
10526884
370
   -1
100
AcDbLine
 10
216.549235
 20
-31.10039999999999
 11
216.549235
 21
-45.09959999999999
  0
LINE
  5
116
100
AcDbEntity
  8
user_drawings
  6
ByLayer
 62
  253
420
10526884
370
   -1
100
AcDbLine
 10
216.549235
 20
-45.09959999999999
 11
202.550235
 21
-45.09959999999999
  0
LINE
  5
117
100
AcDbEntity
  8
user_drawings
  6
ByLayer
 62
  253
420
10526884
370
   -1
100
AcDbLine
 10
202.550235
 20
-45.09959999999999
 11
202.550235
 21
-31.10039999999999
  0
LINE
  5
118
100
AcDbEntity
  8
user_drawings
  6
ByLayer
 62
  253
420
10526884
370
   -1
100
AcDbLine
 10
183.500235
 20
-31.10039999999999
 11
197.499235
 21
-31.10039999999999
  0
LINE
  5
119
100
AcDbEntity
  8
user_drawings
  6
ByLayer
 62
  253
420
10526884
370
   -1
100
AcDbLine
 10
197.499235
 20
-31.10039999999999
 11
197.499235
 21
-45.09959999999999
  0
LINE
  5
11A
100
AcDbEntity
  8
user_drawings
  6
ByLayer
 62
  253
420
10526884
370
   -1
100
AcDbLine
 10
197.499235
 20
-45.09959999999999
 11
183.500235
 21
-45.09959999999999
  0
LINE
  5
11B
100
AcDbEntity
  8
user_drawings
  6
ByLayer
 62
  253
420
10526884
370
   -1
100
AcDbLine
 10
183.500235
 20
-45.09959999999999
 11
183.500235
 21
-31.10039999999999
  0
LINE
  5
11C
100
AcDbEntity
  8
user_drawings
  6
ByLayer
 62
  253
420
10526884
370
   -1
100
AcDbLine
 10
164.450235
 20
-31.10039999999999
 11
178.449235
 21
-31.10039999999999
  0
LINE
  5
11D
100
AcDbEntity
  8
user_drawings
  6
ByLayer
 62
  253
420
10526884
370
   -1
100
AcDbLine
 10
178.449235
 20
-31.10039999999999
 11
178.449235
 21
-45.09959999999999
  0
LINE
  5
11E
100
AcDbEntity
  8
user_drawings
  6
ByLayer
 62
  253
420
10526884
370
   -1
100
AcDbLine
 10
178.449235
 20
-45.09959999999999
 11
164.450235
 21
-45.09959999999999
  0
LINE
  5
11F
100
AcDbEntity
  8
user_drawings
  6
ByLayer
 62
  253
420
10526884
370
   -1
100
AcDbLine
 10
164.450235
 20
-45.09959999999999
 11
164.450235
 21
-31.10039999999999
  0
LINE
  5
120
100
AcDbEntity
  8
user_drawings
  6
ByLayer
 62
  253
420
10526884
370
   -1
100
AcDbLine
 10
145.400235
 20
-31.10039999999999
 11
159.399235
 21
-31.10039999999999
  0
LINE
  5
121
100
AcDbEntity
  8
user_drawings
  6
ByLayer
 62
  253
420
10526884
370
   -1
100
AcDbLine
 10
159.399235
 20
-31.10039999999999
 11
159.399235
 21
-45.09959999999999
  0
LINE
  5
122
100
AcDbEntity
  8
user_drawings
  6
ByLayer
 62
  253
420
10526884
370
   -1
100
AcDbLine
 10
159.399235
 20
-45.09959999999999
 11
145.400235
 21
-45.09959999999999
  0
LINE
  5
123
100
AcDbEntity
  8
user_drawings
  6
ByLayer
 62
  253
420
10526884
370
   -1
100
AcDbLine
 10
145.400235
 20
-45.09959999999999
 11
145.400235
 21
-31.10039999999999
  0
LINE
  5
124
100
AcDbEntity
  8
user_drawings
  6
ByLayer
 62
  253
420
10526884
370
   -1
100
AcDbLine
 10
126.350235
 20
-31.10039999999999
 11
140.349235
 21
-31.10039999999999
  0
LINE
  5
125
100
AcDbEntity
  8
user_drawings
  6
ByLayer
 62
  253
420
10526884
370
   -1
100
AcDbLine
 10
140.349235
 20
-31.10039999999999
 11
140.349235
 21
-45.09959999999999
  0
LINE
  5
126
100
AcDbEntity
  8
user_drawings
  6
ByLayer
 62
  253
420
10526884
370
   -1
100
AcDbLine
 10
140.349235
 20
-45.09959999999999
 11
126.350235
 21
-45.09959999999999
  0
LINE
  5
127
100
AcDbEntity
  8
user_drawings
  6
ByLayer
 62
  253
420
10526884
370
   -1
100
AcDbLine
 10
126.350235
 20
-45.09959999999999
 11
126.350235
 21
-31.10039999999999
  0
LINE
  5
128
100
AcDbEntity
  8
user_drawings
  6
ByLayer
 62
  253
420
10526884
370
   -1
100
AcDbLine
 10
107.300235
 20
-31.10039999999999
 11
121.299235
 21
-31.10039999999999
  0
LINE
  5
129
100
AcDbEntity
  8
user_drawings
  6
ByLayer
 62
  253
420
10526884
370
   -1
100
AcDbLine
 10
121.299235
 20
-31.10039999999999
 11
121.299235
 21
-45.09959999999999
  0
LINE
  5
12A
100
AcDbEntity
  8
user_drawings
  6
ByLayer
 62
  253
420
10526884
370
   -1
100
AcDbLine
 10
121.299235
 20
-45.09959999999999
 11
107.300235
 21
-45.09959999999999
  0
LINE
  5
12B
100
AcDbEntity
  8
user_drawings
  6
ByLayer
 62
  253
420
10526884
370
   -1
100
AcDbLine
 10
107.300235
 20
-45.09959999999999
 11
107.300235
 21
-31.10039999999999
  0
LINE
  5
12C
100
AcDbEntity
  8
user_drawings
  6
ByLayer
 62
  253
420
10526884
370
   -1
100
AcDbLine
 10
88.25033500000001
 20
-31.10039999999999
 11
102.249235
 21
-31.10039999999999
  0
LINE
  5
12D
100
AcDbEntity
  8
user_drawings
  6
ByLayer
 62
  253
420
10526884
370
   -1
100
AcDbLine
 10
102.249235
 20
-31.10039999999999
 11
102.249235
 21
-45.09959999999999
  0
LINE
  5
12E
100
AcDbEntity
  8
user_drawings
  6
ByLayer
 62
  253
420
10526884
370
   -1
100
AcDbLine
 10
102.249235
 20
-45.09959999999999
 11
88.25033500000001
 21
-45.09959999999999
  0
LINE
  5
12F
100
AcDbEntity
  8
user_drawings
  6
ByLayer
 62
  253
420
10526884
370
   -1
100
AcDbLine
 10
88.25033500000001
 20
-45.09959999999999
 11
88.25033500000001
 21
-31.10039999999999
  0
LINE
  5
130
100
AcDbEntity
  8
user_drawings
  6
ByLayer
 62
  253
420
10526884
370
   -1
100
AcDbLine
 10
164.450235
 20
-12.05039999999998
 11
178.449235
 21
-12.05039999999998
  0
LINE
  5
131
100
AcDbEntity
  8
user_drawings
  6
ByLayer
 62
  253
420
10526884
370
   -1
100
AcDbLine
 10
178.449235
 20
-12.05039999999998
 11
178.449235
 21
-26.04959999999998
  0
LINE
  5
132
100
AcDbEntity
  8
user_drawings
  6
ByLayer
 62
  253
420
10526884
370
   -1
100
AcDbLine
 10
178.449235
 20
-26.04959999999998
 11
164.450235
 21
-26.04959999999998
  0
LINE
  5
133
100
AcDbEntity
  8
user_drawings
  6
ByLayer
 62
  253
420
10526884
370
   -1
100
AcDbLine
 10
164.450235
 20
-26.04959999999998
 11
164.450235
 21
-12.05039999999998
  0
LINE
  5
134
100
AcDbEntity
  8
user_drawings
  6
ByLayer
 62
  253
420
10526884
370
   -1
100
AcDbLine
 10
145.400235
 20
-12.05039999999998
 11
159.399235
 21
-12.05039999999998
  0
LINE
  5
135
100
AcDbEntity
  8
user_drawings
  6
ByLayer
 62
  253
420
10526884
370
   -1
100
AcDbLine
 10
159.399235
 20
-12.05039999999998
 11
159.399235
 21
-26.04959999999998
  0
LINE
  5
136
100
AcDbEntity
  8
user_drawings
  6
ByLayer
 62
  253
420
10526884
370
   -1
100
AcDbLine
 10
159.399235
 20
-26.04959999999998
 11
145.400235
 21
-26.04959999999998
  0
LINE
  5
137
100
AcDbEntity
  8
user_drawings
  6
ByLayer
 62
  253
420
10526884
370
   -1
100
AcDbLine
 10
145.400235
 20
-26.04959999999998
 11
145.400235
 21
-12.05039999999998
  0
LINE
  5
138
100
AcDbEntity
  8
user_drawings
  6
ByLayer
 62
  253
420
10526884
370
   -1
100
AcDbLine
 10
126.350235
 20
-12.05039999999998
 11
140.349235
 21
-12.05039999999998
  0
LINE
  5
139
100
AcDbEntity
  8
user_drawings
  6
ByLayer
 62
  253
420
10526884
370
   -1
100
AcDbLine
 10
140.349235
 20
-12.05039999999998
 11
140.349235
 21
-26.04959999999998
  0
LINE
  5
13A
100
AcDbEntity
  8
user_drawings
  6
ByLayer
 62
  253
420
10526884
370
   -1
100
AcDbLine
 10
140.349235
 20
-26.04959999999998
 11
126.350235
 21
-26.04959999999998
  0
LINE
  5
13B
100
AcDbEntity
  8
user_drawings
  6
ByLayer
 62
  253
420
10526884
370
   -1
100
AcDbLine
 10
126.350235
 20
-26.04959999999998
 11
126.350235
 21
-12.05039999999998
  0
LINE
  5
13C
100
AcDbEntity
  8
user_drawings
  6
ByLayer
 62
  253
420
10526884
370
   -1
100
AcDbLine
 10
107.300235
 20
-12.05039999999998
 11
121.299235
 21
-12.05039999999998
  0
LINE
  5
13D
100
AcDbEntity
  8
user_drawings
  6
ByLayer
 62
  253
420
10526884
370
   -1
100
AcDbLine
 10
121.299235
 20
-12.05039999999998
 11
121.299235
 21
-26.04959999999998
  0
LINE
  5
13E
100
AcDbEntity
  8
user_drawings
  6
ByLayer
 62
  253
420
10526884
370
   -1
100
AcDbLine
 10
121.299235
 20
-26.04959999999998
 11
107.300235
 21
-26.04959999999998
  0
LINE
  5
13F
100
AcDbEntity
  8
user_drawings
  6
ByLayer
 62
  253
420
10526884
370
   -1
100
AcDbLine
 10
107.300235
 20
-26.04959999999998
 11
107.300235
 21
-12.05039999999998
  0
LINE
  5
140
100
AcDbEntity
  8
user_drawings
  6
ByLayer
 62
  253
420
10526884
370
   -1
100
AcDbLine
 10
88.25033500000001
 20
-12.05039999999998
 11
102.249235
 21
-12.05039999999998
  0
LINE
  5
141
100
AcDbEntity
  8
user_drawings
  6
ByLayer
 62
  253
420
10526884
370
   -1
100
AcDbLine
 10
102.249235
 20
-12.05039999999998
 11
102.249235
 21
-26.04959999999998
  0
LINE
  5
142
100
AcDbEntity
  8
user_drawings
  6
ByLayer
 62
  253
420
10526884
370
   -1
100
AcDbLine
 10
102.249235
 20
-26.04959999999998
 11
88.25033500000001
 21
-26.04959999999998
  0
LINE
  5
143
100
AcDbEntity
  8
user_drawings
  6
ByLayer
 62
  253
420
10526884
370
   -1
100
AcDbLine
 10
88.25033500000001
 20
-26.04959999999998
 11
88.25033500000001
 21
-12.05039999999998
  0
LINE
  5
144
100
AcDbEntity
  8
user_drawings
  6
ByLayer
 62
  253
420
10526884
370
   -1
100
AcDbLine
 10
278.750235
 20
6.999600000000015
 11
292.749235
 21
6.999600000000015
  0
LINE
  5
145
100
AcDbEntity
  8
user_drawings
  6
ByLayer
 62
  253
420
10526884
370
   -1
100
AcDbLine
 10
292.749235
 20
6.999600000000015
 11
292.749235
 21
-6.999599999999987
  0
LINE
  5
146
100
AcDbEntity
  8
user_drawings
  6
ByLayer
 62
  253
420
10526884
370
   -1
100
AcDbLine
 10
292.749235
 20
-6.999599999999987
 11
278.750235
 21
-6.999599999999987
  0
LINE
  5
147
100
AcDbEntity
  8
user_drawings
  6
ByLayer
 62
  253
420
10526884
370
   -1
100
AcDbLine
 10
278.750235
 20
-6.999599999999987
 11
278.750235
 21
6.999600000000015
  0
LINE
  5
148
100
AcDbEntity
  8
user_drawings
  6
ByLayer
 62
  253
420
10526884
370
   -1
100
AcDbLine
 10
250.175235
 20
6.999600000000015
 11
264.174235
 21
6.999600000000015
  0
LINE
  5
149
100
AcDbEntity
  8
user_drawings
  6
ByLayer
 62
  253
420
10526884
370
   -1
100
AcDbLine
 10
264.174235
 20
6.999600000000015
 11
264.174235
 21
-6.999599999999987
  0
LINE
  5
14A
100
AcDbEntity
  8
user_drawings
  6
ByLayer
 62
  253
420
10526884
370
   -1
100
AcDbLine
 10
264.174235
 20
-6.999599999999987
 11
250.175235
 21
-6.999599999999987
  0
LINE
  5
14B
100
AcDbEntity
  8
user_drawings
  6
ByLayer
 62
  253
420
10526884
370
   -1
100
AcDbLine
 10
250.175235
 20
-6.999599999999987
 11
250.175235
 21
6.999600000000015
  0
LINE
  5
14C
100
AcDbEntity
  8
user_drawings
  6
ByLayer
 62
  253
420
10526884
370
   -1
100
AcDbLine
 10
221.600235
 20
6.999600000000015
 11
235.599235
 21
6.999600000000015
  0
LINE
  5
14D
100
AcDbEntity
  8
user_drawings
  6
ByLayer
 62
  253
420
10526884
370
   -1
100
AcDbLine
 10
235.599235
 20
6.999600000000015
 11
235.599235
 21
-6.999599999999987
  0
LINE
  5
14E
100
AcDbEntity
  8
user_drawings
  6
ByLayer
 62
  253
420
10526884
370
   -1
100
AcDbLine
 10
235.599235
 20
-6.999599999999987
 11
221.600235
 21
-6.999599999999987
  0
LINE
  5
14F
100
AcDbEntity
  8
user_drawings
  6
ByLayer
 62
  253
420
10526884
370
   -1
100
AcDbLine
 10
221.600235
 20
-6.999599999999987
 11
221.600235
 21
6.999600000000015
  0
LINE
  5
150
100
AcDbEntity
  8
user_drawings
  6
ByLayer
 62
  253
420
10526884
370
   -1
100
AcDbLine
 10
193.025235
 20
6.999600000000015
 11
207.024235
 21
6.999600000000015
  0
LINE
  5
151
100
AcDbEntity
  8
user_drawings
  6
ByLayer
 62
  253
420
10526884
370
   -1
100
AcDbLine
 10
207.024235
 20
6.999600000000015
 11
207.024235
 21
-6.999599999999987
  0
LINE
  5
152
100
AcDbEntity
  8
user_drawings
  6
ByLayer
 62
  253
420
10526884
370
   -1
100
AcDbLine
 10
207.024235
 20
-6.999599999999987
 11
193.025235
 21
-6.999599999999987
  0
LINE
  5
153
100
AcDbEntity
  8
user_drawings
  6
ByLayer
 62
  253
420
10526884
370
   -1
100
AcDbLine
 10
193.025235
 20
-6.999599999999987
 11
193.025235
 21
6.999600000000015
  0
LINE
  5
154
100
AcDbEntity
  8
user_drawings
  6
ByLayer
 62
  253
420
10526884
370
   -1
100
AcDbLine
 10
164.450235
 20
6.999600000000015
 11
178.449235
 21
6.999600000000015
  0
LINE
  5
155
100
AcDbEntity
  8
user_drawings
  6
ByLayer
 62
  253
420
10526884
370
   -1
100
AcDbLine
 10
178.449235
 20
6.999600000000015
 11
178.449235
 21
-6.999599999999987
  0
LINE
  5
156
100
AcDbEntity
  8
user_drawings
  6
ByLayer
 62
  253
420
10526884
370
   -1
100
AcDbLine
 10
178.449235
 20
-6.999599999999987
 11
164.450235
 21
-6.999599999999987
  0
LINE
  5
157
100
AcDbEntity
  8
user_drawings
  6
ByLayer
 62
  253
420
10526884
370
   -1
100
AcDbLine
 10
164.450235
 20
-6.999599999999987
 11
164.450235
 21
6.999600000000015
  0
LINE
  5
158
100
AcDbEntity
  8
user_drawings
  6
ByLayer
 62
  253
420
10526884
370
   -1
100
AcDbLine
 10
145.400235
 20
6.999600000000015
 11
159.399235
 21
6.999600000000015
  0
LINE
  5
159
100
AcDbEntity
  8
user_drawings
  6
ByLayer
 62
  253
420
10526884
370
   -1
100
AcDbLine
 10
159.399235
 20
6.999600000000015
 11
159.399235
 21
-6.999599999999987
  0
LINE
  5
15A
100
AcDbEntity
  8
user_drawings
  6
ByLayer
 62
  253
420
10526884
370
   -1
100
AcDbLine
 10
159.399235
 20
-6.999599999999987
 11
145.400235
 21
-6.999599999999987
  0
LINE
  5
15B
100
AcDbEntity
  8
user_drawings
  6
ByLayer
 62
  253
420
10526884
370
   -1
100
AcDbLine
 10
145.400235
 20
-6.999599999999987
 11
145.400235
 21
6.999600000000015
  0
LINE
  5
15C
100
AcDbEntity
  8
user_drawings
  6
ByLayer
 62
  253
420
10526884
370
   -1
100
AcDbLine
 10
126.350235
 20
6.999600000000015
 11
140.349235
 21
6.999600000000015
  0
LINE
  5
15D
100
AcDbEntity
  8
user_drawings
  6
ByLayer
 62
  253
420
10526884
370
   -1
100
AcDbLine
 10
140.349235
 20
6.999600000000015
 11
140.349235
 21
-6.999599999999987
  0
LINE
  5
15E
100
AcDbEntity
  8
user_drawings
  6
ByLayer
 62
  253
420
10526884
370
   -1
100
AcDbLine
 10
140.349235
 20
-6.999599999999987
 11
126.350235
 21
-6.999599999999987
  0
LINE
  5
15F
100
AcDbEntity
  8
user_drawings
  6
ByLayer
 62
  253
420
10526884
370
   -1
100
AcDbLine
 10
126.350235
 20
-6.999599999999987
 11
126.350235
 21
6.999600000000015
  0
LINE
  5
160
100
AcDbEntity
  8
user_drawings
  6
ByLayer
 62
  253
420
10526884
370
   -1
100
AcDbLine
 10
107.300235
 20
6.999600000000015
 11
121.299235
 21
6.999600000000015
  0
LINE
  5
161
100
AcDbEntity
  8
user_drawings
  6
ByLayer
 62
  253
420
10526884
370
   -1
100
AcDbLine
 10
121.299235
 20
6.999600000000015
 11
121.299235
 21
-6.999599999999987
  0
LINE
  5
162
100
AcDbEntity
  8
user_drawings
  6
ByLayer
 62
  253
420
10526884
370
   -1
100
AcDbLine
 10
121.299235
 20
-6.999599999999987
 11
107.300235
 21
-6.999599999999987
  0
LINE
  5
163
100
AcDbEntity
  8
user_drawings
  6
ByLayer
 62
  253
420
10526884
370
   -1
100
AcDbLine
 10
107.300235
 20
-6.999599999999987
 11
107.300235
 21
6.999600000000015
  0
LINE
  5
164
100
AcDbEntity
  8
user_drawings
  6
ByLayer
 62
  253
420
10526884
370
   -1
100
AcDbLine
 10
88.25033500000001
 20
6.999600000000015
 11
102.249235
 21
6.999600000000015
  0
LINE
  5
165
100
AcDbEntity
  8
user_drawings
  6
ByLayer
 62
  253
420
10526884
370
   -1
100
AcDbLine
 10
102.249235
 20
6.999600000000015
 11
102.249235
 21
-6.999599999999987
  0
LINE
  5
166
100
AcDbEntity
  8
user_drawings
  6
ByLayer
 62
  253
420
10526884
370
   -1
100
AcDbLine
 10
102.249235
 20
-6.999599999999987
 11
88.25033500000001
 21
-6.999599999999987
  0
LINE
  5
167
100
AcDbEntity
  8
user_drawings
  6
ByLayer
 62
  253
420
10526884
370
   -1
100
AcDbLine
 10
88.25033500000001
 20
-6.999599999999987
 11
88.25033500000001
 21
6.999600000000015
  0
LINE
  5
168
100
AcDbEntity
  8
user_drawings
  6
ByLayer
 62
  253
420
10526884
370
   -1
100
AcDbLine
 10
-6.999734999999991
 20
6.999600000000015
 11
6.999735000000008
 21
6.999600000000015
  0
LINE
  5
169
100
AcDbEntity
  8
user_drawings
  6
ByLayer
 62
  253
420
10526884
370
   -1
100
AcDbLine
 10
6.999735000000008
 20
6.999600000000015
 11
6.999735000000008
 21
-6.999599999999987
  0
LINE
  5
16A
100
AcDbEntity
  8
user_drawings
  6
ByLayer
 62
  253
420
10526884
370
   -1
100
AcDbLine
 10
6.999735000000008
 20
-6.999599999999987
 11
-6.999734999999991
 21
-6.999599999999987
  0
LINE
  5
16B
100
AcDbEntity
  8
user_drawings
  6
ByLayer
 62
  253
420
10526884
370
   -1
100
AcDbLine
 10
-6.999734999999991
 20
-6.999599999999987
 11
-6.999734999999991
 21
6.999600000000015
  0
LINE
  5
16C
100
AcDbEntity
  8
user_drawings
  6
ByLayer
 62
  256
370
   -1
100
AcDbLine
 10
-6.999734999999991
 20
6.999600000000015
 11
6.999735000000008
 21
-6.999599999999987
  0
LINE
  5
16D
100
AcDbEntity
  8
user_drawings
  6
ByLayer
 62
  256
370
   -1
100
AcDbLine
 10
6.999735000000008
 20
-6.999599999999987
 11
6.999735000000008
 21
6.999600000000015
  0
LINE
  5
16E
100
AcDbEntity
  8
user_drawings
  6
ByLayer
 62
  256
370
   -1
100
AcDbLine
 10
6.999735000000008
 20
6.999600000000015
 11
-6.999734999999991
 21
-6.999599999999987
  0
LINE
  5
16F
100
AcDbEntity
  8
user_drawings
  6
ByLayer
 62
  256
370
   -1
100
AcDbLine
 10
-6.999734999999991
 20
-50.15039999999998
 11
6.999735000000009
 21
-64.14969999999998
  0
LINE
  5
170
100
AcDbEntity
  8
user_drawings
  6
ByLayer
 62
  256
370
   -1
100
AcDbLine
 10
6.999735000000009
 20
-64.14969999999998
 11
6.999735000000009
 21
-50.15039999999998
  0
LINE
  5
171
100
AcDbEntity
  8
user_drawings
  6
ByLayer
 62
  256
370
   -1
100
AcDbLine
 10
6.999735000000009
 20
-50.15039999999998
 11
-6.999734999999991
 21
-64.14969999999998
  0
LINE
  5
172
100
AcDbEntity
  8
user_drawings
  6
ByLayer
 62
  256
370
   -1
100
AcDbLine
 10
12.05023500000001
 20
-50.15039999999998
 11
26.04963500000001
 21
-64.14969999999998
  0
LINE
  5
173
100
AcDbEntity
  8
user_drawings
  6
ByLayer
 62
  256
370
   -1
100
AcDbLine
 10
26.04963500000001
 20
-64.14969999999998
 11
12.05023500000001
 21
-64.14969999999998
  0
LINE
  5
174
100
AcDbEntity
  8
user_drawings
  6
ByLayer
 62
  256
370
   -1
100
AcDbLine
 10
12.05023500000001
 20
-64.14969999999998
 11
26.04963500000001
 21
-50.15039999999998
  0
LINE
  5
175
100
AcDbEntity
  8
user_drawings
  6
ByLayer
 62
  256
370
   -1
100
AcDbLine
 10
-6.999734999999991
 20
-69.20029999999998
 11
6.999735000000008
 21
-83.19973999999999
  0
LINE
  5
176
100
AcDbEntity
  8
user_drawings
  6
ByLayer
 62
  256
370
   -1
100
AcDbLine
 10
6.999735000000008
 20
-83.19973999999999
 11
-6.999734999999991
 21
-83.19973999999999
  0
LINE
  5
177
100
AcDbEntity
  8
user_drawings
  6
ByLayer
 62
  256
370
   -1
100
AcDbLine
 10
-6.999734999999991
 20
-83.19973999999999
 11
6.999735000000008
 21
-69.20029999999998
  0
LINE
  5
178
100
AcDbEntity
  8
user_drawings
  6
ByLayer
 62
  256
370
   -1
100
AcDbLine
 10
12.05023500000001
 20
-69.20029999999998
 11
26.04963500000001
 21
-83.19973999999999
  0
LINE
  5
179
100
AcDbEntity
  8
user_drawings
  6
ByLayer
 62
  256
370
   -1
100
AcDbLine
 10
26.04963500000001
 20
-83.19973999999999
 11
12.05023500000001
 21
-83.19973999999999
  0
LINE
  5
17A
100
AcDbEntity
  8
user_drawings
  6
ByLayer
 62
  256
370
   -1
100
AcDbLine
 10
12.05023500000001
 20
-83.19973999999999
 11
26.04963500000001
 21
-69.20029999999998
  0
ENDSEC
  0
SECTION
  2
OBJECTS
  0
DICTIONARY
  5
C
330
0
100
AcDbDictionary
281
    1
  3
ACAD_GROUP
350
D
  0
DICTIONARY
  5
D
330
C
100
AcDbDictionary
281
    1
  0
ENDSEC
  0
EOF
