<?xml version="1.0" encoding="UTF-8" standalone="no"?>
<!-- Created with Inkscape (http://www.inkscape.org/) -->

<svg
   width="107.63982mm"
   height="25.200001mm"
   viewBox="0 0 107.63982 25.200001"
   version="1.1"
   id="svg5"
   sodipodi:docname="logo_text_only_3.svg"
   inkscape:version="1.1.2 (1:1.1+202202050950+0a00cf5339)"
   xmlns:inkscape="http://www.inkscape.org/namespaces/inkscape"
   xmlns:sodipodi="http://sodipodi.sourceforge.net/DTD/sodipodi-0.dtd"
   xmlns="http://www.w3.org/2000/svg"
   xmlns:svg="http://www.w3.org/2000/svg">
  <sodipodi:namedview
     id="namedview80211"
     pagecolor="#ffffff"
     bordercolor="#666666"
     borderopacity="1.0"
     inkscape:pageshadow="2"
     inkscape:pageopacity="0.0"
     inkscape:pagecheckerboard="0"
     inkscape:document-units="mm"
     showgrid="false"
     inkscape:zoom="1.5989572"
     inkscape:cx="206.38451"
     inkscape:cy="104.75577"
     inkscape:window-width="1874"
     inkscape:window-height="1016"
     inkscape:window-x="1966"
     inkscape:window-y="27"
     inkscape:window-maximized="1"
     inkscape:current-layer="layer1" />
  <defs
     id="defs2" />
  <g
     id="layer1"
     transform="translate(-0.58730297,-1.8238419)">
    <g
       aria-label="LMN-3"
       id="text1617"
       style="font-size:16px;line-height:1.25;font-family:'SF Alien Encounters';-inkscape-font-specification:'SF Alien Encounters, Normal';stroke-width:0.264583">
      <path
         d="m 1.279303,16.783842 0.208,-0.96 h 2.4 l -0.208,0.96 z m -0.272,1.28 0.208,-0.96 h 2.4 l -0.208,0.96 z m -0.27200003,1.28 0.208,-0.96 H 3.343303 l -0.208,0.96 z m -0.272,1.28 0.208,-0.96 H 3.071303 l -0.208,0.96 z m -0.272,1.28 0.208,-0.96 H 2.799303 l -0.208,0.96 z m -0.272,1.28 0.208,-0.96 H 2.527303 l -0.208,0.96 z m -0.272,1.28 0.208,-0.96 H 2.255303 l -0.208,0.96 z m -0.24,1.28 q 0,-0.112 0.016,-0.16 0,-0.032 0,-0.064 0.016,-0.048 0.016,-0.096 l 0.144,-0.64 H 8.383303 l -0.208,0.96 z m 1.296,1.28 q -1.072,0 -1.264,-0.96 H 8.111303 l -0.208,0.96 z"
         id="path14367" />
      <path
         d="m 20.079279,16.783842 0.672,-0.96 h 2.4 l -0.208,0.96 z m -9.296,0 0.208,-0.96 h 2.4 l 0.256,0.96 z m 8.4,1.28 0.672,-0.96 h 3.024 l -0.208,0.96 z m -8.672,0 0.208,-0.96 h 3.024 l 0.256,0.96 z m 7.776,1.28 0.672,-0.96 h 3.648 l -0.208,0.96 z m -8.048,0 0.208,-0.96 h 3.648 l 0.256,0.96 z m 7.152,1.28 0.672,-0.96 h 4.272 l -0.208,0.96 z m -7.424,0 0.208,-0.96 h 4.272 l 0.256,0.96 z m 9.488,1.28 0.096,-0.48 -0.336,0.48 h -2.72 l 0.688,-0.96 h 4.88 l -0.208,0.96 z m -7.12,0 -0.144,-0.48 -0.096,0.48 h -2.4 l 0.208,-0.96 h 4.88 l 0.272,0.96 z m 6.848,1.28 0.208,-0.96 h 2.4 l -0.208,0.96 z m -0.848,0 h -2.72 l 0.672,-0.96 h 2.72 z m -5.664,0 -0.256,-0.96 h 2.72 l 0.256,0.96 z m -3.248,0 0.208,-0.96 h 2.4 l -0.208,0.96 z m 9.488,1.28 0.208,-0.96 h 2.4 l -0.208,0.96 z m -1.472,0 h -4.416 l -0.256,-0.96 h 5.344 z m -8.288,0 0.208,-0.96 h 2.4 l -0.208,0.96 z m 9.488,1.28 0.208,-0.96 h 2.4 l -0.208,0.96 z m -2.096,0 h -3.168 l -0.256,-0.96 h 4.096 z m -7.664,0 0.208,-0.96 h 2.4 l -0.208,0.96 z m 9.488,1.28 0.208,-0.96 h 2.4 l -0.208,0.96 z m -2.72,0 h -1.92 l -0.256,-0.96 h 2.848 z m -7.04,0 0.208,-0.96 h 2.4 l -0.208,0.96 z"
         id="path14369" />
      <path
         d="m 31.455264,16.783842 0.208,-0.96 h 2.4 l -0.208,0.96 z m -7.2,0 0.208,-0.96 h 2.4 l 0.48,0.96 z m 6.928,1.28 0.208,-0.96 h 2.4 l -0.208,0.96 z m -7.2,0 0.208,-0.96 h 3.312 l 0.48,0.96 z m 6.928,1.28 0.208,-0.96 h 2.4 l -0.208,0.96 z m -7.2,0 0.208,-0.96 h 4.224 l 0.48,0.96 z m 6.928,1.28 0.208,-0.96 h 2.4 l -0.208,0.96 z m -4.576,0 -0.16,-0.32 -0.064,0.32 h -2.4 l 0.208,-0.96 h 5.136 l 0.48,0.96 z m 4.304,1.28 0.208,-0.96 h 2.4 l -0.208,0.96 z m -3.664,0 -0.464,-0.96 h 3.2 l 0.464,0.96 z m -3.536,0 0.208,-0.96 h 2.4 l -0.208,0.96 z m 4.192,1.28 -0.48,-0.96 h 3.2 l 0.16,0.32 0.064,-0.32 h 2.4 l -0.208,0.96 z m -4.464,0 0.208,-0.96 h 2.4 l -0.208,0.96 z m 5.104,1.28 -0.48,-0.96 h 4.912 l -0.208,0.96 z m -5.376,0 0.208,-0.96 h 2.4 l -0.208,0.96 z m 6.016,1.28 -0.48,-0.96 h 4 l -0.208,0.96 z m -6.288,0 0.208,-0.96 h 2.4 l -0.208,0.96 z m 6.928,1.28 -0.48,-0.96 h 3.088 l -0.208,0.96 z m -7.2,0 0.208,-0.96 h 2.4 l -0.208,0.96 z"
         id="path14371" />
      <path
         d="m 43.983221,16.783842 0.208,-0.96 h 7.2 q 1.072,0 1.264,0.96 z m -0.272,1.28 0.208,-0.96 h 8.768 q 0,0.048 -0.016,0.096 0,0.032 0,0.064 0,0.032 -0.016,0.08 0,0.032 0,0.08 l -0.144,0.64 z m 8.592,0.96 q 0,0.064 -0.032,0.16 -0.016,0.032 -0.032,0.08 -0.016,0.032 -0.032,0.08 h -2.368 l 0.208,-0.96 h 2.4 z m -0.256,0.64 q -0.608,0.96 -1.68,0.96 h -4 l 0.208,-0.96 z m -5.952,2.24 0.208,-0.96 h 4 q 1.072,0 1.264,0.96 z m 2.928,1.28 0.208,-0.96 h 2.368 q 0,0.048 -0.016,0.096 0,0.032 0,0.064 0,0.032 -0.016,0.08 0,0.032 0,0.08 l -0.144,0.64 z m -0.272,1.28 0.208,-0.96 h 2.4 l -0.208,0.96 z m 2.192,0.96 q 0,0.048 -0.016,0.096 -0.016,0.032 -0.032,0.064 0,0.032 -0.016,0.048 0,0.032 -0.016,0.064 0,0.016 -0.016,0.048 h -8.768 l 0.208,-0.96 h 8.8 z m -0.256,0.64 q -0.608,0.96 -1.68,0.96 h -7.2 l 0.208,-0.96 z"
         id="path14373" />
    </g>
  </g>
</svg>
