<?xml version="1.0" encoding="UTF-8" standalone="no"?>
<!-- Created with Inkscape (http://www.inkscape.org/) -->

<svg
   width="107.63982mm"
   height="25.200001mm"
   viewBox="0 0 107.63982 25.200001"
   version="1.1"
   id="svg5"
   sodipodi:docname="logo_as_path_3.svg"
   inkscape:version="1.1.2 (1:1.1+202202050950+0a00cf5339)"
   xmlns:inkscape="http://www.inkscape.org/namespaces/inkscape"
   xmlns:sodipodi="http://sodipodi.sourceforge.net/DTD/sodipodi-0.dtd"
   xmlns="http://www.w3.org/2000/svg"
   xmlns:svg="http://www.w3.org/2000/svg">
  <sodipodi:namedview
     id="namedview80211"
     pagecolor="#ffffff"
     bordercolor="#666666"
     borderopacity="1.0"
     inkscape:pageshadow="2"
     inkscape:pageopacity="0.0"
     inkscape:pagecheckerboard="0"
     inkscape:document-units="mm"
     showgrid="false"
     inkscape:zoom="1.5989572"
     inkscape:cx="210.76236"
     inkscape:cy="51.596128"
     inkscape:window-width="1874"
     inkscape:window-height="1016"
     inkscape:window-x="1966"
     inkscape:window-y="27"
     inkscape:window-maximized="1"
     inkscape:current-layer="layer1" />
  <defs
     id="defs2" />
  <g
     id="layer1"
     transform="translate(-0.58730297,-1.8238419)">
    <g
       aria-label="LMN-3"
       id="text1617"
       style="font-size:14px;line-height:1.25;font-family:'SF Alien Encounters';-inkscape-font-specification:'SF Alien Encounters, Normal';stroke-width:0.264583">
      <path
         d="m 0.92730297,18.063842 0.18200003,-0.84 h 2.1 l -0.182,0.84 z m -0.238,1.12 0.182,-0.84 H 2.971303 l -0.182,0.84 z m -0.238,1.12 0.182,-0.84 H 2.733303 l -0.182,0.84 z m -0.238,1.12 0.182,-0.84 H 2.495303 l -0.182,0.84 z m -0.238,1.12 0.182,-0.84 H 2.257303 l -0.182,0.84 z m -0.238,1.12 0.182,-0.84 H 2.019303 l -0.182,0.84 z m -0.238,1.12 0.182,-0.84 H 1.781303 l -0.182,0.84 z m -0.21,1.12 q 0,-0.098 0.014,-0.14 0,-0.028 0,-0.056 0.014,-0.042 0.014,-0.084 l 0.126,-0.56 H 7.143303 l -0.182,0.84 z m 1.134,1.12 q -0.938,0 -1.106,-0.84 H 6.905303 l -0.182,0.84 z"
         id="path25325" />
      <path
         d="m 17.377282,18.063842 0.588,-0.84 h 2.1 l -0.182,0.84 z m -8.134,0 0.182,-0.84 h 2.1 l 0.224,0.84 z m 7.35,1.12 0.588,-0.84 h 2.646 l -0.182,0.84 z m -7.588,0 0.182,-0.84 h 2.646 l 0.224,0.84 z m 6.804,1.12 0.588,-0.84 h 3.192 l -0.182,0.84 z m -7.042,0 0.182,-0.84 h 3.192 l 0.224,0.84 z m 6.258,1.12 0.588,-0.84 h 3.738 l -0.182,0.84 z m -6.496,0 0.182,-0.84 h 3.738 l 0.224,0.84 z m 8.302,1.12 0.084,-0.42 -0.294,0.42 h -2.38 l 0.602,-0.84 h 4.27 l -0.182,0.84 z m -6.23,0 -0.126,-0.42 -0.084,0.42 h -2.1 l 0.182,-0.84 h 4.27 l 0.238,0.84 z m 5.992,1.12 0.182,-0.84 h 2.1 l -0.182,0.84 z m -0.742,0 h -2.38 l 0.588,-0.84 h 2.38 z m -4.956,0 -0.224,-0.84 h 2.38 l 0.224,0.84 z m -2.842,0 0.182,-0.84 h 2.1 l -0.182,0.84 z m 8.302,1.12 0.182,-0.84 h 2.1 l -0.182,0.84 z m -1.288,0 h -3.864 l -0.224,-0.84 h 4.676 z m -7.252,0 0.182,-0.84 h 2.1 l -0.182,0.84 z m 8.302,1.12 0.182,-0.84 h 2.1 l -0.182,0.84 z m -1.834,0 h -2.772 l -0.224,-0.84 h 3.584 z m -6.706,0 0.182,-0.84 h 2.1 l -0.182,0.84 z m 8.302,1.12 0.182,-0.84 h 2.1 l -0.182,0.84 z m -2.38,0 h -1.68 l -0.224,-0.84 h 2.492 z m -6.16,0 0.182,-0.84 h 2.1 l -0.182,0.84 z"
         id="path25327" />
      <path
         d="m 27.331269,18.063842 0.182,-0.84 h 2.1 l -0.182,0.84 z m -6.3,0 0.182,-0.84 h 2.1 l 0.42,0.84 z m 6.062,1.12 0.182,-0.84 h 2.1 l -0.182,0.84 z m -6.3,0 0.182,-0.84 h 2.898 l 0.42,0.84 z m 6.062,1.12 0.182,-0.84 h 2.1 l -0.182,0.84 z m -6.3,0 0.182,-0.84 h 3.696 l 0.42,0.84 z m 6.062,1.12 0.182,-0.84 h 2.1 l -0.182,0.84 z m -4.004,0 -0.14,-0.28 -0.056,0.28 h -2.1 l 0.182,-0.84 h 4.494 l 0.42,0.84 z m 3.766,1.12 0.182,-0.84 h 2.1 l -0.182,0.84 z m -3.206,0 -0.406,-0.84 h 2.8 l 0.406,0.84 z m -3.094,0 0.182,-0.84 h 2.1 l -0.182,0.84 z m 3.668,1.12 -0.42,-0.84 h 2.8 l 0.14,0.28 0.056,-0.28 h 2.1 l -0.182,0.84 z m -3.906,0 0.182,-0.84 h 2.1 l -0.182,0.84 z m 4.466,1.12 -0.42,-0.84 h 4.298 l -0.182,0.84 z m -4.704,0 0.182,-0.84 h 2.1 l -0.182,0.84 z m 5.264,1.12 -0.42,-0.84 h 3.5 l -0.182,0.84 z m -5.502,0 0.182,-0.84 h 2.1 l -0.182,0.84 z m 6.062,1.12 -0.42,-0.84 h 2.702 l -0.182,0.84 z m -6.3,0 0.182,-0.84 h 2.1 l -0.182,0.84 z"
         id="path25329" />
      <path
         d="m 38.293231,18.063842 0.182,-0.84 h 6.3 q 0.938,0 1.106,0.84 z m -0.238,1.12 0.182,-0.84 h 7.672 q 0,0.042 -0.014,0.084 0,0.028 0,0.056 0,0.028 -0.014,0.07 0,0.028 0,0.07 l -0.126,0.56 z m 7.518,0.84 q 0,0.056 -0.028,0.14 -0.014,0.028 -0.028,0.07 -0.014,0.028 -0.028,0.07 h -2.072 l 0.182,-0.84 h 2.1 z m -0.224,0.56 q -0.532,0.84 -1.47,0.84 h -3.5 l 0.182,-0.84 z m -5.208,1.96 0.182,-0.84 h 3.5 q 0.938,0 1.106,0.84 z m 2.562,1.12 0.182,-0.84 h 2.072 q 0,0.042 -0.014,0.084 0,0.028 0,0.056 0,0.028 -0.014,0.07 0,0.028 0,0.07 l -0.126,0.56 z m -0.238,1.12 0.182,-0.84 h 2.1 l -0.182,0.84 z m 1.918,0.84 q 0,0.042 -0.014,0.084 -0.014,0.028 -0.028,0.056 0,0.028 -0.014,0.042 0,0.028 -0.014,0.056 0,0.014 -0.014,0.042 h -7.672 l 0.182,-0.84 h 7.7 z m -0.224,0.56 q -0.532,0.84 -1.47,0.84 h -6.3 l 0.182,-0.84 z"
         id="path25331" />
    </g>
  </g>
</svg>
