%TF.GenerationSoftware,KiCad,Pcbnew,6.0.2-378541a8eb~116~ubuntu20.04.1*%
%TF.CreationDate,2022-02-21T21:33:11-06:00*%
%TF.ProjectId,LMN,4c4d4e2e-6b69-4636-9164-5f7063625858,rev?*%
%TF.SameCoordinates,Original*%
%TF.FileFunction,Soldermask,Top*%
%TF.FilePolarity,Negative*%
%FSLAX46Y46*%
G04 Gerber Fmt 4.6, Leading zero omitted, Abs format (unit mm)*
G04 Created by KiCad (PCBNEW 6.0.2-378541a8eb~116~ubuntu20.04.1) date 2022-02-21 21:33:11*
%MOMM*%
%LPD*%
G01*
G04 APERTURE LIST*
%ADD10C,0.105833*%
%ADD11C,0.100167*%
%ADD12C,1.750000*%
%ADD13C,4.000000*%
%ADD14C,1.500000*%
%ADD15O,2.500000X3.500000*%
%ADD16C,1.897000*%
%ADD17R,1.600000X1.600000*%
%ADD18O,1.600000X1.600000*%
G04 APERTURE END LIST*
D10*
X266800580Y-95398644D02*
X266803895Y-95280368D01*
X266803895Y-95280368D02*
X266813732Y-95163646D01*
X266813732Y-95163646D02*
X266829932Y-95048621D01*
X266829932Y-95048621D02*
X266852334Y-94935437D01*
X266852334Y-94935437D02*
X266880779Y-94824239D01*
X266880779Y-94824239D02*
X266915107Y-94715171D01*
X266915107Y-94715171D02*
X266955156Y-94608378D01*
X266955156Y-94608378D02*
X267000768Y-94504004D01*
X267000768Y-94504004D02*
X267051782Y-94402194D01*
X267051782Y-94402194D02*
X267108039Y-94303092D01*
X267108039Y-94303092D02*
X267169377Y-94206842D01*
X267169377Y-94206842D02*
X267235638Y-94113589D01*
X267235638Y-94113589D02*
X267306661Y-94023477D01*
X267306661Y-94023477D02*
X267382285Y-93936651D01*
X267382285Y-93936651D02*
X267462351Y-93853255D01*
X267462351Y-93853255D02*
X267546700Y-93773433D01*
X267546700Y-93773433D02*
X267635170Y-93697330D01*
X267635170Y-93697330D02*
X267727601Y-93625090D01*
X267727601Y-93625090D02*
X267823835Y-93556858D01*
X267823835Y-93556858D02*
X267923710Y-93492779D01*
X267923710Y-93492779D02*
X268027066Y-93432995D01*
X268027066Y-93432995D02*
X268133744Y-93377653D01*
X268133744Y-93377653D02*
X268243584Y-93326896D01*
X268243584Y-93326896D02*
X268356424Y-93280868D01*
X268356424Y-93280868D02*
X268472106Y-93239715D01*
X268472106Y-93239715D02*
X268590470Y-93203580D01*
X268590470Y-93203580D02*
X268711354Y-93172609D01*
X268711354Y-93172609D02*
X268834600Y-93146944D01*
X268834600Y-93146944D02*
X268960046Y-93126732D01*
X268960046Y-93126732D02*
X269087534Y-93112116D01*
X269087534Y-93112116D02*
X269216903Y-93103240D01*
X269216903Y-93103240D02*
X269347992Y-93100249D01*
X269347992Y-93100249D02*
X269479082Y-93103240D01*
X269479082Y-93103240D02*
X269608450Y-93112116D01*
X269608450Y-93112116D02*
X269735938Y-93126732D01*
X269735938Y-93126732D02*
X269861385Y-93146944D01*
X269861385Y-93146944D02*
X269984630Y-93172609D01*
X269984630Y-93172609D02*
X270105515Y-93203580D01*
X270105515Y-93203580D02*
X270223878Y-93239715D01*
X270223878Y-93239715D02*
X270339560Y-93280868D01*
X270339560Y-93280868D02*
X270452401Y-93326896D01*
X270452401Y-93326896D02*
X270562240Y-93377653D01*
X270562240Y-93377653D02*
X270668918Y-93432995D01*
X270668918Y-93432995D02*
X270772274Y-93492779D01*
X270772274Y-93492779D02*
X270872149Y-93556858D01*
X270872149Y-93556858D02*
X270968383Y-93625090D01*
X270968383Y-93625090D02*
X271060815Y-93697330D01*
X271060815Y-93697330D02*
X271149285Y-93773433D01*
X271149285Y-93773433D02*
X271233633Y-93853255D01*
X271233633Y-93853255D02*
X271313699Y-93936651D01*
X271313699Y-93936651D02*
X271389324Y-94023477D01*
X271389324Y-94023477D02*
X271460346Y-94113589D01*
X271460346Y-94113589D02*
X271526607Y-94206842D01*
X271526607Y-94206842D02*
X271587945Y-94303092D01*
X271587945Y-94303092D02*
X271644202Y-94402194D01*
X271644202Y-94402194D02*
X271695216Y-94504004D01*
X271695216Y-94504004D02*
X271740828Y-94608378D01*
X271740828Y-94608378D02*
X271780878Y-94715171D01*
X271780878Y-94715171D02*
X271815205Y-94824239D01*
X271815205Y-94824239D02*
X271843650Y-94935437D01*
X271843650Y-94935437D02*
X271866052Y-95048621D01*
X271866052Y-95048621D02*
X271882252Y-95163646D01*
X271882252Y-95163646D02*
X271892090Y-95280368D01*
X271892090Y-95280368D02*
X271895404Y-95398644D01*
X271895404Y-95398644D02*
X271892090Y-95516918D01*
X271892090Y-95516918D02*
X271882252Y-95633641D01*
X271882252Y-95633641D02*
X271866052Y-95748666D01*
X271866052Y-95748666D02*
X271843650Y-95861850D01*
X271843650Y-95861850D02*
X271815205Y-95973048D01*
X271815205Y-95973048D02*
X271780878Y-96082115D01*
X271780878Y-96082115D02*
X271740828Y-96188908D01*
X271740828Y-96188908D02*
X271695216Y-96293282D01*
X271695216Y-96293282D02*
X271644202Y-96395092D01*
X271644202Y-96395092D02*
X271587945Y-96494194D01*
X271587945Y-96494194D02*
X271526607Y-96590444D01*
X271526607Y-96590444D02*
X271460346Y-96683697D01*
X271460346Y-96683697D02*
X271389324Y-96773809D01*
X271389324Y-96773809D02*
X271313699Y-96860635D01*
X271313699Y-96860635D02*
X271233633Y-96944032D01*
X271233633Y-96944032D02*
X271149285Y-97023853D01*
X271149285Y-97023853D02*
X271060815Y-97099956D01*
X271060815Y-97099956D02*
X270968383Y-97172196D01*
X270968383Y-97172196D02*
X270872149Y-97240428D01*
X270872149Y-97240428D02*
X270772274Y-97304508D01*
X270772274Y-97304508D02*
X270668918Y-97364292D01*
X270668918Y-97364292D02*
X270562240Y-97419634D01*
X270562240Y-97419634D02*
X270452401Y-97470391D01*
X270452401Y-97470391D02*
X270339560Y-97516419D01*
X270339560Y-97516419D02*
X270223878Y-97557572D01*
X270223878Y-97557572D02*
X270105515Y-97593707D01*
X270105515Y-97593707D02*
X269984630Y-97624679D01*
X269984630Y-97624679D02*
X269861385Y-97650343D01*
X269861385Y-97650343D02*
X269735938Y-97670556D01*
X269735938Y-97670556D02*
X269608450Y-97685172D01*
X269608450Y-97685172D02*
X269479082Y-97694048D01*
X269479082Y-97694048D02*
X269347992Y-97697038D01*
X269347992Y-97697038D02*
X269216903Y-97694048D01*
X269216903Y-97694048D02*
X269087534Y-97685172D01*
X269087534Y-97685172D02*
X268960046Y-97670556D01*
X268960046Y-97670556D02*
X268834600Y-97650343D01*
X268834600Y-97650343D02*
X268711354Y-97624679D01*
X268711354Y-97624679D02*
X268590470Y-97593707D01*
X268590470Y-97593707D02*
X268472106Y-97557572D01*
X268472106Y-97557572D02*
X268356424Y-97516419D01*
X268356424Y-97516419D02*
X268243584Y-97470391D01*
X268243584Y-97470391D02*
X268133744Y-97419634D01*
X268133744Y-97419634D02*
X268027066Y-97364292D01*
X268027066Y-97364292D02*
X267923710Y-97304508D01*
X267923710Y-97304508D02*
X267823835Y-97240428D01*
X267823835Y-97240428D02*
X267727601Y-97172196D01*
X267727601Y-97172196D02*
X267635170Y-97099956D01*
X267635170Y-97099956D02*
X267546700Y-97023853D01*
X267546700Y-97023853D02*
X267462351Y-96944032D01*
X267462351Y-96944032D02*
X267382285Y-96860635D01*
X267382285Y-96860635D02*
X267306661Y-96773809D01*
X267306661Y-96773809D02*
X267235638Y-96683697D01*
X267235638Y-96683697D02*
X267169377Y-96590444D01*
X267169377Y-96590444D02*
X267108039Y-96494194D01*
X267108039Y-96494194D02*
X267051782Y-96395092D01*
X267051782Y-96395092D02*
X267000768Y-96293282D01*
X267000768Y-96293282D02*
X266955156Y-96188908D01*
X266955156Y-96188908D02*
X266915107Y-96082115D01*
X266915107Y-96082115D02*
X266880779Y-95973048D01*
X266880779Y-95973048D02*
X266852334Y-95861850D01*
X266852334Y-95861850D02*
X266829932Y-95748666D01*
X266829932Y-95748666D02*
X266813732Y-95633641D01*
X266813732Y-95633641D02*
X266803895Y-95516918D01*
X266803895Y-95516918D02*
X266800580Y-95398644D01*
X266800580Y-95398644D02*
X266800580Y-95398644D01*
G36*
X269479082Y-93103240D02*
G01*
X269608450Y-93112116D01*
X269735938Y-93126732D01*
X269861385Y-93146944D01*
X269984630Y-93172609D01*
X270105515Y-93203580D01*
X270223878Y-93239715D01*
X270339560Y-93280868D01*
X270452401Y-93326896D01*
X270562240Y-93377653D01*
X270668918Y-93432995D01*
X270772274Y-93492779D01*
X270872149Y-93556858D01*
X270968383Y-93625090D01*
X271060815Y-93697330D01*
X271149285Y-93773433D01*
X271233633Y-93853255D01*
X271313699Y-93936651D01*
X271389324Y-94023477D01*
X271460346Y-94113589D01*
X271526607Y-94206842D01*
X271587945Y-94303092D01*
X271644202Y-94402194D01*
X271695216Y-94504004D01*
X271740828Y-94608378D01*
X271780878Y-94715171D01*
X271815205Y-94824239D01*
X271843650Y-94935437D01*
X271866052Y-95048621D01*
X271882252Y-95163646D01*
X271892090Y-95280368D01*
X271895404Y-95398644D01*
X271892090Y-95516918D01*
X271882252Y-95633641D01*
X271866052Y-95748666D01*
X271843650Y-95861850D01*
X271815205Y-95973048D01*
X271780878Y-96082115D01*
X271740828Y-96188908D01*
X271695216Y-96293282D01*
X271644202Y-96395092D01*
X271587945Y-96494194D01*
X271526607Y-96590444D01*
X271460346Y-96683697D01*
X271389324Y-96773809D01*
X271313699Y-96860635D01*
X271233633Y-96944032D01*
X271149285Y-97023853D01*
X271060815Y-97099956D01*
X270968383Y-97172196D01*
X270872149Y-97240428D01*
X270772274Y-97304508D01*
X270668918Y-97364292D01*
X270562240Y-97419634D01*
X270452401Y-97470391D01*
X270339560Y-97516419D01*
X270223878Y-97557572D01*
X270105515Y-97593707D01*
X269984630Y-97624679D01*
X269861385Y-97650343D01*
X269735938Y-97670556D01*
X269608450Y-97685172D01*
X269479082Y-97694048D01*
X269347992Y-97697038D01*
X269216903Y-97694048D01*
X269087534Y-97685172D01*
X268960046Y-97670556D01*
X268834600Y-97650343D01*
X268711354Y-97624679D01*
X268590470Y-97593707D01*
X268472106Y-97557572D01*
X268356424Y-97516419D01*
X268243584Y-97470391D01*
X268133744Y-97419634D01*
X268027066Y-97364292D01*
X267923710Y-97304508D01*
X267823835Y-97240428D01*
X267727601Y-97172196D01*
X267635170Y-97099956D01*
X267546700Y-97023853D01*
X267462351Y-96944032D01*
X267382285Y-96860635D01*
X267306661Y-96773809D01*
X267235638Y-96683697D01*
X267169377Y-96590444D01*
X267108039Y-96494194D01*
X267051782Y-96395092D01*
X267000768Y-96293282D01*
X266955156Y-96188908D01*
X266915107Y-96082115D01*
X266880779Y-95973048D01*
X266852334Y-95861850D01*
X266829932Y-95748666D01*
X266813732Y-95633641D01*
X266803895Y-95516918D01*
X266800580Y-95398644D01*
X266803895Y-95280368D01*
X266813732Y-95163646D01*
X266829932Y-95048621D01*
X266852334Y-94935437D01*
X266880779Y-94824239D01*
X266915107Y-94715171D01*
X266955156Y-94608378D01*
X267000768Y-94504004D01*
X267051782Y-94402194D01*
X267108039Y-94303092D01*
X267169377Y-94206842D01*
X267235638Y-94113589D01*
X267306661Y-94023477D01*
X267382285Y-93936651D01*
X267462351Y-93853255D01*
X267546700Y-93773433D01*
X267635170Y-93697330D01*
X267727601Y-93625090D01*
X267823835Y-93556858D01*
X267923710Y-93492779D01*
X268027066Y-93432995D01*
X268133744Y-93377653D01*
X268243584Y-93326896D01*
X268356424Y-93280868D01*
X268472106Y-93239715D01*
X268590470Y-93203580D01*
X268711354Y-93172609D01*
X268834600Y-93146944D01*
X268960046Y-93126732D01*
X269087534Y-93112116D01*
X269216903Y-93103240D01*
X269347992Y-93100249D01*
X269479082Y-93103240D01*
G37*
X269479082Y-93103240D02*
X269608450Y-93112116D01*
X269735938Y-93126732D01*
X269861385Y-93146944D01*
X269984630Y-93172609D01*
X270105515Y-93203580D01*
X270223878Y-93239715D01*
X270339560Y-93280868D01*
X270452401Y-93326896D01*
X270562240Y-93377653D01*
X270668918Y-93432995D01*
X270772274Y-93492779D01*
X270872149Y-93556858D01*
X270968383Y-93625090D01*
X271060815Y-93697330D01*
X271149285Y-93773433D01*
X271233633Y-93853255D01*
X271313699Y-93936651D01*
X271389324Y-94023477D01*
X271460346Y-94113589D01*
X271526607Y-94206842D01*
X271587945Y-94303092D01*
X271644202Y-94402194D01*
X271695216Y-94504004D01*
X271740828Y-94608378D01*
X271780878Y-94715171D01*
X271815205Y-94824239D01*
X271843650Y-94935437D01*
X271866052Y-95048621D01*
X271882252Y-95163646D01*
X271892090Y-95280368D01*
X271895404Y-95398644D01*
X271892090Y-95516918D01*
X271882252Y-95633641D01*
X271866052Y-95748666D01*
X271843650Y-95861850D01*
X271815205Y-95973048D01*
X271780878Y-96082115D01*
X271740828Y-96188908D01*
X271695216Y-96293282D01*
X271644202Y-96395092D01*
X271587945Y-96494194D01*
X271526607Y-96590444D01*
X271460346Y-96683697D01*
X271389324Y-96773809D01*
X271313699Y-96860635D01*
X271233633Y-96944032D01*
X271149285Y-97023853D01*
X271060815Y-97099956D01*
X270968383Y-97172196D01*
X270872149Y-97240428D01*
X270772274Y-97304508D01*
X270668918Y-97364292D01*
X270562240Y-97419634D01*
X270452401Y-97470391D01*
X270339560Y-97516419D01*
X270223878Y-97557572D01*
X270105515Y-97593707D01*
X269984630Y-97624679D01*
X269861385Y-97650343D01*
X269735938Y-97670556D01*
X269608450Y-97685172D01*
X269479082Y-97694048D01*
X269347992Y-97697038D01*
X269216903Y-97694048D01*
X269087534Y-97685172D01*
X268960046Y-97670556D01*
X268834600Y-97650343D01*
X268711354Y-97624679D01*
X268590470Y-97593707D01*
X268472106Y-97557572D01*
X268356424Y-97516419D01*
X268243584Y-97470391D01*
X268133744Y-97419634D01*
X268027066Y-97364292D01*
X267923710Y-97304508D01*
X267823835Y-97240428D01*
X267727601Y-97172196D01*
X267635170Y-97099956D01*
X267546700Y-97023853D01*
X267462351Y-96944032D01*
X267382285Y-96860635D01*
X267306661Y-96773809D01*
X267235638Y-96683697D01*
X267169377Y-96590444D01*
X267108039Y-96494194D01*
X267051782Y-96395092D01*
X267000768Y-96293282D01*
X266955156Y-96188908D01*
X266915107Y-96082115D01*
X266880779Y-95973048D01*
X266852334Y-95861850D01*
X266829932Y-95748666D01*
X266813732Y-95633641D01*
X266803895Y-95516918D01*
X266800580Y-95398644D01*
X266803895Y-95280368D01*
X266813732Y-95163646D01*
X266829932Y-95048621D01*
X266852334Y-94935437D01*
X266880779Y-94824239D01*
X266915107Y-94715171D01*
X266955156Y-94608378D01*
X267000768Y-94504004D01*
X267051782Y-94402194D01*
X267108039Y-94303092D01*
X267169377Y-94206842D01*
X267235638Y-94113589D01*
X267306661Y-94023477D01*
X267382285Y-93936651D01*
X267462351Y-93853255D01*
X267546700Y-93773433D01*
X267635170Y-93697330D01*
X267727601Y-93625090D01*
X267823835Y-93556858D01*
X267923710Y-93492779D01*
X268027066Y-93432995D01*
X268133744Y-93377653D01*
X268243584Y-93326896D01*
X268356424Y-93280868D01*
X268472106Y-93239715D01*
X268590470Y-93203580D01*
X268711354Y-93172609D01*
X268834600Y-93146944D01*
X268960046Y-93126732D01*
X269087534Y-93112116D01*
X269216903Y-93103240D01*
X269347992Y-93100249D01*
X269479082Y-93103240D01*
X280554596Y-95396550D02*
X280557911Y-95278275D01*
X280557911Y-95278275D02*
X280567748Y-95161552D01*
X280567748Y-95161552D02*
X280583948Y-95046527D01*
X280583948Y-95046527D02*
X280606350Y-94933343D01*
X280606350Y-94933343D02*
X280634795Y-94822145D01*
X280634795Y-94822145D02*
X280669123Y-94713078D01*
X280669123Y-94713078D02*
X280709172Y-94606285D01*
X280709172Y-94606285D02*
X280754784Y-94501911D01*
X280754784Y-94501911D02*
X280805799Y-94400101D01*
X280805799Y-94400101D02*
X280862055Y-94300998D01*
X280862055Y-94300998D02*
X280923393Y-94204749D01*
X280923393Y-94204749D02*
X280989654Y-94111495D01*
X280989654Y-94111495D02*
X281060677Y-94021384D01*
X281060677Y-94021384D02*
X281136301Y-93934557D01*
X281136301Y-93934557D02*
X281216368Y-93851161D01*
X281216368Y-93851161D02*
X281300716Y-93771339D01*
X281300716Y-93771339D02*
X281389186Y-93695237D01*
X281389186Y-93695237D02*
X281481618Y-93622997D01*
X281481618Y-93622997D02*
X281577851Y-93554765D01*
X281577851Y-93554765D02*
X281677726Y-93490685D01*
X281677726Y-93490685D02*
X281781082Y-93430902D01*
X281781082Y-93430902D02*
X281887760Y-93375559D01*
X281887760Y-93375559D02*
X281997600Y-93324802D01*
X281997600Y-93324802D02*
X282110440Y-93278775D01*
X282110440Y-93278775D02*
X282226122Y-93237622D01*
X282226122Y-93237622D02*
X282344486Y-93201487D01*
X282344486Y-93201487D02*
X282465370Y-93170515D01*
X282465370Y-93170515D02*
X282588616Y-93144851D01*
X282588616Y-93144851D02*
X282714062Y-93124638D01*
X282714062Y-93124638D02*
X282841550Y-93110022D01*
X282841550Y-93110022D02*
X282970919Y-93101146D01*
X282970919Y-93101146D02*
X283102008Y-93098156D01*
X283102008Y-93098156D02*
X283233098Y-93101146D01*
X283233098Y-93101146D02*
X283362466Y-93110022D01*
X283362466Y-93110022D02*
X283489954Y-93124638D01*
X283489954Y-93124638D02*
X283615401Y-93144851D01*
X283615401Y-93144851D02*
X283738646Y-93170515D01*
X283738646Y-93170515D02*
X283859531Y-93201487D01*
X283859531Y-93201487D02*
X283977894Y-93237622D01*
X283977894Y-93237622D02*
X284093576Y-93278775D01*
X284093576Y-93278775D02*
X284206417Y-93324802D01*
X284206417Y-93324802D02*
X284316256Y-93375559D01*
X284316256Y-93375559D02*
X284422934Y-93430902D01*
X284422934Y-93430902D02*
X284526291Y-93490685D01*
X284526291Y-93490685D02*
X284626166Y-93554765D01*
X284626166Y-93554765D02*
X284722399Y-93622997D01*
X284722399Y-93622997D02*
X284814831Y-93695237D01*
X284814831Y-93695237D02*
X284903301Y-93771339D01*
X284903301Y-93771339D02*
X284987649Y-93851161D01*
X284987649Y-93851161D02*
X285067715Y-93934557D01*
X285067715Y-93934557D02*
X285143340Y-94021384D01*
X285143340Y-94021384D02*
X285214362Y-94111495D01*
X285214362Y-94111495D02*
X285280623Y-94204749D01*
X285280623Y-94204749D02*
X285341961Y-94300998D01*
X285341961Y-94300998D02*
X285398218Y-94400101D01*
X285398218Y-94400101D02*
X285449232Y-94501911D01*
X285449232Y-94501911D02*
X285494844Y-94606285D01*
X285494844Y-94606285D02*
X285534894Y-94713078D01*
X285534894Y-94713078D02*
X285569221Y-94822145D01*
X285569221Y-94822145D02*
X285597666Y-94933343D01*
X285597666Y-94933343D02*
X285620068Y-95046527D01*
X285620068Y-95046527D02*
X285636268Y-95161552D01*
X285636268Y-95161552D02*
X285646106Y-95278275D01*
X285646106Y-95278275D02*
X285649420Y-95396550D01*
X285649420Y-95396550D02*
X285646106Y-95514825D01*
X285646106Y-95514825D02*
X285636268Y-95631547D01*
X285636268Y-95631547D02*
X285620068Y-95746572D01*
X285620068Y-95746572D02*
X285597666Y-95859756D01*
X285597666Y-95859756D02*
X285569221Y-95970954D01*
X285569221Y-95970954D02*
X285534894Y-96080022D01*
X285534894Y-96080022D02*
X285494844Y-96186814D01*
X285494844Y-96186814D02*
X285449232Y-96291188D01*
X285449232Y-96291188D02*
X285398218Y-96392998D01*
X285398218Y-96392998D02*
X285341961Y-96492101D01*
X285341961Y-96492101D02*
X285280623Y-96588350D01*
X285280623Y-96588350D02*
X285214362Y-96681604D01*
X285214362Y-96681604D02*
X285143340Y-96771715D01*
X285143340Y-96771715D02*
X285067715Y-96858542D01*
X285067715Y-96858542D02*
X284987649Y-96941938D01*
X284987649Y-96941938D02*
X284903301Y-97021760D01*
X284903301Y-97021760D02*
X284814831Y-97097863D01*
X284814831Y-97097863D02*
X284722399Y-97170103D01*
X284722399Y-97170103D02*
X284626166Y-97238335D01*
X284626166Y-97238335D02*
X284526291Y-97302415D01*
X284526291Y-97302415D02*
X284422934Y-97362198D01*
X284422934Y-97362198D02*
X284316256Y-97417541D01*
X284316256Y-97417541D02*
X284206417Y-97468298D01*
X284206417Y-97468298D02*
X284093576Y-97514325D01*
X284093576Y-97514325D02*
X283977894Y-97555479D01*
X283977894Y-97555479D02*
X283859531Y-97591613D01*
X283859531Y-97591613D02*
X283738646Y-97622585D01*
X283738646Y-97622585D02*
X283615401Y-97648250D01*
X283615401Y-97648250D02*
X283489954Y-97668462D01*
X283489954Y-97668462D02*
X283362466Y-97683078D01*
X283362466Y-97683078D02*
X283233098Y-97691954D01*
X283233098Y-97691954D02*
X283102008Y-97694945D01*
X283102008Y-97694945D02*
X282970919Y-97691954D01*
X282970919Y-97691954D02*
X282841550Y-97683078D01*
X282841550Y-97683078D02*
X282714062Y-97668462D01*
X282714062Y-97668462D02*
X282588616Y-97648250D01*
X282588616Y-97648250D02*
X282465370Y-97622585D01*
X282465370Y-97622585D02*
X282344486Y-97591613D01*
X282344486Y-97591613D02*
X282226122Y-97555479D01*
X282226122Y-97555479D02*
X282110440Y-97514325D01*
X282110440Y-97514325D02*
X281997600Y-97468298D01*
X281997600Y-97468298D02*
X281887760Y-97417541D01*
X281887760Y-97417541D02*
X281781082Y-97362198D01*
X281781082Y-97362198D02*
X281677726Y-97302415D01*
X281677726Y-97302415D02*
X281577851Y-97238335D01*
X281577851Y-97238335D02*
X281481618Y-97170103D01*
X281481618Y-97170103D02*
X281389186Y-97097863D01*
X281389186Y-97097863D02*
X281300716Y-97021760D01*
X281300716Y-97021760D02*
X281216368Y-96941938D01*
X281216368Y-96941938D02*
X281136301Y-96858542D01*
X281136301Y-96858542D02*
X281060677Y-96771715D01*
X281060677Y-96771715D02*
X280989654Y-96681604D01*
X280989654Y-96681604D02*
X280923393Y-96588350D01*
X280923393Y-96588350D02*
X280862055Y-96492101D01*
X280862055Y-96492101D02*
X280805799Y-96392998D01*
X280805799Y-96392998D02*
X280754784Y-96291188D01*
X280754784Y-96291188D02*
X280709172Y-96186814D01*
X280709172Y-96186814D02*
X280669123Y-96080022D01*
X280669123Y-96080022D02*
X280634795Y-95970954D01*
X280634795Y-95970954D02*
X280606350Y-95859756D01*
X280606350Y-95859756D02*
X280583948Y-95746572D01*
X280583948Y-95746572D02*
X280567748Y-95631547D01*
X280567748Y-95631547D02*
X280557911Y-95514825D01*
X280557911Y-95514825D02*
X280554596Y-95396550D01*
X280554596Y-95396550D02*
X280554596Y-95396550D01*
G36*
X283233098Y-93101146D02*
G01*
X283362466Y-93110022D01*
X283489954Y-93124638D01*
X283615401Y-93144851D01*
X283738646Y-93170515D01*
X283859531Y-93201487D01*
X283977894Y-93237622D01*
X284093576Y-93278775D01*
X284206417Y-93324802D01*
X284316256Y-93375559D01*
X284422934Y-93430902D01*
X284526291Y-93490685D01*
X284626166Y-93554765D01*
X284722399Y-93622997D01*
X284814831Y-93695237D01*
X284903301Y-93771339D01*
X284987649Y-93851161D01*
X285067715Y-93934557D01*
X285143340Y-94021384D01*
X285214362Y-94111495D01*
X285280623Y-94204749D01*
X285341961Y-94300998D01*
X285398218Y-94400101D01*
X285449232Y-94501911D01*
X285494844Y-94606285D01*
X285534894Y-94713078D01*
X285569221Y-94822145D01*
X285597666Y-94933343D01*
X285620068Y-95046527D01*
X285636268Y-95161552D01*
X285646106Y-95278275D01*
X285649420Y-95396550D01*
X285646106Y-95514825D01*
X285636268Y-95631547D01*
X285620068Y-95746572D01*
X285597666Y-95859756D01*
X285569221Y-95970954D01*
X285534894Y-96080022D01*
X285494844Y-96186814D01*
X285449232Y-96291188D01*
X285398218Y-96392998D01*
X285341961Y-96492101D01*
X285280623Y-96588350D01*
X285214362Y-96681604D01*
X285143340Y-96771715D01*
X285067715Y-96858542D01*
X284987649Y-96941938D01*
X284903301Y-97021760D01*
X284814831Y-97097863D01*
X284722399Y-97170103D01*
X284626166Y-97238335D01*
X284526291Y-97302415D01*
X284422934Y-97362198D01*
X284316256Y-97417541D01*
X284206417Y-97468298D01*
X284093576Y-97514325D01*
X283977894Y-97555479D01*
X283859531Y-97591613D01*
X283738646Y-97622585D01*
X283615401Y-97648250D01*
X283489954Y-97668462D01*
X283362466Y-97683078D01*
X283233098Y-97691954D01*
X283102008Y-97694945D01*
X282970919Y-97691954D01*
X282841550Y-97683078D01*
X282714062Y-97668462D01*
X282588616Y-97648250D01*
X282465370Y-97622585D01*
X282344486Y-97591613D01*
X282226122Y-97555479D01*
X282110440Y-97514325D01*
X281997600Y-97468298D01*
X281887760Y-97417541D01*
X281781082Y-97362198D01*
X281677726Y-97302415D01*
X281577851Y-97238335D01*
X281481618Y-97170103D01*
X281389186Y-97097863D01*
X281300716Y-97021760D01*
X281216368Y-96941938D01*
X281136301Y-96858542D01*
X281060677Y-96771715D01*
X280989654Y-96681604D01*
X280923393Y-96588350D01*
X280862055Y-96492101D01*
X280805799Y-96392998D01*
X280754784Y-96291188D01*
X280709172Y-96186814D01*
X280669123Y-96080022D01*
X280634795Y-95970954D01*
X280606350Y-95859756D01*
X280583948Y-95746572D01*
X280567748Y-95631547D01*
X280557911Y-95514825D01*
X280554596Y-95396550D01*
X280557911Y-95278275D01*
X280567748Y-95161552D01*
X280583948Y-95046527D01*
X280606350Y-94933343D01*
X280634795Y-94822145D01*
X280669123Y-94713078D01*
X280709172Y-94606285D01*
X280754784Y-94501911D01*
X280805799Y-94400101D01*
X280862055Y-94300998D01*
X280923393Y-94204749D01*
X280989654Y-94111495D01*
X281060677Y-94021384D01*
X281136301Y-93934557D01*
X281216368Y-93851161D01*
X281300716Y-93771339D01*
X281389186Y-93695237D01*
X281481618Y-93622997D01*
X281577851Y-93554765D01*
X281677726Y-93490685D01*
X281781082Y-93430902D01*
X281887760Y-93375559D01*
X281997600Y-93324802D01*
X282110440Y-93278775D01*
X282226122Y-93237622D01*
X282344486Y-93201487D01*
X282465370Y-93170515D01*
X282588616Y-93144851D01*
X282714062Y-93124638D01*
X282841550Y-93110022D01*
X282970919Y-93101146D01*
X283102008Y-93098156D01*
X283233098Y-93101146D01*
G37*
X283233098Y-93101146D02*
X283362466Y-93110022D01*
X283489954Y-93124638D01*
X283615401Y-93144851D01*
X283738646Y-93170515D01*
X283859531Y-93201487D01*
X283977894Y-93237622D01*
X284093576Y-93278775D01*
X284206417Y-93324802D01*
X284316256Y-93375559D01*
X284422934Y-93430902D01*
X284526291Y-93490685D01*
X284626166Y-93554765D01*
X284722399Y-93622997D01*
X284814831Y-93695237D01*
X284903301Y-93771339D01*
X284987649Y-93851161D01*
X285067715Y-93934557D01*
X285143340Y-94021384D01*
X285214362Y-94111495D01*
X285280623Y-94204749D01*
X285341961Y-94300998D01*
X285398218Y-94400101D01*
X285449232Y-94501911D01*
X285494844Y-94606285D01*
X285534894Y-94713078D01*
X285569221Y-94822145D01*
X285597666Y-94933343D01*
X285620068Y-95046527D01*
X285636268Y-95161552D01*
X285646106Y-95278275D01*
X285649420Y-95396550D01*
X285646106Y-95514825D01*
X285636268Y-95631547D01*
X285620068Y-95746572D01*
X285597666Y-95859756D01*
X285569221Y-95970954D01*
X285534894Y-96080022D01*
X285494844Y-96186814D01*
X285449232Y-96291188D01*
X285398218Y-96392998D01*
X285341961Y-96492101D01*
X285280623Y-96588350D01*
X285214362Y-96681604D01*
X285143340Y-96771715D01*
X285067715Y-96858542D01*
X284987649Y-96941938D01*
X284903301Y-97021760D01*
X284814831Y-97097863D01*
X284722399Y-97170103D01*
X284626166Y-97238335D01*
X284526291Y-97302415D01*
X284422934Y-97362198D01*
X284316256Y-97417541D01*
X284206417Y-97468298D01*
X284093576Y-97514325D01*
X283977894Y-97555479D01*
X283859531Y-97591613D01*
X283738646Y-97622585D01*
X283615401Y-97648250D01*
X283489954Y-97668462D01*
X283362466Y-97683078D01*
X283233098Y-97691954D01*
X283102008Y-97694945D01*
X282970919Y-97691954D01*
X282841550Y-97683078D01*
X282714062Y-97668462D01*
X282588616Y-97648250D01*
X282465370Y-97622585D01*
X282344486Y-97591613D01*
X282226122Y-97555479D01*
X282110440Y-97514325D01*
X281997600Y-97468298D01*
X281887760Y-97417541D01*
X281781082Y-97362198D01*
X281677726Y-97302415D01*
X281577851Y-97238335D01*
X281481618Y-97170103D01*
X281389186Y-97097863D01*
X281300716Y-97021760D01*
X281216368Y-96941938D01*
X281136301Y-96858542D01*
X281060677Y-96771715D01*
X280989654Y-96681604D01*
X280923393Y-96588350D01*
X280862055Y-96492101D01*
X280805799Y-96392998D01*
X280754784Y-96291188D01*
X280709172Y-96186814D01*
X280669123Y-96080022D01*
X280634795Y-95970954D01*
X280606350Y-95859756D01*
X280583948Y-95746572D01*
X280567748Y-95631547D01*
X280557911Y-95514825D01*
X280554596Y-95396550D01*
X280557911Y-95278275D01*
X280567748Y-95161552D01*
X280583948Y-95046527D01*
X280606350Y-94933343D01*
X280634795Y-94822145D01*
X280669123Y-94713078D01*
X280709172Y-94606285D01*
X280754784Y-94501911D01*
X280805799Y-94400101D01*
X280862055Y-94300998D01*
X280923393Y-94204749D01*
X280989654Y-94111495D01*
X281060677Y-94021384D01*
X281136301Y-93934557D01*
X281216368Y-93851161D01*
X281300716Y-93771339D01*
X281389186Y-93695237D01*
X281481618Y-93622997D01*
X281577851Y-93554765D01*
X281677726Y-93490685D01*
X281781082Y-93430902D01*
X281887760Y-93375559D01*
X281997600Y-93324802D01*
X282110440Y-93278775D01*
X282226122Y-93237622D01*
X282344486Y-93201487D01*
X282465370Y-93170515D01*
X282588616Y-93144851D01*
X282714062Y-93124638D01*
X282841550Y-93110022D01*
X282970919Y-93101146D01*
X283102008Y-93098156D01*
X283233098Y-93101146D01*
D11*
X284614530Y-95250002D02*
X284603537Y-95590026D01*
X284603537Y-95590026D02*
X284570915Y-95925587D01*
X284570915Y-95925587D02*
X284517193Y-96256269D01*
X284517193Y-96256269D02*
X284442902Y-96581657D01*
X284442902Y-96581657D02*
X284348574Y-96901335D01*
X284348574Y-96901335D02*
X284234738Y-97214890D01*
X284234738Y-97214890D02*
X284101926Y-97521904D01*
X284101926Y-97521904D02*
X283950668Y-97821964D01*
X283950668Y-97821964D02*
X283781495Y-98114655D01*
X283781495Y-98114655D02*
X283594938Y-98399560D01*
X283594938Y-98399560D02*
X283391528Y-98676265D01*
X283391528Y-98676265D02*
X283171796Y-98944354D01*
X283171796Y-98944354D02*
X282936272Y-99203413D01*
X282936272Y-99203413D02*
X282685486Y-99453027D01*
X282685486Y-99453027D02*
X282419971Y-99692779D01*
X282419971Y-99692779D02*
X282140257Y-99922256D01*
X282140257Y-99922256D02*
X281846874Y-100141041D01*
X281846874Y-100141041D02*
X281540353Y-100348720D01*
X281540353Y-100348720D02*
X281221225Y-100544877D01*
X281221225Y-100544877D02*
X280890021Y-100729098D01*
X280890021Y-100729098D02*
X280547271Y-100900967D01*
X280547271Y-100900967D02*
X280193507Y-101060069D01*
X280193507Y-101060069D02*
X279829259Y-101205989D01*
X279829259Y-101205989D02*
X279455058Y-101338311D01*
X279455058Y-101338311D02*
X279071435Y-101456621D01*
X279071435Y-101456621D02*
X278678920Y-101560503D01*
X278678920Y-101560503D02*
X278278044Y-101649543D01*
X278278044Y-101649543D02*
X277869339Y-101723324D01*
X277869339Y-101723324D02*
X277453334Y-101781432D01*
X277453334Y-101781432D02*
X277030561Y-101823452D01*
X277030561Y-101823452D02*
X276601551Y-101848968D01*
X276601551Y-101848968D02*
X276166834Y-101857566D01*
X276166834Y-101857566D02*
X275732116Y-101848968D01*
X275732116Y-101848968D02*
X275303106Y-101823452D01*
X275303106Y-101823452D02*
X274464328Y-101723324D01*
X274464328Y-101723324D02*
X273654747Y-101560503D01*
X273654747Y-101560503D02*
X272878609Y-101338311D01*
X272878609Y-101338311D02*
X272140160Y-101060069D01*
X272140160Y-101060069D02*
X271443647Y-100729098D01*
X271443647Y-100729098D02*
X270793315Y-100348720D01*
X270793315Y-100348720D02*
X270193411Y-99922256D01*
X270193411Y-99922256D02*
X269913696Y-99692779D01*
X269913696Y-99692779D02*
X269648181Y-99453027D01*
X269648181Y-99453027D02*
X269397396Y-99203413D01*
X269397396Y-99203413D02*
X269161872Y-98944354D01*
X269161872Y-98944354D02*
X268942139Y-98676265D01*
X268942139Y-98676265D02*
X268738729Y-98399560D01*
X268738729Y-98399560D02*
X268552172Y-98114655D01*
X268552172Y-98114655D02*
X268383000Y-97821964D01*
X268383000Y-97821964D02*
X268231742Y-97521904D01*
X268231742Y-97521904D02*
X268098929Y-97214890D01*
X268098929Y-97214890D02*
X267985094Y-96901335D01*
X267985094Y-96901335D02*
X267890765Y-96581657D01*
X267890765Y-96581657D02*
X267816474Y-96256269D01*
X267816474Y-96256269D02*
X267762752Y-95925587D01*
X267762752Y-95925587D02*
X267730130Y-95590026D01*
X267730130Y-95590026D02*
X267719138Y-95250002D01*
X267719138Y-95250002D02*
X267730130Y-94909977D01*
X267730130Y-94909977D02*
X267762752Y-94574416D01*
X267762752Y-94574416D02*
X267816474Y-94243734D01*
X267816474Y-94243734D02*
X267890765Y-93918347D01*
X267890765Y-93918347D02*
X267985094Y-93598668D01*
X267985094Y-93598668D02*
X268098929Y-93285113D01*
X268098929Y-93285113D02*
X268231742Y-92978099D01*
X268231742Y-92978099D02*
X268383000Y-92678039D01*
X268383000Y-92678039D02*
X268552172Y-92385348D01*
X268552172Y-92385348D02*
X268738729Y-92100443D01*
X268738729Y-92100443D02*
X268942139Y-91823738D01*
X268942139Y-91823738D02*
X269161872Y-91555648D01*
X269161872Y-91555648D02*
X269397396Y-91296589D01*
X269397396Y-91296589D02*
X269648181Y-91046975D01*
X269648181Y-91046975D02*
X269913696Y-90807223D01*
X269913696Y-90807223D02*
X270193411Y-90577746D01*
X270193411Y-90577746D02*
X270486794Y-90358961D01*
X270486794Y-90358961D02*
X270793315Y-90151282D01*
X270793315Y-90151282D02*
X271112443Y-89955124D01*
X271112443Y-89955124D02*
X271443647Y-89770903D01*
X271443647Y-89770903D02*
X271786396Y-89599034D01*
X271786396Y-89599034D02*
X272140160Y-89439932D01*
X272140160Y-89439932D02*
X272504408Y-89294012D01*
X272504408Y-89294012D02*
X272878609Y-89161690D01*
X272878609Y-89161690D02*
X273262233Y-89043380D01*
X273262233Y-89043380D02*
X273654747Y-88939497D01*
X273654747Y-88939497D02*
X274055623Y-88850458D01*
X274055623Y-88850458D02*
X274464328Y-88776676D01*
X274464328Y-88776676D02*
X274880333Y-88718568D01*
X274880333Y-88718568D02*
X275303106Y-88676548D01*
X275303106Y-88676548D02*
X275732116Y-88651032D01*
X275732116Y-88651032D02*
X276166834Y-88642434D01*
X276166834Y-88642434D02*
X276601551Y-88651032D01*
X276601551Y-88651032D02*
X277030561Y-88676548D01*
X277030561Y-88676548D02*
X277869339Y-88776676D01*
X277869339Y-88776676D02*
X278678920Y-88939497D01*
X278678920Y-88939497D02*
X279455058Y-89161690D01*
X279455058Y-89161690D02*
X280193507Y-89439932D01*
X280193507Y-89439932D02*
X280890021Y-89770903D01*
X280890021Y-89770903D02*
X281540353Y-90151282D01*
X281540353Y-90151282D02*
X282140257Y-90577746D01*
X282140257Y-90577746D02*
X282419971Y-90807223D01*
X282419971Y-90807223D02*
X282685486Y-91046975D01*
X282685486Y-91046975D02*
X282936272Y-91296589D01*
X282936272Y-91296589D02*
X283171796Y-91555648D01*
X283171796Y-91555648D02*
X283391528Y-91823738D01*
X283391528Y-91823738D02*
X283594938Y-92100443D01*
X283594938Y-92100443D02*
X283781495Y-92385348D01*
X283781495Y-92385348D02*
X283950668Y-92678039D01*
X283950668Y-92678039D02*
X284101926Y-92978099D01*
X284101926Y-92978099D02*
X284234738Y-93285113D01*
X284234738Y-93285113D02*
X284348574Y-93598668D01*
X284348574Y-93598668D02*
X284442902Y-93918347D01*
X284442902Y-93918347D02*
X284517193Y-94243734D01*
X284517193Y-94243734D02*
X284570915Y-94574416D01*
X284570915Y-94574416D02*
X284603537Y-94909977D01*
X284603537Y-94909977D02*
X284614530Y-95250002D01*
X284614530Y-95250002D02*
X284614530Y-95250002D01*
G36*
X276601551Y-88651032D02*
G01*
X277030561Y-88676548D01*
X277869339Y-88776676D01*
X278678920Y-88939497D01*
X279455058Y-89161690D01*
X280193507Y-89439932D01*
X280890021Y-89770903D01*
X281540353Y-90151282D01*
X282140257Y-90577746D01*
X282419971Y-90807223D01*
X282685486Y-91046975D01*
X282936272Y-91296589D01*
X283171796Y-91555648D01*
X283391528Y-91823738D01*
X283594938Y-92100443D01*
X283781495Y-92385348D01*
X283950668Y-92678039D01*
X284101926Y-92978099D01*
X284234738Y-93285113D01*
X284348574Y-93598668D01*
X284442902Y-93918347D01*
X284517193Y-94243734D01*
X284570915Y-94574416D01*
X284603537Y-94909977D01*
X284614530Y-95250002D01*
X284603537Y-95590026D01*
X284570915Y-95925587D01*
X284517193Y-96256269D01*
X284442902Y-96581657D01*
X284348574Y-96901335D01*
X284234738Y-97214890D01*
X284101926Y-97521904D01*
X283950668Y-97821964D01*
X283781495Y-98114655D01*
X283594938Y-98399560D01*
X283391528Y-98676265D01*
X283171796Y-98944354D01*
X282936272Y-99203413D01*
X282685486Y-99453027D01*
X282419971Y-99692779D01*
X282140257Y-99922256D01*
X281846874Y-100141041D01*
X281540353Y-100348720D01*
X281221225Y-100544877D01*
X280890021Y-100729098D01*
X280547271Y-100900967D01*
X280193507Y-101060069D01*
X279829259Y-101205989D01*
X279455058Y-101338311D01*
X279071435Y-101456621D01*
X278678920Y-101560503D01*
X278278044Y-101649543D01*
X277869339Y-101723324D01*
X277453334Y-101781432D01*
X277030561Y-101823452D01*
X276601551Y-101848968D01*
X276166834Y-101857566D01*
X275732116Y-101848968D01*
X275303106Y-101823452D01*
X274464328Y-101723324D01*
X273654747Y-101560503D01*
X272878609Y-101338311D01*
X272140160Y-101060069D01*
X271443647Y-100729098D01*
X270793315Y-100348720D01*
X270193411Y-99922256D01*
X269913696Y-99692779D01*
X269648181Y-99453027D01*
X269397396Y-99203413D01*
X269161872Y-98944354D01*
X268942139Y-98676265D01*
X268738729Y-98399560D01*
X268552172Y-98114655D01*
X268383000Y-97821964D01*
X268231742Y-97521904D01*
X268098929Y-97214890D01*
X267985094Y-96901335D01*
X267890765Y-96581657D01*
X267816474Y-96256269D01*
X267762752Y-95925587D01*
X267730130Y-95590026D01*
X267719138Y-95250002D01*
X267730130Y-94909977D01*
X267762752Y-94574416D01*
X267816474Y-94243734D01*
X267890765Y-93918347D01*
X267985094Y-93598668D01*
X268098929Y-93285113D01*
X268231742Y-92978099D01*
X268383000Y-92678039D01*
X268552172Y-92385348D01*
X268738729Y-92100443D01*
X268942139Y-91823738D01*
X269161872Y-91555648D01*
X269397396Y-91296589D01*
X269648181Y-91046975D01*
X269913696Y-90807223D01*
X270193411Y-90577746D01*
X270486794Y-90358961D01*
X270793315Y-90151282D01*
X271112443Y-89955124D01*
X271443647Y-89770903D01*
X271786396Y-89599034D01*
X272140160Y-89439932D01*
X272504408Y-89294012D01*
X272878609Y-89161690D01*
X273262233Y-89043380D01*
X273654747Y-88939497D01*
X274055623Y-88850458D01*
X274464328Y-88776676D01*
X274880333Y-88718568D01*
X275303106Y-88676548D01*
X275732116Y-88651032D01*
X276166834Y-88642434D01*
X276601551Y-88651032D01*
G37*
X276601551Y-88651032D02*
X277030561Y-88676548D01*
X277869339Y-88776676D01*
X278678920Y-88939497D01*
X279455058Y-89161690D01*
X280193507Y-89439932D01*
X280890021Y-89770903D01*
X281540353Y-90151282D01*
X282140257Y-90577746D01*
X282419971Y-90807223D01*
X282685486Y-91046975D01*
X282936272Y-91296589D01*
X283171796Y-91555648D01*
X283391528Y-91823738D01*
X283594938Y-92100443D01*
X283781495Y-92385348D01*
X283950668Y-92678039D01*
X284101926Y-92978099D01*
X284234738Y-93285113D01*
X284348574Y-93598668D01*
X284442902Y-93918347D01*
X284517193Y-94243734D01*
X284570915Y-94574416D01*
X284603537Y-94909977D01*
X284614530Y-95250002D01*
X284603537Y-95590026D01*
X284570915Y-95925587D01*
X284517193Y-96256269D01*
X284442902Y-96581657D01*
X284348574Y-96901335D01*
X284234738Y-97214890D01*
X284101926Y-97521904D01*
X283950668Y-97821964D01*
X283781495Y-98114655D01*
X283594938Y-98399560D01*
X283391528Y-98676265D01*
X283171796Y-98944354D01*
X282936272Y-99203413D01*
X282685486Y-99453027D01*
X282419971Y-99692779D01*
X282140257Y-99922256D01*
X281846874Y-100141041D01*
X281540353Y-100348720D01*
X281221225Y-100544877D01*
X280890021Y-100729098D01*
X280547271Y-100900967D01*
X280193507Y-101060069D01*
X279829259Y-101205989D01*
X279455058Y-101338311D01*
X279071435Y-101456621D01*
X278678920Y-101560503D01*
X278278044Y-101649543D01*
X277869339Y-101723324D01*
X277453334Y-101781432D01*
X277030561Y-101823452D01*
X276601551Y-101848968D01*
X276166834Y-101857566D01*
X275732116Y-101848968D01*
X275303106Y-101823452D01*
X274464328Y-101723324D01*
X273654747Y-101560503D01*
X272878609Y-101338311D01*
X272140160Y-101060069D01*
X271443647Y-100729098D01*
X270793315Y-100348720D01*
X270193411Y-99922256D01*
X269913696Y-99692779D01*
X269648181Y-99453027D01*
X269397396Y-99203413D01*
X269161872Y-98944354D01*
X268942139Y-98676265D01*
X268738729Y-98399560D01*
X268552172Y-98114655D01*
X268383000Y-97821964D01*
X268231742Y-97521904D01*
X268098929Y-97214890D01*
X267985094Y-96901335D01*
X267890765Y-96581657D01*
X267816474Y-96256269D01*
X267762752Y-95925587D01*
X267730130Y-95590026D01*
X267719138Y-95250002D01*
X267730130Y-94909977D01*
X267762752Y-94574416D01*
X267816474Y-94243734D01*
X267890765Y-93918347D01*
X267985094Y-93598668D01*
X268098929Y-93285113D01*
X268231742Y-92978099D01*
X268383000Y-92678039D01*
X268552172Y-92385348D01*
X268738729Y-92100443D01*
X268942139Y-91823738D01*
X269161872Y-91555648D01*
X269397396Y-91296589D01*
X269648181Y-91046975D01*
X269913696Y-90807223D01*
X270193411Y-90577746D01*
X270486794Y-90358961D01*
X270793315Y-90151282D01*
X271112443Y-89955124D01*
X271443647Y-89770903D01*
X271786396Y-89599034D01*
X272140160Y-89439932D01*
X272504408Y-89294012D01*
X272878609Y-89161690D01*
X273262233Y-89043380D01*
X273654747Y-88939497D01*
X274055623Y-88850458D01*
X274464328Y-88776676D01*
X274880333Y-88718568D01*
X275303106Y-88676548D01*
X275732116Y-88651032D01*
X276166834Y-88642434D01*
X276601551Y-88651032D01*
D10*
X190616780Y-95408832D02*
X190620095Y-95290556D01*
X190620095Y-95290556D02*
X190629932Y-95173834D01*
X190629932Y-95173834D02*
X190646132Y-95058809D01*
X190646132Y-95058809D02*
X190668534Y-94945625D01*
X190668534Y-94945625D02*
X190696979Y-94834427D01*
X190696979Y-94834427D02*
X190731307Y-94725359D01*
X190731307Y-94725359D02*
X190771356Y-94618566D01*
X190771356Y-94618566D02*
X190816968Y-94514192D01*
X190816968Y-94514192D02*
X190867982Y-94412382D01*
X190867982Y-94412382D02*
X190924239Y-94313280D01*
X190924239Y-94313280D02*
X190985577Y-94217030D01*
X190985577Y-94217030D02*
X191051838Y-94123777D01*
X191051838Y-94123777D02*
X191122861Y-94033665D01*
X191122861Y-94033665D02*
X191198485Y-93946839D01*
X191198485Y-93946839D02*
X191278551Y-93863443D01*
X191278551Y-93863443D02*
X191362900Y-93783621D01*
X191362900Y-93783621D02*
X191451370Y-93707518D01*
X191451370Y-93707518D02*
X191543801Y-93635278D01*
X191543801Y-93635278D02*
X191640035Y-93567046D01*
X191640035Y-93567046D02*
X191739910Y-93502967D01*
X191739910Y-93502967D02*
X191843266Y-93443183D01*
X191843266Y-93443183D02*
X191949944Y-93387841D01*
X191949944Y-93387841D02*
X192059784Y-93337084D01*
X192059784Y-93337084D02*
X192172624Y-93291056D01*
X192172624Y-93291056D02*
X192288306Y-93249903D01*
X192288306Y-93249903D02*
X192406670Y-93213768D01*
X192406670Y-93213768D02*
X192527554Y-93182797D01*
X192527554Y-93182797D02*
X192650800Y-93157132D01*
X192650800Y-93157132D02*
X192776246Y-93136920D01*
X192776246Y-93136920D02*
X192903734Y-93122304D01*
X192903734Y-93122304D02*
X193033103Y-93113428D01*
X193033103Y-93113428D02*
X193164192Y-93110437D01*
X193164192Y-93110437D02*
X193295282Y-93113428D01*
X193295282Y-93113428D02*
X193424650Y-93122304D01*
X193424650Y-93122304D02*
X193552138Y-93136920D01*
X193552138Y-93136920D02*
X193677585Y-93157132D01*
X193677585Y-93157132D02*
X193800830Y-93182797D01*
X193800830Y-93182797D02*
X193921715Y-93213768D01*
X193921715Y-93213768D02*
X194040078Y-93249903D01*
X194040078Y-93249903D02*
X194155760Y-93291056D01*
X194155760Y-93291056D02*
X194268601Y-93337084D01*
X194268601Y-93337084D02*
X194378440Y-93387841D01*
X194378440Y-93387841D02*
X194485118Y-93443183D01*
X194485118Y-93443183D02*
X194588474Y-93502967D01*
X194588474Y-93502967D02*
X194688349Y-93567046D01*
X194688349Y-93567046D02*
X194784583Y-93635278D01*
X194784583Y-93635278D02*
X194877015Y-93707518D01*
X194877015Y-93707518D02*
X194965485Y-93783621D01*
X194965485Y-93783621D02*
X195049833Y-93863443D01*
X195049833Y-93863443D02*
X195129899Y-93946839D01*
X195129899Y-93946839D02*
X195205524Y-94033665D01*
X195205524Y-94033665D02*
X195276546Y-94123777D01*
X195276546Y-94123777D02*
X195342807Y-94217030D01*
X195342807Y-94217030D02*
X195404145Y-94313280D01*
X195404145Y-94313280D02*
X195460402Y-94412382D01*
X195460402Y-94412382D02*
X195511416Y-94514192D01*
X195511416Y-94514192D02*
X195557028Y-94618566D01*
X195557028Y-94618566D02*
X195597078Y-94725359D01*
X195597078Y-94725359D02*
X195631405Y-94834427D01*
X195631405Y-94834427D02*
X195659850Y-94945625D01*
X195659850Y-94945625D02*
X195682252Y-95058809D01*
X195682252Y-95058809D02*
X195698452Y-95173834D01*
X195698452Y-95173834D02*
X195708290Y-95290556D01*
X195708290Y-95290556D02*
X195711604Y-95408832D01*
X195711604Y-95408832D02*
X195708290Y-95527106D01*
X195708290Y-95527106D02*
X195698452Y-95643829D01*
X195698452Y-95643829D02*
X195682252Y-95758854D01*
X195682252Y-95758854D02*
X195659850Y-95872038D01*
X195659850Y-95872038D02*
X195631405Y-95983236D01*
X195631405Y-95983236D02*
X195597078Y-96092303D01*
X195597078Y-96092303D02*
X195557028Y-96199096D01*
X195557028Y-96199096D02*
X195511416Y-96303470D01*
X195511416Y-96303470D02*
X195460402Y-96405280D01*
X195460402Y-96405280D02*
X195404145Y-96504382D01*
X195404145Y-96504382D02*
X195342807Y-96600632D01*
X195342807Y-96600632D02*
X195276546Y-96693885D01*
X195276546Y-96693885D02*
X195205524Y-96783997D01*
X195205524Y-96783997D02*
X195129899Y-96870823D01*
X195129899Y-96870823D02*
X195049833Y-96954220D01*
X195049833Y-96954220D02*
X194965485Y-97034041D01*
X194965485Y-97034041D02*
X194877015Y-97110144D01*
X194877015Y-97110144D02*
X194784583Y-97182384D01*
X194784583Y-97182384D02*
X194688349Y-97250616D01*
X194688349Y-97250616D02*
X194588474Y-97314696D01*
X194588474Y-97314696D02*
X194485118Y-97374480D01*
X194485118Y-97374480D02*
X194378440Y-97429822D01*
X194378440Y-97429822D02*
X194268601Y-97480579D01*
X194268601Y-97480579D02*
X194155760Y-97526607D01*
X194155760Y-97526607D02*
X194040078Y-97567760D01*
X194040078Y-97567760D02*
X193921715Y-97603895D01*
X193921715Y-97603895D02*
X193800830Y-97634867D01*
X193800830Y-97634867D02*
X193677585Y-97660531D01*
X193677585Y-97660531D02*
X193552138Y-97680744D01*
X193552138Y-97680744D02*
X193424650Y-97695360D01*
X193424650Y-97695360D02*
X193295282Y-97704236D01*
X193295282Y-97704236D02*
X193164192Y-97707226D01*
X193164192Y-97707226D02*
X193033103Y-97704236D01*
X193033103Y-97704236D02*
X192903734Y-97695360D01*
X192903734Y-97695360D02*
X192776246Y-97680744D01*
X192776246Y-97680744D02*
X192650800Y-97660531D01*
X192650800Y-97660531D02*
X192527554Y-97634867D01*
X192527554Y-97634867D02*
X192406670Y-97603895D01*
X192406670Y-97603895D02*
X192288306Y-97567760D01*
X192288306Y-97567760D02*
X192172624Y-97526607D01*
X192172624Y-97526607D02*
X192059784Y-97480579D01*
X192059784Y-97480579D02*
X191949944Y-97429822D01*
X191949944Y-97429822D02*
X191843266Y-97374480D01*
X191843266Y-97374480D02*
X191739910Y-97314696D01*
X191739910Y-97314696D02*
X191640035Y-97250616D01*
X191640035Y-97250616D02*
X191543801Y-97182384D01*
X191543801Y-97182384D02*
X191451370Y-97110144D01*
X191451370Y-97110144D02*
X191362900Y-97034041D01*
X191362900Y-97034041D02*
X191278551Y-96954220D01*
X191278551Y-96954220D02*
X191198485Y-96870823D01*
X191198485Y-96870823D02*
X191122861Y-96783997D01*
X191122861Y-96783997D02*
X191051838Y-96693885D01*
X191051838Y-96693885D02*
X190985577Y-96600632D01*
X190985577Y-96600632D02*
X190924239Y-96504382D01*
X190924239Y-96504382D02*
X190867982Y-96405280D01*
X190867982Y-96405280D02*
X190816968Y-96303470D01*
X190816968Y-96303470D02*
X190771356Y-96199096D01*
X190771356Y-96199096D02*
X190731307Y-96092303D01*
X190731307Y-96092303D02*
X190696979Y-95983236D01*
X190696979Y-95983236D02*
X190668534Y-95872038D01*
X190668534Y-95872038D02*
X190646132Y-95758854D01*
X190646132Y-95758854D02*
X190629932Y-95643829D01*
X190629932Y-95643829D02*
X190620095Y-95527106D01*
X190620095Y-95527106D02*
X190616780Y-95408832D01*
X190616780Y-95408832D02*
X190616780Y-95408832D01*
G36*
X193295282Y-93113428D02*
G01*
X193424650Y-93122304D01*
X193552138Y-93136920D01*
X193677585Y-93157132D01*
X193800830Y-93182797D01*
X193921715Y-93213768D01*
X194040078Y-93249903D01*
X194155760Y-93291056D01*
X194268601Y-93337084D01*
X194378440Y-93387841D01*
X194485118Y-93443183D01*
X194588474Y-93502967D01*
X194688349Y-93567046D01*
X194784583Y-93635278D01*
X194877015Y-93707518D01*
X194965485Y-93783621D01*
X195049833Y-93863443D01*
X195129899Y-93946839D01*
X195205524Y-94033665D01*
X195276546Y-94123777D01*
X195342807Y-94217030D01*
X195404145Y-94313280D01*
X195460402Y-94412382D01*
X195511416Y-94514192D01*
X195557028Y-94618566D01*
X195597078Y-94725359D01*
X195631405Y-94834427D01*
X195659850Y-94945625D01*
X195682252Y-95058809D01*
X195698452Y-95173834D01*
X195708290Y-95290556D01*
X195711604Y-95408832D01*
X195708290Y-95527106D01*
X195698452Y-95643829D01*
X195682252Y-95758854D01*
X195659850Y-95872038D01*
X195631405Y-95983236D01*
X195597078Y-96092303D01*
X195557028Y-96199096D01*
X195511416Y-96303470D01*
X195460402Y-96405280D01*
X195404145Y-96504382D01*
X195342807Y-96600632D01*
X195276546Y-96693885D01*
X195205524Y-96783997D01*
X195129899Y-96870823D01*
X195049833Y-96954220D01*
X194965485Y-97034041D01*
X194877015Y-97110144D01*
X194784583Y-97182384D01*
X194688349Y-97250616D01*
X194588474Y-97314696D01*
X194485118Y-97374480D01*
X194378440Y-97429822D01*
X194268601Y-97480579D01*
X194155760Y-97526607D01*
X194040078Y-97567760D01*
X193921715Y-97603895D01*
X193800830Y-97634867D01*
X193677585Y-97660531D01*
X193552138Y-97680744D01*
X193424650Y-97695360D01*
X193295282Y-97704236D01*
X193164192Y-97707226D01*
X193033103Y-97704236D01*
X192903734Y-97695360D01*
X192776246Y-97680744D01*
X192650800Y-97660531D01*
X192527554Y-97634867D01*
X192406670Y-97603895D01*
X192288306Y-97567760D01*
X192172624Y-97526607D01*
X192059784Y-97480579D01*
X191949944Y-97429822D01*
X191843266Y-97374480D01*
X191739910Y-97314696D01*
X191640035Y-97250616D01*
X191543801Y-97182384D01*
X191451370Y-97110144D01*
X191362900Y-97034041D01*
X191278551Y-96954220D01*
X191198485Y-96870823D01*
X191122861Y-96783997D01*
X191051838Y-96693885D01*
X190985577Y-96600632D01*
X190924239Y-96504382D01*
X190867982Y-96405280D01*
X190816968Y-96303470D01*
X190771356Y-96199096D01*
X190731307Y-96092303D01*
X190696979Y-95983236D01*
X190668534Y-95872038D01*
X190646132Y-95758854D01*
X190629932Y-95643829D01*
X190620095Y-95527106D01*
X190616780Y-95408832D01*
X190620095Y-95290556D01*
X190629932Y-95173834D01*
X190646132Y-95058809D01*
X190668534Y-94945625D01*
X190696979Y-94834427D01*
X190731307Y-94725359D01*
X190771356Y-94618566D01*
X190816968Y-94514192D01*
X190867982Y-94412382D01*
X190924239Y-94313280D01*
X190985577Y-94217030D01*
X191051838Y-94123777D01*
X191122861Y-94033665D01*
X191198485Y-93946839D01*
X191278551Y-93863443D01*
X191362900Y-93783621D01*
X191451370Y-93707518D01*
X191543801Y-93635278D01*
X191640035Y-93567046D01*
X191739910Y-93502967D01*
X191843266Y-93443183D01*
X191949944Y-93387841D01*
X192059784Y-93337084D01*
X192172624Y-93291056D01*
X192288306Y-93249903D01*
X192406670Y-93213768D01*
X192527554Y-93182797D01*
X192650800Y-93157132D01*
X192776246Y-93136920D01*
X192903734Y-93122304D01*
X193033103Y-93113428D01*
X193164192Y-93110437D01*
X193295282Y-93113428D01*
G37*
X193295282Y-93113428D02*
X193424650Y-93122304D01*
X193552138Y-93136920D01*
X193677585Y-93157132D01*
X193800830Y-93182797D01*
X193921715Y-93213768D01*
X194040078Y-93249903D01*
X194155760Y-93291056D01*
X194268601Y-93337084D01*
X194378440Y-93387841D01*
X194485118Y-93443183D01*
X194588474Y-93502967D01*
X194688349Y-93567046D01*
X194784583Y-93635278D01*
X194877015Y-93707518D01*
X194965485Y-93783621D01*
X195049833Y-93863443D01*
X195129899Y-93946839D01*
X195205524Y-94033665D01*
X195276546Y-94123777D01*
X195342807Y-94217030D01*
X195404145Y-94313280D01*
X195460402Y-94412382D01*
X195511416Y-94514192D01*
X195557028Y-94618566D01*
X195597078Y-94725359D01*
X195631405Y-94834427D01*
X195659850Y-94945625D01*
X195682252Y-95058809D01*
X195698452Y-95173834D01*
X195708290Y-95290556D01*
X195711604Y-95408832D01*
X195708290Y-95527106D01*
X195698452Y-95643829D01*
X195682252Y-95758854D01*
X195659850Y-95872038D01*
X195631405Y-95983236D01*
X195597078Y-96092303D01*
X195557028Y-96199096D01*
X195511416Y-96303470D01*
X195460402Y-96405280D01*
X195404145Y-96504382D01*
X195342807Y-96600632D01*
X195276546Y-96693885D01*
X195205524Y-96783997D01*
X195129899Y-96870823D01*
X195049833Y-96954220D01*
X194965485Y-97034041D01*
X194877015Y-97110144D01*
X194784583Y-97182384D01*
X194688349Y-97250616D01*
X194588474Y-97314696D01*
X194485118Y-97374480D01*
X194378440Y-97429822D01*
X194268601Y-97480579D01*
X194155760Y-97526607D01*
X194040078Y-97567760D01*
X193921715Y-97603895D01*
X193800830Y-97634867D01*
X193677585Y-97660531D01*
X193552138Y-97680744D01*
X193424650Y-97695360D01*
X193295282Y-97704236D01*
X193164192Y-97707226D01*
X193033103Y-97704236D01*
X192903734Y-97695360D01*
X192776246Y-97680744D01*
X192650800Y-97660531D01*
X192527554Y-97634867D01*
X192406670Y-97603895D01*
X192288306Y-97567760D01*
X192172624Y-97526607D01*
X192059784Y-97480579D01*
X191949944Y-97429822D01*
X191843266Y-97374480D01*
X191739910Y-97314696D01*
X191640035Y-97250616D01*
X191543801Y-97182384D01*
X191451370Y-97110144D01*
X191362900Y-97034041D01*
X191278551Y-96954220D01*
X191198485Y-96870823D01*
X191122861Y-96783997D01*
X191051838Y-96693885D01*
X190985577Y-96600632D01*
X190924239Y-96504382D01*
X190867982Y-96405280D01*
X190816968Y-96303470D01*
X190771356Y-96199096D01*
X190731307Y-96092303D01*
X190696979Y-95983236D01*
X190668534Y-95872038D01*
X190646132Y-95758854D01*
X190629932Y-95643829D01*
X190620095Y-95527106D01*
X190616780Y-95408832D01*
X190620095Y-95290556D01*
X190629932Y-95173834D01*
X190646132Y-95058809D01*
X190668534Y-94945625D01*
X190696979Y-94834427D01*
X190731307Y-94725359D01*
X190771356Y-94618566D01*
X190816968Y-94514192D01*
X190867982Y-94412382D01*
X190924239Y-94313280D01*
X190985577Y-94217030D01*
X191051838Y-94123777D01*
X191122861Y-94033665D01*
X191198485Y-93946839D01*
X191278551Y-93863443D01*
X191362900Y-93783621D01*
X191451370Y-93707518D01*
X191543801Y-93635278D01*
X191640035Y-93567046D01*
X191739910Y-93502967D01*
X191843266Y-93443183D01*
X191949944Y-93387841D01*
X192059784Y-93337084D01*
X192172624Y-93291056D01*
X192288306Y-93249903D01*
X192406670Y-93213768D01*
X192527554Y-93182797D01*
X192650800Y-93157132D01*
X192776246Y-93136920D01*
X192903734Y-93122304D01*
X193033103Y-93113428D01*
X193164192Y-93110437D01*
X193295282Y-93113428D01*
X204370796Y-95406738D02*
X204374111Y-95288463D01*
X204374111Y-95288463D02*
X204383948Y-95171740D01*
X204383948Y-95171740D02*
X204400148Y-95056715D01*
X204400148Y-95056715D02*
X204422550Y-94943531D01*
X204422550Y-94943531D02*
X204450995Y-94832333D01*
X204450995Y-94832333D02*
X204485323Y-94723266D01*
X204485323Y-94723266D02*
X204525372Y-94616473D01*
X204525372Y-94616473D02*
X204570984Y-94512099D01*
X204570984Y-94512099D02*
X204621999Y-94410289D01*
X204621999Y-94410289D02*
X204678255Y-94311186D01*
X204678255Y-94311186D02*
X204739593Y-94214937D01*
X204739593Y-94214937D02*
X204805854Y-94121683D01*
X204805854Y-94121683D02*
X204876877Y-94031572D01*
X204876877Y-94031572D02*
X204952501Y-93944745D01*
X204952501Y-93944745D02*
X205032568Y-93861349D01*
X205032568Y-93861349D02*
X205116916Y-93781527D01*
X205116916Y-93781527D02*
X205205386Y-93705425D01*
X205205386Y-93705425D02*
X205297818Y-93633185D01*
X205297818Y-93633185D02*
X205394051Y-93564953D01*
X205394051Y-93564953D02*
X205493926Y-93500873D01*
X205493926Y-93500873D02*
X205597282Y-93441090D01*
X205597282Y-93441090D02*
X205703960Y-93385747D01*
X205703960Y-93385747D02*
X205813800Y-93334990D01*
X205813800Y-93334990D02*
X205926640Y-93288963D01*
X205926640Y-93288963D02*
X206042322Y-93247810D01*
X206042322Y-93247810D02*
X206160686Y-93211675D01*
X206160686Y-93211675D02*
X206281570Y-93180703D01*
X206281570Y-93180703D02*
X206404816Y-93155039D01*
X206404816Y-93155039D02*
X206530262Y-93134826D01*
X206530262Y-93134826D02*
X206657750Y-93120210D01*
X206657750Y-93120210D02*
X206787119Y-93111334D01*
X206787119Y-93111334D02*
X206918208Y-93108344D01*
X206918208Y-93108344D02*
X207049298Y-93111334D01*
X207049298Y-93111334D02*
X207178666Y-93120210D01*
X207178666Y-93120210D02*
X207306154Y-93134826D01*
X207306154Y-93134826D02*
X207431601Y-93155039D01*
X207431601Y-93155039D02*
X207554846Y-93180703D01*
X207554846Y-93180703D02*
X207675731Y-93211675D01*
X207675731Y-93211675D02*
X207794094Y-93247810D01*
X207794094Y-93247810D02*
X207909776Y-93288963D01*
X207909776Y-93288963D02*
X208022617Y-93334990D01*
X208022617Y-93334990D02*
X208132456Y-93385747D01*
X208132456Y-93385747D02*
X208239134Y-93441090D01*
X208239134Y-93441090D02*
X208342491Y-93500873D01*
X208342491Y-93500873D02*
X208442366Y-93564953D01*
X208442366Y-93564953D02*
X208538599Y-93633185D01*
X208538599Y-93633185D02*
X208631031Y-93705425D01*
X208631031Y-93705425D02*
X208719501Y-93781527D01*
X208719501Y-93781527D02*
X208803849Y-93861349D01*
X208803849Y-93861349D02*
X208883915Y-93944745D01*
X208883915Y-93944745D02*
X208959540Y-94031572D01*
X208959540Y-94031572D02*
X209030562Y-94121683D01*
X209030562Y-94121683D02*
X209096823Y-94214937D01*
X209096823Y-94214937D02*
X209158161Y-94311186D01*
X209158161Y-94311186D02*
X209214418Y-94410289D01*
X209214418Y-94410289D02*
X209265432Y-94512099D01*
X209265432Y-94512099D02*
X209311044Y-94616473D01*
X209311044Y-94616473D02*
X209351094Y-94723266D01*
X209351094Y-94723266D02*
X209385421Y-94832333D01*
X209385421Y-94832333D02*
X209413866Y-94943531D01*
X209413866Y-94943531D02*
X209436268Y-95056715D01*
X209436268Y-95056715D02*
X209452468Y-95171740D01*
X209452468Y-95171740D02*
X209462306Y-95288463D01*
X209462306Y-95288463D02*
X209465620Y-95406738D01*
X209465620Y-95406738D02*
X209462306Y-95525013D01*
X209462306Y-95525013D02*
X209452468Y-95641735D01*
X209452468Y-95641735D02*
X209436268Y-95756760D01*
X209436268Y-95756760D02*
X209413866Y-95869944D01*
X209413866Y-95869944D02*
X209385421Y-95981142D01*
X209385421Y-95981142D02*
X209351094Y-96090210D01*
X209351094Y-96090210D02*
X209311044Y-96197002D01*
X209311044Y-96197002D02*
X209265432Y-96301376D01*
X209265432Y-96301376D02*
X209214418Y-96403186D01*
X209214418Y-96403186D02*
X209158161Y-96502289D01*
X209158161Y-96502289D02*
X209096823Y-96598538D01*
X209096823Y-96598538D02*
X209030562Y-96691792D01*
X209030562Y-96691792D02*
X208959540Y-96781903D01*
X208959540Y-96781903D02*
X208883915Y-96868730D01*
X208883915Y-96868730D02*
X208803849Y-96952126D01*
X208803849Y-96952126D02*
X208719501Y-97031948D01*
X208719501Y-97031948D02*
X208631031Y-97108051D01*
X208631031Y-97108051D02*
X208538599Y-97180291D01*
X208538599Y-97180291D02*
X208442366Y-97248523D01*
X208442366Y-97248523D02*
X208342491Y-97312603D01*
X208342491Y-97312603D02*
X208239134Y-97372386D01*
X208239134Y-97372386D02*
X208132456Y-97427729D01*
X208132456Y-97427729D02*
X208022617Y-97478486D01*
X208022617Y-97478486D02*
X207909776Y-97524513D01*
X207909776Y-97524513D02*
X207794094Y-97565667D01*
X207794094Y-97565667D02*
X207675731Y-97601801D01*
X207675731Y-97601801D02*
X207554846Y-97632773D01*
X207554846Y-97632773D02*
X207431601Y-97658438D01*
X207431601Y-97658438D02*
X207306154Y-97678650D01*
X207306154Y-97678650D02*
X207178666Y-97693266D01*
X207178666Y-97693266D02*
X207049298Y-97702142D01*
X207049298Y-97702142D02*
X206918208Y-97705133D01*
X206918208Y-97705133D02*
X206787119Y-97702142D01*
X206787119Y-97702142D02*
X206657750Y-97693266D01*
X206657750Y-97693266D02*
X206530262Y-97678650D01*
X206530262Y-97678650D02*
X206404816Y-97658438D01*
X206404816Y-97658438D02*
X206281570Y-97632773D01*
X206281570Y-97632773D02*
X206160686Y-97601801D01*
X206160686Y-97601801D02*
X206042322Y-97565667D01*
X206042322Y-97565667D02*
X205926640Y-97524513D01*
X205926640Y-97524513D02*
X205813800Y-97478486D01*
X205813800Y-97478486D02*
X205703960Y-97427729D01*
X205703960Y-97427729D02*
X205597282Y-97372386D01*
X205597282Y-97372386D02*
X205493926Y-97312603D01*
X205493926Y-97312603D02*
X205394051Y-97248523D01*
X205394051Y-97248523D02*
X205297818Y-97180291D01*
X205297818Y-97180291D02*
X205205386Y-97108051D01*
X205205386Y-97108051D02*
X205116916Y-97031948D01*
X205116916Y-97031948D02*
X205032568Y-96952126D01*
X205032568Y-96952126D02*
X204952501Y-96868730D01*
X204952501Y-96868730D02*
X204876877Y-96781903D01*
X204876877Y-96781903D02*
X204805854Y-96691792D01*
X204805854Y-96691792D02*
X204739593Y-96598538D01*
X204739593Y-96598538D02*
X204678255Y-96502289D01*
X204678255Y-96502289D02*
X204621999Y-96403186D01*
X204621999Y-96403186D02*
X204570984Y-96301376D01*
X204570984Y-96301376D02*
X204525372Y-96197002D01*
X204525372Y-96197002D02*
X204485323Y-96090210D01*
X204485323Y-96090210D02*
X204450995Y-95981142D01*
X204450995Y-95981142D02*
X204422550Y-95869944D01*
X204422550Y-95869944D02*
X204400148Y-95756760D01*
X204400148Y-95756760D02*
X204383948Y-95641735D01*
X204383948Y-95641735D02*
X204374111Y-95525013D01*
X204374111Y-95525013D02*
X204370796Y-95406738D01*
X204370796Y-95406738D02*
X204370796Y-95406738D01*
G36*
X207049298Y-93111334D02*
G01*
X207178666Y-93120210D01*
X207306154Y-93134826D01*
X207431601Y-93155039D01*
X207554846Y-93180703D01*
X207675731Y-93211675D01*
X207794094Y-93247810D01*
X207909776Y-93288963D01*
X208022617Y-93334990D01*
X208132456Y-93385747D01*
X208239134Y-93441090D01*
X208342491Y-93500873D01*
X208442366Y-93564953D01*
X208538599Y-93633185D01*
X208631031Y-93705425D01*
X208719501Y-93781527D01*
X208803849Y-93861349D01*
X208883915Y-93944745D01*
X208959540Y-94031572D01*
X209030562Y-94121683D01*
X209096823Y-94214937D01*
X209158161Y-94311186D01*
X209214418Y-94410289D01*
X209265432Y-94512099D01*
X209311044Y-94616473D01*
X209351094Y-94723266D01*
X209385421Y-94832333D01*
X209413866Y-94943531D01*
X209436268Y-95056715D01*
X209452468Y-95171740D01*
X209462306Y-95288463D01*
X209465620Y-95406738D01*
X209462306Y-95525013D01*
X209452468Y-95641735D01*
X209436268Y-95756760D01*
X209413866Y-95869944D01*
X209385421Y-95981142D01*
X209351094Y-96090210D01*
X209311044Y-96197002D01*
X209265432Y-96301376D01*
X209214418Y-96403186D01*
X209158161Y-96502289D01*
X209096823Y-96598538D01*
X209030562Y-96691792D01*
X208959540Y-96781903D01*
X208883915Y-96868730D01*
X208803849Y-96952126D01*
X208719501Y-97031948D01*
X208631031Y-97108051D01*
X208538599Y-97180291D01*
X208442366Y-97248523D01*
X208342491Y-97312603D01*
X208239134Y-97372386D01*
X208132456Y-97427729D01*
X208022617Y-97478486D01*
X207909776Y-97524513D01*
X207794094Y-97565667D01*
X207675731Y-97601801D01*
X207554846Y-97632773D01*
X207431601Y-97658438D01*
X207306154Y-97678650D01*
X207178666Y-97693266D01*
X207049298Y-97702142D01*
X206918208Y-97705133D01*
X206787119Y-97702142D01*
X206657750Y-97693266D01*
X206530262Y-97678650D01*
X206404816Y-97658438D01*
X206281570Y-97632773D01*
X206160686Y-97601801D01*
X206042322Y-97565667D01*
X205926640Y-97524513D01*
X205813800Y-97478486D01*
X205703960Y-97427729D01*
X205597282Y-97372386D01*
X205493926Y-97312603D01*
X205394051Y-97248523D01*
X205297818Y-97180291D01*
X205205386Y-97108051D01*
X205116916Y-97031948D01*
X205032568Y-96952126D01*
X204952501Y-96868730D01*
X204876877Y-96781903D01*
X204805854Y-96691792D01*
X204739593Y-96598538D01*
X204678255Y-96502289D01*
X204621999Y-96403186D01*
X204570984Y-96301376D01*
X204525372Y-96197002D01*
X204485323Y-96090210D01*
X204450995Y-95981142D01*
X204422550Y-95869944D01*
X204400148Y-95756760D01*
X204383948Y-95641735D01*
X204374111Y-95525013D01*
X204370796Y-95406738D01*
X204374111Y-95288463D01*
X204383948Y-95171740D01*
X204400148Y-95056715D01*
X204422550Y-94943531D01*
X204450995Y-94832333D01*
X204485323Y-94723266D01*
X204525372Y-94616473D01*
X204570984Y-94512099D01*
X204621999Y-94410289D01*
X204678255Y-94311186D01*
X204739593Y-94214937D01*
X204805854Y-94121683D01*
X204876877Y-94031572D01*
X204952501Y-93944745D01*
X205032568Y-93861349D01*
X205116916Y-93781527D01*
X205205386Y-93705425D01*
X205297818Y-93633185D01*
X205394051Y-93564953D01*
X205493926Y-93500873D01*
X205597282Y-93441090D01*
X205703960Y-93385747D01*
X205813800Y-93334990D01*
X205926640Y-93288963D01*
X206042322Y-93247810D01*
X206160686Y-93211675D01*
X206281570Y-93180703D01*
X206404816Y-93155039D01*
X206530262Y-93134826D01*
X206657750Y-93120210D01*
X206787119Y-93111334D01*
X206918208Y-93108344D01*
X207049298Y-93111334D01*
G37*
X207049298Y-93111334D02*
X207178666Y-93120210D01*
X207306154Y-93134826D01*
X207431601Y-93155039D01*
X207554846Y-93180703D01*
X207675731Y-93211675D01*
X207794094Y-93247810D01*
X207909776Y-93288963D01*
X208022617Y-93334990D01*
X208132456Y-93385747D01*
X208239134Y-93441090D01*
X208342491Y-93500873D01*
X208442366Y-93564953D01*
X208538599Y-93633185D01*
X208631031Y-93705425D01*
X208719501Y-93781527D01*
X208803849Y-93861349D01*
X208883915Y-93944745D01*
X208959540Y-94031572D01*
X209030562Y-94121683D01*
X209096823Y-94214937D01*
X209158161Y-94311186D01*
X209214418Y-94410289D01*
X209265432Y-94512099D01*
X209311044Y-94616473D01*
X209351094Y-94723266D01*
X209385421Y-94832333D01*
X209413866Y-94943531D01*
X209436268Y-95056715D01*
X209452468Y-95171740D01*
X209462306Y-95288463D01*
X209465620Y-95406738D01*
X209462306Y-95525013D01*
X209452468Y-95641735D01*
X209436268Y-95756760D01*
X209413866Y-95869944D01*
X209385421Y-95981142D01*
X209351094Y-96090210D01*
X209311044Y-96197002D01*
X209265432Y-96301376D01*
X209214418Y-96403186D01*
X209158161Y-96502289D01*
X209096823Y-96598538D01*
X209030562Y-96691792D01*
X208959540Y-96781903D01*
X208883915Y-96868730D01*
X208803849Y-96952126D01*
X208719501Y-97031948D01*
X208631031Y-97108051D01*
X208538599Y-97180291D01*
X208442366Y-97248523D01*
X208342491Y-97312603D01*
X208239134Y-97372386D01*
X208132456Y-97427729D01*
X208022617Y-97478486D01*
X207909776Y-97524513D01*
X207794094Y-97565667D01*
X207675731Y-97601801D01*
X207554846Y-97632773D01*
X207431601Y-97658438D01*
X207306154Y-97678650D01*
X207178666Y-97693266D01*
X207049298Y-97702142D01*
X206918208Y-97705133D01*
X206787119Y-97702142D01*
X206657750Y-97693266D01*
X206530262Y-97678650D01*
X206404816Y-97658438D01*
X206281570Y-97632773D01*
X206160686Y-97601801D01*
X206042322Y-97565667D01*
X205926640Y-97524513D01*
X205813800Y-97478486D01*
X205703960Y-97427729D01*
X205597282Y-97372386D01*
X205493926Y-97312603D01*
X205394051Y-97248523D01*
X205297818Y-97180291D01*
X205205386Y-97108051D01*
X205116916Y-97031948D01*
X205032568Y-96952126D01*
X204952501Y-96868730D01*
X204876877Y-96781903D01*
X204805854Y-96691792D01*
X204739593Y-96598538D01*
X204678255Y-96502289D01*
X204621999Y-96403186D01*
X204570984Y-96301376D01*
X204525372Y-96197002D01*
X204485323Y-96090210D01*
X204450995Y-95981142D01*
X204422550Y-95869944D01*
X204400148Y-95756760D01*
X204383948Y-95641735D01*
X204374111Y-95525013D01*
X204370796Y-95406738D01*
X204374111Y-95288463D01*
X204383948Y-95171740D01*
X204400148Y-95056715D01*
X204422550Y-94943531D01*
X204450995Y-94832333D01*
X204485323Y-94723266D01*
X204525372Y-94616473D01*
X204570984Y-94512099D01*
X204621999Y-94410289D01*
X204678255Y-94311186D01*
X204739593Y-94214937D01*
X204805854Y-94121683D01*
X204876877Y-94031572D01*
X204952501Y-93944745D01*
X205032568Y-93861349D01*
X205116916Y-93781527D01*
X205205386Y-93705425D01*
X205297818Y-93633185D01*
X205394051Y-93564953D01*
X205493926Y-93500873D01*
X205597282Y-93441090D01*
X205703960Y-93385747D01*
X205813800Y-93334990D01*
X205926640Y-93288963D01*
X206042322Y-93247810D01*
X206160686Y-93211675D01*
X206281570Y-93180703D01*
X206404816Y-93155039D01*
X206530262Y-93134826D01*
X206657750Y-93120210D01*
X206787119Y-93111334D01*
X206918208Y-93108344D01*
X207049298Y-93111334D01*
D11*
X208430730Y-95260190D02*
X208419737Y-95600214D01*
X208419737Y-95600214D02*
X208387115Y-95935775D01*
X208387115Y-95935775D02*
X208333393Y-96266457D01*
X208333393Y-96266457D02*
X208259102Y-96591845D01*
X208259102Y-96591845D02*
X208164774Y-96911523D01*
X208164774Y-96911523D02*
X208050938Y-97225078D01*
X208050938Y-97225078D02*
X207918126Y-97532092D01*
X207918126Y-97532092D02*
X207766868Y-97832152D01*
X207766868Y-97832152D02*
X207597695Y-98124843D01*
X207597695Y-98124843D02*
X207411138Y-98409748D01*
X207411138Y-98409748D02*
X207207728Y-98686453D01*
X207207728Y-98686453D02*
X206987996Y-98954542D01*
X206987996Y-98954542D02*
X206752472Y-99213601D01*
X206752472Y-99213601D02*
X206501686Y-99463215D01*
X206501686Y-99463215D02*
X206236171Y-99702967D01*
X206236171Y-99702967D02*
X205956457Y-99932444D01*
X205956457Y-99932444D02*
X205663074Y-100151229D01*
X205663074Y-100151229D02*
X205356553Y-100358908D01*
X205356553Y-100358908D02*
X205037425Y-100555065D01*
X205037425Y-100555065D02*
X204706221Y-100739286D01*
X204706221Y-100739286D02*
X204363471Y-100911155D01*
X204363471Y-100911155D02*
X204009707Y-101070257D01*
X204009707Y-101070257D02*
X203645459Y-101216177D01*
X203645459Y-101216177D02*
X203271258Y-101348499D01*
X203271258Y-101348499D02*
X202887635Y-101466809D01*
X202887635Y-101466809D02*
X202495120Y-101570691D01*
X202495120Y-101570691D02*
X202094244Y-101659731D01*
X202094244Y-101659731D02*
X201685539Y-101733512D01*
X201685539Y-101733512D02*
X201269534Y-101791620D01*
X201269534Y-101791620D02*
X200846761Y-101833640D01*
X200846761Y-101833640D02*
X200417751Y-101859156D01*
X200417751Y-101859156D02*
X199983034Y-101867754D01*
X199983034Y-101867754D02*
X199548316Y-101859156D01*
X199548316Y-101859156D02*
X199119306Y-101833640D01*
X199119306Y-101833640D02*
X198280528Y-101733512D01*
X198280528Y-101733512D02*
X197470947Y-101570691D01*
X197470947Y-101570691D02*
X196694809Y-101348499D01*
X196694809Y-101348499D02*
X195956360Y-101070257D01*
X195956360Y-101070257D02*
X195259847Y-100739286D01*
X195259847Y-100739286D02*
X194609515Y-100358908D01*
X194609515Y-100358908D02*
X194009611Y-99932444D01*
X194009611Y-99932444D02*
X193729896Y-99702967D01*
X193729896Y-99702967D02*
X193464381Y-99463215D01*
X193464381Y-99463215D02*
X193213596Y-99213601D01*
X193213596Y-99213601D02*
X192978072Y-98954542D01*
X192978072Y-98954542D02*
X192758339Y-98686453D01*
X192758339Y-98686453D02*
X192554929Y-98409748D01*
X192554929Y-98409748D02*
X192368372Y-98124843D01*
X192368372Y-98124843D02*
X192199200Y-97832152D01*
X192199200Y-97832152D02*
X192047942Y-97532092D01*
X192047942Y-97532092D02*
X191915129Y-97225078D01*
X191915129Y-97225078D02*
X191801294Y-96911523D01*
X191801294Y-96911523D02*
X191706965Y-96591845D01*
X191706965Y-96591845D02*
X191632674Y-96266457D01*
X191632674Y-96266457D02*
X191578952Y-95935775D01*
X191578952Y-95935775D02*
X191546330Y-95600214D01*
X191546330Y-95600214D02*
X191535338Y-95260190D01*
X191535338Y-95260190D02*
X191546330Y-94920165D01*
X191546330Y-94920165D02*
X191578952Y-94584604D01*
X191578952Y-94584604D02*
X191632674Y-94253922D01*
X191632674Y-94253922D02*
X191706965Y-93928535D01*
X191706965Y-93928535D02*
X191801294Y-93608856D01*
X191801294Y-93608856D02*
X191915129Y-93295301D01*
X191915129Y-93295301D02*
X192047942Y-92988287D01*
X192047942Y-92988287D02*
X192199200Y-92688227D01*
X192199200Y-92688227D02*
X192368372Y-92395536D01*
X192368372Y-92395536D02*
X192554929Y-92110631D01*
X192554929Y-92110631D02*
X192758339Y-91833926D01*
X192758339Y-91833926D02*
X192978072Y-91565836D01*
X192978072Y-91565836D02*
X193213596Y-91306777D01*
X193213596Y-91306777D02*
X193464381Y-91057163D01*
X193464381Y-91057163D02*
X193729896Y-90817411D01*
X193729896Y-90817411D02*
X194009611Y-90587934D01*
X194009611Y-90587934D02*
X194302994Y-90369149D01*
X194302994Y-90369149D02*
X194609515Y-90161470D01*
X194609515Y-90161470D02*
X194928643Y-89965312D01*
X194928643Y-89965312D02*
X195259847Y-89781091D01*
X195259847Y-89781091D02*
X195602596Y-89609222D01*
X195602596Y-89609222D02*
X195956360Y-89450120D01*
X195956360Y-89450120D02*
X196320608Y-89304200D01*
X196320608Y-89304200D02*
X196694809Y-89171878D01*
X196694809Y-89171878D02*
X197078433Y-89053568D01*
X197078433Y-89053568D02*
X197470947Y-88949685D01*
X197470947Y-88949685D02*
X197871823Y-88860646D01*
X197871823Y-88860646D02*
X198280528Y-88786864D01*
X198280528Y-88786864D02*
X198696533Y-88728756D01*
X198696533Y-88728756D02*
X199119306Y-88686736D01*
X199119306Y-88686736D02*
X199548316Y-88661220D01*
X199548316Y-88661220D02*
X199983034Y-88652622D01*
X199983034Y-88652622D02*
X200417751Y-88661220D01*
X200417751Y-88661220D02*
X200846761Y-88686736D01*
X200846761Y-88686736D02*
X201685539Y-88786864D01*
X201685539Y-88786864D02*
X202495120Y-88949685D01*
X202495120Y-88949685D02*
X203271258Y-89171878D01*
X203271258Y-89171878D02*
X204009707Y-89450120D01*
X204009707Y-89450120D02*
X204706221Y-89781091D01*
X204706221Y-89781091D02*
X205356553Y-90161470D01*
X205356553Y-90161470D02*
X205956457Y-90587934D01*
X205956457Y-90587934D02*
X206236171Y-90817411D01*
X206236171Y-90817411D02*
X206501686Y-91057163D01*
X206501686Y-91057163D02*
X206752472Y-91306777D01*
X206752472Y-91306777D02*
X206987996Y-91565836D01*
X206987996Y-91565836D02*
X207207728Y-91833926D01*
X207207728Y-91833926D02*
X207411138Y-92110631D01*
X207411138Y-92110631D02*
X207597695Y-92395536D01*
X207597695Y-92395536D02*
X207766868Y-92688227D01*
X207766868Y-92688227D02*
X207918126Y-92988287D01*
X207918126Y-92988287D02*
X208050938Y-93295301D01*
X208050938Y-93295301D02*
X208164774Y-93608856D01*
X208164774Y-93608856D02*
X208259102Y-93928535D01*
X208259102Y-93928535D02*
X208333393Y-94253922D01*
X208333393Y-94253922D02*
X208387115Y-94584604D01*
X208387115Y-94584604D02*
X208419737Y-94920165D01*
X208419737Y-94920165D02*
X208430730Y-95260190D01*
X208430730Y-95260190D02*
X208430730Y-95260190D01*
G36*
X200417751Y-88661220D02*
G01*
X200846761Y-88686736D01*
X201685539Y-88786864D01*
X202495120Y-88949685D01*
X203271258Y-89171878D01*
X204009707Y-89450120D01*
X204706221Y-89781091D01*
X205356553Y-90161470D01*
X205956457Y-90587934D01*
X206236171Y-90817411D01*
X206501686Y-91057163D01*
X206752472Y-91306777D01*
X206987996Y-91565836D01*
X207207728Y-91833926D01*
X207411138Y-92110631D01*
X207597695Y-92395536D01*
X207766868Y-92688227D01*
X207918126Y-92988287D01*
X208050938Y-93295301D01*
X208164774Y-93608856D01*
X208259102Y-93928535D01*
X208333393Y-94253922D01*
X208387115Y-94584604D01*
X208419737Y-94920165D01*
X208430730Y-95260190D01*
X208419737Y-95600214D01*
X208387115Y-95935775D01*
X208333393Y-96266457D01*
X208259102Y-96591845D01*
X208164774Y-96911523D01*
X208050938Y-97225078D01*
X207918126Y-97532092D01*
X207766868Y-97832152D01*
X207597695Y-98124843D01*
X207411138Y-98409748D01*
X207207728Y-98686453D01*
X206987996Y-98954542D01*
X206752472Y-99213601D01*
X206501686Y-99463215D01*
X206236171Y-99702967D01*
X205956457Y-99932444D01*
X205663074Y-100151229D01*
X205356553Y-100358908D01*
X205037425Y-100555065D01*
X204706221Y-100739286D01*
X204363471Y-100911155D01*
X204009707Y-101070257D01*
X203645459Y-101216177D01*
X203271258Y-101348499D01*
X202887635Y-101466809D01*
X202495120Y-101570691D01*
X202094244Y-101659731D01*
X201685539Y-101733512D01*
X201269534Y-101791620D01*
X200846761Y-101833640D01*
X200417751Y-101859156D01*
X199983034Y-101867754D01*
X199548316Y-101859156D01*
X199119306Y-101833640D01*
X198280528Y-101733512D01*
X197470947Y-101570691D01*
X196694809Y-101348499D01*
X195956360Y-101070257D01*
X195259847Y-100739286D01*
X194609515Y-100358908D01*
X194009611Y-99932444D01*
X193729896Y-99702967D01*
X193464381Y-99463215D01*
X193213596Y-99213601D01*
X192978072Y-98954542D01*
X192758339Y-98686453D01*
X192554929Y-98409748D01*
X192368372Y-98124843D01*
X192199200Y-97832152D01*
X192047942Y-97532092D01*
X191915129Y-97225078D01*
X191801294Y-96911523D01*
X191706965Y-96591845D01*
X191632674Y-96266457D01*
X191578952Y-95935775D01*
X191546330Y-95600214D01*
X191535338Y-95260190D01*
X191546330Y-94920165D01*
X191578952Y-94584604D01*
X191632674Y-94253922D01*
X191706965Y-93928535D01*
X191801294Y-93608856D01*
X191915129Y-93295301D01*
X192047942Y-92988287D01*
X192199200Y-92688227D01*
X192368372Y-92395536D01*
X192554929Y-92110631D01*
X192758339Y-91833926D01*
X192978072Y-91565836D01*
X193213596Y-91306777D01*
X193464381Y-91057163D01*
X193729896Y-90817411D01*
X194009611Y-90587934D01*
X194302994Y-90369149D01*
X194609515Y-90161470D01*
X194928643Y-89965312D01*
X195259847Y-89781091D01*
X195602596Y-89609222D01*
X195956360Y-89450120D01*
X196320608Y-89304200D01*
X196694809Y-89171878D01*
X197078433Y-89053568D01*
X197470947Y-88949685D01*
X197871823Y-88860646D01*
X198280528Y-88786864D01*
X198696533Y-88728756D01*
X199119306Y-88686736D01*
X199548316Y-88661220D01*
X199983034Y-88652622D01*
X200417751Y-88661220D01*
G37*
X200417751Y-88661220D02*
X200846761Y-88686736D01*
X201685539Y-88786864D01*
X202495120Y-88949685D01*
X203271258Y-89171878D01*
X204009707Y-89450120D01*
X204706221Y-89781091D01*
X205356553Y-90161470D01*
X205956457Y-90587934D01*
X206236171Y-90817411D01*
X206501686Y-91057163D01*
X206752472Y-91306777D01*
X206987996Y-91565836D01*
X207207728Y-91833926D01*
X207411138Y-92110631D01*
X207597695Y-92395536D01*
X207766868Y-92688227D01*
X207918126Y-92988287D01*
X208050938Y-93295301D01*
X208164774Y-93608856D01*
X208259102Y-93928535D01*
X208333393Y-94253922D01*
X208387115Y-94584604D01*
X208419737Y-94920165D01*
X208430730Y-95260190D01*
X208419737Y-95600214D01*
X208387115Y-95935775D01*
X208333393Y-96266457D01*
X208259102Y-96591845D01*
X208164774Y-96911523D01*
X208050938Y-97225078D01*
X207918126Y-97532092D01*
X207766868Y-97832152D01*
X207597695Y-98124843D01*
X207411138Y-98409748D01*
X207207728Y-98686453D01*
X206987996Y-98954542D01*
X206752472Y-99213601D01*
X206501686Y-99463215D01*
X206236171Y-99702967D01*
X205956457Y-99932444D01*
X205663074Y-100151229D01*
X205356553Y-100358908D01*
X205037425Y-100555065D01*
X204706221Y-100739286D01*
X204363471Y-100911155D01*
X204009707Y-101070257D01*
X203645459Y-101216177D01*
X203271258Y-101348499D01*
X202887635Y-101466809D01*
X202495120Y-101570691D01*
X202094244Y-101659731D01*
X201685539Y-101733512D01*
X201269534Y-101791620D01*
X200846761Y-101833640D01*
X200417751Y-101859156D01*
X199983034Y-101867754D01*
X199548316Y-101859156D01*
X199119306Y-101833640D01*
X198280528Y-101733512D01*
X197470947Y-101570691D01*
X196694809Y-101348499D01*
X195956360Y-101070257D01*
X195259847Y-100739286D01*
X194609515Y-100358908D01*
X194009611Y-99932444D01*
X193729896Y-99702967D01*
X193464381Y-99463215D01*
X193213596Y-99213601D01*
X192978072Y-98954542D01*
X192758339Y-98686453D01*
X192554929Y-98409748D01*
X192368372Y-98124843D01*
X192199200Y-97832152D01*
X192047942Y-97532092D01*
X191915129Y-97225078D01*
X191801294Y-96911523D01*
X191706965Y-96591845D01*
X191632674Y-96266457D01*
X191578952Y-95935775D01*
X191546330Y-95600214D01*
X191535338Y-95260190D01*
X191546330Y-94920165D01*
X191578952Y-94584604D01*
X191632674Y-94253922D01*
X191706965Y-93928535D01*
X191801294Y-93608856D01*
X191915129Y-93295301D01*
X192047942Y-92988287D01*
X192199200Y-92688227D01*
X192368372Y-92395536D01*
X192554929Y-92110631D01*
X192758339Y-91833926D01*
X192978072Y-91565836D01*
X193213596Y-91306777D01*
X193464381Y-91057163D01*
X193729896Y-90817411D01*
X194009611Y-90587934D01*
X194302994Y-90369149D01*
X194609515Y-90161470D01*
X194928643Y-89965312D01*
X195259847Y-89781091D01*
X195602596Y-89609222D01*
X195956360Y-89450120D01*
X196320608Y-89304200D01*
X196694809Y-89171878D01*
X197078433Y-89053568D01*
X197470947Y-88949685D01*
X197871823Y-88860646D01*
X198280528Y-88786864D01*
X198696533Y-88728756D01*
X199119306Y-88686736D01*
X199548316Y-88661220D01*
X199983034Y-88652622D01*
X200417751Y-88661220D01*
D10*
X133450580Y-95398644D02*
X133453895Y-95280368D01*
X133453895Y-95280368D02*
X133463732Y-95163646D01*
X133463732Y-95163646D02*
X133479932Y-95048621D01*
X133479932Y-95048621D02*
X133502334Y-94935437D01*
X133502334Y-94935437D02*
X133530779Y-94824239D01*
X133530779Y-94824239D02*
X133565107Y-94715171D01*
X133565107Y-94715171D02*
X133605156Y-94608378D01*
X133605156Y-94608378D02*
X133650768Y-94504004D01*
X133650768Y-94504004D02*
X133701782Y-94402194D01*
X133701782Y-94402194D02*
X133758039Y-94303092D01*
X133758039Y-94303092D02*
X133819377Y-94206842D01*
X133819377Y-94206842D02*
X133885638Y-94113589D01*
X133885638Y-94113589D02*
X133956661Y-94023477D01*
X133956661Y-94023477D02*
X134032285Y-93936651D01*
X134032285Y-93936651D02*
X134112351Y-93853255D01*
X134112351Y-93853255D02*
X134196700Y-93773433D01*
X134196700Y-93773433D02*
X134285170Y-93697330D01*
X134285170Y-93697330D02*
X134377601Y-93625090D01*
X134377601Y-93625090D02*
X134473835Y-93556858D01*
X134473835Y-93556858D02*
X134573710Y-93492779D01*
X134573710Y-93492779D02*
X134677066Y-93432995D01*
X134677066Y-93432995D02*
X134783744Y-93377653D01*
X134783744Y-93377653D02*
X134893584Y-93326896D01*
X134893584Y-93326896D02*
X135006424Y-93280868D01*
X135006424Y-93280868D02*
X135122106Y-93239715D01*
X135122106Y-93239715D02*
X135240470Y-93203580D01*
X135240470Y-93203580D02*
X135361354Y-93172609D01*
X135361354Y-93172609D02*
X135484600Y-93146944D01*
X135484600Y-93146944D02*
X135610046Y-93126732D01*
X135610046Y-93126732D02*
X135737534Y-93112116D01*
X135737534Y-93112116D02*
X135866903Y-93103240D01*
X135866903Y-93103240D02*
X135997992Y-93100249D01*
X135997992Y-93100249D02*
X136129082Y-93103240D01*
X136129082Y-93103240D02*
X136258450Y-93112116D01*
X136258450Y-93112116D02*
X136385938Y-93126732D01*
X136385938Y-93126732D02*
X136511385Y-93146944D01*
X136511385Y-93146944D02*
X136634630Y-93172609D01*
X136634630Y-93172609D02*
X136755515Y-93203580D01*
X136755515Y-93203580D02*
X136873878Y-93239715D01*
X136873878Y-93239715D02*
X136989560Y-93280868D01*
X136989560Y-93280868D02*
X137102401Y-93326896D01*
X137102401Y-93326896D02*
X137212240Y-93377653D01*
X137212240Y-93377653D02*
X137318918Y-93432995D01*
X137318918Y-93432995D02*
X137422274Y-93492779D01*
X137422274Y-93492779D02*
X137522149Y-93556858D01*
X137522149Y-93556858D02*
X137618383Y-93625090D01*
X137618383Y-93625090D02*
X137710815Y-93697330D01*
X137710815Y-93697330D02*
X137799285Y-93773433D01*
X137799285Y-93773433D02*
X137883633Y-93853255D01*
X137883633Y-93853255D02*
X137963699Y-93936651D01*
X137963699Y-93936651D02*
X138039324Y-94023477D01*
X138039324Y-94023477D02*
X138110346Y-94113589D01*
X138110346Y-94113589D02*
X138176607Y-94206842D01*
X138176607Y-94206842D02*
X138237945Y-94303092D01*
X138237945Y-94303092D02*
X138294202Y-94402194D01*
X138294202Y-94402194D02*
X138345216Y-94504004D01*
X138345216Y-94504004D02*
X138390828Y-94608378D01*
X138390828Y-94608378D02*
X138430878Y-94715171D01*
X138430878Y-94715171D02*
X138465205Y-94824239D01*
X138465205Y-94824239D02*
X138493650Y-94935437D01*
X138493650Y-94935437D02*
X138516052Y-95048621D01*
X138516052Y-95048621D02*
X138532252Y-95163646D01*
X138532252Y-95163646D02*
X138542090Y-95280368D01*
X138542090Y-95280368D02*
X138545404Y-95398644D01*
X138545404Y-95398644D02*
X138542090Y-95516918D01*
X138542090Y-95516918D02*
X138532252Y-95633641D01*
X138532252Y-95633641D02*
X138516052Y-95748666D01*
X138516052Y-95748666D02*
X138493650Y-95861850D01*
X138493650Y-95861850D02*
X138465205Y-95973048D01*
X138465205Y-95973048D02*
X138430878Y-96082115D01*
X138430878Y-96082115D02*
X138390828Y-96188908D01*
X138390828Y-96188908D02*
X138345216Y-96293282D01*
X138345216Y-96293282D02*
X138294202Y-96395092D01*
X138294202Y-96395092D02*
X138237945Y-96494194D01*
X138237945Y-96494194D02*
X138176607Y-96590444D01*
X138176607Y-96590444D02*
X138110346Y-96683697D01*
X138110346Y-96683697D02*
X138039324Y-96773809D01*
X138039324Y-96773809D02*
X137963699Y-96860635D01*
X137963699Y-96860635D02*
X137883633Y-96944032D01*
X137883633Y-96944032D02*
X137799285Y-97023853D01*
X137799285Y-97023853D02*
X137710815Y-97099956D01*
X137710815Y-97099956D02*
X137618383Y-97172196D01*
X137618383Y-97172196D02*
X137522149Y-97240428D01*
X137522149Y-97240428D02*
X137422274Y-97304508D01*
X137422274Y-97304508D02*
X137318918Y-97364292D01*
X137318918Y-97364292D02*
X137212240Y-97419634D01*
X137212240Y-97419634D02*
X137102401Y-97470391D01*
X137102401Y-97470391D02*
X136989560Y-97516419D01*
X136989560Y-97516419D02*
X136873878Y-97557572D01*
X136873878Y-97557572D02*
X136755515Y-97593707D01*
X136755515Y-97593707D02*
X136634630Y-97624679D01*
X136634630Y-97624679D02*
X136511385Y-97650343D01*
X136511385Y-97650343D02*
X136385938Y-97670556D01*
X136385938Y-97670556D02*
X136258450Y-97685172D01*
X136258450Y-97685172D02*
X136129082Y-97694048D01*
X136129082Y-97694048D02*
X135997992Y-97697038D01*
X135997992Y-97697038D02*
X135866903Y-97694048D01*
X135866903Y-97694048D02*
X135737534Y-97685172D01*
X135737534Y-97685172D02*
X135610046Y-97670556D01*
X135610046Y-97670556D02*
X135484600Y-97650343D01*
X135484600Y-97650343D02*
X135361354Y-97624679D01*
X135361354Y-97624679D02*
X135240470Y-97593707D01*
X135240470Y-97593707D02*
X135122106Y-97557572D01*
X135122106Y-97557572D02*
X135006424Y-97516419D01*
X135006424Y-97516419D02*
X134893584Y-97470391D01*
X134893584Y-97470391D02*
X134783744Y-97419634D01*
X134783744Y-97419634D02*
X134677066Y-97364292D01*
X134677066Y-97364292D02*
X134573710Y-97304508D01*
X134573710Y-97304508D02*
X134473835Y-97240428D01*
X134473835Y-97240428D02*
X134377601Y-97172196D01*
X134377601Y-97172196D02*
X134285170Y-97099956D01*
X134285170Y-97099956D02*
X134196700Y-97023853D01*
X134196700Y-97023853D02*
X134112351Y-96944032D01*
X134112351Y-96944032D02*
X134032285Y-96860635D01*
X134032285Y-96860635D02*
X133956661Y-96773809D01*
X133956661Y-96773809D02*
X133885638Y-96683697D01*
X133885638Y-96683697D02*
X133819377Y-96590444D01*
X133819377Y-96590444D02*
X133758039Y-96494194D01*
X133758039Y-96494194D02*
X133701782Y-96395092D01*
X133701782Y-96395092D02*
X133650768Y-96293282D01*
X133650768Y-96293282D02*
X133605156Y-96188908D01*
X133605156Y-96188908D02*
X133565107Y-96082115D01*
X133565107Y-96082115D02*
X133530779Y-95973048D01*
X133530779Y-95973048D02*
X133502334Y-95861850D01*
X133502334Y-95861850D02*
X133479932Y-95748666D01*
X133479932Y-95748666D02*
X133463732Y-95633641D01*
X133463732Y-95633641D02*
X133453895Y-95516918D01*
X133453895Y-95516918D02*
X133450580Y-95398644D01*
X133450580Y-95398644D02*
X133450580Y-95398644D01*
G36*
X136129082Y-93103240D02*
G01*
X136258450Y-93112116D01*
X136385938Y-93126732D01*
X136511385Y-93146944D01*
X136634630Y-93172609D01*
X136755515Y-93203580D01*
X136873878Y-93239715D01*
X136989560Y-93280868D01*
X137102401Y-93326896D01*
X137212240Y-93377653D01*
X137318918Y-93432995D01*
X137422274Y-93492779D01*
X137522149Y-93556858D01*
X137618383Y-93625090D01*
X137710815Y-93697330D01*
X137799285Y-93773433D01*
X137883633Y-93853255D01*
X137963699Y-93936651D01*
X138039324Y-94023477D01*
X138110346Y-94113589D01*
X138176607Y-94206842D01*
X138237945Y-94303092D01*
X138294202Y-94402194D01*
X138345216Y-94504004D01*
X138390828Y-94608378D01*
X138430878Y-94715171D01*
X138465205Y-94824239D01*
X138493650Y-94935437D01*
X138516052Y-95048621D01*
X138532252Y-95163646D01*
X138542090Y-95280368D01*
X138545404Y-95398644D01*
X138542090Y-95516918D01*
X138532252Y-95633641D01*
X138516052Y-95748666D01*
X138493650Y-95861850D01*
X138465205Y-95973048D01*
X138430878Y-96082115D01*
X138390828Y-96188908D01*
X138345216Y-96293282D01*
X138294202Y-96395092D01*
X138237945Y-96494194D01*
X138176607Y-96590444D01*
X138110346Y-96683697D01*
X138039324Y-96773809D01*
X137963699Y-96860635D01*
X137883633Y-96944032D01*
X137799285Y-97023853D01*
X137710815Y-97099956D01*
X137618383Y-97172196D01*
X137522149Y-97240428D01*
X137422274Y-97304508D01*
X137318918Y-97364292D01*
X137212240Y-97419634D01*
X137102401Y-97470391D01*
X136989560Y-97516419D01*
X136873878Y-97557572D01*
X136755515Y-97593707D01*
X136634630Y-97624679D01*
X136511385Y-97650343D01*
X136385938Y-97670556D01*
X136258450Y-97685172D01*
X136129082Y-97694048D01*
X135997992Y-97697038D01*
X135866903Y-97694048D01*
X135737534Y-97685172D01*
X135610046Y-97670556D01*
X135484600Y-97650343D01*
X135361354Y-97624679D01*
X135240470Y-97593707D01*
X135122106Y-97557572D01*
X135006424Y-97516419D01*
X134893584Y-97470391D01*
X134783744Y-97419634D01*
X134677066Y-97364292D01*
X134573710Y-97304508D01*
X134473835Y-97240428D01*
X134377601Y-97172196D01*
X134285170Y-97099956D01*
X134196700Y-97023853D01*
X134112351Y-96944032D01*
X134032285Y-96860635D01*
X133956661Y-96773809D01*
X133885638Y-96683697D01*
X133819377Y-96590444D01*
X133758039Y-96494194D01*
X133701782Y-96395092D01*
X133650768Y-96293282D01*
X133605156Y-96188908D01*
X133565107Y-96082115D01*
X133530779Y-95973048D01*
X133502334Y-95861850D01*
X133479932Y-95748666D01*
X133463732Y-95633641D01*
X133453895Y-95516918D01*
X133450580Y-95398644D01*
X133453895Y-95280368D01*
X133463732Y-95163646D01*
X133479932Y-95048621D01*
X133502334Y-94935437D01*
X133530779Y-94824239D01*
X133565107Y-94715171D01*
X133605156Y-94608378D01*
X133650768Y-94504004D01*
X133701782Y-94402194D01*
X133758039Y-94303092D01*
X133819377Y-94206842D01*
X133885638Y-94113589D01*
X133956661Y-94023477D01*
X134032285Y-93936651D01*
X134112351Y-93853255D01*
X134196700Y-93773433D01*
X134285170Y-93697330D01*
X134377601Y-93625090D01*
X134473835Y-93556858D01*
X134573710Y-93492779D01*
X134677066Y-93432995D01*
X134783744Y-93377653D01*
X134893584Y-93326896D01*
X135006424Y-93280868D01*
X135122106Y-93239715D01*
X135240470Y-93203580D01*
X135361354Y-93172609D01*
X135484600Y-93146944D01*
X135610046Y-93126732D01*
X135737534Y-93112116D01*
X135866903Y-93103240D01*
X135997992Y-93100249D01*
X136129082Y-93103240D01*
G37*
X136129082Y-93103240D02*
X136258450Y-93112116D01*
X136385938Y-93126732D01*
X136511385Y-93146944D01*
X136634630Y-93172609D01*
X136755515Y-93203580D01*
X136873878Y-93239715D01*
X136989560Y-93280868D01*
X137102401Y-93326896D01*
X137212240Y-93377653D01*
X137318918Y-93432995D01*
X137422274Y-93492779D01*
X137522149Y-93556858D01*
X137618383Y-93625090D01*
X137710815Y-93697330D01*
X137799285Y-93773433D01*
X137883633Y-93853255D01*
X137963699Y-93936651D01*
X138039324Y-94023477D01*
X138110346Y-94113589D01*
X138176607Y-94206842D01*
X138237945Y-94303092D01*
X138294202Y-94402194D01*
X138345216Y-94504004D01*
X138390828Y-94608378D01*
X138430878Y-94715171D01*
X138465205Y-94824239D01*
X138493650Y-94935437D01*
X138516052Y-95048621D01*
X138532252Y-95163646D01*
X138542090Y-95280368D01*
X138545404Y-95398644D01*
X138542090Y-95516918D01*
X138532252Y-95633641D01*
X138516052Y-95748666D01*
X138493650Y-95861850D01*
X138465205Y-95973048D01*
X138430878Y-96082115D01*
X138390828Y-96188908D01*
X138345216Y-96293282D01*
X138294202Y-96395092D01*
X138237945Y-96494194D01*
X138176607Y-96590444D01*
X138110346Y-96683697D01*
X138039324Y-96773809D01*
X137963699Y-96860635D01*
X137883633Y-96944032D01*
X137799285Y-97023853D01*
X137710815Y-97099956D01*
X137618383Y-97172196D01*
X137522149Y-97240428D01*
X137422274Y-97304508D01*
X137318918Y-97364292D01*
X137212240Y-97419634D01*
X137102401Y-97470391D01*
X136989560Y-97516419D01*
X136873878Y-97557572D01*
X136755515Y-97593707D01*
X136634630Y-97624679D01*
X136511385Y-97650343D01*
X136385938Y-97670556D01*
X136258450Y-97685172D01*
X136129082Y-97694048D01*
X135997992Y-97697038D01*
X135866903Y-97694048D01*
X135737534Y-97685172D01*
X135610046Y-97670556D01*
X135484600Y-97650343D01*
X135361354Y-97624679D01*
X135240470Y-97593707D01*
X135122106Y-97557572D01*
X135006424Y-97516419D01*
X134893584Y-97470391D01*
X134783744Y-97419634D01*
X134677066Y-97364292D01*
X134573710Y-97304508D01*
X134473835Y-97240428D01*
X134377601Y-97172196D01*
X134285170Y-97099956D01*
X134196700Y-97023853D01*
X134112351Y-96944032D01*
X134032285Y-96860635D01*
X133956661Y-96773809D01*
X133885638Y-96683697D01*
X133819377Y-96590444D01*
X133758039Y-96494194D01*
X133701782Y-96395092D01*
X133650768Y-96293282D01*
X133605156Y-96188908D01*
X133565107Y-96082115D01*
X133530779Y-95973048D01*
X133502334Y-95861850D01*
X133479932Y-95748666D01*
X133463732Y-95633641D01*
X133453895Y-95516918D01*
X133450580Y-95398644D01*
X133453895Y-95280368D01*
X133463732Y-95163646D01*
X133479932Y-95048621D01*
X133502334Y-94935437D01*
X133530779Y-94824239D01*
X133565107Y-94715171D01*
X133605156Y-94608378D01*
X133650768Y-94504004D01*
X133701782Y-94402194D01*
X133758039Y-94303092D01*
X133819377Y-94206842D01*
X133885638Y-94113589D01*
X133956661Y-94023477D01*
X134032285Y-93936651D01*
X134112351Y-93853255D01*
X134196700Y-93773433D01*
X134285170Y-93697330D01*
X134377601Y-93625090D01*
X134473835Y-93556858D01*
X134573710Y-93492779D01*
X134677066Y-93432995D01*
X134783744Y-93377653D01*
X134893584Y-93326896D01*
X135006424Y-93280868D01*
X135122106Y-93239715D01*
X135240470Y-93203580D01*
X135361354Y-93172609D01*
X135484600Y-93146944D01*
X135610046Y-93126732D01*
X135737534Y-93112116D01*
X135866903Y-93103240D01*
X135997992Y-93100249D01*
X136129082Y-93103240D01*
X147204596Y-95396550D02*
X147207911Y-95278275D01*
X147207911Y-95278275D02*
X147217748Y-95161552D01*
X147217748Y-95161552D02*
X147233948Y-95046527D01*
X147233948Y-95046527D02*
X147256350Y-94933343D01*
X147256350Y-94933343D02*
X147284795Y-94822145D01*
X147284795Y-94822145D02*
X147319123Y-94713078D01*
X147319123Y-94713078D02*
X147359172Y-94606285D01*
X147359172Y-94606285D02*
X147404784Y-94501911D01*
X147404784Y-94501911D02*
X147455799Y-94400101D01*
X147455799Y-94400101D02*
X147512055Y-94300998D01*
X147512055Y-94300998D02*
X147573393Y-94204749D01*
X147573393Y-94204749D02*
X147639654Y-94111495D01*
X147639654Y-94111495D02*
X147710677Y-94021384D01*
X147710677Y-94021384D02*
X147786301Y-93934557D01*
X147786301Y-93934557D02*
X147866368Y-93851161D01*
X147866368Y-93851161D02*
X147950716Y-93771339D01*
X147950716Y-93771339D02*
X148039186Y-93695237D01*
X148039186Y-93695237D02*
X148131618Y-93622997D01*
X148131618Y-93622997D02*
X148227851Y-93554765D01*
X148227851Y-93554765D02*
X148327726Y-93490685D01*
X148327726Y-93490685D02*
X148431082Y-93430902D01*
X148431082Y-93430902D02*
X148537760Y-93375559D01*
X148537760Y-93375559D02*
X148647600Y-93324802D01*
X148647600Y-93324802D02*
X148760440Y-93278775D01*
X148760440Y-93278775D02*
X148876122Y-93237622D01*
X148876122Y-93237622D02*
X148994486Y-93201487D01*
X148994486Y-93201487D02*
X149115370Y-93170515D01*
X149115370Y-93170515D02*
X149238616Y-93144851D01*
X149238616Y-93144851D02*
X149364062Y-93124638D01*
X149364062Y-93124638D02*
X149491550Y-93110022D01*
X149491550Y-93110022D02*
X149620919Y-93101146D01*
X149620919Y-93101146D02*
X149752008Y-93098156D01*
X149752008Y-93098156D02*
X149883098Y-93101146D01*
X149883098Y-93101146D02*
X150012466Y-93110022D01*
X150012466Y-93110022D02*
X150139954Y-93124638D01*
X150139954Y-93124638D02*
X150265401Y-93144851D01*
X150265401Y-93144851D02*
X150388646Y-93170515D01*
X150388646Y-93170515D02*
X150509531Y-93201487D01*
X150509531Y-93201487D02*
X150627894Y-93237622D01*
X150627894Y-93237622D02*
X150743576Y-93278775D01*
X150743576Y-93278775D02*
X150856417Y-93324802D01*
X150856417Y-93324802D02*
X150966256Y-93375559D01*
X150966256Y-93375559D02*
X151072934Y-93430902D01*
X151072934Y-93430902D02*
X151176291Y-93490685D01*
X151176291Y-93490685D02*
X151276166Y-93554765D01*
X151276166Y-93554765D02*
X151372399Y-93622997D01*
X151372399Y-93622997D02*
X151464831Y-93695237D01*
X151464831Y-93695237D02*
X151553301Y-93771339D01*
X151553301Y-93771339D02*
X151637649Y-93851161D01*
X151637649Y-93851161D02*
X151717715Y-93934557D01*
X151717715Y-93934557D02*
X151793340Y-94021384D01*
X151793340Y-94021384D02*
X151864362Y-94111495D01*
X151864362Y-94111495D02*
X151930623Y-94204749D01*
X151930623Y-94204749D02*
X151991961Y-94300998D01*
X151991961Y-94300998D02*
X152048218Y-94400101D01*
X152048218Y-94400101D02*
X152099232Y-94501911D01*
X152099232Y-94501911D02*
X152144844Y-94606285D01*
X152144844Y-94606285D02*
X152184894Y-94713078D01*
X152184894Y-94713078D02*
X152219221Y-94822145D01*
X152219221Y-94822145D02*
X152247666Y-94933343D01*
X152247666Y-94933343D02*
X152270068Y-95046527D01*
X152270068Y-95046527D02*
X152286268Y-95161552D01*
X152286268Y-95161552D02*
X152296106Y-95278275D01*
X152296106Y-95278275D02*
X152299420Y-95396550D01*
X152299420Y-95396550D02*
X152296106Y-95514825D01*
X152296106Y-95514825D02*
X152286268Y-95631547D01*
X152286268Y-95631547D02*
X152270068Y-95746572D01*
X152270068Y-95746572D02*
X152247666Y-95859756D01*
X152247666Y-95859756D02*
X152219221Y-95970954D01*
X152219221Y-95970954D02*
X152184894Y-96080022D01*
X152184894Y-96080022D02*
X152144844Y-96186814D01*
X152144844Y-96186814D02*
X152099232Y-96291188D01*
X152099232Y-96291188D02*
X152048218Y-96392998D01*
X152048218Y-96392998D02*
X151991961Y-96492101D01*
X151991961Y-96492101D02*
X151930623Y-96588350D01*
X151930623Y-96588350D02*
X151864362Y-96681604D01*
X151864362Y-96681604D02*
X151793340Y-96771715D01*
X151793340Y-96771715D02*
X151717715Y-96858542D01*
X151717715Y-96858542D02*
X151637649Y-96941938D01*
X151637649Y-96941938D02*
X151553301Y-97021760D01*
X151553301Y-97021760D02*
X151464831Y-97097863D01*
X151464831Y-97097863D02*
X151372399Y-97170103D01*
X151372399Y-97170103D02*
X151276166Y-97238335D01*
X151276166Y-97238335D02*
X151176291Y-97302415D01*
X151176291Y-97302415D02*
X151072934Y-97362198D01*
X151072934Y-97362198D02*
X150966256Y-97417541D01*
X150966256Y-97417541D02*
X150856417Y-97468298D01*
X150856417Y-97468298D02*
X150743576Y-97514325D01*
X150743576Y-97514325D02*
X150627894Y-97555479D01*
X150627894Y-97555479D02*
X150509531Y-97591613D01*
X150509531Y-97591613D02*
X150388646Y-97622585D01*
X150388646Y-97622585D02*
X150265401Y-97648250D01*
X150265401Y-97648250D02*
X150139954Y-97668462D01*
X150139954Y-97668462D02*
X150012466Y-97683078D01*
X150012466Y-97683078D02*
X149883098Y-97691954D01*
X149883098Y-97691954D02*
X149752008Y-97694945D01*
X149752008Y-97694945D02*
X149620919Y-97691954D01*
X149620919Y-97691954D02*
X149491550Y-97683078D01*
X149491550Y-97683078D02*
X149364062Y-97668462D01*
X149364062Y-97668462D02*
X149238616Y-97648250D01*
X149238616Y-97648250D02*
X149115370Y-97622585D01*
X149115370Y-97622585D02*
X148994486Y-97591613D01*
X148994486Y-97591613D02*
X148876122Y-97555479D01*
X148876122Y-97555479D02*
X148760440Y-97514325D01*
X148760440Y-97514325D02*
X148647600Y-97468298D01*
X148647600Y-97468298D02*
X148537760Y-97417541D01*
X148537760Y-97417541D02*
X148431082Y-97362198D01*
X148431082Y-97362198D02*
X148327726Y-97302415D01*
X148327726Y-97302415D02*
X148227851Y-97238335D01*
X148227851Y-97238335D02*
X148131618Y-97170103D01*
X148131618Y-97170103D02*
X148039186Y-97097863D01*
X148039186Y-97097863D02*
X147950716Y-97021760D01*
X147950716Y-97021760D02*
X147866368Y-96941938D01*
X147866368Y-96941938D02*
X147786301Y-96858542D01*
X147786301Y-96858542D02*
X147710677Y-96771715D01*
X147710677Y-96771715D02*
X147639654Y-96681604D01*
X147639654Y-96681604D02*
X147573393Y-96588350D01*
X147573393Y-96588350D02*
X147512055Y-96492101D01*
X147512055Y-96492101D02*
X147455799Y-96392998D01*
X147455799Y-96392998D02*
X147404784Y-96291188D01*
X147404784Y-96291188D02*
X147359172Y-96186814D01*
X147359172Y-96186814D02*
X147319123Y-96080022D01*
X147319123Y-96080022D02*
X147284795Y-95970954D01*
X147284795Y-95970954D02*
X147256350Y-95859756D01*
X147256350Y-95859756D02*
X147233948Y-95746572D01*
X147233948Y-95746572D02*
X147217748Y-95631547D01*
X147217748Y-95631547D02*
X147207911Y-95514825D01*
X147207911Y-95514825D02*
X147204596Y-95396550D01*
X147204596Y-95396550D02*
X147204596Y-95396550D01*
G36*
X149883098Y-93101146D02*
G01*
X150012466Y-93110022D01*
X150139954Y-93124638D01*
X150265401Y-93144851D01*
X150388646Y-93170515D01*
X150509531Y-93201487D01*
X150627894Y-93237622D01*
X150743576Y-93278775D01*
X150856417Y-93324802D01*
X150966256Y-93375559D01*
X151072934Y-93430902D01*
X151176291Y-93490685D01*
X151276166Y-93554765D01*
X151372399Y-93622997D01*
X151464831Y-93695237D01*
X151553301Y-93771339D01*
X151637649Y-93851161D01*
X151717715Y-93934557D01*
X151793340Y-94021384D01*
X151864362Y-94111495D01*
X151930623Y-94204749D01*
X151991961Y-94300998D01*
X152048218Y-94400101D01*
X152099232Y-94501911D01*
X152144844Y-94606285D01*
X152184894Y-94713078D01*
X152219221Y-94822145D01*
X152247666Y-94933343D01*
X152270068Y-95046527D01*
X152286268Y-95161552D01*
X152296106Y-95278275D01*
X152299420Y-95396550D01*
X152296106Y-95514825D01*
X152286268Y-95631547D01*
X152270068Y-95746572D01*
X152247666Y-95859756D01*
X152219221Y-95970954D01*
X152184894Y-96080022D01*
X152144844Y-96186814D01*
X152099232Y-96291188D01*
X152048218Y-96392998D01*
X151991961Y-96492101D01*
X151930623Y-96588350D01*
X151864362Y-96681604D01*
X151793340Y-96771715D01*
X151717715Y-96858542D01*
X151637649Y-96941938D01*
X151553301Y-97021760D01*
X151464831Y-97097863D01*
X151372399Y-97170103D01*
X151276166Y-97238335D01*
X151176291Y-97302415D01*
X151072934Y-97362198D01*
X150966256Y-97417541D01*
X150856417Y-97468298D01*
X150743576Y-97514325D01*
X150627894Y-97555479D01*
X150509531Y-97591613D01*
X150388646Y-97622585D01*
X150265401Y-97648250D01*
X150139954Y-97668462D01*
X150012466Y-97683078D01*
X149883098Y-97691954D01*
X149752008Y-97694945D01*
X149620919Y-97691954D01*
X149491550Y-97683078D01*
X149364062Y-97668462D01*
X149238616Y-97648250D01*
X149115370Y-97622585D01*
X148994486Y-97591613D01*
X148876122Y-97555479D01*
X148760440Y-97514325D01*
X148647600Y-97468298D01*
X148537760Y-97417541D01*
X148431082Y-97362198D01*
X148327726Y-97302415D01*
X148227851Y-97238335D01*
X148131618Y-97170103D01*
X148039186Y-97097863D01*
X147950716Y-97021760D01*
X147866368Y-96941938D01*
X147786301Y-96858542D01*
X147710677Y-96771715D01*
X147639654Y-96681604D01*
X147573393Y-96588350D01*
X147512055Y-96492101D01*
X147455799Y-96392998D01*
X147404784Y-96291188D01*
X147359172Y-96186814D01*
X147319123Y-96080022D01*
X147284795Y-95970954D01*
X147256350Y-95859756D01*
X147233948Y-95746572D01*
X147217748Y-95631547D01*
X147207911Y-95514825D01*
X147204596Y-95396550D01*
X147207911Y-95278275D01*
X147217748Y-95161552D01*
X147233948Y-95046527D01*
X147256350Y-94933343D01*
X147284795Y-94822145D01*
X147319123Y-94713078D01*
X147359172Y-94606285D01*
X147404784Y-94501911D01*
X147455799Y-94400101D01*
X147512055Y-94300998D01*
X147573393Y-94204749D01*
X147639654Y-94111495D01*
X147710677Y-94021384D01*
X147786301Y-93934557D01*
X147866368Y-93851161D01*
X147950716Y-93771339D01*
X148039186Y-93695237D01*
X148131618Y-93622997D01*
X148227851Y-93554765D01*
X148327726Y-93490685D01*
X148431082Y-93430902D01*
X148537760Y-93375559D01*
X148647600Y-93324802D01*
X148760440Y-93278775D01*
X148876122Y-93237622D01*
X148994486Y-93201487D01*
X149115370Y-93170515D01*
X149238616Y-93144851D01*
X149364062Y-93124638D01*
X149491550Y-93110022D01*
X149620919Y-93101146D01*
X149752008Y-93098156D01*
X149883098Y-93101146D01*
G37*
X149883098Y-93101146D02*
X150012466Y-93110022D01*
X150139954Y-93124638D01*
X150265401Y-93144851D01*
X150388646Y-93170515D01*
X150509531Y-93201487D01*
X150627894Y-93237622D01*
X150743576Y-93278775D01*
X150856417Y-93324802D01*
X150966256Y-93375559D01*
X151072934Y-93430902D01*
X151176291Y-93490685D01*
X151276166Y-93554765D01*
X151372399Y-93622997D01*
X151464831Y-93695237D01*
X151553301Y-93771339D01*
X151637649Y-93851161D01*
X151717715Y-93934557D01*
X151793340Y-94021384D01*
X151864362Y-94111495D01*
X151930623Y-94204749D01*
X151991961Y-94300998D01*
X152048218Y-94400101D01*
X152099232Y-94501911D01*
X152144844Y-94606285D01*
X152184894Y-94713078D01*
X152219221Y-94822145D01*
X152247666Y-94933343D01*
X152270068Y-95046527D01*
X152286268Y-95161552D01*
X152296106Y-95278275D01*
X152299420Y-95396550D01*
X152296106Y-95514825D01*
X152286268Y-95631547D01*
X152270068Y-95746572D01*
X152247666Y-95859756D01*
X152219221Y-95970954D01*
X152184894Y-96080022D01*
X152144844Y-96186814D01*
X152099232Y-96291188D01*
X152048218Y-96392998D01*
X151991961Y-96492101D01*
X151930623Y-96588350D01*
X151864362Y-96681604D01*
X151793340Y-96771715D01*
X151717715Y-96858542D01*
X151637649Y-96941938D01*
X151553301Y-97021760D01*
X151464831Y-97097863D01*
X151372399Y-97170103D01*
X151276166Y-97238335D01*
X151176291Y-97302415D01*
X151072934Y-97362198D01*
X150966256Y-97417541D01*
X150856417Y-97468298D01*
X150743576Y-97514325D01*
X150627894Y-97555479D01*
X150509531Y-97591613D01*
X150388646Y-97622585D01*
X150265401Y-97648250D01*
X150139954Y-97668462D01*
X150012466Y-97683078D01*
X149883098Y-97691954D01*
X149752008Y-97694945D01*
X149620919Y-97691954D01*
X149491550Y-97683078D01*
X149364062Y-97668462D01*
X149238616Y-97648250D01*
X149115370Y-97622585D01*
X148994486Y-97591613D01*
X148876122Y-97555479D01*
X148760440Y-97514325D01*
X148647600Y-97468298D01*
X148537760Y-97417541D01*
X148431082Y-97362198D01*
X148327726Y-97302415D01*
X148227851Y-97238335D01*
X148131618Y-97170103D01*
X148039186Y-97097863D01*
X147950716Y-97021760D01*
X147866368Y-96941938D01*
X147786301Y-96858542D01*
X147710677Y-96771715D01*
X147639654Y-96681604D01*
X147573393Y-96588350D01*
X147512055Y-96492101D01*
X147455799Y-96392998D01*
X147404784Y-96291188D01*
X147359172Y-96186814D01*
X147319123Y-96080022D01*
X147284795Y-95970954D01*
X147256350Y-95859756D01*
X147233948Y-95746572D01*
X147217748Y-95631547D01*
X147207911Y-95514825D01*
X147204596Y-95396550D01*
X147207911Y-95278275D01*
X147217748Y-95161552D01*
X147233948Y-95046527D01*
X147256350Y-94933343D01*
X147284795Y-94822145D01*
X147319123Y-94713078D01*
X147359172Y-94606285D01*
X147404784Y-94501911D01*
X147455799Y-94400101D01*
X147512055Y-94300998D01*
X147573393Y-94204749D01*
X147639654Y-94111495D01*
X147710677Y-94021384D01*
X147786301Y-93934557D01*
X147866368Y-93851161D01*
X147950716Y-93771339D01*
X148039186Y-93695237D01*
X148131618Y-93622997D01*
X148227851Y-93554765D01*
X148327726Y-93490685D01*
X148431082Y-93430902D01*
X148537760Y-93375559D01*
X148647600Y-93324802D01*
X148760440Y-93278775D01*
X148876122Y-93237622D01*
X148994486Y-93201487D01*
X149115370Y-93170515D01*
X149238616Y-93144851D01*
X149364062Y-93124638D01*
X149491550Y-93110022D01*
X149620919Y-93101146D01*
X149752008Y-93098156D01*
X149883098Y-93101146D01*
D11*
X151264530Y-95250002D02*
X151253537Y-95590026D01*
X151253537Y-95590026D02*
X151220915Y-95925587D01*
X151220915Y-95925587D02*
X151167193Y-96256269D01*
X151167193Y-96256269D02*
X151092902Y-96581657D01*
X151092902Y-96581657D02*
X150998574Y-96901335D01*
X150998574Y-96901335D02*
X150884738Y-97214890D01*
X150884738Y-97214890D02*
X150751926Y-97521904D01*
X150751926Y-97521904D02*
X150600668Y-97821964D01*
X150600668Y-97821964D02*
X150431495Y-98114655D01*
X150431495Y-98114655D02*
X150244938Y-98399560D01*
X150244938Y-98399560D02*
X150041528Y-98676265D01*
X150041528Y-98676265D02*
X149821796Y-98944354D01*
X149821796Y-98944354D02*
X149586272Y-99203413D01*
X149586272Y-99203413D02*
X149335486Y-99453027D01*
X149335486Y-99453027D02*
X149069971Y-99692779D01*
X149069971Y-99692779D02*
X148790257Y-99922256D01*
X148790257Y-99922256D02*
X148496874Y-100141041D01*
X148496874Y-100141041D02*
X148190353Y-100348720D01*
X148190353Y-100348720D02*
X147871225Y-100544877D01*
X147871225Y-100544877D02*
X147540021Y-100729098D01*
X147540021Y-100729098D02*
X147197271Y-100900967D01*
X147197271Y-100900967D02*
X146843507Y-101060069D01*
X146843507Y-101060069D02*
X146479259Y-101205989D01*
X146479259Y-101205989D02*
X146105058Y-101338311D01*
X146105058Y-101338311D02*
X145721435Y-101456621D01*
X145721435Y-101456621D02*
X145328920Y-101560503D01*
X145328920Y-101560503D02*
X144928044Y-101649543D01*
X144928044Y-101649543D02*
X144519339Y-101723324D01*
X144519339Y-101723324D02*
X144103334Y-101781432D01*
X144103334Y-101781432D02*
X143680561Y-101823452D01*
X143680561Y-101823452D02*
X143251551Y-101848968D01*
X143251551Y-101848968D02*
X142816834Y-101857566D01*
X142816834Y-101857566D02*
X142382116Y-101848968D01*
X142382116Y-101848968D02*
X141953106Y-101823452D01*
X141953106Y-101823452D02*
X141114328Y-101723324D01*
X141114328Y-101723324D02*
X140304747Y-101560503D01*
X140304747Y-101560503D02*
X139528609Y-101338311D01*
X139528609Y-101338311D02*
X138790160Y-101060069D01*
X138790160Y-101060069D02*
X138093647Y-100729098D01*
X138093647Y-100729098D02*
X137443315Y-100348720D01*
X137443315Y-100348720D02*
X136843411Y-99922256D01*
X136843411Y-99922256D02*
X136563696Y-99692779D01*
X136563696Y-99692779D02*
X136298181Y-99453027D01*
X136298181Y-99453027D02*
X136047396Y-99203413D01*
X136047396Y-99203413D02*
X135811872Y-98944354D01*
X135811872Y-98944354D02*
X135592139Y-98676265D01*
X135592139Y-98676265D02*
X135388729Y-98399560D01*
X135388729Y-98399560D02*
X135202172Y-98114655D01*
X135202172Y-98114655D02*
X135033000Y-97821964D01*
X135033000Y-97821964D02*
X134881742Y-97521904D01*
X134881742Y-97521904D02*
X134748929Y-97214890D01*
X134748929Y-97214890D02*
X134635094Y-96901335D01*
X134635094Y-96901335D02*
X134540765Y-96581657D01*
X134540765Y-96581657D02*
X134466474Y-96256269D01*
X134466474Y-96256269D02*
X134412752Y-95925587D01*
X134412752Y-95925587D02*
X134380130Y-95590026D01*
X134380130Y-95590026D02*
X134369138Y-95250002D01*
X134369138Y-95250002D02*
X134380130Y-94909977D01*
X134380130Y-94909977D02*
X134412752Y-94574416D01*
X134412752Y-94574416D02*
X134466474Y-94243734D01*
X134466474Y-94243734D02*
X134540765Y-93918347D01*
X134540765Y-93918347D02*
X134635094Y-93598668D01*
X134635094Y-93598668D02*
X134748929Y-93285113D01*
X134748929Y-93285113D02*
X134881742Y-92978099D01*
X134881742Y-92978099D02*
X135033000Y-92678039D01*
X135033000Y-92678039D02*
X135202172Y-92385348D01*
X135202172Y-92385348D02*
X135388729Y-92100443D01*
X135388729Y-92100443D02*
X135592139Y-91823738D01*
X135592139Y-91823738D02*
X135811872Y-91555648D01*
X135811872Y-91555648D02*
X136047396Y-91296589D01*
X136047396Y-91296589D02*
X136298181Y-91046975D01*
X136298181Y-91046975D02*
X136563696Y-90807223D01*
X136563696Y-90807223D02*
X136843411Y-90577746D01*
X136843411Y-90577746D02*
X137136794Y-90358961D01*
X137136794Y-90358961D02*
X137443315Y-90151282D01*
X137443315Y-90151282D02*
X137762443Y-89955124D01*
X137762443Y-89955124D02*
X138093647Y-89770903D01*
X138093647Y-89770903D02*
X138436396Y-89599034D01*
X138436396Y-89599034D02*
X138790160Y-89439932D01*
X138790160Y-89439932D02*
X139154408Y-89294012D01*
X139154408Y-89294012D02*
X139528609Y-89161690D01*
X139528609Y-89161690D02*
X139912233Y-89043380D01*
X139912233Y-89043380D02*
X140304747Y-88939497D01*
X140304747Y-88939497D02*
X140705623Y-88850458D01*
X140705623Y-88850458D02*
X141114328Y-88776676D01*
X141114328Y-88776676D02*
X141530333Y-88718568D01*
X141530333Y-88718568D02*
X141953106Y-88676548D01*
X141953106Y-88676548D02*
X142382116Y-88651032D01*
X142382116Y-88651032D02*
X142816834Y-88642434D01*
X142816834Y-88642434D02*
X143251551Y-88651032D01*
X143251551Y-88651032D02*
X143680561Y-88676548D01*
X143680561Y-88676548D02*
X144519339Y-88776676D01*
X144519339Y-88776676D02*
X145328920Y-88939497D01*
X145328920Y-88939497D02*
X146105058Y-89161690D01*
X146105058Y-89161690D02*
X146843507Y-89439932D01*
X146843507Y-89439932D02*
X147540021Y-89770903D01*
X147540021Y-89770903D02*
X148190353Y-90151282D01*
X148190353Y-90151282D02*
X148790257Y-90577746D01*
X148790257Y-90577746D02*
X149069971Y-90807223D01*
X149069971Y-90807223D02*
X149335486Y-91046975D01*
X149335486Y-91046975D02*
X149586272Y-91296589D01*
X149586272Y-91296589D02*
X149821796Y-91555648D01*
X149821796Y-91555648D02*
X150041528Y-91823738D01*
X150041528Y-91823738D02*
X150244938Y-92100443D01*
X150244938Y-92100443D02*
X150431495Y-92385348D01*
X150431495Y-92385348D02*
X150600668Y-92678039D01*
X150600668Y-92678039D02*
X150751926Y-92978099D01*
X150751926Y-92978099D02*
X150884738Y-93285113D01*
X150884738Y-93285113D02*
X150998574Y-93598668D01*
X150998574Y-93598668D02*
X151092902Y-93918347D01*
X151092902Y-93918347D02*
X151167193Y-94243734D01*
X151167193Y-94243734D02*
X151220915Y-94574416D01*
X151220915Y-94574416D02*
X151253537Y-94909977D01*
X151253537Y-94909977D02*
X151264530Y-95250002D01*
X151264530Y-95250002D02*
X151264530Y-95250002D01*
G36*
X143251551Y-88651032D02*
G01*
X143680561Y-88676548D01*
X144519339Y-88776676D01*
X145328920Y-88939497D01*
X146105058Y-89161690D01*
X146843507Y-89439932D01*
X147540021Y-89770903D01*
X148190353Y-90151282D01*
X148790257Y-90577746D01*
X149069971Y-90807223D01*
X149335486Y-91046975D01*
X149586272Y-91296589D01*
X149821796Y-91555648D01*
X150041528Y-91823738D01*
X150244938Y-92100443D01*
X150431495Y-92385348D01*
X150600668Y-92678039D01*
X150751926Y-92978099D01*
X150884738Y-93285113D01*
X150998574Y-93598668D01*
X151092902Y-93918347D01*
X151167193Y-94243734D01*
X151220915Y-94574416D01*
X151253537Y-94909977D01*
X151264530Y-95250002D01*
X151253537Y-95590026D01*
X151220915Y-95925587D01*
X151167193Y-96256269D01*
X151092902Y-96581657D01*
X150998574Y-96901335D01*
X150884738Y-97214890D01*
X150751926Y-97521904D01*
X150600668Y-97821964D01*
X150431495Y-98114655D01*
X150244938Y-98399560D01*
X150041528Y-98676265D01*
X149821796Y-98944354D01*
X149586272Y-99203413D01*
X149335486Y-99453027D01*
X149069971Y-99692779D01*
X148790257Y-99922256D01*
X148496874Y-100141041D01*
X148190353Y-100348720D01*
X147871225Y-100544877D01*
X147540021Y-100729098D01*
X147197271Y-100900967D01*
X146843507Y-101060069D01*
X146479259Y-101205989D01*
X146105058Y-101338311D01*
X145721435Y-101456621D01*
X145328920Y-101560503D01*
X144928044Y-101649543D01*
X144519339Y-101723324D01*
X144103334Y-101781432D01*
X143680561Y-101823452D01*
X143251551Y-101848968D01*
X142816834Y-101857566D01*
X142382116Y-101848968D01*
X141953106Y-101823452D01*
X141114328Y-101723324D01*
X140304747Y-101560503D01*
X139528609Y-101338311D01*
X138790160Y-101060069D01*
X138093647Y-100729098D01*
X137443315Y-100348720D01*
X136843411Y-99922256D01*
X136563696Y-99692779D01*
X136298181Y-99453027D01*
X136047396Y-99203413D01*
X135811872Y-98944354D01*
X135592139Y-98676265D01*
X135388729Y-98399560D01*
X135202172Y-98114655D01*
X135033000Y-97821964D01*
X134881742Y-97521904D01*
X134748929Y-97214890D01*
X134635094Y-96901335D01*
X134540765Y-96581657D01*
X134466474Y-96256269D01*
X134412752Y-95925587D01*
X134380130Y-95590026D01*
X134369138Y-95250002D01*
X134380130Y-94909977D01*
X134412752Y-94574416D01*
X134466474Y-94243734D01*
X134540765Y-93918347D01*
X134635094Y-93598668D01*
X134748929Y-93285113D01*
X134881742Y-92978099D01*
X135033000Y-92678039D01*
X135202172Y-92385348D01*
X135388729Y-92100443D01*
X135592139Y-91823738D01*
X135811872Y-91555648D01*
X136047396Y-91296589D01*
X136298181Y-91046975D01*
X136563696Y-90807223D01*
X136843411Y-90577746D01*
X137136794Y-90358961D01*
X137443315Y-90151282D01*
X137762443Y-89955124D01*
X138093647Y-89770903D01*
X138436396Y-89599034D01*
X138790160Y-89439932D01*
X139154408Y-89294012D01*
X139528609Y-89161690D01*
X139912233Y-89043380D01*
X140304747Y-88939497D01*
X140705623Y-88850458D01*
X141114328Y-88776676D01*
X141530333Y-88718568D01*
X141953106Y-88676548D01*
X142382116Y-88651032D01*
X142816834Y-88642434D01*
X143251551Y-88651032D01*
G37*
X143251551Y-88651032D02*
X143680561Y-88676548D01*
X144519339Y-88776676D01*
X145328920Y-88939497D01*
X146105058Y-89161690D01*
X146843507Y-89439932D01*
X147540021Y-89770903D01*
X148190353Y-90151282D01*
X148790257Y-90577746D01*
X149069971Y-90807223D01*
X149335486Y-91046975D01*
X149586272Y-91296589D01*
X149821796Y-91555648D01*
X150041528Y-91823738D01*
X150244938Y-92100443D01*
X150431495Y-92385348D01*
X150600668Y-92678039D01*
X150751926Y-92978099D01*
X150884738Y-93285113D01*
X150998574Y-93598668D01*
X151092902Y-93918347D01*
X151167193Y-94243734D01*
X151220915Y-94574416D01*
X151253537Y-94909977D01*
X151264530Y-95250002D01*
X151253537Y-95590026D01*
X151220915Y-95925587D01*
X151167193Y-96256269D01*
X151092902Y-96581657D01*
X150998574Y-96901335D01*
X150884738Y-97214890D01*
X150751926Y-97521904D01*
X150600668Y-97821964D01*
X150431495Y-98114655D01*
X150244938Y-98399560D01*
X150041528Y-98676265D01*
X149821796Y-98944354D01*
X149586272Y-99203413D01*
X149335486Y-99453027D01*
X149069971Y-99692779D01*
X148790257Y-99922256D01*
X148496874Y-100141041D01*
X148190353Y-100348720D01*
X147871225Y-100544877D01*
X147540021Y-100729098D01*
X147197271Y-100900967D01*
X146843507Y-101060069D01*
X146479259Y-101205989D01*
X146105058Y-101338311D01*
X145721435Y-101456621D01*
X145328920Y-101560503D01*
X144928044Y-101649543D01*
X144519339Y-101723324D01*
X144103334Y-101781432D01*
X143680561Y-101823452D01*
X143251551Y-101848968D01*
X142816834Y-101857566D01*
X142382116Y-101848968D01*
X141953106Y-101823452D01*
X141114328Y-101723324D01*
X140304747Y-101560503D01*
X139528609Y-101338311D01*
X138790160Y-101060069D01*
X138093647Y-100729098D01*
X137443315Y-100348720D01*
X136843411Y-99922256D01*
X136563696Y-99692779D01*
X136298181Y-99453027D01*
X136047396Y-99203413D01*
X135811872Y-98944354D01*
X135592139Y-98676265D01*
X135388729Y-98399560D01*
X135202172Y-98114655D01*
X135033000Y-97821964D01*
X134881742Y-97521904D01*
X134748929Y-97214890D01*
X134635094Y-96901335D01*
X134540765Y-96581657D01*
X134466474Y-96256269D01*
X134412752Y-95925587D01*
X134380130Y-95590026D01*
X134369138Y-95250002D01*
X134380130Y-94909977D01*
X134412752Y-94574416D01*
X134466474Y-94243734D01*
X134540765Y-93918347D01*
X134635094Y-93598668D01*
X134748929Y-93285113D01*
X134881742Y-92978099D01*
X135033000Y-92678039D01*
X135202172Y-92385348D01*
X135388729Y-92100443D01*
X135592139Y-91823738D01*
X135811872Y-91555648D01*
X136047396Y-91296589D01*
X136298181Y-91046975D01*
X136563696Y-90807223D01*
X136843411Y-90577746D01*
X137136794Y-90358961D01*
X137443315Y-90151282D01*
X137762443Y-89955124D01*
X138093647Y-89770903D01*
X138436396Y-89599034D01*
X138790160Y-89439932D01*
X139154408Y-89294012D01*
X139528609Y-89161690D01*
X139912233Y-89043380D01*
X140304747Y-88939497D01*
X140705623Y-88850458D01*
X141114328Y-88776676D01*
X141530333Y-88718568D01*
X141953106Y-88676548D01*
X142382116Y-88651032D01*
X142816834Y-88642434D01*
X143251551Y-88651032D01*
D12*
%TO.C,SW41*%
X252730000Y-114300000D03*
X242570000Y-114300000D03*
D13*
X247650000Y-114300000D03*
%TD*%
D12*
%TO.C,SW35*%
X138430000Y-114300000D03*
D13*
X133350000Y-114300000D03*
D12*
X128270000Y-114300000D03*
%TD*%
%TO.C,SW25*%
X167005000Y-95250000D03*
X156845000Y-95250000D03*
D13*
X161925000Y-95250000D03*
%TD*%
D12*
%TO.C,SW16*%
X223520000Y-76200000D03*
X233680000Y-76200000D03*
D13*
X228600000Y-76200000D03*
%TD*%
D14*
%TO.C,U2*%
X264200000Y-45600000D03*
X269200000Y-45600000D03*
X266700000Y-45600000D03*
X264200000Y-31100000D03*
X269200000Y-31100000D03*
D15*
X272200000Y-38100000D03*
X261200000Y-38100000D03*
%TD*%
D13*
%TO.C,SW38*%
X190500000Y-114300000D03*
D12*
X185420000Y-114300000D03*
X195580000Y-114300000D03*
%TD*%
%TO.C,SW2*%
X157480000Y-38100000D03*
X147320000Y-38100000D03*
D13*
X152400000Y-38100000D03*
%TD*%
D12*
%TO.C,SW43*%
X290830000Y-114300000D03*
D13*
X285750000Y-114300000D03*
D12*
X280670000Y-114300000D03*
%TD*%
%TO.C,SW36*%
X157480000Y-114300000D03*
X147320000Y-114300000D03*
D13*
X152400000Y-114300000D03*
%TD*%
%TO.C,SW11*%
X133350000Y-76200000D03*
D12*
X138430000Y-76200000D03*
X128270000Y-76200000D03*
%TD*%
%TO.C,SW33*%
X100330000Y-114300000D03*
X90170000Y-114300000D03*
D13*
X95250000Y-114300000D03*
%TD*%
D14*
%TO.C,U1*%
X235625000Y-45790500D03*
X240625000Y-45790500D03*
X238125000Y-45790500D03*
X235625000Y-31290500D03*
X240625000Y-31290500D03*
D15*
X243625000Y-38290500D03*
X232625000Y-38290500D03*
%TD*%
D13*
%TO.C,SW44*%
X304800000Y-114300000D03*
D12*
X309880000Y-114300000D03*
X299720000Y-114300000D03*
%TD*%
D13*
%TO.C,SW22*%
X85725000Y-95250000D03*
D12*
X80645000Y-95250000D03*
X90805000Y-95250000D03*
%TD*%
%TO.C,SW37*%
X176530000Y-114300000D03*
X166370000Y-114300000D03*
D13*
X171450000Y-114300000D03*
%TD*%
D12*
%TO.C,SW23*%
X99695000Y-95250000D03*
D13*
X104775000Y-95250000D03*
D12*
X109855000Y-95250000D03*
%TD*%
D13*
%TO.C,SW5*%
X209550000Y-38100000D03*
D12*
X214630000Y-38100000D03*
X204470000Y-38100000D03*
%TD*%
D13*
%TO.C,SW1*%
X133350000Y-38100000D03*
D12*
X138430000Y-38100000D03*
X128270000Y-38100000D03*
%TD*%
%TO.C,SW3*%
X166370000Y-38100000D03*
D13*
X171450000Y-38100000D03*
D12*
X176530000Y-38100000D03*
%TD*%
D13*
%TO.C,SW19*%
X285750000Y-76200000D03*
D12*
X290830000Y-76200000D03*
X280670000Y-76200000D03*
%TD*%
D14*
%TO.C,U3*%
X292775000Y-45600000D03*
X297775000Y-45600000D03*
X295275000Y-45600000D03*
X292775000Y-31100000D03*
X297775000Y-31100000D03*
D15*
X300775000Y-38100000D03*
X289775000Y-38100000D03*
%TD*%
D12*
%TO.C,SW8*%
X166370000Y-57150000D03*
D13*
X171450000Y-57150000D03*
D12*
X176530000Y-57150000D03*
%TD*%
D13*
%TO.C,SW9*%
X190500000Y-57150000D03*
D12*
X185420000Y-57150000D03*
X195580000Y-57150000D03*
%TD*%
D13*
%TO.C,SW6*%
X133350000Y-57150000D03*
D12*
X138430000Y-57150000D03*
X128270000Y-57150000D03*
%TD*%
%TO.C,SW17*%
X242570000Y-76200000D03*
D13*
X247650000Y-76200000D03*
D12*
X252730000Y-76200000D03*
%TD*%
%TO.C,SW13*%
X176530000Y-76200000D03*
D13*
X171450000Y-76200000D03*
D12*
X166370000Y-76200000D03*
%TD*%
D13*
%TO.C,SW31*%
X314325000Y-95250000D03*
D12*
X309245000Y-95250000D03*
X319405000Y-95250000D03*
%TD*%
%TO.C,SW26*%
X186055000Y-95250000D03*
D13*
X180975000Y-95250000D03*
D12*
X175895000Y-95250000D03*
%TD*%
D16*
%TO.C,U5*%
X40095250Y-98041500D03*
X55335250Y-111381500D03*
X40095250Y-111381500D03*
X55335250Y-98041500D03*
D12*
X44540250Y-92011500D03*
X50890250Y-92011500D03*
X44540250Y-97091500D03*
X50880852Y-97065247D03*
X45175250Y-114871500D03*
X47715250Y-114871500D03*
X50255250Y-114871500D03*
X37555250Y-102071500D03*
X37555250Y-104711500D03*
X37555250Y-107351500D03*
%TD*%
%TO.C,SW14*%
X195580000Y-76200000D03*
X185420000Y-76200000D03*
D13*
X190500000Y-76200000D03*
%TD*%
%TO.C,SW15*%
X209550000Y-76200000D03*
D12*
X204470000Y-76200000D03*
X214630000Y-76200000D03*
%TD*%
%TO.C,SW40*%
X233680000Y-114300000D03*
D13*
X228600000Y-114300000D03*
D12*
X223520000Y-114300000D03*
%TD*%
%TO.C,SW20*%
X299720000Y-76200000D03*
X309880000Y-76200000D03*
D13*
X304800000Y-76200000D03*
%TD*%
%TO.C,SW39*%
X209550000Y-114300000D03*
D12*
X214630000Y-114300000D03*
X204470000Y-114300000D03*
%TD*%
%TO.C,SW30*%
X290195000Y-95250000D03*
D13*
X295275000Y-95250000D03*
D12*
X300355000Y-95250000D03*
%TD*%
%TO.C,SW28*%
X233045000Y-95250000D03*
X243205000Y-95250000D03*
D13*
X238125000Y-95250000D03*
%TD*%
D12*
%TO.C,SW34*%
X109220000Y-114300000D03*
X119380000Y-114300000D03*
D13*
X114300000Y-114300000D03*
%TD*%
%TO.C,SW42*%
X266700000Y-114300000D03*
D12*
X271780000Y-114300000D03*
X261620000Y-114300000D03*
%TD*%
%TO.C,SW7*%
X157480000Y-57150000D03*
D13*
X152400000Y-57150000D03*
D12*
X147320000Y-57150000D03*
%TD*%
%TO.C,SW29*%
X262255000Y-95250000D03*
X252095000Y-95250000D03*
D13*
X257175000Y-95250000D03*
%TD*%
%TO.C,SW32*%
X76200000Y-114300000D03*
D12*
X71120000Y-114300000D03*
X81280000Y-114300000D03*
%TD*%
%TO.C,SW4*%
X195580000Y-38100000D03*
X185420000Y-38100000D03*
D13*
X190500000Y-38100000D03*
%TD*%
D12*
%TO.C,SW12*%
X147320000Y-76200000D03*
X157480000Y-76200000D03*
D13*
X152400000Y-76200000D03*
%TD*%
D12*
%TO.C,SW18*%
X261620000Y-76200000D03*
X271780000Y-76200000D03*
D13*
X266700000Y-76200000D03*
%TD*%
D12*
%TO.C,SW21*%
X328930000Y-76200000D03*
D13*
X323850000Y-76200000D03*
D12*
X318770000Y-76200000D03*
%TD*%
D13*
%TO.C,SW27*%
X219075000Y-95250000D03*
D12*
X224155000Y-95250000D03*
X213995000Y-95250000D03*
%TD*%
D14*
%TO.C,U4*%
X321350000Y-45600000D03*
X326350000Y-45600000D03*
X323850000Y-45600000D03*
X321350000Y-31100000D03*
X326350000Y-31100000D03*
D15*
X318350000Y-38100000D03*
X329350000Y-38100000D03*
%TD*%
D12*
%TO.C,SW24*%
X128905000Y-95250000D03*
X118745000Y-95250000D03*
D13*
X123825000Y-95250000D03*
%TD*%
D12*
%TO.C,SW10*%
X214630000Y-57150000D03*
D13*
X209550000Y-57150000D03*
D12*
X204470000Y-57150000D03*
%TD*%
%TO.C,SW45*%
X328930000Y-114300000D03*
X318770000Y-114300000D03*
D13*
X323850000Y-114300000D03*
%TD*%
D17*
%TO.C,D48*%
X276225000Y-110490000D03*
D18*
X276225000Y-118110000D03*
%TD*%
D17*
%TO.C,D47*%
X257175000Y-110490000D03*
D18*
X257175000Y-118110000D03*
%TD*%
D17*
%TO.C,D41*%
X142875000Y-110490000D03*
D18*
X142875000Y-118110000D03*
%TD*%
D17*
%TO.C,D21*%
X251460000Y-85725000D03*
D18*
X243840000Y-85725000D03*
%TD*%
D17*
%TO.C,D50*%
X314325000Y-110490000D03*
D18*
X314325000Y-118110000D03*
%TD*%
D17*
%TO.C,D30*%
X184785000Y-104775000D03*
D18*
X177165000Y-104775000D03*
%TD*%
D17*
%TO.C,D6*%
X228600000Y-41910000D03*
D18*
X228600000Y-34290000D03*
%TD*%
D17*
%TO.C,D34*%
X299085000Y-104775000D03*
D18*
X291465000Y-104775000D03*
%TD*%
D17*
%TO.C,D25*%
X327660000Y-85725000D03*
D18*
X320040000Y-85725000D03*
%TD*%
D14*
%TO.C,U6*%
X225171000Y-48958500D03*
X227711000Y-48958500D03*
X230251000Y-48958500D03*
X232791000Y-48958500D03*
X258191000Y-48958500D03*
X268351000Y-54038500D03*
X227711000Y-64198500D03*
X235331000Y-48958500D03*
X237871000Y-48958500D03*
X222631000Y-64198500D03*
X228981000Y-52008500D03*
X240411000Y-48958500D03*
X242951000Y-48958500D03*
X245491000Y-48958500D03*
X248031000Y-48958500D03*
X250571000Y-48958500D03*
X253111000Y-48958500D03*
X255651000Y-48958500D03*
X255651000Y-64198500D03*
X253111000Y-64198500D03*
X250571000Y-64198500D03*
X248031000Y-64198500D03*
X245491000Y-64198500D03*
X242951000Y-64198500D03*
X240411000Y-64198500D03*
X237871000Y-64198500D03*
X235331000Y-64198500D03*
X232791000Y-64198500D03*
X230251000Y-64198500D03*
X260731000Y-48958500D03*
X263271000Y-48958500D03*
X265811000Y-48958500D03*
X268351000Y-48958500D03*
X270891000Y-48958500D03*
X273431000Y-48958500D03*
X275971000Y-48958500D03*
X278511000Y-48958500D03*
X281051000Y-48958500D03*
X281051000Y-64198500D03*
X278511000Y-64198500D03*
X275971000Y-64198500D03*
X273431000Y-64198500D03*
X270891000Y-64198500D03*
X268351000Y-64198500D03*
X265811000Y-64198500D03*
X263271000Y-64198500D03*
X260731000Y-64198500D03*
X231521000Y-52008500D03*
X234061000Y-52008500D03*
X236601000Y-52008500D03*
X258191000Y-64198500D03*
X239141000Y-52008500D03*
X225171000Y-61658500D03*
X237601000Y-59748500D03*
X222631000Y-48958500D03*
X225171000Y-64198500D03*
X268351000Y-56578500D03*
X235601000Y-59748500D03*
X268351000Y-61658500D03*
X268351000Y-59118500D03*
X235601000Y-61748500D03*
X237601000Y-61748500D03*
X237601000Y-57748500D03*
X235601000Y-57748500D03*
X268351000Y-51498500D03*
%TD*%
D17*
%TO.C,D29*%
X165735000Y-104775000D03*
D18*
X158115000Y-104775000D03*
%TD*%
D17*
%TO.C,D9*%
X314325000Y-41910000D03*
D18*
X314325000Y-34290000D03*
%TD*%
D17*
%TO.C,D39*%
X104775000Y-110490000D03*
D18*
X104775000Y-118110000D03*
%TD*%
D17*
%TO.C,D18*%
X194310000Y-85725000D03*
D18*
X186690000Y-85725000D03*
%TD*%
D17*
%TO.C,D28*%
X127635000Y-104775000D03*
D18*
X120015000Y-104775000D03*
%TD*%
D17*
%TO.C,D33*%
X260985000Y-104775000D03*
D18*
X253365000Y-104775000D03*
%TD*%
D17*
%TO.C,D7*%
X257175000Y-41910000D03*
D18*
X257175000Y-34290000D03*
%TD*%
D17*
%TO.C,D12*%
X175260000Y-66675000D03*
D18*
X167640000Y-66675000D03*
%TD*%
D17*
%TO.C,D2*%
X156210000Y-47625000D03*
D18*
X148590000Y-47625000D03*
%TD*%
D17*
%TO.C,D46*%
X238125000Y-110490000D03*
D18*
X238125000Y-118110000D03*
%TD*%
D17*
%TO.C,D37*%
X66675000Y-110490000D03*
D18*
X66675000Y-118110000D03*
%TD*%
D17*
%TO.C,D23*%
X289560000Y-85725000D03*
D18*
X281940000Y-85725000D03*
%TD*%
D17*
%TO.C,D4*%
X194310000Y-47625000D03*
D18*
X186690000Y-47625000D03*
%TD*%
D17*
%TO.C,D16*%
X156210000Y-85725000D03*
D18*
X148590000Y-85725000D03*
%TD*%
D17*
%TO.C,D20*%
X232410000Y-85725000D03*
D18*
X224790000Y-85725000D03*
%TD*%
D17*
%TO.C,D24*%
X308610000Y-85725000D03*
D18*
X300990000Y-85725000D03*
%TD*%
D17*
%TO.C,D13*%
X194310000Y-66675000D03*
D18*
X186690000Y-66675000D03*
%TD*%
D17*
%TO.C,D5*%
X213360000Y-47625000D03*
D18*
X205740000Y-47625000D03*
%TD*%
D17*
%TO.C,D8*%
X285750000Y-41910000D03*
D18*
X285750000Y-34290000D03*
%TD*%
D17*
%TO.C,D10*%
X137160000Y-66675000D03*
D18*
X129540000Y-66675000D03*
%TD*%
D17*
%TO.C,D19*%
X213360000Y-85725000D03*
D18*
X205740000Y-85725000D03*
%TD*%
D17*
%TO.C,D44*%
X200025000Y-110490000D03*
D18*
X200025000Y-118110000D03*
%TD*%
D17*
%TO.C,D49*%
X295275000Y-110490000D03*
D18*
X295275000Y-118110000D03*
%TD*%
D17*
%TO.C,D31*%
X222885000Y-104775000D03*
D18*
X215265000Y-104775000D03*
%TD*%
D17*
%TO.C,D45*%
X219075000Y-110490000D03*
D18*
X219075000Y-118110000D03*
%TD*%
D17*
%TO.C,D42*%
X161925000Y-110490000D03*
D18*
X161925000Y-118110000D03*
%TD*%
D17*
%TO.C,D15*%
X137160000Y-85725000D03*
D18*
X129540000Y-85725000D03*
%TD*%
D17*
%TO.C,D17*%
X175260000Y-85725000D03*
D18*
X167640000Y-85725000D03*
%TD*%
D17*
%TO.C,D1*%
X137160000Y-47625000D03*
D18*
X129540000Y-47625000D03*
%TD*%
D17*
%TO.C,D40*%
X123825000Y-110490000D03*
D18*
X123825000Y-118110000D03*
%TD*%
D17*
%TO.C,D32*%
X241935000Y-104775000D03*
D18*
X234315000Y-104775000D03*
%TD*%
D17*
%TO.C,D14*%
X213360000Y-66675000D03*
D18*
X205740000Y-66675000D03*
%TD*%
D17*
%TO.C,D38*%
X85725000Y-110490000D03*
D18*
X85725000Y-118110000D03*
%TD*%
D17*
%TO.C,D27*%
X108585000Y-104775000D03*
D18*
X100965000Y-104775000D03*
%TD*%
D17*
%TO.C,D22*%
X270510000Y-85725000D03*
D18*
X262890000Y-85725000D03*
%TD*%
D17*
%TO.C,D3*%
X175260000Y-47625000D03*
D18*
X167640000Y-47625000D03*
%TD*%
D17*
%TO.C,D26*%
X89535000Y-104775000D03*
D18*
X81915000Y-104775000D03*
%TD*%
D17*
%TO.C,D43*%
X180975000Y-110490000D03*
D18*
X180975000Y-118110000D03*
%TD*%
D17*
%TO.C,D11*%
X156210000Y-66675000D03*
D18*
X148590000Y-66675000D03*
%TD*%
D17*
%TO.C,D35*%
X318135000Y-104775000D03*
D18*
X310515000Y-104775000D03*
%TD*%
M02*
