%TF.GenerationSoftware,KiCad,Pcbnew,6.0.2-378541a8eb~116~ubuntu20.04.1*%
%TF.CreationDate,2022-02-21T21:33:11-06:00*%
%TF.ProjectId,LMN,4c4d4e2e-6b69-4636-9164-5f7063625858,rev?*%
%TF.SameCoordinates,Original*%
%TF.FileFunction,Copper,L2,Bot*%
%TF.FilePolarity,Positive*%
%FSLAX46Y46*%
G04 Gerber Fmt 4.6, Leading zero omitted, Abs format (unit mm)*
G04 Created by KiCad (PCBNEW 6.0.2-378541a8eb~116~ubuntu20.04.1) date 2022-02-21 21:33:11*
%MOMM*%
%LPD*%
G01*
G04 APERTURE LIST*
%TA.AperFunction,ComponentPad*%
%ADD10C,2.500000*%
%TD*%
%TA.AperFunction,ComponentPad*%
%ADD11C,1.500000*%
%TD*%
%TA.AperFunction,ComponentPad*%
%ADD12O,2.500000X3.500000*%
%TD*%
%TA.AperFunction,WasherPad*%
%ADD13C,1.897000*%
%TD*%
%TA.AperFunction,ComponentPad*%
%ADD14C,1.750000*%
%TD*%
%TA.AperFunction,ComponentPad*%
%ADD15R,1.600000X1.600000*%
%TD*%
%TA.AperFunction,ComponentPad*%
%ADD16O,1.600000X1.600000*%
%TD*%
%TA.AperFunction,ViaPad*%
%ADD17C,0.800000*%
%TD*%
%TA.AperFunction,Conductor*%
%ADD18C,0.250000*%
%TD*%
G04 APERTURE END LIST*
D10*
%TO.P,SW41,1,1*%
%TO.N,Net-(D46-Pad2)*%
X243840000Y-111760000D03*
%TO.P,SW41,2,2*%
%TO.N,col_9*%
X250190000Y-109220000D03*
%TD*%
%TO.P,SW35,1,1*%
%TO.N,Net-(D40-Pad2)*%
X129540000Y-111760000D03*
%TO.P,SW35,2,2*%
%TO.N,col_3*%
X135890000Y-109220000D03*
%TD*%
%TO.P,SW25,1,1*%
%TO.N,Net-(D29-Pad2)*%
X158115000Y-92710000D03*
%TO.P,SW25,2,2*%
%TO.N,col_5*%
X164465000Y-90170000D03*
%TD*%
%TO.P,SW16,1,1*%
%TO.N,Net-(D20-Pad2)*%
X224790000Y-73660000D03*
%TO.P,SW16,2,2*%
%TO.N,col_8*%
X231140000Y-71120000D03*
%TD*%
D11*
%TO.P,U2,A,A*%
%TO.N,26*%
X264200000Y-45600000D03*
%TO.P,U2,B,B*%
%TO.N,27*%
X269200000Y-45600000D03*
%TO.P,U2,C,C*%
%TO.N,GND*%
X266700000Y-45600000D03*
%TO.P,U2,D,D*%
%TO.N,col_10*%
X264200000Y-31100000D03*
%TO.P,U2,E,E*%
%TO.N,Net-(D7-Pad2)*%
X269200000Y-31100000D03*
D12*
%TO.P,U2,Shield*%
%TO.N,N/C*%
X272200000Y-38100000D03*
X261200000Y-38100000D03*
%TD*%
D10*
%TO.P,SW38,1,1*%
%TO.N,Net-(D43-Pad2)*%
X186690000Y-111760000D03*
%TO.P,SW38,2,2*%
%TO.N,col_6*%
X193040000Y-109220000D03*
%TD*%
%TO.P,SW2,1,1*%
%TO.N,Net-(D2-Pad2)*%
X148590000Y-35560000D03*
%TO.P,SW2,2,2*%
%TO.N,col_4*%
X154940000Y-33020000D03*
%TD*%
%TO.P,SW43,1,1*%
%TO.N,Net-(D48-Pad2)*%
X281940000Y-111760000D03*
%TO.P,SW43,2,2*%
%TO.N,col_11*%
X288290000Y-109220000D03*
%TD*%
%TO.P,SW36,1,1*%
%TO.N,Net-(D41-Pad2)*%
X148590000Y-111760000D03*
%TO.P,SW36,2,2*%
%TO.N,col_4*%
X154940000Y-109220000D03*
%TD*%
%TO.P,SW11,1,1*%
%TO.N,Net-(D15-Pad2)*%
X129540000Y-73660000D03*
%TO.P,SW11,2,2*%
%TO.N,col_3*%
X135890000Y-71120000D03*
%TD*%
%TO.P,SW33,1,1*%
%TO.N,Net-(D38-Pad2)*%
X91440000Y-111760000D03*
%TO.P,SW33,2,2*%
%TO.N,col_1*%
X97790000Y-109220000D03*
%TD*%
D11*
%TO.P,U1,A,A*%
%TO.N,5*%
X235625000Y-45790500D03*
%TO.P,U1,B,B*%
%TO.N,6*%
X240625000Y-45790500D03*
%TO.P,U1,C,C*%
%TO.N,GND*%
X238125000Y-45790500D03*
%TO.P,U1,D,D*%
%TO.N,col_9*%
X235625000Y-31290500D03*
%TO.P,U1,E,E*%
%TO.N,Net-(D6-Pad2)*%
X240625000Y-31290500D03*
D12*
%TO.P,U1,Shield*%
%TO.N,N/C*%
X243625000Y-38290500D03*
X232625000Y-38290500D03*
%TD*%
D10*
%TO.P,SW44,1,1*%
%TO.N,Net-(D49-Pad2)*%
X300990000Y-111760000D03*
%TO.P,SW44,2,2*%
%TO.N,col_12*%
X307340000Y-109220000D03*
%TD*%
%TO.P,SW22,1,1*%
%TO.N,Net-(D26-Pad2)*%
X81915000Y-92710000D03*
%TO.P,SW22,2,2*%
%TO.N,col_1*%
X88265000Y-90170000D03*
%TD*%
%TO.P,SW37,1,1*%
%TO.N,Net-(D42-Pad2)*%
X167640000Y-111760000D03*
%TO.P,SW37,2,2*%
%TO.N,col_5*%
X173990000Y-109220000D03*
%TD*%
%TO.P,SW23,1,1*%
%TO.N,Net-(D27-Pad2)*%
X100965000Y-92710000D03*
%TO.P,SW23,2,2*%
%TO.N,col_2*%
X107315000Y-90170000D03*
%TD*%
%TO.P,SW5,1,1*%
%TO.N,Net-(D5-Pad2)*%
X205740000Y-35560000D03*
%TO.P,SW5,2,2*%
%TO.N,col_7*%
X212090000Y-33020000D03*
%TD*%
%TO.P,SW1,1,1*%
%TO.N,Net-(D1-Pad2)*%
X129540000Y-35560000D03*
%TO.P,SW1,2,2*%
%TO.N,col_3*%
X135890000Y-33020000D03*
%TD*%
%TO.P,SW3,1,1*%
%TO.N,Net-(D3-Pad2)*%
X167640000Y-35560000D03*
%TO.P,SW3,2,2*%
%TO.N,col_5*%
X173990000Y-33020000D03*
%TD*%
%TO.P,SW19,1,1*%
%TO.N,Net-(D23-Pad2)*%
X281940000Y-73660000D03*
%TO.P,SW19,2,2*%
%TO.N,col_11*%
X288290000Y-71120000D03*
%TD*%
D11*
%TO.P,U3,A,A*%
%TO.N,29*%
X292775000Y-45600000D03*
%TO.P,U3,B,B*%
%TO.N,30*%
X297775000Y-45600000D03*
%TO.P,U3,C,C*%
%TO.N,GND*%
X295275000Y-45600000D03*
%TO.P,U3,D,D*%
%TO.N,col_12*%
X292775000Y-31100000D03*
%TO.P,U3,E,E*%
%TO.N,Net-(D8-Pad2)*%
X297775000Y-31100000D03*
D12*
%TO.P,U3,Shield*%
%TO.N,N/C*%
X300775000Y-38100000D03*
X289775000Y-38100000D03*
%TD*%
D10*
%TO.P,SW8,1,1*%
%TO.N,Net-(D12-Pad2)*%
X167640000Y-54610000D03*
%TO.P,SW8,2,2*%
%TO.N,col_5*%
X173990000Y-52070000D03*
%TD*%
%TO.P,SW9,1,1*%
%TO.N,Net-(D13-Pad2)*%
X186690000Y-54610000D03*
%TO.P,SW9,2,2*%
%TO.N,col_6*%
X193040000Y-52070000D03*
%TD*%
%TO.P,SW6,1,1*%
%TO.N,Net-(D10-Pad2)*%
X129540000Y-54610000D03*
%TO.P,SW6,2,2*%
%TO.N,col_3*%
X135890000Y-52070000D03*
%TD*%
%TO.P,SW17,1,1*%
%TO.N,Net-(D21-Pad2)*%
X243840000Y-73660000D03*
%TO.P,SW17,2,2*%
%TO.N,col_9*%
X250190000Y-71120000D03*
%TD*%
%TO.P,SW13,1,1*%
%TO.N,Net-(D17-Pad2)*%
X167640000Y-73660000D03*
%TO.P,SW13,2,2*%
%TO.N,col_5*%
X173990000Y-71120000D03*
%TD*%
%TO.P,SW31,1,1*%
%TO.N,Net-(D35-Pad2)*%
X310515000Y-92710000D03*
%TO.P,SW31,2,2*%
%TO.N,col_13*%
X316865000Y-90170000D03*
%TD*%
%TO.P,SW26,1,1*%
%TO.N,Net-(D30-Pad2)*%
X177165000Y-92710000D03*
%TO.P,SW26,2,2*%
%TO.N,col_6*%
X183515000Y-90170000D03*
%TD*%
D13*
%TO.P,U5,*%
%TO.N,*%
X40095250Y-98041500D03*
X55335250Y-111381500D03*
X40095250Y-111381500D03*
X55335250Y-98041500D03*
D14*
%TO.P,U5,B1A,SEL*%
%TO.N,SEL*%
X44540250Y-92011500D03*
%TO.P,U5,B1B*%
%TO.N,N/C*%
X50890250Y-92011500D03*
%TO.P,U5,B2A,GND*%
%TO.N,GND*%
X44540250Y-97091500D03*
%TO.P,U5,B2B*%
%TO.N,N/C*%
X50880852Y-97065247D03*
%TO.P,U5,H1,VCC*%
%TO.N,+3V3*%
X45175250Y-114871500D03*
%TO.P,U5,H2,HORZ*%
%TO.N,39*%
X47715250Y-114871500D03*
%TO.P,U5,H3,GND*%
%TO.N,GND*%
X50255250Y-114871500D03*
%TO.P,U5,V1,VCC*%
%TO.N,+3V3*%
X37555250Y-102071500D03*
%TO.P,U5,V2,VERT*%
%TO.N,38*%
X37555250Y-104711500D03*
%TO.P,U5,V3,GND*%
%TO.N,GND*%
X37555250Y-107351500D03*
%TD*%
D10*
%TO.P,SW14,1,1*%
%TO.N,Net-(D18-Pad2)*%
X186690000Y-73660000D03*
%TO.P,SW14,2,2*%
%TO.N,col_6*%
X193040000Y-71120000D03*
%TD*%
%TO.P,SW15,1,1*%
%TO.N,Net-(D19-Pad2)*%
X205740000Y-73660000D03*
%TO.P,SW15,2,2*%
%TO.N,col_7*%
X212090000Y-71120000D03*
%TD*%
%TO.P,SW40,1,1*%
%TO.N,Net-(D45-Pad2)*%
X224790000Y-111760000D03*
%TO.P,SW40,2,2*%
%TO.N,col_8*%
X231140000Y-109220000D03*
%TD*%
%TO.P,SW20,1,1*%
%TO.N,Net-(D24-Pad2)*%
X300990000Y-73660000D03*
%TO.P,SW20,2,2*%
%TO.N,col_12*%
X307340000Y-71120000D03*
%TD*%
%TO.P,SW39,1,1*%
%TO.N,Net-(D44-Pad2)*%
X205740000Y-111760000D03*
%TO.P,SW39,2,2*%
%TO.N,col_7*%
X212090000Y-109220000D03*
%TD*%
%TO.P,SW30,1,1*%
%TO.N,Net-(D34-Pad2)*%
X291465000Y-92710000D03*
%TO.P,SW30,2,2*%
%TO.N,col_12*%
X297815000Y-90170000D03*
%TD*%
%TO.P,SW28,1,1*%
%TO.N,Net-(D32-Pad2)*%
X234315000Y-92710000D03*
%TO.P,SW28,2,2*%
%TO.N,col_9*%
X240665000Y-90170000D03*
%TD*%
%TO.P,SW34,1,1*%
%TO.N,Net-(D39-Pad2)*%
X110490000Y-111760000D03*
%TO.P,SW34,2,2*%
%TO.N,col_2*%
X116840000Y-109220000D03*
%TD*%
%TO.P,SW42,1,1*%
%TO.N,Net-(D47-Pad2)*%
X262890000Y-111760000D03*
%TO.P,SW42,2,2*%
%TO.N,col_10*%
X269240000Y-109220000D03*
%TD*%
%TO.P,SW7,1,1*%
%TO.N,Net-(D11-Pad2)*%
X148590000Y-54610000D03*
%TO.P,SW7,2,2*%
%TO.N,col_4*%
X154940000Y-52070000D03*
%TD*%
%TO.P,SW29,1,1*%
%TO.N,Net-(D33-Pad2)*%
X253365000Y-92710000D03*
%TO.P,SW29,2,2*%
%TO.N,col_10*%
X259715000Y-90170000D03*
%TD*%
%TO.P,SW32,1,1*%
%TO.N,Net-(D37-Pad2)*%
X72390000Y-111760000D03*
%TO.P,SW32,2,2*%
%TO.N,col_0*%
X78740000Y-109220000D03*
%TD*%
%TO.P,SW4,1,1*%
%TO.N,Net-(D4-Pad2)*%
X186690000Y-35560000D03*
%TO.P,SW4,2,2*%
%TO.N,col_6*%
X193040000Y-33020000D03*
%TD*%
%TO.P,SW12,1,1*%
%TO.N,Net-(D16-Pad2)*%
X148590000Y-73660000D03*
%TO.P,SW12,2,2*%
%TO.N,col_4*%
X154940000Y-71120000D03*
%TD*%
%TO.P,SW18,1,1*%
%TO.N,Net-(D22-Pad2)*%
X262890000Y-73660000D03*
%TO.P,SW18,2,2*%
%TO.N,col_10*%
X269240000Y-71120000D03*
%TD*%
%TO.P,SW21,1,1*%
%TO.N,Net-(D25-Pad2)*%
X320040000Y-73660000D03*
%TO.P,SW21,2,2*%
%TO.N,col_13*%
X326390000Y-71120000D03*
%TD*%
%TO.P,SW27,1,1*%
%TO.N,Net-(D31-Pad2)*%
X215265000Y-92710000D03*
%TO.P,SW27,2,2*%
%TO.N,col_8*%
X221615000Y-90170000D03*
%TD*%
D11*
%TO.P,U4,A,A*%
%TO.N,31*%
X321350000Y-45600000D03*
%TO.P,U4,B,B*%
%TO.N,32*%
X326350000Y-45600000D03*
%TO.P,U4,C,C*%
%TO.N,GND*%
X323850000Y-45600000D03*
%TO.P,U4,D,D*%
%TO.N,col_13*%
X321350000Y-31100000D03*
%TO.P,U4,E,E*%
%TO.N,Net-(D9-Pad2)*%
X326350000Y-31100000D03*
D12*
%TO.P,U4,Shield*%
%TO.N,N/C*%
X318350000Y-38100000D03*
X329350000Y-38100000D03*
%TD*%
D10*
%TO.P,SW24,1,1*%
%TO.N,Net-(D28-Pad2)*%
X120015000Y-92710000D03*
%TO.P,SW24,2,2*%
%TO.N,col_3*%
X126365000Y-90170000D03*
%TD*%
%TO.P,SW10,1,1*%
%TO.N,Net-(D14-Pad2)*%
X205740000Y-54610000D03*
%TO.P,SW10,2,2*%
%TO.N,col_7*%
X212090000Y-52070000D03*
%TD*%
%TO.P,SW45,1,1*%
%TO.N,Net-(D50-Pad2)*%
X320040000Y-111760000D03*
%TO.P,SW45,2,2*%
%TO.N,col_13*%
X326390000Y-109220000D03*
%TD*%
D15*
%TO.P,D48,1,K*%
%TO.N,row_4*%
X276225000Y-110490000D03*
D16*
%TO.P,D48,2,A*%
%TO.N,Net-(D48-Pad2)*%
X276225000Y-118110000D03*
%TD*%
D15*
%TO.P,D47,1,K*%
%TO.N,row_4*%
X257175000Y-110490000D03*
D16*
%TO.P,D47,2,A*%
%TO.N,Net-(D47-Pad2)*%
X257175000Y-118110000D03*
%TD*%
D15*
%TO.P,D41,1,K*%
%TO.N,row_4*%
X142875000Y-110490000D03*
D16*
%TO.P,D41,2,A*%
%TO.N,Net-(D41-Pad2)*%
X142875000Y-118110000D03*
%TD*%
D15*
%TO.P,D21,1,K*%
%TO.N,row_2*%
X251460000Y-85725000D03*
D16*
%TO.P,D21,2,A*%
%TO.N,Net-(D21-Pad2)*%
X243840000Y-85725000D03*
%TD*%
D15*
%TO.P,D50,1,K*%
%TO.N,row_4*%
X314325000Y-110490000D03*
D16*
%TO.P,D50,2,A*%
%TO.N,Net-(D50-Pad2)*%
X314325000Y-118110000D03*
%TD*%
D15*
%TO.P,D30,1,K*%
%TO.N,row_3*%
X184785000Y-104775000D03*
D16*
%TO.P,D30,2,A*%
%TO.N,Net-(D30-Pad2)*%
X177165000Y-104775000D03*
%TD*%
D15*
%TO.P,D6,1,K*%
%TO.N,row_0*%
X228600000Y-41910000D03*
D16*
%TO.P,D6,2,A*%
%TO.N,Net-(D6-Pad2)*%
X228600000Y-34290000D03*
%TD*%
D15*
%TO.P,D34,1,K*%
%TO.N,row_3*%
X299085000Y-104775000D03*
D16*
%TO.P,D34,2,A*%
%TO.N,Net-(D34-Pad2)*%
X291465000Y-104775000D03*
%TD*%
D15*
%TO.P,D25,1,K*%
%TO.N,row_2*%
X327660000Y-85725000D03*
D16*
%TO.P,D25,2,A*%
%TO.N,Net-(D25-Pad2)*%
X320040000Y-85725000D03*
%TD*%
D11*
%TO.P,U6,0,0*%
%TO.N,col_7*%
X225171000Y-48958500D03*
%TO.P,U6,1,1*%
%TO.N,col_6*%
X227711000Y-48958500D03*
%TO.P,U6,2,2*%
%TO.N,col_5*%
X230251000Y-48958500D03*
%TO.P,U6,3,3*%
%TO.N,col_4*%
X232791000Y-48958500D03*
%TO.P,U6,3.3V,3.3V*%
%TO.N,+3V3*%
X258191000Y-48958500D03*
X268351000Y-54038500D03*
X227711000Y-64198500D03*
%TO.P,U6,4,4*%
%TO.N,col_3*%
X235331000Y-48958500D03*
%TO.P,U6,5,5*%
%TO.N,5*%
X237871000Y-48958500D03*
%TO.P,U6,5V,5V*%
%TO.N,unconnected-(U6-Pad5V)*%
X222631000Y-64198500D03*
X228981000Y-52008500D03*
%TO.P,U6,6,6*%
%TO.N,6*%
X240411000Y-48958500D03*
%TO.P,U6,7,7*%
%TO.N,col_2*%
X242951000Y-48958500D03*
%TO.P,U6,8,8*%
%TO.N,col_1*%
X245491000Y-48958500D03*
%TO.P,U6,9,9*%
%TO.N,col_0*%
X248031000Y-48958500D03*
%TO.P,U6,10,10*%
%TO.N,unconnected-(U6-Pad10)*%
X250571000Y-48958500D03*
%TO.P,U6,11,11*%
%TO.N,unconnected-(U6-Pad11)*%
X253111000Y-48958500D03*
%TO.P,U6,12,12*%
%TO.N,unconnected-(U6-Pad12)*%
X255651000Y-48958500D03*
%TO.P,U6,13,13*%
%TO.N,col_10*%
X255651000Y-64198500D03*
%TO.P,U6,14,14*%
%TO.N,col_9*%
X253111000Y-64198500D03*
%TO.P,U6,15,15*%
%TO.N,unconnected-(U6-Pad15)*%
X250571000Y-64198500D03*
%TO.P,U6,16,16*%
%TO.N,unconnected-(U6-Pad16)*%
X248031000Y-64198500D03*
%TO.P,U6,17,17*%
%TO.N,unconnected-(U6-Pad17)*%
X245491000Y-64198500D03*
%TO.P,U6,18,18*%
%TO.N,unconnected-(U6-Pad18)*%
X242951000Y-64198500D03*
%TO.P,U6,19,19*%
%TO.N,unconnected-(U6-Pad19)*%
X240411000Y-64198500D03*
%TO.P,U6,20,20*%
%TO.N,unconnected-(U6-Pad20)*%
X237871000Y-64198500D03*
%TO.P,U6,21,21*%
%TO.N,unconnected-(U6-Pad21)*%
X235331000Y-64198500D03*
%TO.P,U6,22,22*%
%TO.N,unconnected-(U6-Pad22)*%
X232791000Y-64198500D03*
%TO.P,U6,23,23*%
%TO.N,row_1*%
X230251000Y-64198500D03*
%TO.P,U6,24,24*%
%TO.N,row_0*%
X260731000Y-48958500D03*
%TO.P,U6,25,25*%
%TO.N,col_8*%
X263271000Y-48958500D03*
%TO.P,U6,26,26*%
%TO.N,26*%
X265811000Y-48958500D03*
%TO.P,U6,27,27*%
%TO.N,27*%
X268351000Y-48958500D03*
%TO.P,U6,28,28*%
%TO.N,row_4*%
X270891000Y-48958500D03*
%TO.P,U6,29,29*%
%TO.N,29*%
X273431000Y-48958500D03*
%TO.P,U6,30,30*%
%TO.N,30*%
X275971000Y-48958500D03*
%TO.P,U6,31,31*%
%TO.N,31*%
X278511000Y-48958500D03*
%TO.P,U6,32,32*%
%TO.N,32*%
X281051000Y-48958500D03*
%TO.P,U6,33,33*%
%TO.N,unconnected-(U6-Pad33)*%
X281051000Y-64198500D03*
%TO.P,U6,34,34*%
%TO.N,row_2*%
X278511000Y-64198500D03*
%TO.P,U6,35,35*%
%TO.N,row_3*%
X275971000Y-64198500D03*
%TO.P,U6,36,36*%
%TO.N,col_13*%
X273431000Y-64198500D03*
%TO.P,U6,37,37*%
%TO.N,SEL*%
X270891000Y-64198500D03*
%TO.P,U6,38,38*%
%TO.N,38*%
X268351000Y-64198500D03*
%TO.P,U6,39,39*%
%TO.N,39*%
X265811000Y-64198500D03*
%TO.P,U6,40,40*%
%TO.N,col_12*%
X263271000Y-64198500D03*
%TO.P,U6,41,41*%
%TO.N,col_11*%
X260731000Y-64198500D03*
%TO.P,U6,DM,DM*%
%TO.N,unconnected-(U6-PadDM)*%
X231521000Y-52008500D03*
%TO.P,U6,DP,DP*%
%TO.N,unconnected-(U6-PadDP)*%
X234061000Y-52008500D03*
%TO.P,U6,GND,GND*%
%TO.N,GND*%
X236601000Y-52008500D03*
X258191000Y-64198500D03*
X239141000Y-52008500D03*
X225171000Y-61658500D03*
X237601000Y-59748500D03*
X222631000Y-48958500D03*
X225171000Y-64198500D03*
X268351000Y-56578500D03*
%TO.P,U6,LED,LED*%
%TO.N,unconnected-(U6-PadLED)*%
X235601000Y-59748500D03*
%TO.P,U6,ON/OFF,ON/OFF*%
%TO.N,unconnected-(U6-PadON/OFF)*%
X268351000Y-61658500D03*
%TO.P,U6,PROG,PROG*%
%TO.N,unconnected-(U6-PadPROG)*%
X268351000Y-59118500D03*
%TO.P,U6,RX+,RX+*%
%TO.N,unconnected-(U6-PadRX+)*%
X235601000Y-61748500D03*
%TO.P,U6,RX-,RX-*%
%TO.N,unconnected-(U6-PadRX-)*%
X237601000Y-61748500D03*
%TO.P,U6,TX+,TX+*%
%TO.N,unconnected-(U6-PadTX+)*%
X237601000Y-57748500D03*
%TO.P,U6,TX-,TX-*%
%TO.N,unconnected-(U6-PadTX-)*%
X235601000Y-57748500D03*
%TO.P,U6,VBAT,VBAT*%
%TO.N,unconnected-(U6-PadVBAT)*%
X268351000Y-51498500D03*
%TD*%
D15*
%TO.P,D29,1,K*%
%TO.N,row_3*%
X165735000Y-104775000D03*
D16*
%TO.P,D29,2,A*%
%TO.N,Net-(D29-Pad2)*%
X158115000Y-104775000D03*
%TD*%
D15*
%TO.P,D9,1,K*%
%TO.N,row_0*%
X314325000Y-41910000D03*
D16*
%TO.P,D9,2,A*%
%TO.N,Net-(D9-Pad2)*%
X314325000Y-34290000D03*
%TD*%
D15*
%TO.P,D39,1,K*%
%TO.N,row_4*%
X104775000Y-110490000D03*
D16*
%TO.P,D39,2,A*%
%TO.N,Net-(D39-Pad2)*%
X104775000Y-118110000D03*
%TD*%
D15*
%TO.P,D18,1,K*%
%TO.N,row_2*%
X194310000Y-85725000D03*
D16*
%TO.P,D18,2,A*%
%TO.N,Net-(D18-Pad2)*%
X186690000Y-85725000D03*
%TD*%
D15*
%TO.P,D28,1,K*%
%TO.N,row_3*%
X127635000Y-104775000D03*
D16*
%TO.P,D28,2,A*%
%TO.N,Net-(D28-Pad2)*%
X120015000Y-104775000D03*
%TD*%
D15*
%TO.P,D33,1,K*%
%TO.N,row_3*%
X260985000Y-104775000D03*
D16*
%TO.P,D33,2,A*%
%TO.N,Net-(D33-Pad2)*%
X253365000Y-104775000D03*
%TD*%
D15*
%TO.P,D7,1,K*%
%TO.N,row_0*%
X257175000Y-41910000D03*
D16*
%TO.P,D7,2,A*%
%TO.N,Net-(D7-Pad2)*%
X257175000Y-34290000D03*
%TD*%
D15*
%TO.P,D12,1,K*%
%TO.N,row_1*%
X175260000Y-66675000D03*
D16*
%TO.P,D12,2,A*%
%TO.N,Net-(D12-Pad2)*%
X167640000Y-66675000D03*
%TD*%
D15*
%TO.P,D2,1,K*%
%TO.N,row_0*%
X156210000Y-47625000D03*
D16*
%TO.P,D2,2,A*%
%TO.N,Net-(D2-Pad2)*%
X148590000Y-47625000D03*
%TD*%
D15*
%TO.P,D46,1,K*%
%TO.N,row_4*%
X238125000Y-110490000D03*
D16*
%TO.P,D46,2,A*%
%TO.N,Net-(D46-Pad2)*%
X238125000Y-118110000D03*
%TD*%
D15*
%TO.P,D37,1,K*%
%TO.N,row_4*%
X66675000Y-110490000D03*
D16*
%TO.P,D37,2,A*%
%TO.N,Net-(D37-Pad2)*%
X66675000Y-118110000D03*
%TD*%
D15*
%TO.P,D23,1,K*%
%TO.N,row_2*%
X289560000Y-85725000D03*
D16*
%TO.P,D23,2,A*%
%TO.N,Net-(D23-Pad2)*%
X281940000Y-85725000D03*
%TD*%
D15*
%TO.P,D4,1,K*%
%TO.N,row_0*%
X194310000Y-47625000D03*
D16*
%TO.P,D4,2,A*%
%TO.N,Net-(D4-Pad2)*%
X186690000Y-47625000D03*
%TD*%
D15*
%TO.P,D16,1,K*%
%TO.N,row_2*%
X156210000Y-85725000D03*
D16*
%TO.P,D16,2,A*%
%TO.N,Net-(D16-Pad2)*%
X148590000Y-85725000D03*
%TD*%
D15*
%TO.P,D20,1,K*%
%TO.N,row_2*%
X232410000Y-85725000D03*
D16*
%TO.P,D20,2,A*%
%TO.N,Net-(D20-Pad2)*%
X224790000Y-85725000D03*
%TD*%
D15*
%TO.P,D24,1,K*%
%TO.N,row_2*%
X308610000Y-85725000D03*
D16*
%TO.P,D24,2,A*%
%TO.N,Net-(D24-Pad2)*%
X300990000Y-85725000D03*
%TD*%
D15*
%TO.P,D13,1,K*%
%TO.N,row_1*%
X194310000Y-66675000D03*
D16*
%TO.P,D13,2,A*%
%TO.N,Net-(D13-Pad2)*%
X186690000Y-66675000D03*
%TD*%
D15*
%TO.P,D5,1,K*%
%TO.N,row_0*%
X213360000Y-47625000D03*
D16*
%TO.P,D5,2,A*%
%TO.N,Net-(D5-Pad2)*%
X205740000Y-47625000D03*
%TD*%
D15*
%TO.P,D8,1,K*%
%TO.N,row_0*%
X285750000Y-41910000D03*
D16*
%TO.P,D8,2,A*%
%TO.N,Net-(D8-Pad2)*%
X285750000Y-34290000D03*
%TD*%
D15*
%TO.P,D10,1,K*%
%TO.N,row_1*%
X137160000Y-66675000D03*
D16*
%TO.P,D10,2,A*%
%TO.N,Net-(D10-Pad2)*%
X129540000Y-66675000D03*
%TD*%
D15*
%TO.P,D19,1,K*%
%TO.N,row_2*%
X213360000Y-85725000D03*
D16*
%TO.P,D19,2,A*%
%TO.N,Net-(D19-Pad2)*%
X205740000Y-85725000D03*
%TD*%
D15*
%TO.P,D44,1,K*%
%TO.N,row_4*%
X200025000Y-110490000D03*
D16*
%TO.P,D44,2,A*%
%TO.N,Net-(D44-Pad2)*%
X200025000Y-118110000D03*
%TD*%
D15*
%TO.P,D49,1,K*%
%TO.N,row_4*%
X295275000Y-110490000D03*
D16*
%TO.P,D49,2,A*%
%TO.N,Net-(D49-Pad2)*%
X295275000Y-118110000D03*
%TD*%
D15*
%TO.P,D31,1,K*%
%TO.N,row_3*%
X222885000Y-104775000D03*
D16*
%TO.P,D31,2,A*%
%TO.N,Net-(D31-Pad2)*%
X215265000Y-104775000D03*
%TD*%
D15*
%TO.P,D45,1,K*%
%TO.N,row_4*%
X219075000Y-110490000D03*
D16*
%TO.P,D45,2,A*%
%TO.N,Net-(D45-Pad2)*%
X219075000Y-118110000D03*
%TD*%
D15*
%TO.P,D42,1,K*%
%TO.N,row_4*%
X161925000Y-110490000D03*
D16*
%TO.P,D42,2,A*%
%TO.N,Net-(D42-Pad2)*%
X161925000Y-118110000D03*
%TD*%
D15*
%TO.P,D15,1,K*%
%TO.N,row_2*%
X137160000Y-85725000D03*
D16*
%TO.P,D15,2,A*%
%TO.N,Net-(D15-Pad2)*%
X129540000Y-85725000D03*
%TD*%
D15*
%TO.P,D17,1,K*%
%TO.N,row_2*%
X175260000Y-85725000D03*
D16*
%TO.P,D17,2,A*%
%TO.N,Net-(D17-Pad2)*%
X167640000Y-85725000D03*
%TD*%
D15*
%TO.P,D1,1,K*%
%TO.N,row_0*%
X137160000Y-47625000D03*
D16*
%TO.P,D1,2,A*%
%TO.N,Net-(D1-Pad2)*%
X129540000Y-47625000D03*
%TD*%
D15*
%TO.P,D40,1,K*%
%TO.N,row_4*%
X123825000Y-110490000D03*
D16*
%TO.P,D40,2,A*%
%TO.N,Net-(D40-Pad2)*%
X123825000Y-118110000D03*
%TD*%
D15*
%TO.P,D32,1,K*%
%TO.N,row_3*%
X241935000Y-104775000D03*
D16*
%TO.P,D32,2,A*%
%TO.N,Net-(D32-Pad2)*%
X234315000Y-104775000D03*
%TD*%
D15*
%TO.P,D14,1,K*%
%TO.N,row_1*%
X213360000Y-66675000D03*
D16*
%TO.P,D14,2,A*%
%TO.N,Net-(D14-Pad2)*%
X205740000Y-66675000D03*
%TD*%
D15*
%TO.P,D38,1,K*%
%TO.N,row_4*%
X85725000Y-110490000D03*
D16*
%TO.P,D38,2,A*%
%TO.N,Net-(D38-Pad2)*%
X85725000Y-118110000D03*
%TD*%
D15*
%TO.P,D27,1,K*%
%TO.N,row_3*%
X108585000Y-104775000D03*
D16*
%TO.P,D27,2,A*%
%TO.N,Net-(D27-Pad2)*%
X100965000Y-104775000D03*
%TD*%
D15*
%TO.P,D22,1,K*%
%TO.N,row_2*%
X270510000Y-85725000D03*
D16*
%TO.P,D22,2,A*%
%TO.N,Net-(D22-Pad2)*%
X262890000Y-85725000D03*
%TD*%
D15*
%TO.P,D3,1,K*%
%TO.N,row_0*%
X175260000Y-47625000D03*
D16*
%TO.P,D3,2,A*%
%TO.N,Net-(D3-Pad2)*%
X167640000Y-47625000D03*
%TD*%
D15*
%TO.P,D26,1,K*%
%TO.N,row_3*%
X89535000Y-104775000D03*
D16*
%TO.P,D26,2,A*%
%TO.N,Net-(D26-Pad2)*%
X81915000Y-104775000D03*
%TD*%
D15*
%TO.P,D43,1,K*%
%TO.N,row_4*%
X180975000Y-110490000D03*
D16*
%TO.P,D43,2,A*%
%TO.N,Net-(D43-Pad2)*%
X180975000Y-118110000D03*
%TD*%
D15*
%TO.P,D11,1,K*%
%TO.N,row_1*%
X156210000Y-66675000D03*
D16*
%TO.P,D11,2,A*%
%TO.N,Net-(D11-Pad2)*%
X148590000Y-66675000D03*
%TD*%
D15*
%TO.P,D35,1,K*%
%TO.N,row_3*%
X318135000Y-104775000D03*
D16*
%TO.P,D35,2,A*%
%TO.N,Net-(D35-Pad2)*%
X310515000Y-104775000D03*
%TD*%
D17*
%TO.N,col_2*%
X246800000Y-40200000D03*
%TO.N,col_1*%
X247900000Y-40200000D03*
%TO.N,col_0*%
X249100000Y-40200000D03*
%TD*%
D18*
%TO.N,row_0*%
X156210000Y-47625000D02*
X158585000Y-50000000D01*
X172885000Y-50000000D02*
X175260000Y-47625000D01*
X153835000Y-50000000D02*
X156210000Y-47625000D01*
X213360000Y-47625000D02*
X219375000Y-47625000D01*
X196685000Y-50000000D02*
X210985000Y-50000000D01*
X137160000Y-47625000D02*
X139535000Y-50000000D01*
X139535000Y-50000000D02*
X153835000Y-50000000D01*
X225090000Y-41910000D02*
X228600000Y-41910000D01*
X219375000Y-47625000D02*
X225090000Y-41910000D01*
X175260000Y-47625000D02*
X177635000Y-50000000D01*
X191935000Y-50000000D02*
X194310000Y-47625000D01*
X285750000Y-41910000D02*
X314325000Y-41910000D01*
X257175000Y-41910000D02*
X285750000Y-41910000D01*
X158585000Y-50000000D02*
X172885000Y-50000000D01*
X228600000Y-41910000D02*
X257175000Y-41910000D01*
X177635000Y-50000000D02*
X191935000Y-50000000D01*
X194310000Y-47625000D02*
X196685000Y-50000000D01*
X210985000Y-50000000D02*
X213360000Y-47625000D01*
%TO.N,Net-(D1-Pad2)*%
X129540000Y-35560000D02*
X129540000Y-47625000D01*
%TO.N,Net-(D2-Pad2)*%
X148590000Y-35560000D02*
X148590000Y-47625000D01*
%TO.N,Net-(D3-Pad2)*%
X167640000Y-35560000D02*
X167640000Y-47625000D01*
%TO.N,Net-(D4-Pad2)*%
X186690000Y-35560000D02*
X186690000Y-47625000D01*
%TO.N,Net-(D5-Pad2)*%
X205740000Y-35560000D02*
X205740000Y-47625000D01*
%TO.N,Net-(D6-Pad2)*%
X232790000Y-30100000D02*
X239434500Y-30100000D01*
X228600000Y-34290000D02*
X232790000Y-30100000D01*
X239434500Y-30100000D02*
X240625000Y-31290500D01*
%TO.N,Net-(D7-Pad2)*%
X268125489Y-30025489D02*
X269200000Y-31100000D01*
X261439511Y-30025489D02*
X268125489Y-30025489D01*
X257175000Y-34290000D02*
X261439511Y-30025489D01*
%TO.N,Net-(D8-Pad2)*%
X285750000Y-34290000D02*
X290040000Y-30000000D01*
X290040000Y-30000000D02*
X296675000Y-30000000D01*
X296675000Y-30000000D02*
X297775000Y-31100000D01*
%TO.N,Net-(D9-Pad2)*%
X325250000Y-30000000D02*
X326350000Y-31100000D01*
X318615000Y-30000000D02*
X325250000Y-30000000D01*
X314325000Y-34290000D02*
X318615000Y-30000000D01*
%TO.N,row_1*%
X177585000Y-69000000D02*
X191985000Y-69000000D01*
X211035000Y-69000000D02*
X213360000Y-66675000D01*
X194310000Y-66675000D02*
X196635000Y-69000000D01*
X196635000Y-69000000D02*
X211035000Y-69000000D01*
X175260000Y-66675000D02*
X177585000Y-69000000D01*
X158535000Y-69000000D02*
X172935000Y-69000000D01*
X213360000Y-66675000D02*
X227774500Y-66675000D01*
X191985000Y-69000000D02*
X194310000Y-66675000D01*
X153885000Y-69000000D02*
X156210000Y-66675000D01*
X156210000Y-66675000D02*
X158535000Y-69000000D01*
X137160000Y-66675000D02*
X139485000Y-69000000D01*
X227774500Y-66675000D02*
X230251000Y-64198500D01*
X172935000Y-69000000D02*
X175260000Y-66675000D01*
X139485000Y-69000000D02*
X153885000Y-69000000D01*
%TO.N,Net-(D10-Pad2)*%
X129540000Y-54610000D02*
X129540000Y-66675000D01*
%TO.N,Net-(D11-Pad2)*%
X148590000Y-54610000D02*
X148590000Y-66675000D01*
%TO.N,Net-(D12-Pad2)*%
X167640000Y-54610000D02*
X167640000Y-66675000D01*
%TO.N,Net-(D13-Pad2)*%
X186690000Y-54610000D02*
X186690000Y-66675000D01*
%TO.N,Net-(D14-Pad2)*%
X205740000Y-54610000D02*
X205740000Y-66675000D01*
%TO.N,row_2*%
X289560000Y-85725000D02*
X291835000Y-88000000D01*
X306335000Y-88000000D02*
X308610000Y-85725000D01*
X192035000Y-88000000D02*
X194310000Y-85725000D01*
X249185000Y-88000000D02*
X251460000Y-85725000D01*
X175260000Y-85725000D02*
X177535000Y-88000000D01*
X330450480Y-68950480D02*
X326750480Y-65250480D01*
X215635000Y-88000000D02*
X230135000Y-88000000D01*
X194310000Y-85725000D02*
X196585000Y-88000000D01*
X234685000Y-88000000D02*
X249185000Y-88000000D01*
X172985000Y-88000000D02*
X175260000Y-85725000D01*
X287285000Y-88000000D02*
X289560000Y-85725000D01*
X230135000Y-88000000D02*
X232410000Y-85725000D01*
X308725000Y-85725000D02*
X311000000Y-88000000D01*
X327660000Y-85725000D02*
X330450480Y-82934520D01*
X311000000Y-88000000D02*
X325385000Y-88000000D01*
X153935000Y-88000000D02*
X156210000Y-85725000D01*
X139435000Y-88000000D02*
X153935000Y-88000000D01*
X253735000Y-88000000D02*
X268235000Y-88000000D01*
X330450480Y-82934520D02*
X330450480Y-68950480D01*
X326750480Y-65250480D02*
X284950480Y-65250480D01*
X282400000Y-62700000D02*
X280009500Y-62700000D01*
X268235000Y-88000000D02*
X270510000Y-85725000D01*
X177535000Y-88000000D02*
X192035000Y-88000000D01*
X270725000Y-85725000D02*
X273000000Y-88000000D01*
X213360000Y-85725000D02*
X215635000Y-88000000D01*
X158485000Y-88000000D02*
X172985000Y-88000000D01*
X156210000Y-85725000D02*
X158485000Y-88000000D01*
X196585000Y-88000000D02*
X211085000Y-88000000D01*
X308610000Y-85725000D02*
X308725000Y-85725000D01*
X270510000Y-85725000D02*
X270725000Y-85725000D01*
X280009500Y-62700000D02*
X278511000Y-64198500D01*
X325385000Y-88000000D02*
X327660000Y-85725000D01*
X291835000Y-88000000D02*
X306335000Y-88000000D01*
X211085000Y-88000000D02*
X213360000Y-85725000D01*
X251460000Y-85725000D02*
X253735000Y-88000000D01*
X137160000Y-85725000D02*
X139435000Y-88000000D01*
X273000000Y-88000000D02*
X287285000Y-88000000D01*
X284950480Y-65250480D02*
X282400000Y-62700000D01*
X232410000Y-85725000D02*
X234685000Y-88000000D01*
%TO.N,Net-(D15-Pad2)*%
X129540000Y-73660000D02*
X129540000Y-85725000D01*
%TO.N,Net-(D16-Pad2)*%
X148590000Y-73660000D02*
X148590000Y-85725000D01*
%TO.N,Net-(D17-Pad2)*%
X167640000Y-73660000D02*
X167640000Y-85725000D01*
%TO.N,Net-(D18-Pad2)*%
X186690000Y-73660000D02*
X186690000Y-85725000D01*
%TO.N,Net-(D19-Pad2)*%
X205740000Y-73660000D02*
X205740000Y-85725000D01*
%TO.N,Net-(D20-Pad2)*%
X224790000Y-73660000D02*
X224790000Y-85725000D01*
%TO.N,Net-(D21-Pad2)*%
X243840000Y-73660000D02*
X243840000Y-85725000D01*
%TO.N,Net-(D22-Pad2)*%
X262890000Y-73660000D02*
X262890000Y-85725000D01*
%TO.N,Net-(D23-Pad2)*%
X281940000Y-73660000D02*
X281940000Y-85725000D01*
%TO.N,Net-(D24-Pad2)*%
X300990000Y-73660000D02*
X300990000Y-85725000D01*
%TO.N,Net-(D25-Pad2)*%
X320040000Y-73660000D02*
X320040000Y-85725000D01*
%TO.N,row_3*%
X330900000Y-68764283D02*
X326936677Y-64800960D01*
X125859520Y-106550480D02*
X127635000Y-104775000D01*
X108585000Y-104775000D02*
X110360480Y-106550480D01*
X299085000Y-104775000D02*
X300860480Y-106550480D01*
X262760480Y-106550480D02*
X297309520Y-106550480D01*
X260985000Y-104775000D02*
X262760480Y-106550480D01*
X127635000Y-104775000D02*
X129410480Y-106550480D01*
X184785000Y-105215000D02*
X184785000Y-104775000D01*
X243710480Y-106550480D02*
X259209520Y-106550480D01*
X285136678Y-64800960D02*
X282586197Y-62250480D01*
X108585000Y-105415000D02*
X108585000Y-104775000D01*
X110360480Y-106550480D02*
X125859520Y-106550480D01*
X183449520Y-106550480D02*
X184785000Y-105215000D01*
X184785000Y-104785000D02*
X186550480Y-106550480D01*
X240159520Y-106550480D02*
X241935000Y-104775000D01*
X222885000Y-104885000D02*
X224550480Y-106550480D01*
X323625000Y-104775000D02*
X330900000Y-97500000D01*
X330900000Y-97500000D02*
X330900000Y-68764283D01*
X259209520Y-106550480D02*
X260985000Y-104775000D01*
X163959520Y-106550480D02*
X165735000Y-104775000D01*
X282586197Y-62250480D02*
X277919020Y-62250480D01*
X167510480Y-106550480D02*
X183449520Y-106550480D01*
X184785000Y-104775000D02*
X184785000Y-104785000D01*
X326936677Y-64800960D02*
X285136678Y-64800960D01*
X222885000Y-104775000D02*
X222885000Y-104885000D01*
X221109520Y-106550480D02*
X222885000Y-104775000D01*
X89535000Y-104775000D02*
X91310480Y-106550480D01*
X107449520Y-106550480D02*
X108585000Y-105415000D01*
X241935000Y-104775000D02*
X243710480Y-106550480D01*
X186550480Y-106550480D02*
X221109520Y-106550480D01*
X224550480Y-106550480D02*
X240159520Y-106550480D01*
X91310480Y-106550480D02*
X107449520Y-106550480D01*
X277919020Y-62250480D02*
X275971000Y-64198500D01*
X316359520Y-106550480D02*
X318135000Y-104775000D01*
X165735000Y-104775000D02*
X167510480Y-106550480D01*
X300860480Y-106550480D02*
X316359520Y-106550480D01*
X129410480Y-106550480D02*
X163959520Y-106550480D01*
X318135000Y-104775000D02*
X323625000Y-104775000D01*
X297309520Y-106550480D02*
X299085000Y-104775000D01*
%TO.N,Net-(D26-Pad2)*%
X81915000Y-92710000D02*
X81915000Y-104775000D01*
%TO.N,Net-(D27-Pad2)*%
X100965000Y-92710000D02*
X100965000Y-104775000D01*
%TO.N,Net-(D28-Pad2)*%
X120015000Y-92710000D02*
X120015000Y-104775000D01*
%TO.N,Net-(D29-Pad2)*%
X158115000Y-92710000D02*
X158115000Y-104775000D01*
%TO.N,Net-(D30-Pad2)*%
X177165000Y-92710000D02*
X177165000Y-104775000D01*
%TO.N,Net-(D31-Pad2)*%
X215265000Y-92710000D02*
X215265000Y-104775000D01*
%TO.N,Net-(D32-Pad2)*%
X234315000Y-92710000D02*
X234315000Y-104775000D01*
%TO.N,Net-(D33-Pad2)*%
X253365000Y-92710000D02*
X253365000Y-104775000D01*
%TO.N,Net-(D34-Pad2)*%
X291465000Y-92710000D02*
X291465000Y-104775000D01*
%TO.N,Net-(D35-Pad2)*%
X310515000Y-92710000D02*
X310515000Y-104775000D01*
%TO.N,row_4*%
X291785000Y-107000000D02*
X295275000Y-110490000D01*
X139385000Y-107000000D02*
X142875000Y-110490000D01*
X177485000Y-107000000D02*
X180975000Y-110490000D01*
X282200000Y-50500000D02*
X272432500Y-50500000D01*
X318865000Y-107000000D02*
X330400000Y-107000000D01*
X253685000Y-107000000D02*
X257175000Y-110490000D01*
X70165000Y-107000000D02*
X83000000Y-107000000D01*
X279715000Y-107000000D02*
X291785000Y-107000000D01*
X196535000Y-107000000D02*
X200025000Y-110490000D01*
X219075000Y-110490000D02*
X222565000Y-107000000D01*
X184465000Y-107000000D02*
X196535000Y-107000000D01*
X260665000Y-107000000D02*
X272735000Y-107000000D01*
X310835000Y-107000000D02*
X314325000Y-110490000D01*
X234635000Y-107000000D02*
X238125000Y-110490000D01*
X85725000Y-110490000D02*
X89215000Y-107000000D01*
X257175000Y-110490000D02*
X260665000Y-107000000D01*
X85725000Y-109725000D02*
X85725000Y-110490000D01*
X222565000Y-107000000D02*
X234635000Y-107000000D01*
X161925000Y-110490000D02*
X165415000Y-107000000D01*
X215585000Y-107000000D02*
X219075000Y-110490000D01*
X331349520Y-50849520D02*
X329908020Y-49408020D01*
X123825000Y-110490000D02*
X127315000Y-107000000D01*
X295275000Y-110490000D02*
X298765000Y-107000000D01*
X158435000Y-107000000D02*
X161925000Y-110490000D01*
X315375000Y-110490000D02*
X318865000Y-107000000D01*
X314325000Y-110490000D02*
X315375000Y-110490000D01*
X331349520Y-106050480D02*
X331349520Y-50849520D01*
X104775000Y-110490000D02*
X108265000Y-107000000D01*
X238125000Y-110490000D02*
X241615000Y-107000000D01*
X272735000Y-107000000D02*
X276225000Y-110490000D01*
X101285000Y-107000000D02*
X104775000Y-110490000D01*
X70165000Y-107000000D02*
X66675000Y-110490000D01*
X276225000Y-110490000D02*
X279715000Y-107000000D01*
X180975000Y-110490000D02*
X184465000Y-107000000D01*
X200025000Y-110490000D02*
X203515000Y-107000000D01*
X298765000Y-107000000D02*
X310835000Y-107000000D01*
X283291980Y-49408020D02*
X282200000Y-50500000D01*
X89215000Y-107000000D02*
X101285000Y-107000000D01*
X165415000Y-107000000D02*
X177485000Y-107000000D01*
X329908020Y-49408020D02*
X283291980Y-49408020D01*
X203515000Y-107000000D02*
X215585000Y-107000000D01*
X241615000Y-107000000D02*
X253685000Y-107000000D01*
X272432500Y-50500000D02*
X270891000Y-48958500D01*
X146365000Y-107000000D02*
X158435000Y-107000000D01*
X142875000Y-110490000D02*
X146365000Y-107000000D01*
X127315000Y-107000000D02*
X139385000Y-107000000D01*
X108265000Y-107000000D02*
X120335000Y-107000000D01*
X120335000Y-107000000D02*
X123825000Y-110490000D01*
X83000000Y-107000000D02*
X85725000Y-109725000D01*
X330400000Y-107000000D02*
X331349520Y-106050480D01*
%TO.N,Net-(D37-Pad2)*%
X69890000Y-118110000D02*
X66675000Y-118110000D01*
X72390000Y-115610000D02*
X69890000Y-118110000D01*
X72390000Y-111760000D02*
X72390000Y-115610000D01*
%TO.N,Net-(D38-Pad2)*%
X91440000Y-111760000D02*
X91440000Y-114797091D01*
X91440000Y-114797091D02*
X88127091Y-118110000D01*
X88127091Y-118110000D02*
X85725000Y-118110000D01*
%TO.N,Net-(D39-Pad2)*%
X107177091Y-118110000D02*
X104775000Y-118110000D01*
X110490000Y-111760000D02*
X110490000Y-114797091D01*
X110490000Y-114797091D02*
X107177091Y-118110000D01*
%TO.N,Net-(D40-Pad2)*%
X126227091Y-118110000D02*
X123825000Y-118110000D01*
X129540000Y-114797091D02*
X126227091Y-118110000D01*
X129540000Y-111760000D02*
X129540000Y-114797091D01*
%TO.N,Net-(D41-Pad2)*%
X148590000Y-111760000D02*
X148590000Y-114797091D01*
X148590000Y-114797091D02*
X145277091Y-118110000D01*
X145277091Y-118110000D02*
X142875000Y-118110000D01*
%TO.N,Net-(D42-Pad2)*%
X167640000Y-114797091D02*
X164327091Y-118110000D01*
X164327091Y-118110000D02*
X161925000Y-118110000D01*
X167640000Y-111760000D02*
X167640000Y-114797091D01*
%TO.N,Net-(D43-Pad2)*%
X186690000Y-114797091D02*
X183377091Y-118110000D01*
X186690000Y-111760000D02*
X186690000Y-114797091D01*
X183377091Y-118110000D02*
X180975000Y-118110000D01*
%TO.N,Net-(D44-Pad2)*%
X202427091Y-118110000D02*
X200025000Y-118110000D01*
X205740000Y-111760000D02*
X205740000Y-114797091D01*
X205740000Y-114797091D02*
X202427091Y-118110000D01*
%TO.N,Net-(D45-Pad2)*%
X221477091Y-118110000D02*
X219075000Y-118110000D01*
X224790000Y-114797091D02*
X221477091Y-118110000D01*
X224790000Y-111760000D02*
X224790000Y-114797091D01*
%TO.N,Net-(D46-Pad2)*%
X243840000Y-111760000D02*
X243840000Y-114797091D01*
X243840000Y-114797091D02*
X240527091Y-118110000D01*
X240527091Y-118110000D02*
X238125000Y-118110000D01*
%TO.N,Net-(D47-Pad2)*%
X262890000Y-114797091D02*
X259577091Y-118110000D01*
X262890000Y-111760000D02*
X262890000Y-114797091D01*
X259577091Y-118110000D02*
X257175000Y-118110000D01*
%TO.N,Net-(D48-Pad2)*%
X278627091Y-118110000D02*
X276225000Y-118110000D01*
X281940000Y-114797091D02*
X278627091Y-118110000D01*
X281940000Y-111760000D02*
X281940000Y-114797091D01*
%TO.N,Net-(D49-Pad2)*%
X300990000Y-114797091D02*
X297677091Y-118110000D01*
X297677091Y-118110000D02*
X295275000Y-118110000D01*
X300990000Y-111760000D02*
X300990000Y-114797091D01*
%TO.N,Net-(D50-Pad2)*%
X320040000Y-114797091D02*
X316727091Y-118110000D01*
X316727091Y-118110000D02*
X314325000Y-118110000D01*
X320040000Y-111760000D02*
X320040000Y-114797091D01*
%TO.N,col_4*%
X190200000Y-52519520D02*
X192030000Y-54349520D01*
X207920908Y-51399040D02*
X211065421Y-54543551D01*
X214239572Y-53418560D02*
X224522376Y-53418560D01*
X227458405Y-50482531D02*
X231266969Y-50482531D01*
X211065421Y-54543551D02*
X213114581Y-54543551D01*
X231266969Y-50482531D02*
X232791000Y-48958500D01*
X213114581Y-54543551D02*
X214239572Y-53418560D01*
X192030000Y-54349520D02*
X194586198Y-54349520D01*
X154940000Y-52070000D02*
X171270000Y-52070000D01*
X175700000Y-54000000D02*
X177180480Y-52519520D01*
X224522376Y-53418560D02*
X227458405Y-50482531D01*
X197536678Y-51399040D02*
X207920908Y-51399040D01*
X171270000Y-52070000D02*
X173200000Y-54000000D01*
X177180480Y-52519520D02*
X190200000Y-52519520D01*
X194586198Y-54349520D02*
X197536678Y-51399040D01*
X173200000Y-54000000D02*
X175700000Y-54000000D01*
%TO.N,col_5*%
X190470000Y-52070000D02*
X192300000Y-53900000D01*
X211251618Y-54094031D02*
X212928383Y-54094031D01*
X194400000Y-53900000D02*
X197350480Y-50949520D01*
X197350480Y-50949520D02*
X208107106Y-50949520D01*
X208107106Y-50949520D02*
X211251618Y-54094031D01*
X229176489Y-50033011D02*
X230251000Y-48958500D01*
X212928383Y-54094031D02*
X214053374Y-52969040D01*
X192300000Y-53900000D02*
X194400000Y-53900000D01*
X214053374Y-52969040D02*
X224336178Y-52969040D01*
X227272207Y-50033011D02*
X229176489Y-50033011D01*
X173990000Y-52070000D02*
X190470000Y-52070000D01*
X224336178Y-52969040D02*
X227272207Y-50033011D01*
%TO.N,col_6*%
X224149980Y-52519520D02*
X227711000Y-48958500D01*
X193040000Y-52070000D02*
X194610000Y-50500000D01*
X208293304Y-50500000D02*
X211437815Y-53644511D01*
X213867176Y-52519520D02*
X224149980Y-52519520D01*
X211437815Y-53644511D02*
X212742185Y-53644511D01*
X194610000Y-50500000D02*
X208293304Y-50500000D01*
X212742185Y-53644511D02*
X213867176Y-52519520D01*
%TO.N,col_7*%
X212090000Y-52070000D02*
X222059500Y-52070000D01*
X222059500Y-52070000D02*
X225171000Y-48958500D01*
%TO.N,col_9*%
X252080000Y-71120000D02*
X253111000Y-70089000D01*
X253111000Y-70089000D02*
X253111000Y-64198500D01*
X250190000Y-71120000D02*
X252080000Y-71120000D01*
%TO.N,col_10*%
X262572500Y-71120000D02*
X255651000Y-64198500D01*
X269240000Y-71120000D02*
X262572500Y-71120000D01*
%TO.N,col_11*%
X288290000Y-71120000D02*
X283770000Y-66600000D01*
X263132500Y-66600000D02*
X260731000Y-64198500D01*
X283770000Y-66600000D02*
X263132500Y-66600000D01*
%TO.N,col_12*%
X265222980Y-66150480D02*
X263271000Y-64198500D01*
X307340000Y-71120000D02*
X302370480Y-66150480D01*
X302370480Y-66150480D02*
X265222980Y-66150480D01*
%TO.N,col_13*%
X300899040Y-65700960D02*
X274933460Y-65700960D01*
X326390000Y-71120000D02*
X320970000Y-65700000D01*
X300900000Y-65700000D02*
X300899040Y-65700960D01*
X274933460Y-65700960D02*
X273431000Y-64198500D01*
X320970000Y-65700000D02*
X300900000Y-65700000D01*
%TO.N,col_2*%
X127020479Y-35079521D02*
X132449520Y-29650480D01*
X129090480Y-78900000D02*
X127020479Y-76829999D01*
X246800000Y-33600000D02*
X246800000Y-40200000D01*
X122230000Y-90170000D02*
X129090480Y-83309520D01*
X132449520Y-29650480D02*
X242850480Y-29650480D01*
X242850480Y-29650480D02*
X246800000Y-33600000D01*
X127020479Y-76829999D02*
X127020479Y-35079521D01*
X129090480Y-83309520D02*
X129090480Y-78900000D01*
X107315000Y-90170000D02*
X122230000Y-90170000D01*
%TO.N,col_3*%
X197722876Y-51848560D02*
X207734710Y-51848560D01*
X190013802Y-52969040D02*
X191843803Y-54799040D01*
X207734710Y-51848560D02*
X210879224Y-54993071D01*
X154300000Y-53900000D02*
X156600000Y-53900000D01*
X156600000Y-53900000D02*
X157980480Y-52519520D01*
X157980480Y-52519520D02*
X171083802Y-52519520D01*
X173013803Y-54449520D02*
X175886197Y-54449520D01*
X227644603Y-50932051D02*
X233357449Y-50932051D01*
X194772395Y-54799040D02*
X197722876Y-51848560D01*
X210879224Y-54993071D02*
X213300778Y-54993071D01*
X214425770Y-53868080D02*
X224708574Y-53868080D01*
X135890000Y-52070000D02*
X152470000Y-52070000D01*
X224708574Y-53868080D02*
X227644603Y-50932051D01*
X191843803Y-54799040D02*
X194772395Y-54799040D01*
X175886197Y-54449520D02*
X177366678Y-52969040D01*
X177366678Y-52969040D02*
X190013802Y-52969040D01*
X233357449Y-50932051D02*
X235331000Y-48958500D01*
X213300778Y-54993071D02*
X214425770Y-53868080D01*
X171083802Y-52519520D02*
X173013803Y-54449520D01*
X152470000Y-52070000D02*
X154300000Y-53900000D01*
%TO.N,col_1*%
X132263323Y-29200960D02*
X243036678Y-29200960D01*
X247249520Y-39549520D02*
X247900000Y-40200000D01*
X243036678Y-29200960D02*
X247249520Y-33413803D01*
X247249520Y-33413803D02*
X247249520Y-39549520D01*
X90335000Y-88100000D02*
X123664282Y-88100000D01*
X126570959Y-34893324D02*
X132263323Y-29200960D01*
X88265000Y-90170000D02*
X90335000Y-88100000D01*
X128640960Y-83123322D02*
X128640960Y-79086198D01*
X123664282Y-88100000D02*
X128640960Y-83123322D01*
X128640960Y-79086198D02*
X126570959Y-77016196D01*
X126570959Y-77016196D02*
X126570959Y-34893324D01*
%TO.N,GND*%
X239141000Y-46806500D02*
X238125000Y-45790500D01*
X266700000Y-45600000D02*
X267100000Y-46000000D01*
X239141000Y-58208500D02*
X239141000Y-52008500D01*
X236601000Y-52008500D02*
X239141000Y-52008500D01*
X236634500Y-44300000D02*
X238125000Y-45790500D01*
X296775000Y-44100000D02*
X322350000Y-44100000D01*
X230029500Y-56800000D02*
X225171000Y-61658500D01*
X267300000Y-52600000D02*
X270100000Y-52600000D01*
X270600000Y-53100000D02*
X270600000Y-54329500D01*
X267100000Y-52400000D02*
X267300000Y-52600000D01*
X42735250Y-107351500D02*
X45141875Y-109758125D01*
X258191000Y-64198500D02*
X258191000Y-62909000D01*
X239615500Y-44300000D02*
X265400000Y-44300000D01*
X37555250Y-107351500D02*
X42735250Y-107351500D01*
X270600000Y-54329500D02*
X268351000Y-56578500D01*
X231809500Y-56800000D02*
X230029500Y-56800000D01*
X258191000Y-62909000D02*
X264521500Y-56578500D01*
X265400000Y-44300000D02*
X266700000Y-45600000D01*
X237601000Y-59748500D02*
X239141000Y-58208500D01*
X227289500Y-44300000D02*
X236634500Y-44300000D01*
X295275000Y-45600000D02*
X296775000Y-44100000D01*
X266700000Y-45600000D02*
X268200000Y-44100000D01*
X44540250Y-109156500D02*
X45141875Y-109758125D01*
X293775000Y-44100000D02*
X295275000Y-45600000D01*
X239141000Y-52008500D02*
X239141000Y-46806500D01*
X239615500Y-44300000D02*
X238125000Y-45790500D01*
X322350000Y-44100000D02*
X323850000Y-45600000D01*
X268200000Y-44100000D02*
X293775000Y-44100000D01*
X264521500Y-56578500D02*
X268351000Y-56578500D01*
X270100000Y-52600000D02*
X270600000Y-53100000D01*
X267100000Y-46000000D02*
X267100000Y-52400000D01*
X44540250Y-97091500D02*
X44540250Y-109156500D01*
X225171000Y-64198500D02*
X225171000Y-61658500D01*
X45141875Y-109758125D02*
X50255250Y-114871500D01*
X222631000Y-48958500D02*
X227289500Y-44300000D01*
X236601000Y-52008500D02*
X231809500Y-56800000D01*
%TO.N,unconnected-(U6-Pad5V)*%
X222631000Y-64198500D02*
X222631000Y-58369000D01*
X222800000Y-58189500D02*
X228981000Y-52008500D01*
X222800000Y-58200000D02*
X222800000Y-58189500D01*
X222631000Y-58369000D02*
X222800000Y-58200000D01*
%TO.N,+3V3*%
X263271000Y-54038500D02*
X268351000Y-54038500D01*
X258191000Y-48958500D02*
X263271000Y-54038500D01*
%TO.N,31*%
X279669500Y-47800000D02*
X278511000Y-48958500D01*
X319150000Y-47800000D02*
X279669500Y-47800000D01*
X321350000Y-45600000D02*
X319150000Y-47800000D01*
%TO.N,32*%
X322991500Y-48958500D02*
X281051000Y-48958500D01*
X326350000Y-45600000D02*
X322991500Y-48958500D01*
%TO.N,29*%
X275488540Y-46900960D02*
X273431000Y-48958500D01*
X292775000Y-45600000D02*
X291474040Y-46900960D01*
X291474040Y-46900960D02*
X275488540Y-46900960D01*
%TO.N,30*%
X297775000Y-45600000D02*
X296024520Y-47350480D01*
X296024520Y-47350480D02*
X277579020Y-47350480D01*
X277579020Y-47350480D02*
X275971000Y-48958500D01*
%TO.N,26*%
X264200000Y-45600000D02*
X264200000Y-47347500D01*
X264200000Y-47347500D02*
X265811000Y-48958500D01*
%TO.N,27*%
X269200000Y-48109500D02*
X268351000Y-48958500D01*
X269200000Y-45600000D02*
X269200000Y-48109500D01*
%TO.N,6*%
X240625000Y-45790500D02*
X240625000Y-48744500D01*
X240625000Y-48744500D02*
X240411000Y-48958500D01*
%TO.N,5*%
X237871000Y-48036500D02*
X237871000Y-48958500D01*
X235625000Y-45790500D02*
X237871000Y-48036500D01*
%TO.N,col_0*%
X78740000Y-109220000D02*
X78740000Y-120340000D01*
X332400000Y-119400000D02*
X332400000Y-31400000D01*
X81000000Y-122600000D02*
X329200000Y-122600000D01*
X255200000Y-29100000D02*
X249100000Y-35200000D01*
X329200000Y-122600000D02*
X332400000Y-119400000D01*
X332400000Y-31400000D02*
X330100000Y-29100000D01*
X78740000Y-120340000D02*
X81000000Y-122600000D01*
X249100000Y-35200000D02*
X249100000Y-40200000D01*
X330100000Y-29100000D02*
X255200000Y-29100000D01*
%TD*%
M02*
