M48
; DRILL file {KiCad 6.0.2-378541a8eb~116~ubuntu20.04.1} date Wed 23 Feb 2022 06:59:01 PM CST
; FORMAT={-:-/ absolute / inch / decimal}
; #@! TF.CreationDate,2022-02-23T18:59:01-06:00
; #@! TF.GenerationSoftware,Kicad,Pcbnew,6.0.2-378541a8eb~116~ubuntu20.04.1
; #@! TF.FileFunction,Plated,1,2,PTH
FMAT,2
INCH
; #@! TA.AperFunction,Plated,PTH,ViaDrill
T1C0.0157
; #@! TA.AperFunction,Plated,PTH,ComponentDrill
T2C0.0315
; #@! TA.AperFunction,Plated,PTH,ComponentDrill
T3C0.0394
; #@! TA.AperFunction,Plated,PTH,ComponentDrill
T4C0.0453
; #@! TA.AperFunction,Plated,PTH,ComponentDrill
T5C0.0591
; #@! TA.AperFunction,Plated,PTH,ComponentDrill
T6C0.0787
%
G90
G05
T1
X9.7165Y-1.5827
X9.7598Y-1.5827
X9.8071Y-1.5827
T2
X2.625Y-4.35
X2.625Y-4.65
X3.225Y-4.125
X3.375Y-4.35
X3.375Y-4.65
X3.525Y-4.125
X3.975Y-4.125
X4.125Y-4.35
X4.125Y-4.65
X4.275Y-4.125
X4.725Y-4.125
X4.875Y-4.35
X4.875Y-4.65
X5.025Y-4.125
X5.1Y-1.875
X5.1Y-2.625
X5.1Y-3.375
X5.4Y-1.875
X5.4Y-2.625
X5.4Y-3.375
X5.625Y-4.35
X5.625Y-4.65
X5.85Y-1.875
X5.85Y-2.625
X5.85Y-3.375
X6.15Y-1.875
X6.15Y-2.625
X6.15Y-3.375
X6.225Y-4.125
X6.375Y-4.35
X6.375Y-4.65
X6.525Y-4.125
X6.6Y-1.875
X6.6Y-2.625
X6.6Y-3.375
X6.9Y-1.875
X6.9Y-2.625
X6.9Y-3.375
X6.975Y-4.125
X7.125Y-4.35
X7.125Y-4.65
X7.275Y-4.125
X7.35Y-1.875
X7.35Y-2.625
X7.35Y-3.375
X7.65Y-1.875
X7.65Y-2.625
X7.65Y-3.375
X7.875Y-4.35
X7.875Y-4.65
X8.1Y-1.875
X8.1Y-2.625
X8.1Y-3.375
X8.4Y-1.875
X8.4Y-2.625
X8.4Y-3.375
X8.475Y-4.125
X8.625Y-4.35
X8.625Y-4.65
X8.775Y-4.125
X8.85Y-3.375
X9.0Y-1.35
X9.0Y-1.65
X9.15Y-3.375
X9.225Y-4.125
X9.375Y-4.35
X9.375Y-4.65
X9.525Y-4.125
X9.6Y-3.375
X9.9Y-3.375
X9.975Y-4.125
X10.125Y-1.35
X10.125Y-1.65
X10.125Y-4.35
X10.125Y-4.65
X10.275Y-4.125
X10.35Y-3.375
X10.65Y-3.375
X10.875Y-4.35
X10.875Y-4.65
X11.1Y-3.375
X11.25Y-1.35
X11.25Y-1.65
X11.4Y-3.375
X11.475Y-4.125
X11.625Y-4.35
X11.625Y-4.65
X11.775Y-4.125
X11.85Y-3.375
X12.15Y-3.375
X12.225Y-4.125
X12.375Y-1.35
X12.375Y-1.65
X12.375Y-4.35
X12.375Y-4.65
X12.525Y-4.125
X12.6Y-3.375
X12.9Y-3.375
T3
X8.765Y-1.9275
X8.765Y-2.5275
X8.865Y-1.9275
X8.865Y-2.4275
X8.865Y-2.5275
X8.965Y-1.9275
X8.965Y-2.5275
X9.015Y-2.0476
X9.065Y-1.9275
X9.065Y-2.5275
X9.115Y-2.0476
X9.165Y-1.9275
X9.165Y-2.5275
X9.215Y-2.0476
X9.265Y-1.9275
X9.265Y-2.5275
X9.2756Y-2.2736
X9.2756Y-2.3523
X9.2756Y-2.431
X9.2766Y-1.2319
X9.2766Y-1.8028
X9.315Y-2.0476
X9.3544Y-2.2736
X9.3544Y-2.3523
X9.3544Y-2.431
X9.365Y-1.9275
X9.365Y-2.5275
X9.375Y-1.8028
X9.415Y-2.0476
X9.465Y-1.9275
X9.465Y-2.5275
X9.4734Y-1.2319
X9.4734Y-1.8028
X9.565Y-1.9275
X9.565Y-2.5275
X9.665Y-1.9275
X9.665Y-2.5275
X9.765Y-1.9275
X9.765Y-2.5275
X9.865Y-1.9275
X9.865Y-2.5275
X9.965Y-1.9275
X9.965Y-2.5275
X10.065Y-1.9275
X10.065Y-2.5275
X10.165Y-1.9275
X10.165Y-2.5275
X10.265Y-1.9275
X10.265Y-2.5275
X10.365Y-1.9275
X10.365Y-2.5275
X10.4016Y-1.2244
X10.4016Y-1.7953
X10.465Y-1.9275
X10.465Y-2.5275
X10.5Y-1.7953
X10.565Y-1.9275
X10.565Y-2.0275
X10.565Y-2.1275
X10.565Y-2.2275
X10.565Y-2.3275
X10.565Y-2.4275
X10.565Y-2.5275
X10.5984Y-1.2244
X10.5984Y-1.7953
X10.665Y-1.9275
X10.665Y-2.5275
X10.765Y-1.9275
X10.765Y-2.5275
X10.865Y-1.9275
X10.865Y-2.5275
X10.965Y-1.9275
X10.965Y-2.5275
X11.065Y-1.9275
X11.065Y-2.5275
X11.5266Y-1.2244
X11.5266Y-1.7953
X11.625Y-1.7953
X11.7234Y-1.2244
X11.7234Y-1.7953
X12.6516Y-1.2244
X12.6516Y-1.7953
X12.75Y-1.7953
X12.8484Y-1.2244
X12.8484Y-1.7953
T4
X1.4786Y-4.0186
X1.4786Y-4.1225
X1.4786Y-4.2264
X1.7536Y-3.6225
X1.7536Y-3.8225
X1.7786Y-4.5225
X1.8786Y-4.5225
X1.9786Y-4.5225
X2.0032Y-3.8215
X2.0036Y-3.6225
T5
X2.85Y-4.4
X3.1Y-4.3
X3.225Y-3.65
X3.475Y-3.55
X3.6Y-4.4
X3.85Y-4.3
X3.975Y-3.65
X4.225Y-3.55
X4.35Y-4.4
X4.6Y-4.3
X4.725Y-3.65
X4.975Y-3.55
X5.1Y-1.4
X5.1Y-2.15
X5.1Y-2.9
X5.1Y-4.4
X5.35Y-1.3
X5.35Y-2.05
X5.35Y-2.8
X5.35Y-4.3
X5.85Y-1.4
X5.85Y-2.15
X5.85Y-2.9
X5.85Y-4.4
X6.1Y-1.3
X6.1Y-2.05
X6.1Y-2.8
X6.1Y-4.3
X6.225Y-3.65
X6.475Y-3.55
X6.6Y-1.4
X6.6Y-2.15
X6.6Y-2.9
X6.6Y-4.4
X6.85Y-1.3
X6.85Y-2.05
X6.85Y-2.8
X6.85Y-4.3
X6.975Y-3.65
X7.225Y-3.55
X7.35Y-1.4
X7.35Y-2.15
X7.35Y-2.9
X7.35Y-4.4
X7.6Y-1.3
X7.6Y-2.05
X7.6Y-2.8
X7.6Y-4.3
X8.1Y-1.4
X8.1Y-2.15
X8.1Y-2.9
X8.1Y-4.4
X8.35Y-1.3
X8.35Y-2.05
X8.35Y-2.8
X8.35Y-4.3
X8.475Y-3.65
X8.725Y-3.55
X8.85Y-2.9
X8.85Y-4.4
X9.1Y-2.8
X9.1Y-4.3
X9.225Y-3.65
X9.475Y-3.55
X9.6Y-2.9
X9.6Y-4.4
X9.85Y-2.8
X9.85Y-4.3
X9.975Y-3.65
X10.225Y-3.55
X10.35Y-2.9
X10.35Y-4.4
X10.6Y-2.8
X10.6Y-4.3
X11.1Y-2.9
X11.1Y-4.4
X11.35Y-2.8
X11.35Y-4.3
X11.475Y-3.65
X11.725Y-3.55
X11.85Y-2.9
X11.85Y-4.4
X12.1Y-2.8
X12.1Y-4.3
X12.225Y-3.65
X12.475Y-3.55
X12.6Y-2.9
X12.6Y-4.4
X12.85Y-2.8
X12.85Y-4.3
T6
G00X9.1585Y-1.4878
M15
G01X9.1585Y-1.5272
M16
G05
G00X9.5915Y-1.4878
M15
G01X9.5915Y-1.5272
M16
G05
G00X10.2835Y-1.4803
M15
G01X10.2835Y-1.5197
M16
G05
G00X10.7165Y-1.4803
M15
G01X10.7165Y-1.5197
M16
G05
G00X11.4085Y-1.4803
M15
G01X11.4085Y-1.5197
M16
G05
G00X11.8415Y-1.4803
M15
G01X11.8415Y-1.5197
M16
G05
G00X12.5335Y-1.4803
M15
G01X12.5335Y-1.5197
M16
G05
G00X12.9665Y-1.4803
M15
G01X12.9665Y-1.5197
M16
G05
T0
M30
