%TF.GenerationSoftware,KiCad,Pcbnew,6.0.2-378541a8eb~116~ubuntu20.04.1*%
%TF.CreationDate,2022-02-21T21:33:11-06:00*%
%TF.ProjectId,LMN,4c4d4e2e-6b69-4636-9164-5f7063625858,rev?*%
%TF.SameCoordinates,Original*%
%TF.FileFunction,Legend,Bot*%
%TF.FilePolarity,Positive*%
%FSLAX46Y46*%
G04 Gerber Fmt 4.6, Leading zero omitted, Abs format (unit mm)*
G04 Created by KiCad (PCBNEW 6.0.2-378541a8eb~116~ubuntu20.04.1) date 2022-02-21 21:33:11*
%MOMM*%
%LPD*%
G01*
G04 APERTURE LIST*
%ADD10C,0.264582*%
%ADD11C,0.150000*%
%ADD12C,0.120000*%
G04 APERTURE END LIST*
D10*
X314449985Y-59330005D02*
X318313986Y-59330005D01*
X318313986Y-59330005D02*
X318537986Y-58490005D01*
X318537986Y-58490005D02*
X313861986Y-58490005D01*
X313861986Y-58490005D02*
X314449985Y-59330005D01*
X314449985Y-59330005D02*
X314449985Y-59330005D01*
G36*
X318313986Y-59330005D02*
G01*
X314449985Y-59330005D01*
X313861986Y-58490005D01*
X318537986Y-58490005D01*
X318313986Y-59330005D01*
G37*
X318313986Y-59330005D02*
X314449985Y-59330005D01*
X313861986Y-58490005D01*
X318537986Y-58490005D01*
X318313986Y-59330005D01*
X313665984Y-58210004D02*
X316045984Y-58210004D01*
X316045984Y-58210004D02*
X315457984Y-57370004D01*
X315457984Y-57370004D02*
X313077984Y-57370004D01*
X313077984Y-57370004D02*
X313665984Y-58210004D01*
X313665984Y-58210004D02*
X313665984Y-58210004D01*
G36*
X316045984Y-58210004D02*
G01*
X313665984Y-58210004D01*
X313077984Y-57370004D01*
X315457984Y-57370004D01*
X316045984Y-58210004D01*
G37*
X316045984Y-58210004D02*
X313665984Y-58210004D01*
X313077984Y-57370004D01*
X315457984Y-57370004D01*
X316045984Y-58210004D01*
X308961996Y-54850001D02*
X308779997Y-54010001D01*
X308779997Y-54010001D02*
X305083998Y-54010001D01*
X305083998Y-54010001D02*
X304663998Y-54850001D01*
X304663998Y-54850001D02*
X308961996Y-54850001D01*
X308961996Y-54850001D02*
X308961996Y-54850001D01*
G36*
X308961996Y-54850001D02*
G01*
X304663998Y-54850001D01*
X305083998Y-54010001D01*
X308779997Y-54010001D01*
X308961996Y-54850001D01*
G37*
X308961996Y-54850001D02*
X304663998Y-54850001D01*
X305083998Y-54010001D01*
X308779997Y-54010001D01*
X308961996Y-54850001D01*
X329541964Y-57090003D02*
X329359964Y-56250003D01*
X329359964Y-56250003D02*
X327259964Y-56250003D01*
X327259964Y-56250003D02*
X327441964Y-57090003D01*
X327441964Y-57090003D02*
X329541964Y-57090003D01*
X329541964Y-57090003D02*
X329541964Y-57090003D01*
G36*
X329541964Y-57090003D02*
G01*
X327441964Y-57090003D01*
X327259964Y-56250003D01*
X329359964Y-56250003D01*
X329541964Y-57090003D01*
G37*
X329541964Y-57090003D02*
X327441964Y-57090003D01*
X327259964Y-56250003D01*
X329359964Y-56250003D01*
X329541964Y-57090003D01*
X305209995Y-59330005D02*
X305629995Y-58490005D01*
X305629995Y-58490005D02*
X301331995Y-58490005D01*
X301331995Y-58490005D02*
X301513994Y-59330005D01*
X301513994Y-59330005D02*
X305209995Y-59330005D01*
X305209995Y-59330005D02*
X305209995Y-59330005D01*
G36*
X305209995Y-59330005D02*
G01*
X301513994Y-59330005D01*
X301331995Y-58490005D01*
X305629995Y-58490005D01*
X305209995Y-59330005D01*
G37*
X305209995Y-59330005D02*
X301513994Y-59330005D01*
X301331995Y-58490005D01*
X305629995Y-58490005D01*
X305209995Y-59330005D01*
X302423998Y-53730001D02*
X302241999Y-52890000D01*
X302241999Y-52890000D02*
X300141998Y-52890000D01*
X300141998Y-52890000D02*
X300323997Y-53730001D01*
X300323997Y-53730001D02*
X302423998Y-53730001D01*
X302423998Y-53730001D02*
X302423998Y-53730001D01*
G36*
X302423998Y-53730001D02*
G01*
X300323997Y-53730001D01*
X300141998Y-52890000D01*
X302241999Y-52890000D01*
X302423998Y-53730001D01*
G37*
X302423998Y-53730001D02*
X300323997Y-53730001D01*
X300141998Y-52890000D01*
X302241999Y-52890000D01*
X302423998Y-53730001D01*
X306343994Y-57090003D02*
X306749994Y-56250003D01*
X306749994Y-56250003D02*
X303949995Y-56250003D01*
X303949995Y-56250003D02*
X303543995Y-57090003D01*
X303543995Y-57090003D02*
X306343994Y-57090003D01*
X306343994Y-57090003D02*
X306343994Y-57090003D01*
G36*
X306343994Y-57090003D02*
G01*
X303543995Y-57090003D01*
X303949995Y-56250003D01*
X306749994Y-56250003D01*
X306343994Y-57090003D01*
G37*
X306343994Y-57090003D02*
X303543995Y-57090003D01*
X303949995Y-56250003D01*
X306749994Y-56250003D01*
X306343994Y-57090003D01*
X312139986Y-52610000D02*
X311551987Y-51769999D01*
X311551987Y-51769999D02*
X309451986Y-51769999D01*
X309451986Y-51769999D02*
X309633985Y-52610000D01*
X309633985Y-52610000D02*
X312139986Y-52610000D01*
X312139986Y-52610000D02*
X312139986Y-52610000D01*
G36*
X312139986Y-52610000D02*
G01*
X309633985Y-52610000D01*
X309451986Y-51769999D01*
X311551987Y-51769999D01*
X312139986Y-52610000D01*
G37*
X312139986Y-52610000D02*
X309633985Y-52610000D01*
X309451986Y-51769999D01*
X311551987Y-51769999D01*
X312139986Y-52610000D01*
X284168032Y-55130000D02*
X284236118Y-55231719D01*
X284236118Y-55231719D02*
X284307376Y-55326875D01*
X284307376Y-55326875D02*
X284381806Y-55415469D01*
X284381806Y-55415469D02*
X284420210Y-55457305D01*
X284420210Y-55457305D02*
X284459407Y-55497500D01*
X284459407Y-55497500D02*
X284499398Y-55536055D01*
X284499398Y-55536055D02*
X284540181Y-55572969D01*
X284540181Y-55572969D02*
X284581757Y-55608242D01*
X284581757Y-55608242D02*
X284624127Y-55641875D01*
X284624127Y-55641875D02*
X284667289Y-55673867D01*
X284667289Y-55673867D02*
X284711244Y-55704219D01*
X284711244Y-55704219D02*
X284755992Y-55732930D01*
X284755992Y-55732930D02*
X284801533Y-55760000D01*
X284801533Y-55760000D02*
X284847867Y-55785430D01*
X284847867Y-55785430D02*
X284894994Y-55809219D01*
X284894994Y-55809219D02*
X284942914Y-55831367D01*
X284942914Y-55831367D02*
X284991627Y-55851875D01*
X284991627Y-55851875D02*
X285041133Y-55870742D01*
X285041133Y-55870742D02*
X285091432Y-55887969D01*
X285091432Y-55887969D02*
X285142524Y-55903555D01*
X285142524Y-55903555D02*
X285194408Y-55917500D01*
X285194408Y-55917500D02*
X285247086Y-55929805D01*
X285247086Y-55929805D02*
X285300557Y-55940469D01*
X285300557Y-55940469D02*
X285354820Y-55949492D01*
X285354820Y-55949492D02*
X285409877Y-55956875D01*
X285409877Y-55956875D02*
X285465727Y-55962617D01*
X285465727Y-55962617D02*
X285522369Y-55966719D01*
X285522369Y-55966719D02*
X285638033Y-55970000D01*
X285638033Y-55970000D02*
X289138033Y-55970000D01*
X289138033Y-55970000D02*
X288956034Y-55130000D01*
X288956034Y-55130000D02*
X284168032Y-55130000D01*
X284168032Y-55130000D02*
X284168032Y-55130000D01*
G36*
X289138033Y-55970000D02*
G01*
X285638033Y-55970000D01*
X285522369Y-55966719D01*
X285465727Y-55962617D01*
X285409877Y-55956875D01*
X285354820Y-55949492D01*
X285300557Y-55940469D01*
X285247086Y-55929805D01*
X285194408Y-55917500D01*
X285142524Y-55903555D01*
X285091432Y-55887969D01*
X285041133Y-55870742D01*
X284991627Y-55851875D01*
X284942914Y-55831367D01*
X284894994Y-55809219D01*
X284847867Y-55785430D01*
X284801533Y-55760000D01*
X284755992Y-55732930D01*
X284711244Y-55704219D01*
X284667289Y-55673867D01*
X284624127Y-55641875D01*
X284581757Y-55608242D01*
X284540181Y-55572969D01*
X284499398Y-55536055D01*
X284459407Y-55497500D01*
X284420210Y-55457305D01*
X284381806Y-55415469D01*
X284307376Y-55326875D01*
X284236118Y-55231719D01*
X284168032Y-55130000D01*
X288956034Y-55130000D01*
X289138033Y-55970000D01*
G37*
X289138033Y-55970000D02*
X285638033Y-55970000D01*
X285522369Y-55966719D01*
X285465727Y-55962617D01*
X285409877Y-55956875D01*
X285354820Y-55949492D01*
X285300557Y-55940469D01*
X285247086Y-55929805D01*
X285194408Y-55917500D01*
X285142524Y-55903555D01*
X285091432Y-55887969D01*
X285041133Y-55870742D01*
X284991627Y-55851875D01*
X284942914Y-55831367D01*
X284894994Y-55809219D01*
X284847867Y-55785430D01*
X284801533Y-55760000D01*
X284755992Y-55732930D01*
X284711244Y-55704219D01*
X284667289Y-55673867D01*
X284624127Y-55641875D01*
X284581757Y-55608242D01*
X284540181Y-55572969D01*
X284499398Y-55536055D01*
X284459407Y-55497500D01*
X284420210Y-55457305D01*
X284381806Y-55415469D01*
X284307376Y-55326875D01*
X284236118Y-55231719D01*
X284168032Y-55130000D01*
X288956034Y-55130000D01*
X289138033Y-55970000D01*
X328589964Y-52610000D02*
X328407964Y-51769999D01*
X328407964Y-51769999D02*
X326307964Y-51769999D01*
X326307964Y-51769999D02*
X326489964Y-52610000D01*
X326489964Y-52610000D02*
X328589964Y-52610000D01*
X328589964Y-52610000D02*
X328589964Y-52610000D01*
G36*
X328589964Y-52610000D02*
G01*
X326489964Y-52610000D01*
X326307964Y-51769999D01*
X328407964Y-51769999D01*
X328589964Y-52610000D01*
G37*
X328589964Y-52610000D02*
X326489964Y-52610000D01*
X326307964Y-51769999D01*
X328407964Y-51769999D01*
X328589964Y-52610000D01*
X291462034Y-53730001D02*
X291280035Y-52890000D01*
X291280035Y-52890000D02*
X283608034Y-52890000D01*
X283608034Y-52890000D02*
X283608253Y-52900500D01*
X283608253Y-52900500D02*
X283608909Y-52911000D01*
X283608909Y-52911000D02*
X283610002Y-52921500D01*
X283610002Y-52921500D02*
X283611534Y-52932000D01*
X283611534Y-52932000D02*
X283613502Y-52942500D01*
X283613502Y-52942500D02*
X283615908Y-52953000D01*
X283615908Y-52953000D02*
X283618752Y-52963500D01*
X283618752Y-52963500D02*
X283622034Y-52974000D01*
X283622034Y-52974000D02*
X283622034Y-53030000D01*
X283622034Y-53030000D02*
X283622089Y-53033555D01*
X283622089Y-53033555D02*
X283622253Y-53037219D01*
X283622253Y-53037219D02*
X283622526Y-53040992D01*
X283622526Y-53040992D02*
X283622909Y-53044875D01*
X283622909Y-53044875D02*
X283623401Y-53048867D01*
X283623401Y-53048867D02*
X283624002Y-53052969D01*
X283624002Y-53052969D02*
X283624713Y-53057180D01*
X283624713Y-53057180D02*
X283625534Y-53061500D01*
X283625534Y-53061500D02*
X283627502Y-53070468D01*
X283627502Y-53070468D02*
X283629908Y-53079875D01*
X283629908Y-53079875D02*
X283632752Y-53089718D01*
X283632752Y-53089718D02*
X283636034Y-53099999D01*
X283636034Y-53099999D02*
X283636034Y-53169999D01*
X283636034Y-53169999D02*
X283762033Y-53729999D01*
X283762033Y-53729999D02*
X291462034Y-53730001D01*
X291462034Y-53730001D02*
X291462034Y-53730001D01*
G36*
X291462034Y-53730001D02*
G01*
X283762033Y-53729999D01*
X283636034Y-53169999D01*
X283636034Y-53099999D01*
X283632752Y-53089718D01*
X283629908Y-53079875D01*
X283627502Y-53070468D01*
X283625534Y-53061500D01*
X283624713Y-53057180D01*
X283624002Y-53052969D01*
X283623401Y-53048867D01*
X283622909Y-53044875D01*
X283622526Y-53040992D01*
X283622253Y-53037219D01*
X283622089Y-53033555D01*
X283622034Y-53030000D01*
X283622034Y-52974000D01*
X283618752Y-52963500D01*
X283615908Y-52953000D01*
X283613502Y-52942500D01*
X283611534Y-52932000D01*
X283610002Y-52921500D01*
X283608909Y-52911000D01*
X283608253Y-52900500D01*
X283608034Y-52890000D01*
X291280035Y-52890000D01*
X291462034Y-53730001D01*
G37*
X291462034Y-53730001D02*
X283762033Y-53729999D01*
X283636034Y-53169999D01*
X283636034Y-53099999D01*
X283632752Y-53089718D01*
X283629908Y-53079875D01*
X283627502Y-53070468D01*
X283625534Y-53061500D01*
X283624713Y-53057180D01*
X283624002Y-53052969D01*
X283623401Y-53048867D01*
X283622909Y-53044875D01*
X283622526Y-53040992D01*
X283622253Y-53037219D01*
X283622089Y-53033555D01*
X283622034Y-53030000D01*
X283622034Y-52974000D01*
X283618752Y-52963500D01*
X283615908Y-52953000D01*
X283613502Y-52942500D01*
X283611534Y-52932000D01*
X283610002Y-52921500D01*
X283608909Y-52911000D01*
X283608253Y-52900500D01*
X283608034Y-52890000D01*
X291280035Y-52890000D01*
X291462034Y-53730001D01*
X312923986Y-53730001D02*
X312335987Y-52890000D01*
X312335987Y-52890000D02*
X309689987Y-52890000D01*
X309689987Y-52890000D02*
X309871986Y-53730001D01*
X309871986Y-53730001D02*
X312923986Y-53730001D01*
X312923986Y-53730001D02*
X312923986Y-53730001D01*
G36*
X312923986Y-53730001D02*
G01*
X309871986Y-53730001D01*
X309689987Y-52890000D01*
X312335987Y-52890000D01*
X312923986Y-53730001D01*
G37*
X312923986Y-53730001D02*
X309871986Y-53730001D01*
X309689987Y-52890000D01*
X312335987Y-52890000D01*
X312923986Y-53730001D01*
X329779964Y-58210004D02*
X329597964Y-57370004D01*
X329597964Y-57370004D02*
X327497964Y-57370004D01*
X327497964Y-57370004D02*
X327679964Y-58210004D01*
X327679964Y-58210004D02*
X329779964Y-58210004D01*
X329779964Y-58210004D02*
X329779964Y-58210004D01*
G36*
X329779964Y-58210004D02*
G01*
X327679964Y-58210004D01*
X327497964Y-57370004D01*
X329597964Y-57370004D01*
X329779964Y-58210004D01*
G37*
X329779964Y-58210004D02*
X327679964Y-58210004D01*
X327497964Y-57370004D01*
X329597964Y-57370004D01*
X329779964Y-58210004D01*
X320987986Y-55970002D02*
X320805985Y-55130002D01*
X320805985Y-55130002D02*
X317067985Y-55130002D01*
X317067985Y-55130002D02*
X316843985Y-55970002D01*
X316843985Y-55970002D02*
X320987986Y-55970002D01*
X320987986Y-55970002D02*
X320987986Y-55970002D01*
G36*
X320987986Y-55970002D02*
G01*
X316843985Y-55970002D01*
X317067985Y-55130002D01*
X320805985Y-55130002D01*
X320987986Y-55970002D01*
G37*
X320987986Y-55970002D02*
X316843985Y-55970002D01*
X317067985Y-55130002D01*
X320805985Y-55130002D01*
X320987986Y-55970002D01*
X321463984Y-58210004D02*
X321281984Y-57370004D01*
X321281984Y-57370004D02*
X319181984Y-57370004D01*
X319181984Y-57370004D02*
X319363984Y-58210004D01*
X319363984Y-58210004D02*
X321463984Y-58210004D01*
X321463984Y-58210004D02*
X321463984Y-58210004D01*
G36*
X321463984Y-58210004D02*
G01*
X319363984Y-58210004D01*
X319181984Y-57370004D01*
X321281984Y-57370004D01*
X321463984Y-58210004D01*
G37*
X321463984Y-58210004D02*
X319363984Y-58210004D01*
X319181984Y-57370004D01*
X321281984Y-57370004D01*
X321463984Y-58210004D01*
X287052030Y-59330001D02*
X286870031Y-58490001D01*
X286870031Y-58490001D02*
X284770033Y-58490001D01*
X284770033Y-58490001D02*
X284952032Y-59330001D01*
X284952032Y-59330001D02*
X287052030Y-59330001D01*
X287052030Y-59330001D02*
X287052030Y-59330001D01*
G36*
X287052030Y-59330001D02*
G01*
X284952032Y-59330001D01*
X284770033Y-58490001D01*
X286870031Y-58490001D01*
X287052030Y-59330001D01*
G37*
X287052030Y-59330001D02*
X284952032Y-59330001D01*
X284770033Y-58490001D01*
X286870031Y-58490001D01*
X287052030Y-59330001D01*
X330227964Y-60450006D02*
X330227745Y-60426381D01*
X330227745Y-60426381D02*
X330227089Y-60404506D01*
X330227089Y-60404506D02*
X330225995Y-60384381D01*
X330225995Y-60384381D02*
X330224464Y-60366006D01*
X330224464Y-60366006D02*
X330222495Y-60349381D01*
X330222495Y-60349381D02*
X330220089Y-60334506D01*
X330220089Y-60334506D02*
X330217245Y-60321381D01*
X330217245Y-60321381D02*
X330215659Y-60315475D01*
X330215659Y-60315475D02*
X330213964Y-60310006D01*
X330213964Y-60310006D02*
X330213964Y-60254006D01*
X330213964Y-60254006D02*
X330210683Y-60243506D01*
X330210683Y-60243506D02*
X330207839Y-60233006D01*
X330207839Y-60233006D02*
X330205433Y-60222507D01*
X330205433Y-60222507D02*
X330203464Y-60212007D01*
X330203464Y-60212007D02*
X330201933Y-60201507D01*
X330201933Y-60201507D02*
X330200839Y-60191007D01*
X330200839Y-60191007D02*
X330200183Y-60180507D01*
X330200183Y-60180507D02*
X330199964Y-60170007D01*
X330199964Y-60170007D02*
X330073964Y-59610007D01*
X330073964Y-59610007D02*
X322373964Y-59610007D01*
X322373964Y-59610007D02*
X322555964Y-60450007D01*
X322555964Y-60450007D02*
X330227964Y-60450006D01*
X330227964Y-60450006D02*
X330227964Y-60450006D01*
G36*
X330199964Y-60170007D02*
G01*
X330200183Y-60180507D01*
X330200839Y-60191007D01*
X330201933Y-60201507D01*
X330203464Y-60212007D01*
X330205433Y-60222507D01*
X330207839Y-60233006D01*
X330210683Y-60243506D01*
X330213964Y-60254006D01*
X330213964Y-60310006D01*
X330215659Y-60315475D01*
X330217245Y-60321381D01*
X330220089Y-60334506D01*
X330222495Y-60349381D01*
X330224464Y-60366006D01*
X330225995Y-60384381D01*
X330227089Y-60404506D01*
X330227745Y-60426381D01*
X330227964Y-60450006D01*
X322555964Y-60450007D01*
X322373964Y-59610007D01*
X330073964Y-59610007D01*
X330199964Y-60170007D01*
G37*
X330199964Y-60170007D02*
X330200183Y-60180507D01*
X330200839Y-60191007D01*
X330201933Y-60201507D01*
X330203464Y-60212007D01*
X330205433Y-60222507D01*
X330207839Y-60233006D01*
X330210683Y-60243506D01*
X330213964Y-60254006D01*
X330213964Y-60310006D01*
X330215659Y-60315475D01*
X330217245Y-60321381D01*
X330220089Y-60334506D01*
X330222495Y-60349381D01*
X330224464Y-60366006D01*
X330225995Y-60384381D01*
X330227089Y-60404506D01*
X330227745Y-60426381D01*
X330227964Y-60450006D01*
X322555964Y-60450007D01*
X322373964Y-59610007D01*
X330073964Y-59610007D01*
X330199964Y-60170007D01*
X313637983Y-61570006D02*
X313455984Y-60730006D01*
X313455984Y-60730006D02*
X311355984Y-60730006D01*
X311355984Y-60730006D02*
X311537983Y-61570006D01*
X311537983Y-61570006D02*
X313637983Y-61570006D01*
X313637983Y-61570006D02*
X313637983Y-61570006D01*
G36*
X313637983Y-61570006D02*
G01*
X311537983Y-61570006D01*
X311355984Y-60730006D01*
X313455984Y-60730006D01*
X313637983Y-61570006D01*
G37*
X313637983Y-61570006D02*
X311537983Y-61570006D01*
X311355984Y-60730006D01*
X313455984Y-60730006D01*
X313637983Y-61570006D01*
X330017964Y-59330005D02*
X329835964Y-58490005D01*
X329835964Y-58490005D02*
X327735964Y-58490005D01*
X327735964Y-58490005D02*
X327917964Y-59330005D01*
X327917964Y-59330005D02*
X330017964Y-59330005D01*
X330017964Y-59330005D02*
X330017964Y-59330005D01*
G36*
X330017964Y-59330005D02*
G01*
X327917964Y-59330005D01*
X327735964Y-58490005D01*
X329835964Y-58490005D01*
X330017964Y-59330005D01*
G37*
X330017964Y-59330005D02*
X327917964Y-59330005D01*
X327735964Y-58490005D01*
X329835964Y-58490005D01*
X330017964Y-59330005D01*
X320511986Y-53730001D02*
X320329986Y-52890000D01*
X320329986Y-52890000D02*
X317683986Y-52890000D01*
X317683986Y-52890000D02*
X317459986Y-53730001D01*
X317459986Y-53730001D02*
X320511986Y-53730001D01*
X320511986Y-53730001D02*
X320511986Y-53730001D01*
G36*
X320511986Y-53730001D02*
G01*
X317459986Y-53730001D01*
X317683986Y-52890000D01*
X320329986Y-52890000D01*
X320511986Y-53730001D01*
G37*
X320511986Y-53730001D02*
X317459986Y-53730001D01*
X317683986Y-52890000D01*
X320329986Y-52890000D01*
X320511986Y-53730001D01*
X303137995Y-57090003D02*
X302955995Y-56250003D01*
X302955995Y-56250003D02*
X300855995Y-56250003D01*
X300855995Y-56250003D02*
X301037994Y-57090003D01*
X301037994Y-57090003D02*
X303137995Y-57090003D01*
X303137995Y-57090003D02*
X303137995Y-57090003D01*
G36*
X303137995Y-57090003D02*
G01*
X301037994Y-57090003D01*
X300855995Y-56250003D01*
X302955995Y-56250003D01*
X303137995Y-57090003D01*
G37*
X303137995Y-57090003D02*
X301037994Y-57090003D01*
X300855995Y-56250003D01*
X302955995Y-56250003D01*
X303137995Y-57090003D01*
X320273986Y-52610000D02*
X320091986Y-51769999D01*
X320091986Y-51769999D02*
X317991985Y-51769999D01*
X317991985Y-51769999D02*
X317767985Y-52610000D01*
X317767985Y-52610000D02*
X320273986Y-52610000D01*
X320273986Y-52610000D02*
X320273986Y-52610000D01*
G36*
X320273986Y-52610000D02*
G01*
X317767985Y-52610000D01*
X317991985Y-51769999D01*
X320091986Y-51769999D01*
X320273986Y-52610000D01*
G37*
X320273986Y-52610000D02*
X317767985Y-52610000D01*
X317991985Y-51769999D01*
X320091986Y-51769999D01*
X320273986Y-52610000D01*
X314491985Y-55970002D02*
X313903985Y-55130002D01*
X313903985Y-55130002D02*
X310165985Y-55130002D01*
X310165985Y-55130002D02*
X310347984Y-55970002D01*
X310347984Y-55970002D02*
X314491985Y-55970002D01*
X314491985Y-55970002D02*
X314491985Y-55970002D01*
G36*
X314491985Y-55970002D02*
G01*
X310347984Y-55970002D01*
X310165985Y-55130002D01*
X313903985Y-55130002D01*
X314491985Y-55970002D01*
G37*
X314491985Y-55970002D02*
X310347984Y-55970002D01*
X310165985Y-55130002D01*
X313903985Y-55130002D01*
X314491985Y-55970002D01*
X315233984Y-60450006D02*
X318005984Y-60450006D01*
X318005984Y-60450006D02*
X318229984Y-59610005D01*
X318229984Y-59610005D02*
X314645985Y-59610005D01*
X314645985Y-59610005D02*
X315233984Y-60450006D01*
X315233984Y-60450006D02*
X315233984Y-60450006D01*
G36*
X318005984Y-60450006D02*
G01*
X315233984Y-60450006D01*
X314645985Y-59610005D01*
X318229984Y-59610005D01*
X318005984Y-60450006D01*
G37*
X318005984Y-60450006D02*
X315233984Y-60450006D01*
X314645985Y-59610005D01*
X318229984Y-59610005D01*
X318005984Y-60450006D01*
X286814032Y-58210000D02*
X286632032Y-57370000D01*
X286632032Y-57370000D02*
X284560034Y-57370000D01*
X284560034Y-57370000D02*
X284560252Y-57380500D01*
X284560252Y-57380500D02*
X284560909Y-57391000D01*
X284560909Y-57391000D02*
X284562002Y-57401500D01*
X284562002Y-57401500D02*
X284563533Y-57412000D01*
X284563533Y-57412000D02*
X284565502Y-57422500D01*
X284565502Y-57422500D02*
X284567908Y-57433000D01*
X284567908Y-57433000D02*
X284570752Y-57443500D01*
X284570752Y-57443500D02*
X284574034Y-57454000D01*
X284574034Y-57454000D02*
X284574034Y-57509999D01*
X284574034Y-57509999D02*
X284574088Y-57513554D01*
X284574088Y-57513554D02*
X284574252Y-57517218D01*
X284574252Y-57517218D02*
X284574526Y-57520992D01*
X284574526Y-57520992D02*
X284574908Y-57524875D01*
X284574908Y-57524875D02*
X284575401Y-57528867D01*
X284575401Y-57528867D02*
X284576002Y-57532968D01*
X284576002Y-57532968D02*
X284576713Y-57537179D01*
X284576713Y-57537179D02*
X284577533Y-57541499D01*
X284577533Y-57541499D02*
X284579502Y-57550468D01*
X284579502Y-57550468D02*
X284581908Y-57559874D01*
X284581908Y-57559874D02*
X284584752Y-57569718D01*
X284584752Y-57569718D02*
X284588034Y-57579999D01*
X284588034Y-57579999D02*
X284588034Y-57649999D01*
X284588034Y-57649999D02*
X284714033Y-58209998D01*
X284714033Y-58209998D02*
X286814032Y-58210000D01*
X286814032Y-58210000D02*
X286814032Y-58210000D01*
G36*
X286814032Y-58210000D02*
G01*
X284714033Y-58209998D01*
X284588034Y-57649999D01*
X284588034Y-57579999D01*
X284584752Y-57569718D01*
X284581908Y-57559874D01*
X284579502Y-57550468D01*
X284577533Y-57541499D01*
X284576713Y-57537179D01*
X284576002Y-57532968D01*
X284575401Y-57528867D01*
X284574908Y-57524875D01*
X284574526Y-57520992D01*
X284574252Y-57517218D01*
X284574088Y-57513554D01*
X284574034Y-57509999D01*
X284574034Y-57454000D01*
X284570752Y-57443500D01*
X284567908Y-57433000D01*
X284565502Y-57422500D01*
X284563533Y-57412000D01*
X284562002Y-57401500D01*
X284560909Y-57391000D01*
X284560252Y-57380500D01*
X284560034Y-57370000D01*
X286632032Y-57370000D01*
X286814032Y-58210000D01*
G37*
X286814032Y-58210000D02*
X284714033Y-58209998D01*
X284588034Y-57649999D01*
X284588034Y-57579999D01*
X284584752Y-57569718D01*
X284581908Y-57559874D01*
X284579502Y-57550468D01*
X284577533Y-57541499D01*
X284576713Y-57537179D01*
X284576002Y-57532968D01*
X284575401Y-57528867D01*
X284574908Y-57524875D01*
X284574526Y-57520992D01*
X284574252Y-57517218D01*
X284574088Y-57513554D01*
X284574034Y-57509999D01*
X284574034Y-57454000D01*
X284570752Y-57443500D01*
X284567908Y-57433000D01*
X284565502Y-57422500D01*
X284563533Y-57412000D01*
X284562002Y-57401500D01*
X284560909Y-57391000D01*
X284560252Y-57380500D01*
X284560034Y-57370000D01*
X286632032Y-57370000D01*
X286814032Y-58210000D01*
X308723997Y-53730001D02*
X308541998Y-52890000D01*
X308541998Y-52890000D02*
X305643997Y-52890000D01*
X305643997Y-52890000D02*
X305223997Y-53730001D01*
X305223997Y-53730001D02*
X308723997Y-53730001D01*
X308723997Y-53730001D02*
X308723997Y-53730001D01*
G36*
X308723997Y-53730001D02*
G01*
X305223997Y-53730001D01*
X305643997Y-52890000D01*
X308541998Y-52890000D01*
X308723997Y-53730001D01*
G37*
X308723997Y-53730001D02*
X305223997Y-53730001D01*
X305643997Y-52890000D01*
X308541998Y-52890000D01*
X308723997Y-53730001D01*
X329303964Y-55970002D02*
X329121964Y-55130002D01*
X329121964Y-55130002D02*
X327021964Y-55130002D01*
X327021964Y-55130002D02*
X327203964Y-55970002D01*
X327203964Y-55970002D02*
X329303964Y-55970002D01*
X329303964Y-55970002D02*
X329303964Y-55970002D01*
G36*
X329303964Y-55970002D02*
G01*
X327203964Y-55970002D01*
X327021964Y-55130002D01*
X329121964Y-55130002D01*
X329303964Y-55970002D01*
G37*
X329303964Y-55970002D02*
X327203964Y-55970002D01*
X327021964Y-55130002D01*
X329121964Y-55130002D01*
X329303964Y-55970002D01*
X313161985Y-59330005D02*
X312979986Y-58490005D01*
X312979986Y-58490005D02*
X310879986Y-58490005D01*
X310879986Y-58490005D02*
X311061985Y-59330005D01*
X311061985Y-59330005D02*
X313161985Y-59330005D01*
X313161985Y-59330005D02*
X313161985Y-59330005D01*
G36*
X313161985Y-59330005D02*
G01*
X311061985Y-59330005D01*
X310879986Y-58490005D01*
X312979986Y-58490005D01*
X313161985Y-59330005D01*
G37*
X313161985Y-59330005D02*
X311061985Y-59330005D01*
X310879986Y-58490005D01*
X312979986Y-58490005D01*
X313161985Y-59330005D01*
X291224035Y-52610000D02*
X291042036Y-51769999D01*
X291042036Y-51769999D02*
X284742037Y-51769999D01*
X284742037Y-51769999D02*
X284627795Y-51773280D01*
X284627795Y-51773280D02*
X284519568Y-51783124D01*
X284519568Y-51783124D02*
X284417358Y-51799530D01*
X284417358Y-51799530D02*
X284321162Y-51822499D01*
X284321162Y-51822499D02*
X284275321Y-51836444D01*
X284275321Y-51836444D02*
X284230983Y-51852030D01*
X284230983Y-51852030D02*
X284188149Y-51869257D01*
X284188149Y-51869257D02*
X284146819Y-51888124D01*
X284146819Y-51888124D02*
X284106993Y-51908632D01*
X284106993Y-51908632D02*
X284068670Y-51930780D01*
X284068670Y-51930780D02*
X284031852Y-51954569D01*
X284031852Y-51954569D02*
X283996538Y-51979999D01*
X283996538Y-51979999D02*
X283962727Y-52007069D01*
X283962727Y-52007069D02*
X283930420Y-52035780D01*
X283930420Y-52035780D02*
X283899618Y-52066132D01*
X283899618Y-52066132D02*
X283870319Y-52098124D01*
X283870319Y-52098124D02*
X283842524Y-52131757D01*
X283842524Y-52131757D02*
X283816233Y-52167030D01*
X283816233Y-52167030D02*
X283791446Y-52203945D01*
X283791446Y-52203945D02*
X283768163Y-52242499D01*
X283768163Y-52242499D02*
X283746383Y-52282695D01*
X283746383Y-52282695D02*
X283726108Y-52324531D01*
X283726108Y-52324531D02*
X283707336Y-52368007D01*
X283707336Y-52368007D02*
X283690069Y-52413125D01*
X283690069Y-52413125D02*
X283660045Y-52508281D01*
X283660045Y-52508281D02*
X283636038Y-52610000D01*
X283636038Y-52610000D02*
X291224035Y-52610000D01*
X291224035Y-52610000D02*
X291224035Y-52610000D01*
G36*
X291224035Y-52610000D02*
G01*
X283636038Y-52610000D01*
X283660045Y-52508281D01*
X283690069Y-52413125D01*
X283707336Y-52368007D01*
X283726108Y-52324531D01*
X283746383Y-52282695D01*
X283768163Y-52242499D01*
X283791446Y-52203945D01*
X283816233Y-52167030D01*
X283842524Y-52131757D01*
X283870319Y-52098124D01*
X283899618Y-52066132D01*
X283930420Y-52035780D01*
X283962727Y-52007069D01*
X283996538Y-51979999D01*
X284031852Y-51954569D01*
X284068670Y-51930780D01*
X284106993Y-51908632D01*
X284146819Y-51888124D01*
X284188149Y-51869257D01*
X284230983Y-51852030D01*
X284275321Y-51836444D01*
X284321162Y-51822499D01*
X284417358Y-51799530D01*
X284519568Y-51783124D01*
X284627795Y-51773280D01*
X284742037Y-51769999D01*
X291042036Y-51769999D01*
X291224035Y-52610000D01*
G37*
X291224035Y-52610000D02*
X283636038Y-52610000D01*
X283660045Y-52508281D01*
X283690069Y-52413125D01*
X283707336Y-52368007D01*
X283726108Y-52324531D01*
X283746383Y-52282695D01*
X283768163Y-52242499D01*
X283791446Y-52203945D01*
X283816233Y-52167030D01*
X283842524Y-52131757D01*
X283870319Y-52098124D01*
X283899618Y-52066132D01*
X283930420Y-52035780D01*
X283962727Y-52007069D01*
X283996538Y-51979999D01*
X284031852Y-51954569D01*
X284068670Y-51930780D01*
X284106993Y-51908632D01*
X284146819Y-51888124D01*
X284188149Y-51869257D01*
X284230983Y-51852030D01*
X284275321Y-51836444D01*
X284321162Y-51822499D01*
X284417358Y-51799530D01*
X284519568Y-51783124D01*
X284627795Y-51773280D01*
X284742037Y-51769999D01*
X291042036Y-51769999D01*
X291224035Y-52610000D01*
X313399984Y-60450006D02*
X313217985Y-59610005D01*
X313217985Y-59610005D02*
X311117985Y-59610005D01*
X311117985Y-59610005D02*
X311299984Y-60450006D01*
X311299984Y-60450006D02*
X313399984Y-60450006D01*
X313399984Y-60450006D02*
X313399984Y-60450006D01*
G36*
X313399984Y-60450006D02*
G01*
X311299984Y-60450006D01*
X311117985Y-59610005D01*
X313217985Y-59610005D01*
X313399984Y-60450006D01*
G37*
X313399984Y-60450006D02*
X311299984Y-60450006D01*
X311117985Y-59610005D01*
X313217985Y-59610005D01*
X313399984Y-60450006D01*
X321701985Y-59330005D02*
X321519985Y-58490005D01*
X321519985Y-58490005D02*
X319419985Y-58490005D01*
X319419985Y-58490005D02*
X319601985Y-59330005D01*
X319601985Y-59330005D02*
X321701985Y-59330005D01*
X321701985Y-59330005D02*
X321701985Y-59330005D01*
G36*
X321701985Y-59330005D02*
G01*
X319601985Y-59330005D01*
X319419985Y-58490005D01*
X321519985Y-58490005D01*
X321701985Y-59330005D01*
G37*
X321701985Y-59330005D02*
X319601985Y-59330005D01*
X319419985Y-58490005D01*
X321519985Y-58490005D01*
X321701985Y-59330005D01*
X302185999Y-52610000D02*
X302004000Y-51769999D01*
X302004000Y-51769999D02*
X299903999Y-51769999D01*
X299903999Y-51769999D02*
X300085998Y-52610000D01*
X300085998Y-52610000D02*
X302185999Y-52610000D01*
X302185999Y-52610000D02*
X302185999Y-52610000D01*
G36*
X302185999Y-52610000D02*
G01*
X300085998Y-52610000D01*
X299903999Y-51769999D01*
X302004000Y-51769999D01*
X302185999Y-52610000D01*
G37*
X302185999Y-52610000D02*
X300085998Y-52610000D01*
X299903999Y-51769999D01*
X302004000Y-51769999D01*
X302185999Y-52610000D01*
X329093964Y-61570006D02*
X329208206Y-61566725D01*
X329208206Y-61566725D02*
X329316433Y-61556881D01*
X329316433Y-61556881D02*
X329418644Y-61540475D01*
X329418644Y-61540475D02*
X329514839Y-61517506D01*
X329514839Y-61517506D02*
X329560681Y-61503561D01*
X329560681Y-61503561D02*
X329605019Y-61487975D01*
X329605019Y-61487975D02*
X329647853Y-61470748D01*
X329647853Y-61470748D02*
X329689183Y-61451881D01*
X329689183Y-61451881D02*
X329729009Y-61431373D01*
X329729009Y-61431373D02*
X329767331Y-61409225D01*
X329767331Y-61409225D02*
X329804150Y-61385436D01*
X329804150Y-61385436D02*
X329839464Y-61360006D01*
X329839464Y-61360006D02*
X329873275Y-61332936D01*
X329873275Y-61332936D02*
X329905581Y-61304225D01*
X329905581Y-61304225D02*
X329936384Y-61273873D01*
X329936384Y-61273873D02*
X329965683Y-61241881D01*
X329965683Y-61241881D02*
X329993478Y-61208248D01*
X329993478Y-61208248D02*
X330019769Y-61172975D01*
X330019769Y-61172975D02*
X330044556Y-61136061D01*
X330044556Y-61136061D02*
X330067839Y-61097506D01*
X330067839Y-61097506D02*
X330089618Y-61057311D01*
X330089618Y-61057311D02*
X330109894Y-61015475D01*
X330109894Y-61015475D02*
X330128665Y-60971998D01*
X330128665Y-60971998D02*
X330145933Y-60926881D01*
X330145933Y-60926881D02*
X330175956Y-60831725D01*
X330175956Y-60831725D02*
X330199964Y-60730006D01*
X330199964Y-60730006D02*
X322611964Y-60730006D01*
X322611964Y-60730006D02*
X322793964Y-61570006D01*
X322793964Y-61570006D02*
X329093964Y-61570006D01*
X329093964Y-61570006D02*
X329093964Y-61570006D01*
G36*
X330175956Y-60831725D02*
G01*
X330145933Y-60926881D01*
X330128665Y-60971998D01*
X330109894Y-61015475D01*
X330089618Y-61057311D01*
X330067839Y-61097506D01*
X330044556Y-61136061D01*
X330019769Y-61172975D01*
X329993478Y-61208248D01*
X329965683Y-61241881D01*
X329936384Y-61273873D01*
X329905581Y-61304225D01*
X329873275Y-61332936D01*
X329839464Y-61360006D01*
X329804150Y-61385436D01*
X329767331Y-61409225D01*
X329729009Y-61431373D01*
X329689183Y-61451881D01*
X329647853Y-61470748D01*
X329605019Y-61487975D01*
X329560681Y-61503561D01*
X329514839Y-61517506D01*
X329418644Y-61540475D01*
X329316433Y-61556881D01*
X329208206Y-61566725D01*
X329093964Y-61570006D01*
X322793964Y-61570006D01*
X322611964Y-60730006D01*
X330199964Y-60730006D01*
X330175956Y-60831725D01*
G37*
X330175956Y-60831725D02*
X330145933Y-60926881D01*
X330128665Y-60971998D01*
X330109894Y-61015475D01*
X330089618Y-61057311D01*
X330067839Y-61097506D01*
X330044556Y-61136061D01*
X330019769Y-61172975D01*
X329993478Y-61208248D01*
X329965683Y-61241881D01*
X329936384Y-61273873D01*
X329905581Y-61304225D01*
X329873275Y-61332936D01*
X329839464Y-61360006D01*
X329804150Y-61385436D01*
X329767331Y-61409225D01*
X329729009Y-61431373D01*
X329689183Y-61451881D01*
X329647853Y-61470748D01*
X329605019Y-61487975D01*
X329560681Y-61503561D01*
X329514839Y-61517506D01*
X329418644Y-61540475D01*
X329316433Y-61556881D01*
X329208206Y-61566725D01*
X329093964Y-61570006D01*
X322793964Y-61570006D01*
X322611964Y-60730006D01*
X330199964Y-60730006D01*
X330175956Y-60831725D01*
X309913996Y-59330005D02*
X309731996Y-58490005D01*
X309731996Y-58490005D02*
X307631996Y-58490005D01*
X307631996Y-58490005D02*
X307813995Y-59330005D01*
X307813995Y-59330005D02*
X309913996Y-59330005D01*
X309913996Y-59330005D02*
X309913996Y-59330005D01*
G36*
X309913996Y-59330005D02*
G01*
X307813995Y-59330005D01*
X307631996Y-58490005D01*
X309731996Y-58490005D01*
X309913996Y-59330005D01*
G37*
X309913996Y-59330005D02*
X307813995Y-59330005D01*
X307631996Y-58490005D01*
X309731996Y-58490005D01*
X309913996Y-59330005D01*
X304649996Y-60450006D02*
X305069996Y-59610005D01*
X305069996Y-59610005D02*
X301569996Y-59610005D01*
X301569996Y-59610005D02*
X301751995Y-60450006D01*
X301751995Y-60450006D02*
X304649996Y-60450006D01*
X304649996Y-60450006D02*
X304649996Y-60450006D01*
G36*
X304649996Y-60450006D02*
G01*
X301751995Y-60450006D01*
X301569996Y-59610005D01*
X305069996Y-59610005D01*
X304649996Y-60450006D01*
G37*
X304649996Y-60450006D02*
X301751995Y-60450006D01*
X301569996Y-59610005D01*
X305069996Y-59610005D01*
X304649996Y-60450006D01*
X304089994Y-61570006D02*
X304509994Y-60730006D01*
X304509994Y-60730006D02*
X301807995Y-60730006D01*
X301807995Y-60730006D02*
X301989994Y-61570006D01*
X301989994Y-61570006D02*
X304089994Y-61570006D01*
X304089994Y-61570006D02*
X304089994Y-61570006D01*
G36*
X304089994Y-61570006D02*
G01*
X301989994Y-61570006D01*
X301807995Y-60730006D01*
X304509994Y-60730006D01*
X304089994Y-61570006D01*
G37*
X304089994Y-61570006D02*
X301989994Y-61570006D01*
X301807995Y-60730006D01*
X304509994Y-60730006D01*
X304089994Y-61570006D01*
X283944033Y-54570001D02*
X283944142Y-54577110D01*
X283944142Y-54577110D02*
X283944470Y-54584438D01*
X283944470Y-54584438D02*
X283945017Y-54591985D01*
X283945017Y-54591985D02*
X283945783Y-54599750D01*
X283945783Y-54599750D02*
X283946767Y-54607735D01*
X283946767Y-54607735D02*
X283947970Y-54615938D01*
X283947970Y-54615938D02*
X283949392Y-54624360D01*
X283949392Y-54624360D02*
X283951033Y-54633000D01*
X283951033Y-54633000D02*
X283954971Y-54650938D01*
X283954971Y-54650938D02*
X283959783Y-54669750D01*
X283959783Y-54669750D02*
X283965470Y-54689438D01*
X283965470Y-54689438D02*
X283972032Y-54710000D01*
X283972032Y-54710000D02*
X283975533Y-54717219D01*
X283975533Y-54717219D02*
X283979033Y-54724875D01*
X283979033Y-54724875D02*
X283982533Y-54732969D01*
X283982533Y-54732969D02*
X283986032Y-54741500D01*
X283986032Y-54741500D02*
X283989532Y-54750469D01*
X283989532Y-54750469D02*
X283993032Y-54759875D01*
X283993032Y-54759875D02*
X283996532Y-54769719D01*
X283996532Y-54769719D02*
X284000032Y-54780000D01*
X284000032Y-54780000D02*
X284003533Y-54787219D01*
X284003533Y-54787219D02*
X284007033Y-54794875D01*
X284007033Y-54794875D02*
X284010533Y-54802969D01*
X284010533Y-54802969D02*
X284014032Y-54811500D01*
X284014032Y-54811500D02*
X284017532Y-54820468D01*
X284017532Y-54820468D02*
X284021032Y-54829875D01*
X284021032Y-54829875D02*
X284024532Y-54839718D01*
X284024532Y-54839718D02*
X284028032Y-54849999D01*
X284028032Y-54849999D02*
X286100031Y-54849999D01*
X286100031Y-54849999D02*
X285918032Y-54009999D01*
X285918032Y-54009999D02*
X283818033Y-54009999D01*
X283818033Y-54009999D02*
X283944033Y-54570001D01*
X283944033Y-54570001D02*
X283944033Y-54570001D01*
G36*
X286100031Y-54849999D02*
G01*
X284028032Y-54849999D01*
X284024532Y-54839718D01*
X284021032Y-54829875D01*
X284017532Y-54820468D01*
X284014032Y-54811500D01*
X284010533Y-54802969D01*
X284007033Y-54794875D01*
X284003533Y-54787219D01*
X284000032Y-54780000D01*
X283996532Y-54769719D01*
X283993032Y-54759875D01*
X283989532Y-54750469D01*
X283986032Y-54741500D01*
X283982533Y-54732969D01*
X283979033Y-54724875D01*
X283975533Y-54717219D01*
X283972032Y-54710000D01*
X283965470Y-54689438D01*
X283959783Y-54669750D01*
X283954971Y-54650938D01*
X283951033Y-54633000D01*
X283949392Y-54624360D01*
X283947970Y-54615938D01*
X283946767Y-54607735D01*
X283945783Y-54599750D01*
X283945017Y-54591985D01*
X283944470Y-54584438D01*
X283944142Y-54577110D01*
X283944033Y-54570001D01*
X283818033Y-54009999D01*
X285918032Y-54009999D01*
X286100031Y-54849999D01*
G37*
X286100031Y-54849999D02*
X284028032Y-54849999D01*
X284024532Y-54839718D01*
X284021032Y-54829875D01*
X284017532Y-54820468D01*
X284014032Y-54811500D01*
X284010533Y-54802969D01*
X284007033Y-54794875D01*
X284003533Y-54787219D01*
X284000032Y-54780000D01*
X283996532Y-54769719D01*
X283993032Y-54759875D01*
X283989532Y-54750469D01*
X283986032Y-54741500D01*
X283982533Y-54732969D01*
X283979033Y-54724875D01*
X283975533Y-54717219D01*
X283972032Y-54710000D01*
X283965470Y-54689438D01*
X283959783Y-54669750D01*
X283954971Y-54650938D01*
X283951033Y-54633000D01*
X283949392Y-54624360D01*
X283947970Y-54615938D01*
X283946767Y-54607735D01*
X283945783Y-54599750D01*
X283945017Y-54591985D01*
X283944470Y-54584438D01*
X283944142Y-54577110D01*
X283944033Y-54570001D01*
X283818033Y-54009999D01*
X285918032Y-54009999D01*
X286100031Y-54849999D01*
X285134031Y-60170001D02*
X285134250Y-60180501D01*
X285134250Y-60180501D02*
X285134906Y-60191001D01*
X285134906Y-60191001D02*
X285136000Y-60201501D01*
X285136000Y-60201501D02*
X285137531Y-60212001D01*
X285137531Y-60212001D02*
X285139499Y-60222501D01*
X285139499Y-60222501D02*
X285141906Y-60233001D01*
X285141906Y-60233001D02*
X285144750Y-60243501D01*
X285144750Y-60243501D02*
X285148031Y-60254001D01*
X285148031Y-60254001D02*
X285176031Y-60310000D01*
X285176031Y-60310000D02*
X285176086Y-60313446D01*
X285176086Y-60313446D02*
X285176250Y-60316782D01*
X285176250Y-60316782D02*
X285176523Y-60320009D01*
X285176523Y-60320009D02*
X285176906Y-60323126D01*
X285176906Y-60323126D02*
X285177398Y-60326134D01*
X285177398Y-60326134D02*
X285177999Y-60329032D01*
X285177999Y-60329032D02*
X285178710Y-60331821D01*
X285178710Y-60331821D02*
X285179531Y-60334501D01*
X285179531Y-60334501D02*
X285180460Y-60337071D01*
X285180460Y-60337071D02*
X285181499Y-60339532D01*
X285181499Y-60339532D02*
X285182648Y-60341884D01*
X285182648Y-60341884D02*
X285183905Y-60344126D01*
X285183905Y-60344126D02*
X285185273Y-60346258D01*
X285185273Y-60346258D02*
X285186749Y-60348282D01*
X285186749Y-60348282D02*
X285188335Y-60350196D01*
X285188335Y-60350196D02*
X285190031Y-60352000D01*
X285190031Y-60352000D02*
X285190086Y-60355500D01*
X285190086Y-60355500D02*
X285190250Y-60359000D01*
X285190250Y-60359000D02*
X285190523Y-60362500D01*
X285190523Y-60362500D02*
X285190906Y-60366000D01*
X285190906Y-60366000D02*
X285191398Y-60369500D01*
X285191398Y-60369500D02*
X285191999Y-60373000D01*
X285191999Y-60373000D02*
X285192710Y-60376500D01*
X285192710Y-60376500D02*
X285193530Y-60380000D01*
X285193530Y-60380000D02*
X285194460Y-60383500D01*
X285194460Y-60383500D02*
X285195499Y-60387000D01*
X285195499Y-60387000D02*
X285196648Y-60390500D01*
X285196648Y-60390500D02*
X285197905Y-60394000D01*
X285197905Y-60394000D02*
X285199273Y-60397500D01*
X285199273Y-60397500D02*
X285200749Y-60401000D01*
X285200749Y-60401000D02*
X285202335Y-60404500D01*
X285202335Y-60404500D02*
X285204031Y-60408000D01*
X285204031Y-60408000D02*
X285204086Y-60409805D01*
X285204086Y-60409805D02*
X285204250Y-60411719D01*
X285204250Y-60411719D02*
X285204523Y-60413742D01*
X285204523Y-60413742D02*
X285204906Y-60415875D01*
X285204906Y-60415875D02*
X285205398Y-60418117D01*
X285205398Y-60418117D02*
X285205999Y-60420468D01*
X285205999Y-60420468D02*
X285206710Y-60422929D01*
X285206710Y-60422929D02*
X285207530Y-60425499D01*
X285207530Y-60425499D02*
X285208460Y-60428179D01*
X285208460Y-60428179D02*
X285209499Y-60430968D01*
X285209499Y-60430968D02*
X285210648Y-60433867D01*
X285210648Y-60433867D02*
X285211905Y-60436875D01*
X285211905Y-60436875D02*
X285213273Y-60439992D01*
X285213273Y-60439992D02*
X285214749Y-60443218D01*
X285214749Y-60443218D02*
X285216335Y-60446554D01*
X285216335Y-60446554D02*
X285218031Y-60450000D01*
X285218031Y-60450000D02*
X292890032Y-60450000D01*
X292890032Y-60450000D02*
X292708033Y-59610000D01*
X292708033Y-59610000D02*
X285008032Y-59610000D01*
X285008032Y-59610000D02*
X285134031Y-60170001D01*
X285134031Y-60170001D02*
X285134031Y-60170001D01*
G36*
X292890032Y-60450000D02*
G01*
X285218031Y-60450000D01*
X285216335Y-60446554D01*
X285214749Y-60443218D01*
X285213273Y-60439992D01*
X285211905Y-60436875D01*
X285210648Y-60433867D01*
X285209499Y-60430968D01*
X285208460Y-60428179D01*
X285207530Y-60425499D01*
X285206710Y-60422929D01*
X285205999Y-60420468D01*
X285205398Y-60418117D01*
X285204906Y-60415875D01*
X285204523Y-60413742D01*
X285204250Y-60411719D01*
X285204086Y-60409805D01*
X285204031Y-60408000D01*
X285202335Y-60404500D01*
X285200749Y-60401000D01*
X285199273Y-60397500D01*
X285197905Y-60394000D01*
X285196648Y-60390500D01*
X285195499Y-60387000D01*
X285194460Y-60383500D01*
X285193530Y-60380000D01*
X285192710Y-60376500D01*
X285191999Y-60373000D01*
X285191398Y-60369500D01*
X285190906Y-60366000D01*
X285190523Y-60362500D01*
X285190250Y-60359000D01*
X285190086Y-60355500D01*
X285190031Y-60352000D01*
X285188335Y-60350196D01*
X285186749Y-60348282D01*
X285185273Y-60346258D01*
X285183905Y-60344126D01*
X285182648Y-60341884D01*
X285181499Y-60339532D01*
X285180460Y-60337071D01*
X285179531Y-60334501D01*
X285178710Y-60331821D01*
X285177999Y-60329032D01*
X285177398Y-60326134D01*
X285176906Y-60323126D01*
X285176523Y-60320009D01*
X285176250Y-60316782D01*
X285176086Y-60313446D01*
X285176031Y-60310000D01*
X285148031Y-60254001D01*
X285144750Y-60243501D01*
X285141906Y-60233001D01*
X285139499Y-60222501D01*
X285137531Y-60212001D01*
X285136000Y-60201501D01*
X285134906Y-60191001D01*
X285134250Y-60180501D01*
X285134031Y-60170001D01*
X285008032Y-59610000D01*
X292708033Y-59610000D01*
X292890032Y-60450000D01*
G37*
X292890032Y-60450000D02*
X285218031Y-60450000D01*
X285216335Y-60446554D01*
X285214749Y-60443218D01*
X285213273Y-60439992D01*
X285211905Y-60436875D01*
X285210648Y-60433867D01*
X285209499Y-60430968D01*
X285208460Y-60428179D01*
X285207530Y-60425499D01*
X285206710Y-60422929D01*
X285205999Y-60420468D01*
X285205398Y-60418117D01*
X285204906Y-60415875D01*
X285204523Y-60413742D01*
X285204250Y-60411719D01*
X285204086Y-60409805D01*
X285204031Y-60408000D01*
X285202335Y-60404500D01*
X285200749Y-60401000D01*
X285199273Y-60397500D01*
X285197905Y-60394000D01*
X285196648Y-60390500D01*
X285195499Y-60387000D01*
X285194460Y-60383500D01*
X285193530Y-60380000D01*
X285192710Y-60376500D01*
X285191999Y-60373000D01*
X285191398Y-60369500D01*
X285190906Y-60366000D01*
X285190523Y-60362500D01*
X285190250Y-60359000D01*
X285190086Y-60355500D01*
X285190031Y-60352000D01*
X285188335Y-60350196D01*
X285186749Y-60348282D01*
X285185273Y-60346258D01*
X285183905Y-60344126D01*
X285182648Y-60341884D01*
X285181499Y-60339532D01*
X285180460Y-60337071D01*
X285179531Y-60334501D01*
X285178710Y-60331821D01*
X285177999Y-60329032D01*
X285177398Y-60326134D01*
X285176906Y-60323126D01*
X285176523Y-60320009D01*
X285176250Y-60316782D01*
X285176086Y-60313446D01*
X285176031Y-60310000D01*
X285148031Y-60254001D01*
X285144750Y-60243501D01*
X285141906Y-60233001D01*
X285139499Y-60222501D01*
X285137531Y-60212001D01*
X285136000Y-60201501D01*
X285134906Y-60191001D01*
X285134250Y-60180501D01*
X285134031Y-60170001D01*
X285008032Y-59610000D01*
X292708033Y-59610000D01*
X292890032Y-60450000D01*
X322177983Y-61570006D02*
X321995983Y-60730006D01*
X321995983Y-60730006D02*
X319895983Y-60730006D01*
X319895983Y-60730006D02*
X320077983Y-61570006D01*
X320077983Y-61570006D02*
X322177983Y-61570006D01*
X322177983Y-61570006D02*
X322177983Y-61570006D01*
G36*
X322177983Y-61570006D02*
G01*
X320077983Y-61570006D01*
X319895983Y-60730006D01*
X321995983Y-60730006D01*
X322177983Y-61570006D01*
G37*
X322177983Y-61570006D02*
X320077983Y-61570006D01*
X319895983Y-60730006D01*
X321995983Y-60730006D01*
X322177983Y-61570006D01*
X316017983Y-61570006D02*
X317697984Y-61570006D01*
X317697984Y-61570006D02*
X317921984Y-60730006D01*
X317921984Y-60730006D02*
X315429983Y-60730006D01*
X315429983Y-60730006D02*
X316017983Y-61570006D01*
X316017983Y-61570006D02*
X316017983Y-61570006D01*
G36*
X317697984Y-61570006D02*
G01*
X316017983Y-61570006D01*
X315429983Y-60730006D01*
X317921984Y-60730006D01*
X317697984Y-61570006D01*
G37*
X317697984Y-61570006D02*
X316017983Y-61570006D01*
X315429983Y-60730006D01*
X317921984Y-60730006D01*
X317697984Y-61570006D01*
X328827964Y-53730001D02*
X328645964Y-52890000D01*
X328645964Y-52890000D02*
X326545964Y-52890000D01*
X326545964Y-52890000D02*
X326727964Y-53730001D01*
X326727964Y-53730001D02*
X328827964Y-53730001D01*
X328827964Y-53730001D02*
X328827964Y-53730001D01*
G36*
X328827964Y-53730001D02*
G01*
X326727964Y-53730001D01*
X326545964Y-52890000D01*
X328645964Y-52890000D01*
X328827964Y-53730001D01*
G37*
X328827964Y-53730001D02*
X326727964Y-53730001D01*
X326545964Y-52890000D01*
X328645964Y-52890000D01*
X328827964Y-53730001D01*
X312685985Y-57090003D02*
X312601986Y-56670003D01*
X312601986Y-56670003D02*
X312895986Y-57090003D01*
X312895986Y-57090003D02*
X315275987Y-57090003D01*
X315275987Y-57090003D02*
X314673986Y-56250003D01*
X314673986Y-56250003D02*
X310403986Y-56250003D01*
X310403986Y-56250003D02*
X310585985Y-57090003D01*
X310585985Y-57090003D02*
X312685985Y-57090003D01*
X312685985Y-57090003D02*
X312685985Y-57090003D01*
G36*
X315275987Y-57090003D02*
G01*
X312895986Y-57090003D01*
X312601986Y-56670003D01*
X312685985Y-57090003D01*
X310585985Y-57090003D01*
X310403986Y-56250003D01*
X314673986Y-56250003D01*
X315275987Y-57090003D01*
G37*
X315275987Y-57090003D02*
X312895986Y-57090003D01*
X312601986Y-56670003D01*
X312685985Y-57090003D01*
X310585985Y-57090003D01*
X310403986Y-56250003D01*
X314673986Y-56250003D01*
X315275987Y-57090003D01*
X289376032Y-57089999D02*
X289194033Y-56249999D01*
X289194033Y-56249999D02*
X285694033Y-56249999D01*
X285694033Y-56249999D02*
X285579791Y-56253280D01*
X285579791Y-56253280D02*
X285471564Y-56263124D01*
X285471564Y-56263124D02*
X285369354Y-56279530D01*
X285369354Y-56279530D02*
X285273158Y-56302499D01*
X285273158Y-56302499D02*
X285227317Y-56316445D01*
X285227317Y-56316445D02*
X285182979Y-56332030D01*
X285182979Y-56332030D02*
X285140145Y-56349257D01*
X285140145Y-56349257D02*
X285098815Y-56368124D01*
X285098815Y-56368124D02*
X285058989Y-56388632D01*
X285058989Y-56388632D02*
X285020666Y-56410781D01*
X285020666Y-56410781D02*
X284983848Y-56434570D01*
X284983848Y-56434570D02*
X284948533Y-56459999D01*
X284948533Y-56459999D02*
X284914723Y-56487070D01*
X284914723Y-56487070D02*
X284882416Y-56515781D01*
X284882416Y-56515781D02*
X284851614Y-56546132D01*
X284851614Y-56546132D02*
X284822315Y-56578124D01*
X284822315Y-56578124D02*
X284794520Y-56611757D01*
X284794520Y-56611757D02*
X284768229Y-56647031D01*
X284768229Y-56647031D02*
X284743442Y-56683945D01*
X284743442Y-56683945D02*
X284720158Y-56722499D01*
X284720158Y-56722499D02*
X284698379Y-56762695D01*
X284698379Y-56762695D02*
X284678104Y-56804531D01*
X284678104Y-56804531D02*
X284659332Y-56848007D01*
X284659332Y-56848007D02*
X284642065Y-56893124D01*
X284642065Y-56893124D02*
X284612041Y-56988281D01*
X284612041Y-56988281D02*
X284588034Y-57089999D01*
X284588034Y-57089999D02*
X289376032Y-57089999D01*
X289376032Y-57089999D02*
X289376032Y-57089999D01*
G36*
X289376032Y-57089999D02*
G01*
X284588034Y-57089999D01*
X284612041Y-56988281D01*
X284642065Y-56893124D01*
X284659332Y-56848007D01*
X284678104Y-56804531D01*
X284698379Y-56762695D01*
X284720158Y-56722499D01*
X284743442Y-56683945D01*
X284768229Y-56647031D01*
X284794520Y-56611757D01*
X284822315Y-56578124D01*
X284851614Y-56546132D01*
X284882416Y-56515781D01*
X284914723Y-56487070D01*
X284948533Y-56459999D01*
X284983848Y-56434570D01*
X285020666Y-56410781D01*
X285058989Y-56388632D01*
X285098815Y-56368124D01*
X285140145Y-56349257D01*
X285182979Y-56332030D01*
X285227317Y-56316445D01*
X285273158Y-56302499D01*
X285369354Y-56279530D01*
X285471564Y-56263124D01*
X285579791Y-56253280D01*
X285694033Y-56249999D01*
X289194033Y-56249999D01*
X289376032Y-57089999D01*
G37*
X289376032Y-57089999D02*
X284588034Y-57089999D01*
X284612041Y-56988281D01*
X284642065Y-56893124D01*
X284659332Y-56848007D01*
X284678104Y-56804531D01*
X284698379Y-56762695D01*
X284720158Y-56722499D01*
X284743442Y-56683945D01*
X284768229Y-56647031D01*
X284794520Y-56611757D01*
X284822315Y-56578124D01*
X284851614Y-56546132D01*
X284882416Y-56515781D01*
X284914723Y-56487070D01*
X284948533Y-56459999D01*
X284983848Y-56434570D01*
X285020666Y-56410781D01*
X285058989Y-56388632D01*
X285098815Y-56368124D01*
X285140145Y-56349257D01*
X285182979Y-56332030D01*
X285227317Y-56316445D01*
X285273158Y-56302499D01*
X285369354Y-56279530D01*
X285471564Y-56263124D01*
X285579791Y-56253280D01*
X285694033Y-56249999D01*
X289194033Y-56249999D01*
X289376032Y-57089999D01*
X306903995Y-55970002D02*
X307043995Y-55690002D01*
X307043995Y-55690002D02*
X307099995Y-55970002D01*
X307099995Y-55970002D02*
X309199995Y-55970002D01*
X309199995Y-55970002D02*
X309017996Y-55130002D01*
X309017996Y-55130002D02*
X304523996Y-55130002D01*
X304523996Y-55130002D02*
X304103996Y-55970002D01*
X304103996Y-55970002D02*
X306903995Y-55970002D01*
X306903995Y-55970002D02*
X306903995Y-55970002D01*
G36*
X309199995Y-55970002D02*
G01*
X307099995Y-55970002D01*
X307043995Y-55690002D01*
X306903995Y-55970002D01*
X304103996Y-55970002D01*
X304523996Y-55130002D01*
X309017996Y-55130002D01*
X309199995Y-55970002D01*
G37*
X309199995Y-55970002D02*
X307099995Y-55970002D01*
X307043995Y-55690002D01*
X306903995Y-55970002D01*
X304103996Y-55970002D01*
X304523996Y-55130002D01*
X309017996Y-55130002D01*
X309199995Y-55970002D01*
X285358030Y-60730001D02*
X285426116Y-60831719D01*
X285426116Y-60831719D02*
X285497374Y-60926875D01*
X285497374Y-60926875D02*
X285571804Y-61015469D01*
X285571804Y-61015469D02*
X285610209Y-61057305D01*
X285610209Y-61057305D02*
X285649406Y-61097500D01*
X285649406Y-61097500D02*
X285689396Y-61136055D01*
X285689396Y-61136055D02*
X285730180Y-61172969D01*
X285730180Y-61172969D02*
X285771756Y-61208243D01*
X285771756Y-61208243D02*
X285814125Y-61241875D01*
X285814125Y-61241875D02*
X285857287Y-61273868D01*
X285857287Y-61273868D02*
X285901243Y-61304219D01*
X285901243Y-61304219D02*
X285945991Y-61332930D01*
X285945991Y-61332930D02*
X285991532Y-61360000D01*
X285991532Y-61360000D02*
X286037866Y-61385430D01*
X286037866Y-61385430D02*
X286084993Y-61409219D01*
X286084993Y-61409219D02*
X286132913Y-61431368D01*
X286132913Y-61431368D02*
X286181626Y-61451875D01*
X286181626Y-61451875D02*
X286231132Y-61470743D01*
X286231132Y-61470743D02*
X286281430Y-61487969D01*
X286281430Y-61487969D02*
X286332522Y-61503555D01*
X286332522Y-61503555D02*
X286384407Y-61517501D01*
X286384407Y-61517501D02*
X286437085Y-61529805D01*
X286437085Y-61529805D02*
X286490555Y-61540469D01*
X286490555Y-61540469D02*
X286544819Y-61549493D01*
X286544819Y-61549493D02*
X286599876Y-61556876D01*
X286599876Y-61556876D02*
X286655725Y-61562618D01*
X286655725Y-61562618D02*
X286712368Y-61566719D01*
X286712368Y-61566719D02*
X286828031Y-61570001D01*
X286828031Y-61570001D02*
X293128031Y-61570001D01*
X293128031Y-61570001D02*
X292946032Y-60730001D01*
X292946032Y-60730001D02*
X285358030Y-60730001D01*
X285358030Y-60730001D02*
X285358030Y-60730001D01*
G36*
X293128031Y-61570001D02*
G01*
X286828031Y-61570001D01*
X286712368Y-61566719D01*
X286655725Y-61562618D01*
X286599876Y-61556876D01*
X286544819Y-61549493D01*
X286490555Y-61540469D01*
X286437085Y-61529805D01*
X286384407Y-61517501D01*
X286332522Y-61503555D01*
X286281430Y-61487969D01*
X286231132Y-61470743D01*
X286181626Y-61451875D01*
X286132913Y-61431368D01*
X286084993Y-61409219D01*
X286037866Y-61385430D01*
X285991532Y-61360000D01*
X285945991Y-61332930D01*
X285901243Y-61304219D01*
X285857287Y-61273868D01*
X285814125Y-61241875D01*
X285771756Y-61208243D01*
X285730180Y-61172969D01*
X285689396Y-61136055D01*
X285649406Y-61097500D01*
X285610209Y-61057305D01*
X285571804Y-61015469D01*
X285497374Y-60926875D01*
X285426116Y-60831719D01*
X285358030Y-60730001D01*
X292946032Y-60730001D01*
X293128031Y-61570001D01*
G37*
X293128031Y-61570001D02*
X286828031Y-61570001D01*
X286712368Y-61566719D01*
X286655725Y-61562618D01*
X286599876Y-61556876D01*
X286544819Y-61549493D01*
X286490555Y-61540469D01*
X286437085Y-61529805D01*
X286384407Y-61517501D01*
X286332522Y-61503555D01*
X286281430Y-61487969D01*
X286231132Y-61470743D01*
X286181626Y-61451875D01*
X286132913Y-61431368D01*
X286084993Y-61409219D01*
X286037866Y-61385430D01*
X285991532Y-61360000D01*
X285945991Y-61332930D01*
X285901243Y-61304219D01*
X285857287Y-61273868D01*
X285814125Y-61241875D01*
X285771756Y-61208243D01*
X285730180Y-61172969D01*
X285689396Y-61136055D01*
X285649406Y-61097500D01*
X285610209Y-61057305D01*
X285571804Y-61015469D01*
X285497374Y-60926875D01*
X285426116Y-60831719D01*
X285358030Y-60730001D01*
X292946032Y-60730001D01*
X293128031Y-61570001D01*
X310151995Y-60450006D02*
X309969995Y-59610005D01*
X309969995Y-59610005D02*
X307869995Y-59610005D01*
X307869995Y-59610005D02*
X308051994Y-60450006D01*
X308051994Y-60450006D02*
X310151995Y-60450006D01*
X310151995Y-60450006D02*
X310151995Y-60450006D01*
G36*
X310151995Y-60450006D02*
G01*
X308051994Y-60450006D01*
X307869995Y-59610005D01*
X309969995Y-59610005D01*
X310151995Y-60450006D01*
G37*
X310151995Y-60450006D02*
X308051994Y-60450006D01*
X307869995Y-59610005D01*
X309969995Y-59610005D01*
X310151995Y-60450006D01*
X305769995Y-58210004D02*
X306189995Y-57370004D01*
X306189995Y-57370004D02*
X303389996Y-57370004D01*
X303389996Y-57370004D02*
X303249996Y-57650004D01*
X303249996Y-57650004D02*
X303193996Y-57370004D01*
X303193996Y-57370004D02*
X301093996Y-57370004D01*
X301093996Y-57370004D02*
X301275995Y-58210004D01*
X301275995Y-58210004D02*
X305769995Y-58210004D01*
X305769995Y-58210004D02*
X305769995Y-58210004D01*
G36*
X303249996Y-57650004D02*
G01*
X303389996Y-57370004D01*
X306189995Y-57370004D01*
X305769995Y-58210004D01*
X301275995Y-58210004D01*
X301093996Y-57370004D01*
X303193996Y-57370004D01*
X303249996Y-57650004D01*
G37*
X303249996Y-57650004D02*
X303389996Y-57370004D01*
X306189995Y-57370004D01*
X305769995Y-58210004D01*
X301275995Y-58210004D01*
X301093996Y-57370004D01*
X303193996Y-57370004D01*
X303249996Y-57650004D01*
X318621984Y-58210004D02*
X318845984Y-57370004D01*
X318845984Y-57370004D02*
X316465984Y-57370004D01*
X316465984Y-57370004D02*
X316241984Y-58210004D01*
X316241984Y-58210004D02*
X318621984Y-58210004D01*
X318621984Y-58210004D02*
X318621984Y-58210004D01*
G36*
X318621984Y-58210004D02*
G01*
X316241984Y-58210004D01*
X316465984Y-57370004D01*
X318845984Y-57370004D01*
X318621984Y-58210004D01*
G37*
X318621984Y-58210004D02*
X316241984Y-58210004D01*
X316465984Y-57370004D01*
X318845984Y-57370004D01*
X318621984Y-58210004D01*
X309675995Y-58210004D02*
X309493996Y-57370004D01*
X309493996Y-57370004D02*
X307393995Y-57370004D01*
X307393995Y-57370004D02*
X307575994Y-58210004D01*
X307575994Y-58210004D02*
X309675995Y-58210004D01*
X309675995Y-58210004D02*
X309675995Y-58210004D01*
G36*
X309675995Y-58210004D02*
G01*
X307575994Y-58210004D01*
X307393995Y-57370004D01*
X309493996Y-57370004D01*
X309675995Y-58210004D01*
G37*
X309675995Y-58210004D02*
X307575994Y-58210004D01*
X307393995Y-57370004D01*
X309493996Y-57370004D01*
X309675995Y-58210004D01*
X312923984Y-58210004D02*
X312741985Y-57370004D01*
X312741985Y-57370004D02*
X310641985Y-57370004D01*
X310641985Y-57370004D02*
X310823984Y-58210004D01*
X310823984Y-58210004D02*
X312923984Y-58210004D01*
X312923984Y-58210004D02*
X312923984Y-58210004D01*
G36*
X312923984Y-58210004D02*
G01*
X310823984Y-58210004D01*
X310641985Y-57370004D01*
X312741985Y-57370004D01*
X312923984Y-58210004D01*
G37*
X312923984Y-58210004D02*
X310823984Y-58210004D01*
X310641985Y-57370004D01*
X312741985Y-57370004D01*
X312923984Y-58210004D01*
X313707986Y-54850001D02*
X313119986Y-54010001D01*
X313119986Y-54010001D02*
X309927986Y-54010001D01*
X309927986Y-54010001D02*
X310109985Y-54850001D01*
X310109985Y-54850001D02*
X313707986Y-54850001D01*
X313707986Y-54850001D02*
X313707986Y-54850001D01*
G36*
X313707986Y-54850001D02*
G01*
X310109985Y-54850001D01*
X309927986Y-54010001D01*
X313119986Y-54010001D01*
X313707986Y-54850001D01*
G37*
X313707986Y-54850001D02*
X310109985Y-54850001D01*
X309927986Y-54010001D01*
X313119986Y-54010001D01*
X313707986Y-54850001D01*
X310389994Y-61570006D02*
X310207994Y-60730006D01*
X310207994Y-60730006D02*
X308107994Y-60730006D01*
X308107994Y-60730006D02*
X308289993Y-61570006D01*
X308289993Y-61570006D02*
X310389994Y-61570006D01*
X310389994Y-61570006D02*
X310389994Y-61570006D01*
G36*
X310389994Y-61570006D02*
G01*
X308289993Y-61570006D01*
X308107994Y-60730006D01*
X310207994Y-60730006D01*
X310389994Y-61570006D01*
G37*
X310389994Y-61570006D02*
X308289993Y-61570006D01*
X308107994Y-60730006D01*
X310207994Y-60730006D01*
X310389994Y-61570006D01*
X308485998Y-52610000D02*
X308303999Y-51769999D01*
X308303999Y-51769999D02*
X306203999Y-51769999D01*
X306203999Y-51769999D02*
X305783998Y-52610000D01*
X305783998Y-52610000D02*
X308485998Y-52610000D01*
X308485998Y-52610000D02*
X308485998Y-52610000D01*
G36*
X308485998Y-52610000D02*
G01*
X305783998Y-52610000D01*
X306203999Y-51769999D01*
X308303999Y-51769999D01*
X308485998Y-52610000D01*
G37*
X308485998Y-52610000D02*
X305783998Y-52610000D01*
X306203999Y-51769999D01*
X308303999Y-51769999D01*
X308485998Y-52610000D01*
X318915985Y-57090003D02*
X319041985Y-56670003D01*
X319041985Y-56670003D02*
X319125985Y-57090003D01*
X319125985Y-57090003D02*
X321225985Y-57090003D01*
X321225985Y-57090003D02*
X321043984Y-56250003D01*
X321043984Y-56250003D02*
X316773985Y-56250003D01*
X316773985Y-56250003D02*
X316535985Y-57090003D01*
X316535985Y-57090003D02*
X318915985Y-57090003D01*
X318915985Y-57090003D02*
X318915985Y-57090003D01*
G36*
X321225985Y-57090003D02*
G01*
X319125985Y-57090003D01*
X319041985Y-56670003D01*
X318915985Y-57090003D01*
X316535985Y-57090003D01*
X316773985Y-56250003D01*
X321043984Y-56250003D01*
X321225985Y-57090003D01*
G37*
X321225985Y-57090003D02*
X319125985Y-57090003D01*
X319041985Y-56670003D01*
X318915985Y-57090003D01*
X316535985Y-57090003D01*
X316773985Y-56250003D01*
X321043984Y-56250003D01*
X321225985Y-57090003D01*
X309437994Y-57090003D02*
X309255995Y-56250003D01*
X309255995Y-56250003D02*
X307155994Y-56250003D01*
X307155994Y-56250003D02*
X307337994Y-57090003D01*
X307337994Y-57090003D02*
X309437994Y-57090003D01*
X309437994Y-57090003D02*
X309437994Y-57090003D01*
G36*
X309437994Y-57090003D02*
G01*
X307337994Y-57090003D01*
X307155994Y-56250003D01*
X309255995Y-56250003D01*
X309437994Y-57090003D01*
G37*
X309437994Y-57090003D02*
X307337994Y-57090003D01*
X307155994Y-56250003D01*
X309255995Y-56250003D01*
X309437994Y-57090003D01*
X302899996Y-55970002D02*
X302717997Y-55130002D01*
X302717997Y-55130002D02*
X300617996Y-55130002D01*
X300617996Y-55130002D02*
X300799995Y-55970002D01*
X300799995Y-55970002D02*
X302899996Y-55970002D01*
X302899996Y-55970002D02*
X302899996Y-55970002D01*
G36*
X302899996Y-55970002D02*
G01*
X300799995Y-55970002D01*
X300617996Y-55130002D01*
X302717997Y-55130002D01*
X302899996Y-55970002D01*
G37*
X302899996Y-55970002D02*
X300799995Y-55970002D01*
X300617996Y-55130002D01*
X302717997Y-55130002D01*
X302899996Y-55970002D01*
X321939984Y-60450006D02*
X321757984Y-59610005D01*
X321757984Y-59610005D02*
X319657984Y-59610005D01*
X319657984Y-59610005D02*
X319839984Y-60450006D01*
X319839984Y-60450006D02*
X321939984Y-60450006D01*
X321939984Y-60450006D02*
X321939984Y-60450006D01*
G36*
X321939984Y-60450006D02*
G01*
X319839984Y-60450006D01*
X319657984Y-59610005D01*
X321757984Y-59610005D01*
X321939984Y-60450006D01*
G37*
X321939984Y-60450006D02*
X319839984Y-60450006D01*
X319657984Y-59610005D01*
X321757984Y-59610005D01*
X321939984Y-60450006D01*
X329065964Y-54850001D02*
X328883964Y-54010001D01*
X328883964Y-54010001D02*
X326783964Y-54010001D01*
X326783964Y-54010001D02*
X326965964Y-54850001D01*
X326965964Y-54850001D02*
X329065964Y-54850001D01*
X329065964Y-54850001D02*
X329065964Y-54850001D01*
G36*
X329065964Y-54850001D02*
G01*
X326965964Y-54850001D01*
X326783964Y-54010001D01*
X328883964Y-54010001D01*
X329065964Y-54850001D01*
G37*
X329065964Y-54850001D02*
X326965964Y-54850001D01*
X326783964Y-54010001D01*
X328883964Y-54010001D01*
X329065964Y-54850001D01*
X320749986Y-54850001D02*
X320567985Y-54010001D01*
X320567985Y-54010001D02*
X317375986Y-54010001D01*
X317375986Y-54010001D02*
X317151986Y-54850001D01*
X317151986Y-54850001D02*
X320749986Y-54850001D01*
X320749986Y-54850001D02*
X320749986Y-54850001D01*
G36*
X320749986Y-54850001D02*
G01*
X317151986Y-54850001D01*
X317375986Y-54010001D01*
X320567985Y-54010001D01*
X320749986Y-54850001D01*
G37*
X320749986Y-54850001D02*
X317151986Y-54850001D01*
X317375986Y-54010001D01*
X320567985Y-54010001D01*
X320749986Y-54850001D01*
X302661997Y-54850001D02*
X302479998Y-54010001D01*
X302479998Y-54010001D02*
X300379997Y-54010001D01*
X300379997Y-54010001D02*
X300561996Y-54850001D01*
X300561996Y-54850001D02*
X302661997Y-54850001D01*
X302661997Y-54850001D02*
X302661997Y-54850001D01*
G36*
X302661997Y-54850001D02*
G01*
X300561996Y-54850001D01*
X300379997Y-54010001D01*
X302479998Y-54010001D01*
X302661997Y-54850001D01*
G37*
X302661997Y-54850001D02*
X300561996Y-54850001D01*
X300379997Y-54010001D01*
X302479998Y-54010001D01*
X302661997Y-54850001D01*
D11*
%TO.C,D48*%
X274557380Y-113085714D02*
X273557380Y-113085714D01*
X273557380Y-113323809D01*
X273605000Y-113466666D01*
X273700238Y-113561904D01*
X273795476Y-113609523D01*
X273985952Y-113657142D01*
X274128809Y-113657142D01*
X274319285Y-113609523D01*
X274414523Y-113561904D01*
X274509761Y-113466666D01*
X274557380Y-113323809D01*
X274557380Y-113085714D01*
X273890714Y-114514285D02*
X274557380Y-114514285D01*
X273509761Y-114276190D02*
X274224047Y-114038095D01*
X274224047Y-114657142D01*
X273985952Y-115180952D02*
X273938333Y-115085714D01*
X273890714Y-115038095D01*
X273795476Y-114990476D01*
X273747857Y-114990476D01*
X273652619Y-115038095D01*
X273605000Y-115085714D01*
X273557380Y-115180952D01*
X273557380Y-115371428D01*
X273605000Y-115466666D01*
X273652619Y-115514285D01*
X273747857Y-115561904D01*
X273795476Y-115561904D01*
X273890714Y-115514285D01*
X273938333Y-115466666D01*
X273985952Y-115371428D01*
X273985952Y-115180952D01*
X274033571Y-115085714D01*
X274081190Y-115038095D01*
X274176428Y-114990476D01*
X274366904Y-114990476D01*
X274462142Y-115038095D01*
X274509761Y-115085714D01*
X274557380Y-115180952D01*
X274557380Y-115371428D01*
X274509761Y-115466666D01*
X274462142Y-115514285D01*
X274366904Y-115561904D01*
X274176428Y-115561904D01*
X274081190Y-115514285D01*
X274033571Y-115466666D01*
X273985952Y-115371428D01*
X274877380Y-110228095D02*
X273877380Y-110228095D01*
X274877380Y-110799523D02*
X274305952Y-110370952D01*
X273877380Y-110799523D02*
X274448809Y-110228095D01*
%TO.C,D47*%
X255507380Y-113085714D02*
X254507380Y-113085714D01*
X254507380Y-113323809D01*
X254555000Y-113466666D01*
X254650238Y-113561904D01*
X254745476Y-113609523D01*
X254935952Y-113657142D01*
X255078809Y-113657142D01*
X255269285Y-113609523D01*
X255364523Y-113561904D01*
X255459761Y-113466666D01*
X255507380Y-113323809D01*
X255507380Y-113085714D01*
X254840714Y-114514285D02*
X255507380Y-114514285D01*
X254459761Y-114276190D02*
X255174047Y-114038095D01*
X255174047Y-114657142D01*
X254507380Y-114942857D02*
X254507380Y-115609523D01*
X255507380Y-115180952D01*
X255827380Y-110228095D02*
X254827380Y-110228095D01*
X255827380Y-110799523D02*
X255255952Y-110370952D01*
X254827380Y-110799523D02*
X255398809Y-110228095D01*
%TO.C,D41*%
X141207380Y-113085714D02*
X140207380Y-113085714D01*
X140207380Y-113323809D01*
X140255000Y-113466666D01*
X140350238Y-113561904D01*
X140445476Y-113609523D01*
X140635952Y-113657142D01*
X140778809Y-113657142D01*
X140969285Y-113609523D01*
X141064523Y-113561904D01*
X141159761Y-113466666D01*
X141207380Y-113323809D01*
X141207380Y-113085714D01*
X140540714Y-114514285D02*
X141207380Y-114514285D01*
X140159761Y-114276190D02*
X140874047Y-114038095D01*
X140874047Y-114657142D01*
X141207380Y-115561904D02*
X141207380Y-114990476D01*
X141207380Y-115276190D02*
X140207380Y-115276190D01*
X140350238Y-115180952D01*
X140445476Y-115085714D01*
X140493095Y-114990476D01*
X141527380Y-110228095D02*
X140527380Y-110228095D01*
X141527380Y-110799523D02*
X140955952Y-110370952D01*
X140527380Y-110799523D02*
X141098809Y-110228095D01*
%TO.C,D21*%
X248864285Y-84057380D02*
X248864285Y-83057380D01*
X248626190Y-83057380D01*
X248483333Y-83105000D01*
X248388095Y-83200238D01*
X248340476Y-83295476D01*
X248292857Y-83485952D01*
X248292857Y-83628809D01*
X248340476Y-83819285D01*
X248388095Y-83914523D01*
X248483333Y-84009761D01*
X248626190Y-84057380D01*
X248864285Y-84057380D01*
X247911904Y-83152619D02*
X247864285Y-83105000D01*
X247769047Y-83057380D01*
X247530952Y-83057380D01*
X247435714Y-83105000D01*
X247388095Y-83152619D01*
X247340476Y-83247857D01*
X247340476Y-83343095D01*
X247388095Y-83485952D01*
X247959523Y-84057380D01*
X247340476Y-84057380D01*
X246388095Y-84057380D02*
X246959523Y-84057380D01*
X246673809Y-84057380D02*
X246673809Y-83057380D01*
X246769047Y-83200238D01*
X246864285Y-83295476D01*
X246959523Y-83343095D01*
X251721904Y-84377380D02*
X251721904Y-83377380D01*
X251150476Y-84377380D02*
X251579047Y-83805952D01*
X251150476Y-83377380D02*
X251721904Y-83948809D01*
%TO.C,D50*%
X312657380Y-113085714D02*
X311657380Y-113085714D01*
X311657380Y-113323809D01*
X311705000Y-113466666D01*
X311800238Y-113561904D01*
X311895476Y-113609523D01*
X312085952Y-113657142D01*
X312228809Y-113657142D01*
X312419285Y-113609523D01*
X312514523Y-113561904D01*
X312609761Y-113466666D01*
X312657380Y-113323809D01*
X312657380Y-113085714D01*
X311657380Y-114561904D02*
X311657380Y-114085714D01*
X312133571Y-114038095D01*
X312085952Y-114085714D01*
X312038333Y-114180952D01*
X312038333Y-114419047D01*
X312085952Y-114514285D01*
X312133571Y-114561904D01*
X312228809Y-114609523D01*
X312466904Y-114609523D01*
X312562142Y-114561904D01*
X312609761Y-114514285D01*
X312657380Y-114419047D01*
X312657380Y-114180952D01*
X312609761Y-114085714D01*
X312562142Y-114038095D01*
X311657380Y-115228571D02*
X311657380Y-115323809D01*
X311705000Y-115419047D01*
X311752619Y-115466666D01*
X311847857Y-115514285D01*
X312038333Y-115561904D01*
X312276428Y-115561904D01*
X312466904Y-115514285D01*
X312562142Y-115466666D01*
X312609761Y-115419047D01*
X312657380Y-115323809D01*
X312657380Y-115228571D01*
X312609761Y-115133333D01*
X312562142Y-115085714D01*
X312466904Y-115038095D01*
X312276428Y-114990476D01*
X312038333Y-114990476D01*
X311847857Y-115038095D01*
X311752619Y-115085714D01*
X311705000Y-115133333D01*
X311657380Y-115228571D01*
X312977380Y-110228095D02*
X311977380Y-110228095D01*
X312977380Y-110799523D02*
X312405952Y-110370952D01*
X311977380Y-110799523D02*
X312548809Y-110228095D01*
%TO.C,D30*%
X182189285Y-103107380D02*
X182189285Y-102107380D01*
X181951190Y-102107380D01*
X181808333Y-102155000D01*
X181713095Y-102250238D01*
X181665476Y-102345476D01*
X181617857Y-102535952D01*
X181617857Y-102678809D01*
X181665476Y-102869285D01*
X181713095Y-102964523D01*
X181808333Y-103059761D01*
X181951190Y-103107380D01*
X182189285Y-103107380D01*
X181284523Y-102107380D02*
X180665476Y-102107380D01*
X180998809Y-102488333D01*
X180855952Y-102488333D01*
X180760714Y-102535952D01*
X180713095Y-102583571D01*
X180665476Y-102678809D01*
X180665476Y-102916904D01*
X180713095Y-103012142D01*
X180760714Y-103059761D01*
X180855952Y-103107380D01*
X181141666Y-103107380D01*
X181236904Y-103059761D01*
X181284523Y-103012142D01*
X180046428Y-102107380D02*
X179951190Y-102107380D01*
X179855952Y-102155000D01*
X179808333Y-102202619D01*
X179760714Y-102297857D01*
X179713095Y-102488333D01*
X179713095Y-102726428D01*
X179760714Y-102916904D01*
X179808333Y-103012142D01*
X179855952Y-103059761D01*
X179951190Y-103107380D01*
X180046428Y-103107380D01*
X180141666Y-103059761D01*
X180189285Y-103012142D01*
X180236904Y-102916904D01*
X180284523Y-102726428D01*
X180284523Y-102488333D01*
X180236904Y-102297857D01*
X180189285Y-102202619D01*
X180141666Y-102155000D01*
X180046428Y-102107380D01*
X185046904Y-103427380D02*
X185046904Y-102427380D01*
X184475476Y-103427380D02*
X184904047Y-102855952D01*
X184475476Y-102427380D02*
X185046904Y-102998809D01*
%TO.C,D6*%
X231172380Y-37361904D02*
X230172380Y-37361904D01*
X230172380Y-37600000D01*
X230220000Y-37742857D01*
X230315238Y-37838095D01*
X230410476Y-37885714D01*
X230600952Y-37933333D01*
X230743809Y-37933333D01*
X230934285Y-37885714D01*
X231029523Y-37838095D01*
X231124761Y-37742857D01*
X231172380Y-37600000D01*
X231172380Y-37361904D01*
X230172380Y-38790476D02*
X230172380Y-38600000D01*
X230220000Y-38504761D01*
X230267619Y-38457142D01*
X230410476Y-38361904D01*
X230600952Y-38314285D01*
X230981904Y-38314285D01*
X231077142Y-38361904D01*
X231124761Y-38409523D01*
X231172380Y-38504761D01*
X231172380Y-38695238D01*
X231124761Y-38790476D01*
X231077142Y-38838095D01*
X230981904Y-38885714D01*
X230743809Y-38885714D01*
X230648571Y-38838095D01*
X230600952Y-38790476D01*
X230553333Y-38695238D01*
X230553333Y-38504761D01*
X230600952Y-38409523D01*
X230648571Y-38361904D01*
X230743809Y-38314285D01*
X230852380Y-41648095D02*
X229852380Y-41648095D01*
X230852380Y-42219523D02*
X230280952Y-41790952D01*
X229852380Y-42219523D02*
X230423809Y-41648095D01*
%TO.C,D34*%
X296489285Y-103107380D02*
X296489285Y-102107380D01*
X296251190Y-102107380D01*
X296108333Y-102155000D01*
X296013095Y-102250238D01*
X295965476Y-102345476D01*
X295917857Y-102535952D01*
X295917857Y-102678809D01*
X295965476Y-102869285D01*
X296013095Y-102964523D01*
X296108333Y-103059761D01*
X296251190Y-103107380D01*
X296489285Y-103107380D01*
X295584523Y-102107380D02*
X294965476Y-102107380D01*
X295298809Y-102488333D01*
X295155952Y-102488333D01*
X295060714Y-102535952D01*
X295013095Y-102583571D01*
X294965476Y-102678809D01*
X294965476Y-102916904D01*
X295013095Y-103012142D01*
X295060714Y-103059761D01*
X295155952Y-103107380D01*
X295441666Y-103107380D01*
X295536904Y-103059761D01*
X295584523Y-103012142D01*
X294108333Y-102440714D02*
X294108333Y-103107380D01*
X294346428Y-102059761D02*
X294584523Y-102774047D01*
X293965476Y-102774047D01*
X299346904Y-103427380D02*
X299346904Y-102427380D01*
X298775476Y-103427380D02*
X299204047Y-102855952D01*
X298775476Y-102427380D02*
X299346904Y-102998809D01*
%TO.C,D25*%
X325064285Y-84057380D02*
X325064285Y-83057380D01*
X324826190Y-83057380D01*
X324683333Y-83105000D01*
X324588095Y-83200238D01*
X324540476Y-83295476D01*
X324492857Y-83485952D01*
X324492857Y-83628809D01*
X324540476Y-83819285D01*
X324588095Y-83914523D01*
X324683333Y-84009761D01*
X324826190Y-84057380D01*
X325064285Y-84057380D01*
X324111904Y-83152619D02*
X324064285Y-83105000D01*
X323969047Y-83057380D01*
X323730952Y-83057380D01*
X323635714Y-83105000D01*
X323588095Y-83152619D01*
X323540476Y-83247857D01*
X323540476Y-83343095D01*
X323588095Y-83485952D01*
X324159523Y-84057380D01*
X323540476Y-84057380D01*
X322635714Y-83057380D02*
X323111904Y-83057380D01*
X323159523Y-83533571D01*
X323111904Y-83485952D01*
X323016666Y-83438333D01*
X322778571Y-83438333D01*
X322683333Y-83485952D01*
X322635714Y-83533571D01*
X322588095Y-83628809D01*
X322588095Y-83866904D01*
X322635714Y-83962142D01*
X322683333Y-84009761D01*
X322778571Y-84057380D01*
X323016666Y-84057380D01*
X323111904Y-84009761D01*
X323159523Y-83962142D01*
X327921904Y-84377380D02*
X327921904Y-83377380D01*
X327350476Y-84377380D02*
X327779047Y-83805952D01*
X327350476Y-83377380D02*
X327921904Y-83948809D01*
%TO.C,U6*%
X251079095Y-58656119D02*
X251079095Y-57846595D01*
X251126714Y-57751357D01*
X251174333Y-57703738D01*
X251269571Y-57656119D01*
X251460047Y-57656119D01*
X251555285Y-57703738D01*
X251602904Y-57751357D01*
X251650523Y-57846595D01*
X251650523Y-58656119D01*
X252555285Y-58656119D02*
X252364809Y-58656119D01*
X252269571Y-58608500D01*
X252221952Y-58560880D01*
X252126714Y-58418023D01*
X252079095Y-58227547D01*
X252079095Y-57846595D01*
X252126714Y-57751357D01*
X252174333Y-57703738D01*
X252269571Y-57656119D01*
X252460047Y-57656119D01*
X252555285Y-57703738D01*
X252602904Y-57751357D01*
X252650523Y-57846595D01*
X252650523Y-58084690D01*
X252602904Y-58179928D01*
X252555285Y-58227547D01*
X252460047Y-58275166D01*
X252269571Y-58275166D01*
X252174333Y-58227547D01*
X252126714Y-58179928D01*
X252079095Y-58084690D01*
%TO.C,D29*%
X163139285Y-103107380D02*
X163139285Y-102107380D01*
X162901190Y-102107380D01*
X162758333Y-102155000D01*
X162663095Y-102250238D01*
X162615476Y-102345476D01*
X162567857Y-102535952D01*
X162567857Y-102678809D01*
X162615476Y-102869285D01*
X162663095Y-102964523D01*
X162758333Y-103059761D01*
X162901190Y-103107380D01*
X163139285Y-103107380D01*
X162186904Y-102202619D02*
X162139285Y-102155000D01*
X162044047Y-102107380D01*
X161805952Y-102107380D01*
X161710714Y-102155000D01*
X161663095Y-102202619D01*
X161615476Y-102297857D01*
X161615476Y-102393095D01*
X161663095Y-102535952D01*
X162234523Y-103107380D01*
X161615476Y-103107380D01*
X161139285Y-103107380D02*
X160948809Y-103107380D01*
X160853571Y-103059761D01*
X160805952Y-103012142D01*
X160710714Y-102869285D01*
X160663095Y-102678809D01*
X160663095Y-102297857D01*
X160710714Y-102202619D01*
X160758333Y-102155000D01*
X160853571Y-102107380D01*
X161044047Y-102107380D01*
X161139285Y-102155000D01*
X161186904Y-102202619D01*
X161234523Y-102297857D01*
X161234523Y-102535952D01*
X161186904Y-102631190D01*
X161139285Y-102678809D01*
X161044047Y-102726428D01*
X160853571Y-102726428D01*
X160758333Y-102678809D01*
X160710714Y-102631190D01*
X160663095Y-102535952D01*
X165996904Y-103427380D02*
X165996904Y-102427380D01*
X165425476Y-103427380D02*
X165854047Y-102855952D01*
X165425476Y-102427380D02*
X165996904Y-102998809D01*
%TO.C,D9*%
X316897380Y-37361904D02*
X315897380Y-37361904D01*
X315897380Y-37600000D01*
X315945000Y-37742857D01*
X316040238Y-37838095D01*
X316135476Y-37885714D01*
X316325952Y-37933333D01*
X316468809Y-37933333D01*
X316659285Y-37885714D01*
X316754523Y-37838095D01*
X316849761Y-37742857D01*
X316897380Y-37600000D01*
X316897380Y-37361904D01*
X316897380Y-38409523D02*
X316897380Y-38600000D01*
X316849761Y-38695238D01*
X316802142Y-38742857D01*
X316659285Y-38838095D01*
X316468809Y-38885714D01*
X316087857Y-38885714D01*
X315992619Y-38838095D01*
X315945000Y-38790476D01*
X315897380Y-38695238D01*
X315897380Y-38504761D01*
X315945000Y-38409523D01*
X315992619Y-38361904D01*
X316087857Y-38314285D01*
X316325952Y-38314285D01*
X316421190Y-38361904D01*
X316468809Y-38409523D01*
X316516428Y-38504761D01*
X316516428Y-38695238D01*
X316468809Y-38790476D01*
X316421190Y-38838095D01*
X316325952Y-38885714D01*
X316577380Y-41648095D02*
X315577380Y-41648095D01*
X316577380Y-42219523D02*
X316005952Y-41790952D01*
X315577380Y-42219523D02*
X316148809Y-41648095D01*
%TO.C,D39*%
X103107380Y-113085714D02*
X102107380Y-113085714D01*
X102107380Y-113323809D01*
X102155000Y-113466666D01*
X102250238Y-113561904D01*
X102345476Y-113609523D01*
X102535952Y-113657142D01*
X102678809Y-113657142D01*
X102869285Y-113609523D01*
X102964523Y-113561904D01*
X103059761Y-113466666D01*
X103107380Y-113323809D01*
X103107380Y-113085714D01*
X102107380Y-113990476D02*
X102107380Y-114609523D01*
X102488333Y-114276190D01*
X102488333Y-114419047D01*
X102535952Y-114514285D01*
X102583571Y-114561904D01*
X102678809Y-114609523D01*
X102916904Y-114609523D01*
X103012142Y-114561904D01*
X103059761Y-114514285D01*
X103107380Y-114419047D01*
X103107380Y-114133333D01*
X103059761Y-114038095D01*
X103012142Y-113990476D01*
X103107380Y-115085714D02*
X103107380Y-115276190D01*
X103059761Y-115371428D01*
X103012142Y-115419047D01*
X102869285Y-115514285D01*
X102678809Y-115561904D01*
X102297857Y-115561904D01*
X102202619Y-115514285D01*
X102155000Y-115466666D01*
X102107380Y-115371428D01*
X102107380Y-115180952D01*
X102155000Y-115085714D01*
X102202619Y-115038095D01*
X102297857Y-114990476D01*
X102535952Y-114990476D01*
X102631190Y-115038095D01*
X102678809Y-115085714D01*
X102726428Y-115180952D01*
X102726428Y-115371428D01*
X102678809Y-115466666D01*
X102631190Y-115514285D01*
X102535952Y-115561904D01*
X103427380Y-110228095D02*
X102427380Y-110228095D01*
X103427380Y-110799523D02*
X102855952Y-110370952D01*
X102427380Y-110799523D02*
X102998809Y-110228095D01*
%TO.C,D18*%
X191714285Y-84057380D02*
X191714285Y-83057380D01*
X191476190Y-83057380D01*
X191333333Y-83105000D01*
X191238095Y-83200238D01*
X191190476Y-83295476D01*
X191142857Y-83485952D01*
X191142857Y-83628809D01*
X191190476Y-83819285D01*
X191238095Y-83914523D01*
X191333333Y-84009761D01*
X191476190Y-84057380D01*
X191714285Y-84057380D01*
X190190476Y-84057380D02*
X190761904Y-84057380D01*
X190476190Y-84057380D02*
X190476190Y-83057380D01*
X190571428Y-83200238D01*
X190666666Y-83295476D01*
X190761904Y-83343095D01*
X189619047Y-83485952D02*
X189714285Y-83438333D01*
X189761904Y-83390714D01*
X189809523Y-83295476D01*
X189809523Y-83247857D01*
X189761904Y-83152619D01*
X189714285Y-83105000D01*
X189619047Y-83057380D01*
X189428571Y-83057380D01*
X189333333Y-83105000D01*
X189285714Y-83152619D01*
X189238095Y-83247857D01*
X189238095Y-83295476D01*
X189285714Y-83390714D01*
X189333333Y-83438333D01*
X189428571Y-83485952D01*
X189619047Y-83485952D01*
X189714285Y-83533571D01*
X189761904Y-83581190D01*
X189809523Y-83676428D01*
X189809523Y-83866904D01*
X189761904Y-83962142D01*
X189714285Y-84009761D01*
X189619047Y-84057380D01*
X189428571Y-84057380D01*
X189333333Y-84009761D01*
X189285714Y-83962142D01*
X189238095Y-83866904D01*
X189238095Y-83676428D01*
X189285714Y-83581190D01*
X189333333Y-83533571D01*
X189428571Y-83485952D01*
X194571904Y-84377380D02*
X194571904Y-83377380D01*
X194000476Y-84377380D02*
X194429047Y-83805952D01*
X194000476Y-83377380D02*
X194571904Y-83948809D01*
%TO.C,D28*%
X125039285Y-103107380D02*
X125039285Y-102107380D01*
X124801190Y-102107380D01*
X124658333Y-102155000D01*
X124563095Y-102250238D01*
X124515476Y-102345476D01*
X124467857Y-102535952D01*
X124467857Y-102678809D01*
X124515476Y-102869285D01*
X124563095Y-102964523D01*
X124658333Y-103059761D01*
X124801190Y-103107380D01*
X125039285Y-103107380D01*
X124086904Y-102202619D02*
X124039285Y-102155000D01*
X123944047Y-102107380D01*
X123705952Y-102107380D01*
X123610714Y-102155000D01*
X123563095Y-102202619D01*
X123515476Y-102297857D01*
X123515476Y-102393095D01*
X123563095Y-102535952D01*
X124134523Y-103107380D01*
X123515476Y-103107380D01*
X122944047Y-102535952D02*
X123039285Y-102488333D01*
X123086904Y-102440714D01*
X123134523Y-102345476D01*
X123134523Y-102297857D01*
X123086904Y-102202619D01*
X123039285Y-102155000D01*
X122944047Y-102107380D01*
X122753571Y-102107380D01*
X122658333Y-102155000D01*
X122610714Y-102202619D01*
X122563095Y-102297857D01*
X122563095Y-102345476D01*
X122610714Y-102440714D01*
X122658333Y-102488333D01*
X122753571Y-102535952D01*
X122944047Y-102535952D01*
X123039285Y-102583571D01*
X123086904Y-102631190D01*
X123134523Y-102726428D01*
X123134523Y-102916904D01*
X123086904Y-103012142D01*
X123039285Y-103059761D01*
X122944047Y-103107380D01*
X122753571Y-103107380D01*
X122658333Y-103059761D01*
X122610714Y-103012142D01*
X122563095Y-102916904D01*
X122563095Y-102726428D01*
X122610714Y-102631190D01*
X122658333Y-102583571D01*
X122753571Y-102535952D01*
X127896904Y-103427380D02*
X127896904Y-102427380D01*
X127325476Y-103427380D02*
X127754047Y-102855952D01*
X127325476Y-102427380D02*
X127896904Y-102998809D01*
%TO.C,D33*%
X258389285Y-103107380D02*
X258389285Y-102107380D01*
X258151190Y-102107380D01*
X258008333Y-102155000D01*
X257913095Y-102250238D01*
X257865476Y-102345476D01*
X257817857Y-102535952D01*
X257817857Y-102678809D01*
X257865476Y-102869285D01*
X257913095Y-102964523D01*
X258008333Y-103059761D01*
X258151190Y-103107380D01*
X258389285Y-103107380D01*
X257484523Y-102107380D02*
X256865476Y-102107380D01*
X257198809Y-102488333D01*
X257055952Y-102488333D01*
X256960714Y-102535952D01*
X256913095Y-102583571D01*
X256865476Y-102678809D01*
X256865476Y-102916904D01*
X256913095Y-103012142D01*
X256960714Y-103059761D01*
X257055952Y-103107380D01*
X257341666Y-103107380D01*
X257436904Y-103059761D01*
X257484523Y-103012142D01*
X256532142Y-102107380D02*
X255913095Y-102107380D01*
X256246428Y-102488333D01*
X256103571Y-102488333D01*
X256008333Y-102535952D01*
X255960714Y-102583571D01*
X255913095Y-102678809D01*
X255913095Y-102916904D01*
X255960714Y-103012142D01*
X256008333Y-103059761D01*
X256103571Y-103107380D01*
X256389285Y-103107380D01*
X256484523Y-103059761D01*
X256532142Y-103012142D01*
X261246904Y-103427380D02*
X261246904Y-102427380D01*
X260675476Y-103427380D02*
X261104047Y-102855952D01*
X260675476Y-102427380D02*
X261246904Y-102998809D01*
%TO.C,D7*%
X259747380Y-37361904D02*
X258747380Y-37361904D01*
X258747380Y-37600000D01*
X258795000Y-37742857D01*
X258890238Y-37838095D01*
X258985476Y-37885714D01*
X259175952Y-37933333D01*
X259318809Y-37933333D01*
X259509285Y-37885714D01*
X259604523Y-37838095D01*
X259699761Y-37742857D01*
X259747380Y-37600000D01*
X259747380Y-37361904D01*
X258747380Y-38266666D02*
X258747380Y-38933333D01*
X259747380Y-38504761D01*
X259427380Y-41648095D02*
X258427380Y-41648095D01*
X259427380Y-42219523D02*
X258855952Y-41790952D01*
X258427380Y-42219523D02*
X258998809Y-41648095D01*
%TO.C,D12*%
X172664285Y-65007380D02*
X172664285Y-64007380D01*
X172426190Y-64007380D01*
X172283333Y-64055000D01*
X172188095Y-64150238D01*
X172140476Y-64245476D01*
X172092857Y-64435952D01*
X172092857Y-64578809D01*
X172140476Y-64769285D01*
X172188095Y-64864523D01*
X172283333Y-64959761D01*
X172426190Y-65007380D01*
X172664285Y-65007380D01*
X171140476Y-65007380D02*
X171711904Y-65007380D01*
X171426190Y-65007380D02*
X171426190Y-64007380D01*
X171521428Y-64150238D01*
X171616666Y-64245476D01*
X171711904Y-64293095D01*
X170759523Y-64102619D02*
X170711904Y-64055000D01*
X170616666Y-64007380D01*
X170378571Y-64007380D01*
X170283333Y-64055000D01*
X170235714Y-64102619D01*
X170188095Y-64197857D01*
X170188095Y-64293095D01*
X170235714Y-64435952D01*
X170807142Y-65007380D01*
X170188095Y-65007380D01*
X175521904Y-65327380D02*
X175521904Y-64327380D01*
X174950476Y-65327380D02*
X175379047Y-64755952D01*
X174950476Y-64327380D02*
X175521904Y-64898809D01*
%TO.C,D2*%
X153138095Y-45957380D02*
X153138095Y-44957380D01*
X152900000Y-44957380D01*
X152757142Y-45005000D01*
X152661904Y-45100238D01*
X152614285Y-45195476D01*
X152566666Y-45385952D01*
X152566666Y-45528809D01*
X152614285Y-45719285D01*
X152661904Y-45814523D01*
X152757142Y-45909761D01*
X152900000Y-45957380D01*
X153138095Y-45957380D01*
X152185714Y-45052619D02*
X152138095Y-45005000D01*
X152042857Y-44957380D01*
X151804761Y-44957380D01*
X151709523Y-45005000D01*
X151661904Y-45052619D01*
X151614285Y-45147857D01*
X151614285Y-45243095D01*
X151661904Y-45385952D01*
X152233333Y-45957380D01*
X151614285Y-45957380D01*
X156471904Y-46277380D02*
X156471904Y-45277380D01*
X155900476Y-46277380D02*
X156329047Y-45705952D01*
X155900476Y-45277380D02*
X156471904Y-45848809D01*
%TO.C,D46*%
X236457380Y-113085714D02*
X235457380Y-113085714D01*
X235457380Y-113323809D01*
X235505000Y-113466666D01*
X235600238Y-113561904D01*
X235695476Y-113609523D01*
X235885952Y-113657142D01*
X236028809Y-113657142D01*
X236219285Y-113609523D01*
X236314523Y-113561904D01*
X236409761Y-113466666D01*
X236457380Y-113323809D01*
X236457380Y-113085714D01*
X235790714Y-114514285D02*
X236457380Y-114514285D01*
X235409761Y-114276190D02*
X236124047Y-114038095D01*
X236124047Y-114657142D01*
X235457380Y-115466666D02*
X235457380Y-115276190D01*
X235505000Y-115180952D01*
X235552619Y-115133333D01*
X235695476Y-115038095D01*
X235885952Y-114990476D01*
X236266904Y-114990476D01*
X236362142Y-115038095D01*
X236409761Y-115085714D01*
X236457380Y-115180952D01*
X236457380Y-115371428D01*
X236409761Y-115466666D01*
X236362142Y-115514285D01*
X236266904Y-115561904D01*
X236028809Y-115561904D01*
X235933571Y-115514285D01*
X235885952Y-115466666D01*
X235838333Y-115371428D01*
X235838333Y-115180952D01*
X235885952Y-115085714D01*
X235933571Y-115038095D01*
X236028809Y-114990476D01*
X236777380Y-110228095D02*
X235777380Y-110228095D01*
X236777380Y-110799523D02*
X236205952Y-110370952D01*
X235777380Y-110799523D02*
X236348809Y-110228095D01*
%TO.C,D37*%
X65007380Y-113085714D02*
X64007380Y-113085714D01*
X64007380Y-113323809D01*
X64055000Y-113466666D01*
X64150238Y-113561904D01*
X64245476Y-113609523D01*
X64435952Y-113657142D01*
X64578809Y-113657142D01*
X64769285Y-113609523D01*
X64864523Y-113561904D01*
X64959761Y-113466666D01*
X65007380Y-113323809D01*
X65007380Y-113085714D01*
X64007380Y-113990476D02*
X64007380Y-114609523D01*
X64388333Y-114276190D01*
X64388333Y-114419047D01*
X64435952Y-114514285D01*
X64483571Y-114561904D01*
X64578809Y-114609523D01*
X64816904Y-114609523D01*
X64912142Y-114561904D01*
X64959761Y-114514285D01*
X65007380Y-114419047D01*
X65007380Y-114133333D01*
X64959761Y-114038095D01*
X64912142Y-113990476D01*
X64007380Y-114942857D02*
X64007380Y-115609523D01*
X65007380Y-115180952D01*
X65327380Y-110228095D02*
X64327380Y-110228095D01*
X65327380Y-110799523D02*
X64755952Y-110370952D01*
X64327380Y-110799523D02*
X64898809Y-110228095D01*
%TO.C,D23*%
X286964285Y-84057380D02*
X286964285Y-83057380D01*
X286726190Y-83057380D01*
X286583333Y-83105000D01*
X286488095Y-83200238D01*
X286440476Y-83295476D01*
X286392857Y-83485952D01*
X286392857Y-83628809D01*
X286440476Y-83819285D01*
X286488095Y-83914523D01*
X286583333Y-84009761D01*
X286726190Y-84057380D01*
X286964285Y-84057380D01*
X286011904Y-83152619D02*
X285964285Y-83105000D01*
X285869047Y-83057380D01*
X285630952Y-83057380D01*
X285535714Y-83105000D01*
X285488095Y-83152619D01*
X285440476Y-83247857D01*
X285440476Y-83343095D01*
X285488095Y-83485952D01*
X286059523Y-84057380D01*
X285440476Y-84057380D01*
X285107142Y-83057380D02*
X284488095Y-83057380D01*
X284821428Y-83438333D01*
X284678571Y-83438333D01*
X284583333Y-83485952D01*
X284535714Y-83533571D01*
X284488095Y-83628809D01*
X284488095Y-83866904D01*
X284535714Y-83962142D01*
X284583333Y-84009761D01*
X284678571Y-84057380D01*
X284964285Y-84057380D01*
X285059523Y-84009761D01*
X285107142Y-83962142D01*
X289821904Y-84377380D02*
X289821904Y-83377380D01*
X289250476Y-84377380D02*
X289679047Y-83805952D01*
X289250476Y-83377380D02*
X289821904Y-83948809D01*
%TO.C,D4*%
X191238095Y-45957380D02*
X191238095Y-44957380D01*
X191000000Y-44957380D01*
X190857142Y-45005000D01*
X190761904Y-45100238D01*
X190714285Y-45195476D01*
X190666666Y-45385952D01*
X190666666Y-45528809D01*
X190714285Y-45719285D01*
X190761904Y-45814523D01*
X190857142Y-45909761D01*
X191000000Y-45957380D01*
X191238095Y-45957380D01*
X189809523Y-45290714D02*
X189809523Y-45957380D01*
X190047619Y-44909761D02*
X190285714Y-45624047D01*
X189666666Y-45624047D01*
X194571904Y-46277380D02*
X194571904Y-45277380D01*
X194000476Y-46277380D02*
X194429047Y-45705952D01*
X194000476Y-45277380D02*
X194571904Y-45848809D01*
%TO.C,D16*%
X153614285Y-84057380D02*
X153614285Y-83057380D01*
X153376190Y-83057380D01*
X153233333Y-83105000D01*
X153138095Y-83200238D01*
X153090476Y-83295476D01*
X153042857Y-83485952D01*
X153042857Y-83628809D01*
X153090476Y-83819285D01*
X153138095Y-83914523D01*
X153233333Y-84009761D01*
X153376190Y-84057380D01*
X153614285Y-84057380D01*
X152090476Y-84057380D02*
X152661904Y-84057380D01*
X152376190Y-84057380D02*
X152376190Y-83057380D01*
X152471428Y-83200238D01*
X152566666Y-83295476D01*
X152661904Y-83343095D01*
X151233333Y-83057380D02*
X151423809Y-83057380D01*
X151519047Y-83105000D01*
X151566666Y-83152619D01*
X151661904Y-83295476D01*
X151709523Y-83485952D01*
X151709523Y-83866904D01*
X151661904Y-83962142D01*
X151614285Y-84009761D01*
X151519047Y-84057380D01*
X151328571Y-84057380D01*
X151233333Y-84009761D01*
X151185714Y-83962142D01*
X151138095Y-83866904D01*
X151138095Y-83628809D01*
X151185714Y-83533571D01*
X151233333Y-83485952D01*
X151328571Y-83438333D01*
X151519047Y-83438333D01*
X151614285Y-83485952D01*
X151661904Y-83533571D01*
X151709523Y-83628809D01*
X156471904Y-84377380D02*
X156471904Y-83377380D01*
X155900476Y-84377380D02*
X156329047Y-83805952D01*
X155900476Y-83377380D02*
X156471904Y-83948809D01*
%TO.C,D20*%
X229814285Y-84057380D02*
X229814285Y-83057380D01*
X229576190Y-83057380D01*
X229433333Y-83105000D01*
X229338095Y-83200238D01*
X229290476Y-83295476D01*
X229242857Y-83485952D01*
X229242857Y-83628809D01*
X229290476Y-83819285D01*
X229338095Y-83914523D01*
X229433333Y-84009761D01*
X229576190Y-84057380D01*
X229814285Y-84057380D01*
X228861904Y-83152619D02*
X228814285Y-83105000D01*
X228719047Y-83057380D01*
X228480952Y-83057380D01*
X228385714Y-83105000D01*
X228338095Y-83152619D01*
X228290476Y-83247857D01*
X228290476Y-83343095D01*
X228338095Y-83485952D01*
X228909523Y-84057380D01*
X228290476Y-84057380D01*
X227671428Y-83057380D02*
X227576190Y-83057380D01*
X227480952Y-83105000D01*
X227433333Y-83152619D01*
X227385714Y-83247857D01*
X227338095Y-83438333D01*
X227338095Y-83676428D01*
X227385714Y-83866904D01*
X227433333Y-83962142D01*
X227480952Y-84009761D01*
X227576190Y-84057380D01*
X227671428Y-84057380D01*
X227766666Y-84009761D01*
X227814285Y-83962142D01*
X227861904Y-83866904D01*
X227909523Y-83676428D01*
X227909523Y-83438333D01*
X227861904Y-83247857D01*
X227814285Y-83152619D01*
X227766666Y-83105000D01*
X227671428Y-83057380D01*
X232671904Y-84377380D02*
X232671904Y-83377380D01*
X232100476Y-84377380D02*
X232529047Y-83805952D01*
X232100476Y-83377380D02*
X232671904Y-83948809D01*
%TO.C,D24*%
X306014285Y-84057380D02*
X306014285Y-83057380D01*
X305776190Y-83057380D01*
X305633333Y-83105000D01*
X305538095Y-83200238D01*
X305490476Y-83295476D01*
X305442857Y-83485952D01*
X305442857Y-83628809D01*
X305490476Y-83819285D01*
X305538095Y-83914523D01*
X305633333Y-84009761D01*
X305776190Y-84057380D01*
X306014285Y-84057380D01*
X305061904Y-83152619D02*
X305014285Y-83105000D01*
X304919047Y-83057380D01*
X304680952Y-83057380D01*
X304585714Y-83105000D01*
X304538095Y-83152619D01*
X304490476Y-83247857D01*
X304490476Y-83343095D01*
X304538095Y-83485952D01*
X305109523Y-84057380D01*
X304490476Y-84057380D01*
X303633333Y-83390714D02*
X303633333Y-84057380D01*
X303871428Y-83009761D02*
X304109523Y-83724047D01*
X303490476Y-83724047D01*
X308871904Y-84377380D02*
X308871904Y-83377380D01*
X308300476Y-84377380D02*
X308729047Y-83805952D01*
X308300476Y-83377380D02*
X308871904Y-83948809D01*
%TO.C,D13*%
X191714285Y-65007380D02*
X191714285Y-64007380D01*
X191476190Y-64007380D01*
X191333333Y-64055000D01*
X191238095Y-64150238D01*
X191190476Y-64245476D01*
X191142857Y-64435952D01*
X191142857Y-64578809D01*
X191190476Y-64769285D01*
X191238095Y-64864523D01*
X191333333Y-64959761D01*
X191476190Y-65007380D01*
X191714285Y-65007380D01*
X190190476Y-65007380D02*
X190761904Y-65007380D01*
X190476190Y-65007380D02*
X190476190Y-64007380D01*
X190571428Y-64150238D01*
X190666666Y-64245476D01*
X190761904Y-64293095D01*
X189857142Y-64007380D02*
X189238095Y-64007380D01*
X189571428Y-64388333D01*
X189428571Y-64388333D01*
X189333333Y-64435952D01*
X189285714Y-64483571D01*
X189238095Y-64578809D01*
X189238095Y-64816904D01*
X189285714Y-64912142D01*
X189333333Y-64959761D01*
X189428571Y-65007380D01*
X189714285Y-65007380D01*
X189809523Y-64959761D01*
X189857142Y-64912142D01*
X194571904Y-65327380D02*
X194571904Y-64327380D01*
X194000476Y-65327380D02*
X194429047Y-64755952D01*
X194000476Y-64327380D02*
X194571904Y-64898809D01*
%TO.C,D5*%
X210288095Y-45957380D02*
X210288095Y-44957380D01*
X210050000Y-44957380D01*
X209907142Y-45005000D01*
X209811904Y-45100238D01*
X209764285Y-45195476D01*
X209716666Y-45385952D01*
X209716666Y-45528809D01*
X209764285Y-45719285D01*
X209811904Y-45814523D01*
X209907142Y-45909761D01*
X210050000Y-45957380D01*
X210288095Y-45957380D01*
X208811904Y-44957380D02*
X209288095Y-44957380D01*
X209335714Y-45433571D01*
X209288095Y-45385952D01*
X209192857Y-45338333D01*
X208954761Y-45338333D01*
X208859523Y-45385952D01*
X208811904Y-45433571D01*
X208764285Y-45528809D01*
X208764285Y-45766904D01*
X208811904Y-45862142D01*
X208859523Y-45909761D01*
X208954761Y-45957380D01*
X209192857Y-45957380D01*
X209288095Y-45909761D01*
X209335714Y-45862142D01*
X213621904Y-46277380D02*
X213621904Y-45277380D01*
X213050476Y-46277380D02*
X213479047Y-45705952D01*
X213050476Y-45277380D02*
X213621904Y-45848809D01*
%TO.C,D8*%
X288322380Y-37361904D02*
X287322380Y-37361904D01*
X287322380Y-37600000D01*
X287370000Y-37742857D01*
X287465238Y-37838095D01*
X287560476Y-37885714D01*
X287750952Y-37933333D01*
X287893809Y-37933333D01*
X288084285Y-37885714D01*
X288179523Y-37838095D01*
X288274761Y-37742857D01*
X288322380Y-37600000D01*
X288322380Y-37361904D01*
X287750952Y-38504761D02*
X287703333Y-38409523D01*
X287655714Y-38361904D01*
X287560476Y-38314285D01*
X287512857Y-38314285D01*
X287417619Y-38361904D01*
X287370000Y-38409523D01*
X287322380Y-38504761D01*
X287322380Y-38695238D01*
X287370000Y-38790476D01*
X287417619Y-38838095D01*
X287512857Y-38885714D01*
X287560476Y-38885714D01*
X287655714Y-38838095D01*
X287703333Y-38790476D01*
X287750952Y-38695238D01*
X287750952Y-38504761D01*
X287798571Y-38409523D01*
X287846190Y-38361904D01*
X287941428Y-38314285D01*
X288131904Y-38314285D01*
X288227142Y-38361904D01*
X288274761Y-38409523D01*
X288322380Y-38504761D01*
X288322380Y-38695238D01*
X288274761Y-38790476D01*
X288227142Y-38838095D01*
X288131904Y-38885714D01*
X287941428Y-38885714D01*
X287846190Y-38838095D01*
X287798571Y-38790476D01*
X287750952Y-38695238D01*
X288002380Y-41648095D02*
X287002380Y-41648095D01*
X288002380Y-42219523D02*
X287430952Y-41790952D01*
X287002380Y-42219523D02*
X287573809Y-41648095D01*
%TO.C,D10*%
X134564285Y-65007380D02*
X134564285Y-64007380D01*
X134326190Y-64007380D01*
X134183333Y-64055000D01*
X134088095Y-64150238D01*
X134040476Y-64245476D01*
X133992857Y-64435952D01*
X133992857Y-64578809D01*
X134040476Y-64769285D01*
X134088095Y-64864523D01*
X134183333Y-64959761D01*
X134326190Y-65007380D01*
X134564285Y-65007380D01*
X133040476Y-65007380D02*
X133611904Y-65007380D01*
X133326190Y-65007380D02*
X133326190Y-64007380D01*
X133421428Y-64150238D01*
X133516666Y-64245476D01*
X133611904Y-64293095D01*
X132421428Y-64007380D02*
X132326190Y-64007380D01*
X132230952Y-64055000D01*
X132183333Y-64102619D01*
X132135714Y-64197857D01*
X132088095Y-64388333D01*
X132088095Y-64626428D01*
X132135714Y-64816904D01*
X132183333Y-64912142D01*
X132230952Y-64959761D01*
X132326190Y-65007380D01*
X132421428Y-65007380D01*
X132516666Y-64959761D01*
X132564285Y-64912142D01*
X132611904Y-64816904D01*
X132659523Y-64626428D01*
X132659523Y-64388333D01*
X132611904Y-64197857D01*
X132564285Y-64102619D01*
X132516666Y-64055000D01*
X132421428Y-64007380D01*
X137421904Y-65327380D02*
X137421904Y-64327380D01*
X136850476Y-65327380D02*
X137279047Y-64755952D01*
X136850476Y-64327380D02*
X137421904Y-64898809D01*
%TO.C,D19*%
X210764285Y-84057380D02*
X210764285Y-83057380D01*
X210526190Y-83057380D01*
X210383333Y-83105000D01*
X210288095Y-83200238D01*
X210240476Y-83295476D01*
X210192857Y-83485952D01*
X210192857Y-83628809D01*
X210240476Y-83819285D01*
X210288095Y-83914523D01*
X210383333Y-84009761D01*
X210526190Y-84057380D01*
X210764285Y-84057380D01*
X209240476Y-84057380D02*
X209811904Y-84057380D01*
X209526190Y-84057380D02*
X209526190Y-83057380D01*
X209621428Y-83200238D01*
X209716666Y-83295476D01*
X209811904Y-83343095D01*
X208764285Y-84057380D02*
X208573809Y-84057380D01*
X208478571Y-84009761D01*
X208430952Y-83962142D01*
X208335714Y-83819285D01*
X208288095Y-83628809D01*
X208288095Y-83247857D01*
X208335714Y-83152619D01*
X208383333Y-83105000D01*
X208478571Y-83057380D01*
X208669047Y-83057380D01*
X208764285Y-83105000D01*
X208811904Y-83152619D01*
X208859523Y-83247857D01*
X208859523Y-83485952D01*
X208811904Y-83581190D01*
X208764285Y-83628809D01*
X208669047Y-83676428D01*
X208478571Y-83676428D01*
X208383333Y-83628809D01*
X208335714Y-83581190D01*
X208288095Y-83485952D01*
X213621904Y-84377380D02*
X213621904Y-83377380D01*
X213050476Y-84377380D02*
X213479047Y-83805952D01*
X213050476Y-83377380D02*
X213621904Y-83948809D01*
%TO.C,D44*%
X198357380Y-113085714D02*
X197357380Y-113085714D01*
X197357380Y-113323809D01*
X197405000Y-113466666D01*
X197500238Y-113561904D01*
X197595476Y-113609523D01*
X197785952Y-113657142D01*
X197928809Y-113657142D01*
X198119285Y-113609523D01*
X198214523Y-113561904D01*
X198309761Y-113466666D01*
X198357380Y-113323809D01*
X198357380Y-113085714D01*
X197690714Y-114514285D02*
X198357380Y-114514285D01*
X197309761Y-114276190D02*
X198024047Y-114038095D01*
X198024047Y-114657142D01*
X197690714Y-115466666D02*
X198357380Y-115466666D01*
X197309761Y-115228571D02*
X198024047Y-114990476D01*
X198024047Y-115609523D01*
X198677380Y-110228095D02*
X197677380Y-110228095D01*
X198677380Y-110799523D02*
X198105952Y-110370952D01*
X197677380Y-110799523D02*
X198248809Y-110228095D01*
%TO.C,D49*%
X293607380Y-113085714D02*
X292607380Y-113085714D01*
X292607380Y-113323809D01*
X292655000Y-113466666D01*
X292750238Y-113561904D01*
X292845476Y-113609523D01*
X293035952Y-113657142D01*
X293178809Y-113657142D01*
X293369285Y-113609523D01*
X293464523Y-113561904D01*
X293559761Y-113466666D01*
X293607380Y-113323809D01*
X293607380Y-113085714D01*
X292940714Y-114514285D02*
X293607380Y-114514285D01*
X292559761Y-114276190D02*
X293274047Y-114038095D01*
X293274047Y-114657142D01*
X293607380Y-115085714D02*
X293607380Y-115276190D01*
X293559761Y-115371428D01*
X293512142Y-115419047D01*
X293369285Y-115514285D01*
X293178809Y-115561904D01*
X292797857Y-115561904D01*
X292702619Y-115514285D01*
X292655000Y-115466666D01*
X292607380Y-115371428D01*
X292607380Y-115180952D01*
X292655000Y-115085714D01*
X292702619Y-115038095D01*
X292797857Y-114990476D01*
X293035952Y-114990476D01*
X293131190Y-115038095D01*
X293178809Y-115085714D01*
X293226428Y-115180952D01*
X293226428Y-115371428D01*
X293178809Y-115466666D01*
X293131190Y-115514285D01*
X293035952Y-115561904D01*
X293927380Y-110228095D02*
X292927380Y-110228095D01*
X293927380Y-110799523D02*
X293355952Y-110370952D01*
X292927380Y-110799523D02*
X293498809Y-110228095D01*
%TO.C,D31*%
X220289285Y-103107380D02*
X220289285Y-102107380D01*
X220051190Y-102107380D01*
X219908333Y-102155000D01*
X219813095Y-102250238D01*
X219765476Y-102345476D01*
X219717857Y-102535952D01*
X219717857Y-102678809D01*
X219765476Y-102869285D01*
X219813095Y-102964523D01*
X219908333Y-103059761D01*
X220051190Y-103107380D01*
X220289285Y-103107380D01*
X219384523Y-102107380D02*
X218765476Y-102107380D01*
X219098809Y-102488333D01*
X218955952Y-102488333D01*
X218860714Y-102535952D01*
X218813095Y-102583571D01*
X218765476Y-102678809D01*
X218765476Y-102916904D01*
X218813095Y-103012142D01*
X218860714Y-103059761D01*
X218955952Y-103107380D01*
X219241666Y-103107380D01*
X219336904Y-103059761D01*
X219384523Y-103012142D01*
X217813095Y-103107380D02*
X218384523Y-103107380D01*
X218098809Y-103107380D02*
X218098809Y-102107380D01*
X218194047Y-102250238D01*
X218289285Y-102345476D01*
X218384523Y-102393095D01*
X223146904Y-103427380D02*
X223146904Y-102427380D01*
X222575476Y-103427380D02*
X223004047Y-102855952D01*
X222575476Y-102427380D02*
X223146904Y-102998809D01*
%TO.C,D45*%
X217407380Y-113085714D02*
X216407380Y-113085714D01*
X216407380Y-113323809D01*
X216455000Y-113466666D01*
X216550238Y-113561904D01*
X216645476Y-113609523D01*
X216835952Y-113657142D01*
X216978809Y-113657142D01*
X217169285Y-113609523D01*
X217264523Y-113561904D01*
X217359761Y-113466666D01*
X217407380Y-113323809D01*
X217407380Y-113085714D01*
X216740714Y-114514285D02*
X217407380Y-114514285D01*
X216359761Y-114276190D02*
X217074047Y-114038095D01*
X217074047Y-114657142D01*
X216407380Y-115514285D02*
X216407380Y-115038095D01*
X216883571Y-114990476D01*
X216835952Y-115038095D01*
X216788333Y-115133333D01*
X216788333Y-115371428D01*
X216835952Y-115466666D01*
X216883571Y-115514285D01*
X216978809Y-115561904D01*
X217216904Y-115561904D01*
X217312142Y-115514285D01*
X217359761Y-115466666D01*
X217407380Y-115371428D01*
X217407380Y-115133333D01*
X217359761Y-115038095D01*
X217312142Y-114990476D01*
X217727380Y-110228095D02*
X216727380Y-110228095D01*
X217727380Y-110799523D02*
X217155952Y-110370952D01*
X216727380Y-110799523D02*
X217298809Y-110228095D01*
%TO.C,D42*%
X160257380Y-113085714D02*
X159257380Y-113085714D01*
X159257380Y-113323809D01*
X159305000Y-113466666D01*
X159400238Y-113561904D01*
X159495476Y-113609523D01*
X159685952Y-113657142D01*
X159828809Y-113657142D01*
X160019285Y-113609523D01*
X160114523Y-113561904D01*
X160209761Y-113466666D01*
X160257380Y-113323809D01*
X160257380Y-113085714D01*
X159590714Y-114514285D02*
X160257380Y-114514285D01*
X159209761Y-114276190D02*
X159924047Y-114038095D01*
X159924047Y-114657142D01*
X159352619Y-114990476D02*
X159305000Y-115038095D01*
X159257380Y-115133333D01*
X159257380Y-115371428D01*
X159305000Y-115466666D01*
X159352619Y-115514285D01*
X159447857Y-115561904D01*
X159543095Y-115561904D01*
X159685952Y-115514285D01*
X160257380Y-114942857D01*
X160257380Y-115561904D01*
X160577380Y-110228095D02*
X159577380Y-110228095D01*
X160577380Y-110799523D02*
X160005952Y-110370952D01*
X159577380Y-110799523D02*
X160148809Y-110228095D01*
%TO.C,D15*%
X134564285Y-84057380D02*
X134564285Y-83057380D01*
X134326190Y-83057380D01*
X134183333Y-83105000D01*
X134088095Y-83200238D01*
X134040476Y-83295476D01*
X133992857Y-83485952D01*
X133992857Y-83628809D01*
X134040476Y-83819285D01*
X134088095Y-83914523D01*
X134183333Y-84009761D01*
X134326190Y-84057380D01*
X134564285Y-84057380D01*
X133040476Y-84057380D02*
X133611904Y-84057380D01*
X133326190Y-84057380D02*
X133326190Y-83057380D01*
X133421428Y-83200238D01*
X133516666Y-83295476D01*
X133611904Y-83343095D01*
X132135714Y-83057380D02*
X132611904Y-83057380D01*
X132659523Y-83533571D01*
X132611904Y-83485952D01*
X132516666Y-83438333D01*
X132278571Y-83438333D01*
X132183333Y-83485952D01*
X132135714Y-83533571D01*
X132088095Y-83628809D01*
X132088095Y-83866904D01*
X132135714Y-83962142D01*
X132183333Y-84009761D01*
X132278571Y-84057380D01*
X132516666Y-84057380D01*
X132611904Y-84009761D01*
X132659523Y-83962142D01*
X137421904Y-84377380D02*
X137421904Y-83377380D01*
X136850476Y-84377380D02*
X137279047Y-83805952D01*
X136850476Y-83377380D02*
X137421904Y-83948809D01*
%TO.C,D17*%
X172664285Y-84057380D02*
X172664285Y-83057380D01*
X172426190Y-83057380D01*
X172283333Y-83105000D01*
X172188095Y-83200238D01*
X172140476Y-83295476D01*
X172092857Y-83485952D01*
X172092857Y-83628809D01*
X172140476Y-83819285D01*
X172188095Y-83914523D01*
X172283333Y-84009761D01*
X172426190Y-84057380D01*
X172664285Y-84057380D01*
X171140476Y-84057380D02*
X171711904Y-84057380D01*
X171426190Y-84057380D02*
X171426190Y-83057380D01*
X171521428Y-83200238D01*
X171616666Y-83295476D01*
X171711904Y-83343095D01*
X170807142Y-83057380D02*
X170140476Y-83057380D01*
X170569047Y-84057380D01*
X175521904Y-84377380D02*
X175521904Y-83377380D01*
X174950476Y-84377380D02*
X175379047Y-83805952D01*
X174950476Y-83377380D02*
X175521904Y-83948809D01*
%TO.C,D1*%
X134088095Y-45957380D02*
X134088095Y-44957380D01*
X133850000Y-44957380D01*
X133707142Y-45005000D01*
X133611904Y-45100238D01*
X133564285Y-45195476D01*
X133516666Y-45385952D01*
X133516666Y-45528809D01*
X133564285Y-45719285D01*
X133611904Y-45814523D01*
X133707142Y-45909761D01*
X133850000Y-45957380D01*
X134088095Y-45957380D01*
X132564285Y-45957380D02*
X133135714Y-45957380D01*
X132850000Y-45957380D02*
X132850000Y-44957380D01*
X132945238Y-45100238D01*
X133040476Y-45195476D01*
X133135714Y-45243095D01*
X137421904Y-46277380D02*
X137421904Y-45277380D01*
X136850476Y-46277380D02*
X137279047Y-45705952D01*
X136850476Y-45277380D02*
X137421904Y-45848809D01*
%TO.C,D40*%
X122157380Y-113085714D02*
X121157380Y-113085714D01*
X121157380Y-113323809D01*
X121205000Y-113466666D01*
X121300238Y-113561904D01*
X121395476Y-113609523D01*
X121585952Y-113657142D01*
X121728809Y-113657142D01*
X121919285Y-113609523D01*
X122014523Y-113561904D01*
X122109761Y-113466666D01*
X122157380Y-113323809D01*
X122157380Y-113085714D01*
X121490714Y-114514285D02*
X122157380Y-114514285D01*
X121109761Y-114276190D02*
X121824047Y-114038095D01*
X121824047Y-114657142D01*
X121157380Y-115228571D02*
X121157380Y-115323809D01*
X121205000Y-115419047D01*
X121252619Y-115466666D01*
X121347857Y-115514285D01*
X121538333Y-115561904D01*
X121776428Y-115561904D01*
X121966904Y-115514285D01*
X122062142Y-115466666D01*
X122109761Y-115419047D01*
X122157380Y-115323809D01*
X122157380Y-115228571D01*
X122109761Y-115133333D01*
X122062142Y-115085714D01*
X121966904Y-115038095D01*
X121776428Y-114990476D01*
X121538333Y-114990476D01*
X121347857Y-115038095D01*
X121252619Y-115085714D01*
X121205000Y-115133333D01*
X121157380Y-115228571D01*
X122477380Y-110228095D02*
X121477380Y-110228095D01*
X122477380Y-110799523D02*
X121905952Y-110370952D01*
X121477380Y-110799523D02*
X122048809Y-110228095D01*
%TO.C,D32*%
X239339285Y-103107380D02*
X239339285Y-102107380D01*
X239101190Y-102107380D01*
X238958333Y-102155000D01*
X238863095Y-102250238D01*
X238815476Y-102345476D01*
X238767857Y-102535952D01*
X238767857Y-102678809D01*
X238815476Y-102869285D01*
X238863095Y-102964523D01*
X238958333Y-103059761D01*
X239101190Y-103107380D01*
X239339285Y-103107380D01*
X238434523Y-102107380D02*
X237815476Y-102107380D01*
X238148809Y-102488333D01*
X238005952Y-102488333D01*
X237910714Y-102535952D01*
X237863095Y-102583571D01*
X237815476Y-102678809D01*
X237815476Y-102916904D01*
X237863095Y-103012142D01*
X237910714Y-103059761D01*
X238005952Y-103107380D01*
X238291666Y-103107380D01*
X238386904Y-103059761D01*
X238434523Y-103012142D01*
X237434523Y-102202619D02*
X237386904Y-102155000D01*
X237291666Y-102107380D01*
X237053571Y-102107380D01*
X236958333Y-102155000D01*
X236910714Y-102202619D01*
X236863095Y-102297857D01*
X236863095Y-102393095D01*
X236910714Y-102535952D01*
X237482142Y-103107380D01*
X236863095Y-103107380D01*
X242196904Y-103427380D02*
X242196904Y-102427380D01*
X241625476Y-103427380D02*
X242054047Y-102855952D01*
X241625476Y-102427380D02*
X242196904Y-102998809D01*
%TO.C,D14*%
X210764285Y-65007380D02*
X210764285Y-64007380D01*
X210526190Y-64007380D01*
X210383333Y-64055000D01*
X210288095Y-64150238D01*
X210240476Y-64245476D01*
X210192857Y-64435952D01*
X210192857Y-64578809D01*
X210240476Y-64769285D01*
X210288095Y-64864523D01*
X210383333Y-64959761D01*
X210526190Y-65007380D01*
X210764285Y-65007380D01*
X209240476Y-65007380D02*
X209811904Y-65007380D01*
X209526190Y-65007380D02*
X209526190Y-64007380D01*
X209621428Y-64150238D01*
X209716666Y-64245476D01*
X209811904Y-64293095D01*
X208383333Y-64340714D02*
X208383333Y-65007380D01*
X208621428Y-63959761D02*
X208859523Y-64674047D01*
X208240476Y-64674047D01*
X213621904Y-65327380D02*
X213621904Y-64327380D01*
X213050476Y-65327380D02*
X213479047Y-64755952D01*
X213050476Y-64327380D02*
X213621904Y-64898809D01*
%TO.C,D38*%
X84057380Y-113085714D02*
X83057380Y-113085714D01*
X83057380Y-113323809D01*
X83105000Y-113466666D01*
X83200238Y-113561904D01*
X83295476Y-113609523D01*
X83485952Y-113657142D01*
X83628809Y-113657142D01*
X83819285Y-113609523D01*
X83914523Y-113561904D01*
X84009761Y-113466666D01*
X84057380Y-113323809D01*
X84057380Y-113085714D01*
X83057380Y-113990476D02*
X83057380Y-114609523D01*
X83438333Y-114276190D01*
X83438333Y-114419047D01*
X83485952Y-114514285D01*
X83533571Y-114561904D01*
X83628809Y-114609523D01*
X83866904Y-114609523D01*
X83962142Y-114561904D01*
X84009761Y-114514285D01*
X84057380Y-114419047D01*
X84057380Y-114133333D01*
X84009761Y-114038095D01*
X83962142Y-113990476D01*
X83485952Y-115180952D02*
X83438333Y-115085714D01*
X83390714Y-115038095D01*
X83295476Y-114990476D01*
X83247857Y-114990476D01*
X83152619Y-115038095D01*
X83105000Y-115085714D01*
X83057380Y-115180952D01*
X83057380Y-115371428D01*
X83105000Y-115466666D01*
X83152619Y-115514285D01*
X83247857Y-115561904D01*
X83295476Y-115561904D01*
X83390714Y-115514285D01*
X83438333Y-115466666D01*
X83485952Y-115371428D01*
X83485952Y-115180952D01*
X83533571Y-115085714D01*
X83581190Y-115038095D01*
X83676428Y-114990476D01*
X83866904Y-114990476D01*
X83962142Y-115038095D01*
X84009761Y-115085714D01*
X84057380Y-115180952D01*
X84057380Y-115371428D01*
X84009761Y-115466666D01*
X83962142Y-115514285D01*
X83866904Y-115561904D01*
X83676428Y-115561904D01*
X83581190Y-115514285D01*
X83533571Y-115466666D01*
X83485952Y-115371428D01*
X84377380Y-110228095D02*
X83377380Y-110228095D01*
X84377380Y-110799523D02*
X83805952Y-110370952D01*
X83377380Y-110799523D02*
X83948809Y-110228095D01*
%TO.C,D27*%
X105989285Y-103107380D02*
X105989285Y-102107380D01*
X105751190Y-102107380D01*
X105608333Y-102155000D01*
X105513095Y-102250238D01*
X105465476Y-102345476D01*
X105417857Y-102535952D01*
X105417857Y-102678809D01*
X105465476Y-102869285D01*
X105513095Y-102964523D01*
X105608333Y-103059761D01*
X105751190Y-103107380D01*
X105989285Y-103107380D01*
X105036904Y-102202619D02*
X104989285Y-102155000D01*
X104894047Y-102107380D01*
X104655952Y-102107380D01*
X104560714Y-102155000D01*
X104513095Y-102202619D01*
X104465476Y-102297857D01*
X104465476Y-102393095D01*
X104513095Y-102535952D01*
X105084523Y-103107380D01*
X104465476Y-103107380D01*
X104132142Y-102107380D02*
X103465476Y-102107380D01*
X103894047Y-103107380D01*
X108846904Y-103427380D02*
X108846904Y-102427380D01*
X108275476Y-103427380D02*
X108704047Y-102855952D01*
X108275476Y-102427380D02*
X108846904Y-102998809D01*
%TO.C,D22*%
X267914285Y-84057380D02*
X267914285Y-83057380D01*
X267676190Y-83057380D01*
X267533333Y-83105000D01*
X267438095Y-83200238D01*
X267390476Y-83295476D01*
X267342857Y-83485952D01*
X267342857Y-83628809D01*
X267390476Y-83819285D01*
X267438095Y-83914523D01*
X267533333Y-84009761D01*
X267676190Y-84057380D01*
X267914285Y-84057380D01*
X266961904Y-83152619D02*
X266914285Y-83105000D01*
X266819047Y-83057380D01*
X266580952Y-83057380D01*
X266485714Y-83105000D01*
X266438095Y-83152619D01*
X266390476Y-83247857D01*
X266390476Y-83343095D01*
X266438095Y-83485952D01*
X267009523Y-84057380D01*
X266390476Y-84057380D01*
X266009523Y-83152619D02*
X265961904Y-83105000D01*
X265866666Y-83057380D01*
X265628571Y-83057380D01*
X265533333Y-83105000D01*
X265485714Y-83152619D01*
X265438095Y-83247857D01*
X265438095Y-83343095D01*
X265485714Y-83485952D01*
X266057142Y-84057380D01*
X265438095Y-84057380D01*
X270771904Y-84377380D02*
X270771904Y-83377380D01*
X270200476Y-84377380D02*
X270629047Y-83805952D01*
X270200476Y-83377380D02*
X270771904Y-83948809D01*
%TO.C,D3*%
X172188095Y-45957380D02*
X172188095Y-44957380D01*
X171950000Y-44957380D01*
X171807142Y-45005000D01*
X171711904Y-45100238D01*
X171664285Y-45195476D01*
X171616666Y-45385952D01*
X171616666Y-45528809D01*
X171664285Y-45719285D01*
X171711904Y-45814523D01*
X171807142Y-45909761D01*
X171950000Y-45957380D01*
X172188095Y-45957380D01*
X171283333Y-44957380D02*
X170664285Y-44957380D01*
X170997619Y-45338333D01*
X170854761Y-45338333D01*
X170759523Y-45385952D01*
X170711904Y-45433571D01*
X170664285Y-45528809D01*
X170664285Y-45766904D01*
X170711904Y-45862142D01*
X170759523Y-45909761D01*
X170854761Y-45957380D01*
X171140476Y-45957380D01*
X171235714Y-45909761D01*
X171283333Y-45862142D01*
X175521904Y-46277380D02*
X175521904Y-45277380D01*
X174950476Y-46277380D02*
X175379047Y-45705952D01*
X174950476Y-45277380D02*
X175521904Y-45848809D01*
%TO.C,D26*%
X86939285Y-103107380D02*
X86939285Y-102107380D01*
X86701190Y-102107380D01*
X86558333Y-102155000D01*
X86463095Y-102250238D01*
X86415476Y-102345476D01*
X86367857Y-102535952D01*
X86367857Y-102678809D01*
X86415476Y-102869285D01*
X86463095Y-102964523D01*
X86558333Y-103059761D01*
X86701190Y-103107380D01*
X86939285Y-103107380D01*
X85986904Y-102202619D02*
X85939285Y-102155000D01*
X85844047Y-102107380D01*
X85605952Y-102107380D01*
X85510714Y-102155000D01*
X85463095Y-102202619D01*
X85415476Y-102297857D01*
X85415476Y-102393095D01*
X85463095Y-102535952D01*
X86034523Y-103107380D01*
X85415476Y-103107380D01*
X84558333Y-102107380D02*
X84748809Y-102107380D01*
X84844047Y-102155000D01*
X84891666Y-102202619D01*
X84986904Y-102345476D01*
X85034523Y-102535952D01*
X85034523Y-102916904D01*
X84986904Y-103012142D01*
X84939285Y-103059761D01*
X84844047Y-103107380D01*
X84653571Y-103107380D01*
X84558333Y-103059761D01*
X84510714Y-103012142D01*
X84463095Y-102916904D01*
X84463095Y-102678809D01*
X84510714Y-102583571D01*
X84558333Y-102535952D01*
X84653571Y-102488333D01*
X84844047Y-102488333D01*
X84939285Y-102535952D01*
X84986904Y-102583571D01*
X85034523Y-102678809D01*
X89796904Y-103427380D02*
X89796904Y-102427380D01*
X89225476Y-103427380D02*
X89654047Y-102855952D01*
X89225476Y-102427380D02*
X89796904Y-102998809D01*
%TO.C,D43*%
X179307380Y-113085714D02*
X178307380Y-113085714D01*
X178307380Y-113323809D01*
X178355000Y-113466666D01*
X178450238Y-113561904D01*
X178545476Y-113609523D01*
X178735952Y-113657142D01*
X178878809Y-113657142D01*
X179069285Y-113609523D01*
X179164523Y-113561904D01*
X179259761Y-113466666D01*
X179307380Y-113323809D01*
X179307380Y-113085714D01*
X178640714Y-114514285D02*
X179307380Y-114514285D01*
X178259761Y-114276190D02*
X178974047Y-114038095D01*
X178974047Y-114657142D01*
X178307380Y-114942857D02*
X178307380Y-115561904D01*
X178688333Y-115228571D01*
X178688333Y-115371428D01*
X178735952Y-115466666D01*
X178783571Y-115514285D01*
X178878809Y-115561904D01*
X179116904Y-115561904D01*
X179212142Y-115514285D01*
X179259761Y-115466666D01*
X179307380Y-115371428D01*
X179307380Y-115085714D01*
X179259761Y-114990476D01*
X179212142Y-114942857D01*
X179627380Y-110228095D02*
X178627380Y-110228095D01*
X179627380Y-110799523D02*
X179055952Y-110370952D01*
X178627380Y-110799523D02*
X179198809Y-110228095D01*
%TO.C,D11*%
X153614285Y-65007380D02*
X153614285Y-64007380D01*
X153376190Y-64007380D01*
X153233333Y-64055000D01*
X153138095Y-64150238D01*
X153090476Y-64245476D01*
X153042857Y-64435952D01*
X153042857Y-64578809D01*
X153090476Y-64769285D01*
X153138095Y-64864523D01*
X153233333Y-64959761D01*
X153376190Y-65007380D01*
X153614285Y-65007380D01*
X152090476Y-65007380D02*
X152661904Y-65007380D01*
X152376190Y-65007380D02*
X152376190Y-64007380D01*
X152471428Y-64150238D01*
X152566666Y-64245476D01*
X152661904Y-64293095D01*
X151138095Y-65007380D02*
X151709523Y-65007380D01*
X151423809Y-65007380D02*
X151423809Y-64007380D01*
X151519047Y-64150238D01*
X151614285Y-64245476D01*
X151709523Y-64293095D01*
X156471904Y-65327380D02*
X156471904Y-64327380D01*
X155900476Y-65327380D02*
X156329047Y-64755952D01*
X155900476Y-64327380D02*
X156471904Y-64898809D01*
%TO.C,D35*%
X315539285Y-103107380D02*
X315539285Y-102107380D01*
X315301190Y-102107380D01*
X315158333Y-102155000D01*
X315063095Y-102250238D01*
X315015476Y-102345476D01*
X314967857Y-102535952D01*
X314967857Y-102678809D01*
X315015476Y-102869285D01*
X315063095Y-102964523D01*
X315158333Y-103059761D01*
X315301190Y-103107380D01*
X315539285Y-103107380D01*
X314634523Y-102107380D02*
X314015476Y-102107380D01*
X314348809Y-102488333D01*
X314205952Y-102488333D01*
X314110714Y-102535952D01*
X314063095Y-102583571D01*
X314015476Y-102678809D01*
X314015476Y-102916904D01*
X314063095Y-103012142D01*
X314110714Y-103059761D01*
X314205952Y-103107380D01*
X314491666Y-103107380D01*
X314586904Y-103059761D01*
X314634523Y-103012142D01*
X313110714Y-102107380D02*
X313586904Y-102107380D01*
X313634523Y-102583571D01*
X313586904Y-102535952D01*
X313491666Y-102488333D01*
X313253571Y-102488333D01*
X313158333Y-102535952D01*
X313110714Y-102583571D01*
X313063095Y-102678809D01*
X313063095Y-102916904D01*
X313110714Y-103012142D01*
X313158333Y-103059761D01*
X313253571Y-103107380D01*
X313491666Y-103107380D01*
X313586904Y-103059761D01*
X313634523Y-103012142D01*
X318396904Y-103427380D02*
X318396904Y-102427380D01*
X317825476Y-103427380D02*
X318254047Y-102855952D01*
X317825476Y-102427380D02*
X318396904Y-102998809D01*
D12*
%TO.C,D48*%
X275105000Y-113020000D02*
X277345000Y-113020000D01*
X275105000Y-112180000D02*
X277345000Y-112180000D01*
X277345000Y-112180000D02*
X277345000Y-116420000D01*
X276225000Y-117070000D02*
X276225000Y-116420000D01*
X277345000Y-116420000D02*
X275105000Y-116420000D01*
X276225000Y-111530000D02*
X276225000Y-112180000D01*
X275105000Y-112900000D02*
X277345000Y-112900000D01*
X275105000Y-116420000D02*
X275105000Y-112180000D01*
X275105000Y-112780000D02*
X277345000Y-112780000D01*
%TO.C,D47*%
X256055000Y-112780000D02*
X258295000Y-112780000D01*
X257175000Y-117070000D02*
X257175000Y-116420000D01*
X258295000Y-116420000D02*
X256055000Y-116420000D01*
X256055000Y-112180000D02*
X258295000Y-112180000D01*
X258295000Y-112180000D02*
X258295000Y-116420000D01*
X256055000Y-112900000D02*
X258295000Y-112900000D01*
X256055000Y-113020000D02*
X258295000Y-113020000D01*
X256055000Y-116420000D02*
X256055000Y-112180000D01*
X257175000Y-111530000D02*
X257175000Y-112180000D01*
%TO.C,D41*%
X141755000Y-112180000D02*
X143995000Y-112180000D01*
X141755000Y-112900000D02*
X143995000Y-112900000D01*
X141755000Y-116420000D02*
X141755000Y-112180000D01*
X142875000Y-117070000D02*
X142875000Y-116420000D01*
X142875000Y-111530000D02*
X142875000Y-112180000D01*
X143995000Y-116420000D02*
X141755000Y-116420000D01*
X143995000Y-112180000D02*
X143995000Y-116420000D01*
X141755000Y-113020000D02*
X143995000Y-113020000D01*
X141755000Y-112780000D02*
X143995000Y-112780000D01*
%TO.C,D21*%
X249050000Y-84605000D02*
X249050000Y-86845000D01*
X245530000Y-86845000D02*
X245530000Y-84605000D01*
X249770000Y-86845000D02*
X245530000Y-86845000D01*
X245530000Y-84605000D02*
X249770000Y-84605000D01*
X249770000Y-84605000D02*
X249770000Y-86845000D01*
X249170000Y-84605000D02*
X249170000Y-86845000D01*
X250420000Y-85725000D02*
X249770000Y-85725000D01*
X244880000Y-85725000D02*
X245530000Y-85725000D01*
X248930000Y-84605000D02*
X248930000Y-86845000D01*
%TO.C,D50*%
X313205000Y-112780000D02*
X315445000Y-112780000D01*
X313205000Y-113020000D02*
X315445000Y-113020000D01*
X315445000Y-112180000D02*
X315445000Y-116420000D01*
X313205000Y-116420000D02*
X313205000Y-112180000D01*
X314325000Y-117070000D02*
X314325000Y-116420000D01*
X315445000Y-116420000D02*
X313205000Y-116420000D01*
X314325000Y-111530000D02*
X314325000Y-112180000D01*
X313205000Y-112180000D02*
X315445000Y-112180000D01*
X313205000Y-112900000D02*
X315445000Y-112900000D01*
%TO.C,D30*%
X178205000Y-104775000D02*
X178855000Y-104775000D01*
X182495000Y-103655000D02*
X182495000Y-105895000D01*
X182375000Y-103655000D02*
X182375000Y-105895000D01*
X183095000Y-103655000D02*
X183095000Y-105895000D01*
X178855000Y-105895000D02*
X178855000Y-103655000D01*
X183745000Y-104775000D02*
X183095000Y-104775000D01*
X182255000Y-103655000D02*
X182255000Y-105895000D01*
X183095000Y-105895000D02*
X178855000Y-105895000D01*
X178855000Y-103655000D02*
X183095000Y-103655000D01*
%TO.C,D6*%
X228600000Y-35330000D02*
X228600000Y-35980000D01*
X229720000Y-35980000D02*
X229720000Y-40220000D01*
X229720000Y-39500000D02*
X227480000Y-39500000D01*
X229720000Y-40220000D02*
X227480000Y-40220000D01*
X227480000Y-40220000D02*
X227480000Y-35980000D01*
X228600000Y-40870000D02*
X228600000Y-40220000D01*
X229720000Y-39380000D02*
X227480000Y-39380000D01*
X229720000Y-39620000D02*
X227480000Y-39620000D01*
X227480000Y-35980000D02*
X229720000Y-35980000D01*
%TO.C,D34*%
X293155000Y-105895000D02*
X293155000Y-103655000D01*
X292505000Y-104775000D02*
X293155000Y-104775000D01*
X297395000Y-105895000D02*
X293155000Y-105895000D01*
X296555000Y-103655000D02*
X296555000Y-105895000D01*
X293155000Y-103655000D02*
X297395000Y-103655000D01*
X297395000Y-103655000D02*
X297395000Y-105895000D01*
X296795000Y-103655000D02*
X296795000Y-105895000D01*
X298045000Y-104775000D02*
X297395000Y-104775000D01*
X296675000Y-103655000D02*
X296675000Y-105895000D01*
%TO.C,D25*%
X325130000Y-84605000D02*
X325130000Y-86845000D01*
X326620000Y-85725000D02*
X325970000Y-85725000D01*
X321730000Y-86845000D02*
X321730000Y-84605000D01*
X325970000Y-86845000D02*
X321730000Y-86845000D01*
X325250000Y-84605000D02*
X325250000Y-86845000D01*
X325370000Y-84605000D02*
X325370000Y-86845000D01*
X321080000Y-85725000D02*
X321730000Y-85725000D01*
X321730000Y-84605000D02*
X325970000Y-84605000D01*
X325970000Y-84605000D02*
X325970000Y-86845000D01*
%TO.C,U6*%
X282321000Y-47688500D02*
X221361000Y-47688500D01*
X221361000Y-65468500D02*
X282321000Y-65468500D01*
X282321000Y-65468500D02*
X282321000Y-47688500D01*
X221361000Y-47688500D02*
X221361000Y-65468500D01*
%TO.C,D29*%
X159805000Y-105895000D02*
X159805000Y-103655000D01*
X164045000Y-103655000D02*
X164045000Y-105895000D01*
X159155000Y-104775000D02*
X159805000Y-104775000D01*
X163445000Y-103655000D02*
X163445000Y-105895000D01*
X164045000Y-105895000D02*
X159805000Y-105895000D01*
X163205000Y-103655000D02*
X163205000Y-105895000D01*
X164695000Y-104775000D02*
X164045000Y-104775000D01*
X163325000Y-103655000D02*
X163325000Y-105895000D01*
X159805000Y-103655000D02*
X164045000Y-103655000D01*
%TO.C,D9*%
X315445000Y-39380000D02*
X313205000Y-39380000D01*
X314325000Y-40870000D02*
X314325000Y-40220000D01*
X314325000Y-35330000D02*
X314325000Y-35980000D01*
X315445000Y-40220000D02*
X313205000Y-40220000D01*
X313205000Y-40220000D02*
X313205000Y-35980000D01*
X315445000Y-39620000D02*
X313205000Y-39620000D01*
X315445000Y-35980000D02*
X315445000Y-40220000D01*
X315445000Y-39500000D02*
X313205000Y-39500000D01*
X313205000Y-35980000D02*
X315445000Y-35980000D01*
%TO.C,D39*%
X105895000Y-112180000D02*
X105895000Y-116420000D01*
X103655000Y-112780000D02*
X105895000Y-112780000D01*
X103655000Y-113020000D02*
X105895000Y-113020000D01*
X104775000Y-111530000D02*
X104775000Y-112180000D01*
X104775000Y-117070000D02*
X104775000Y-116420000D01*
X105895000Y-116420000D02*
X103655000Y-116420000D01*
X103655000Y-116420000D02*
X103655000Y-112180000D01*
X103655000Y-112180000D02*
X105895000Y-112180000D01*
X103655000Y-112900000D02*
X105895000Y-112900000D01*
%TO.C,D18*%
X193270000Y-85725000D02*
X192620000Y-85725000D01*
X188380000Y-86845000D02*
X188380000Y-84605000D01*
X187730000Y-85725000D02*
X188380000Y-85725000D01*
X192620000Y-84605000D02*
X192620000Y-86845000D01*
X191780000Y-84605000D02*
X191780000Y-86845000D01*
X192020000Y-84605000D02*
X192020000Y-86845000D01*
X188380000Y-84605000D02*
X192620000Y-84605000D01*
X191900000Y-84605000D02*
X191900000Y-86845000D01*
X192620000Y-86845000D02*
X188380000Y-86845000D01*
%TO.C,D28*%
X121705000Y-103655000D02*
X125945000Y-103655000D01*
X126595000Y-104775000D02*
X125945000Y-104775000D01*
X121705000Y-105895000D02*
X121705000Y-103655000D01*
X125225000Y-103655000D02*
X125225000Y-105895000D01*
X125105000Y-103655000D02*
X125105000Y-105895000D01*
X121055000Y-104775000D02*
X121705000Y-104775000D01*
X125945000Y-105895000D02*
X121705000Y-105895000D01*
X125345000Y-103655000D02*
X125345000Y-105895000D01*
X125945000Y-103655000D02*
X125945000Y-105895000D01*
%TO.C,D33*%
X258455000Y-103655000D02*
X258455000Y-105895000D01*
X259295000Y-105895000D02*
X255055000Y-105895000D01*
X254405000Y-104775000D02*
X255055000Y-104775000D01*
X255055000Y-105895000D02*
X255055000Y-103655000D01*
X255055000Y-103655000D02*
X259295000Y-103655000D01*
X259295000Y-103655000D02*
X259295000Y-105895000D01*
X258695000Y-103655000D02*
X258695000Y-105895000D01*
X259945000Y-104775000D02*
X259295000Y-104775000D01*
X258575000Y-103655000D02*
X258575000Y-105895000D01*
%TO.C,D7*%
X256055000Y-35980000D02*
X258295000Y-35980000D01*
X258295000Y-39620000D02*
X256055000Y-39620000D01*
X258295000Y-35980000D02*
X258295000Y-40220000D01*
X257175000Y-40870000D02*
X257175000Y-40220000D01*
X257175000Y-35330000D02*
X257175000Y-35980000D01*
X258295000Y-39380000D02*
X256055000Y-39380000D01*
X256055000Y-40220000D02*
X256055000Y-35980000D01*
X258295000Y-39500000D02*
X256055000Y-39500000D01*
X258295000Y-40220000D02*
X256055000Y-40220000D01*
%TO.C,D12*%
X172850000Y-65555000D02*
X172850000Y-67795000D01*
X173570000Y-65555000D02*
X173570000Y-67795000D01*
X173570000Y-67795000D02*
X169330000Y-67795000D01*
X169330000Y-65555000D02*
X173570000Y-65555000D01*
X172970000Y-65555000D02*
X172970000Y-67795000D01*
X174220000Y-66675000D02*
X173570000Y-66675000D01*
X169330000Y-67795000D02*
X169330000Y-65555000D01*
X172730000Y-65555000D02*
X172730000Y-67795000D01*
X168680000Y-66675000D02*
X169330000Y-66675000D01*
%TO.C,D2*%
X153920000Y-46505000D02*
X153920000Y-48745000D01*
X155170000Y-47625000D02*
X154520000Y-47625000D01*
X154520000Y-46505000D02*
X154520000Y-48745000D01*
X154520000Y-48745000D02*
X150280000Y-48745000D01*
X153680000Y-46505000D02*
X153680000Y-48745000D01*
X150280000Y-46505000D02*
X154520000Y-46505000D01*
X149630000Y-47625000D02*
X150280000Y-47625000D01*
X153800000Y-46505000D02*
X153800000Y-48745000D01*
X150280000Y-48745000D02*
X150280000Y-46505000D01*
%TO.C,D46*%
X237005000Y-113020000D02*
X239245000Y-113020000D01*
X239245000Y-116420000D02*
X237005000Y-116420000D01*
X237005000Y-112780000D02*
X239245000Y-112780000D01*
X238125000Y-117070000D02*
X238125000Y-116420000D01*
X237005000Y-112180000D02*
X239245000Y-112180000D01*
X237005000Y-116420000D02*
X237005000Y-112180000D01*
X237005000Y-112900000D02*
X239245000Y-112900000D01*
X239245000Y-112180000D02*
X239245000Y-116420000D01*
X238125000Y-111530000D02*
X238125000Y-112180000D01*
%TO.C,D37*%
X65555000Y-113020000D02*
X67795000Y-113020000D01*
X65555000Y-112780000D02*
X67795000Y-112780000D01*
X66675000Y-117070000D02*
X66675000Y-116420000D01*
X67795000Y-112180000D02*
X67795000Y-116420000D01*
X66675000Y-111530000D02*
X66675000Y-112180000D01*
X65555000Y-112180000D02*
X67795000Y-112180000D01*
X65555000Y-116420000D02*
X65555000Y-112180000D01*
X67795000Y-116420000D02*
X65555000Y-116420000D01*
X65555000Y-112900000D02*
X67795000Y-112900000D01*
%TO.C,D23*%
X287150000Y-84605000D02*
X287150000Y-86845000D01*
X283630000Y-86845000D02*
X283630000Y-84605000D01*
X287270000Y-84605000D02*
X287270000Y-86845000D01*
X288520000Y-85725000D02*
X287870000Y-85725000D01*
X282980000Y-85725000D02*
X283630000Y-85725000D01*
X287870000Y-84605000D02*
X287870000Y-86845000D01*
X287030000Y-84605000D02*
X287030000Y-86845000D01*
X287870000Y-86845000D02*
X283630000Y-86845000D01*
X283630000Y-84605000D02*
X287870000Y-84605000D01*
%TO.C,D4*%
X188380000Y-48745000D02*
X188380000Y-46505000D01*
X191900000Y-46505000D02*
X191900000Y-48745000D01*
X192620000Y-48745000D02*
X188380000Y-48745000D01*
X193270000Y-47625000D02*
X192620000Y-47625000D01*
X192020000Y-46505000D02*
X192020000Y-48745000D01*
X192620000Y-46505000D02*
X192620000Y-48745000D01*
X188380000Y-46505000D02*
X192620000Y-46505000D01*
X187730000Y-47625000D02*
X188380000Y-47625000D01*
X191780000Y-46505000D02*
X191780000Y-48745000D01*
%TO.C,D16*%
X153800000Y-84605000D02*
X153800000Y-86845000D01*
X153920000Y-84605000D02*
X153920000Y-86845000D01*
X153680000Y-84605000D02*
X153680000Y-86845000D01*
X154520000Y-84605000D02*
X154520000Y-86845000D01*
X150280000Y-84605000D02*
X154520000Y-84605000D01*
X150280000Y-86845000D02*
X150280000Y-84605000D01*
X155170000Y-85725000D02*
X154520000Y-85725000D01*
X154520000Y-86845000D02*
X150280000Y-86845000D01*
X149630000Y-85725000D02*
X150280000Y-85725000D01*
%TO.C,D20*%
X230720000Y-84605000D02*
X230720000Y-86845000D01*
X225830000Y-85725000D02*
X226480000Y-85725000D01*
X231370000Y-85725000D02*
X230720000Y-85725000D01*
X230720000Y-86845000D02*
X226480000Y-86845000D01*
X230120000Y-84605000D02*
X230120000Y-86845000D01*
X226480000Y-86845000D02*
X226480000Y-84605000D01*
X230000000Y-84605000D02*
X230000000Y-86845000D01*
X229880000Y-84605000D02*
X229880000Y-86845000D01*
X226480000Y-84605000D02*
X230720000Y-84605000D01*
%TO.C,D24*%
X307570000Y-85725000D02*
X306920000Y-85725000D01*
X302030000Y-85725000D02*
X302680000Y-85725000D01*
X302680000Y-84605000D02*
X306920000Y-84605000D01*
X306320000Y-84605000D02*
X306320000Y-86845000D01*
X306200000Y-84605000D02*
X306200000Y-86845000D01*
X302680000Y-86845000D02*
X302680000Y-84605000D01*
X306080000Y-84605000D02*
X306080000Y-86845000D01*
X306920000Y-84605000D02*
X306920000Y-86845000D01*
X306920000Y-86845000D02*
X302680000Y-86845000D01*
%TO.C,D13*%
X192020000Y-65555000D02*
X192020000Y-67795000D01*
X191900000Y-65555000D02*
X191900000Y-67795000D01*
X191780000Y-65555000D02*
X191780000Y-67795000D01*
X192620000Y-67795000D02*
X188380000Y-67795000D01*
X188380000Y-65555000D02*
X192620000Y-65555000D01*
X187730000Y-66675000D02*
X188380000Y-66675000D01*
X188380000Y-67795000D02*
X188380000Y-65555000D01*
X192620000Y-65555000D02*
X192620000Y-67795000D01*
X193270000Y-66675000D02*
X192620000Y-66675000D01*
%TO.C,D5*%
X206780000Y-47625000D02*
X207430000Y-47625000D01*
X211070000Y-46505000D02*
X211070000Y-48745000D01*
X207430000Y-48745000D02*
X207430000Y-46505000D01*
X207430000Y-46505000D02*
X211670000Y-46505000D01*
X211670000Y-48745000D02*
X207430000Y-48745000D01*
X212320000Y-47625000D02*
X211670000Y-47625000D01*
X210830000Y-46505000D02*
X210830000Y-48745000D01*
X210950000Y-46505000D02*
X210950000Y-48745000D01*
X211670000Y-46505000D02*
X211670000Y-48745000D01*
%TO.C,D8*%
X285750000Y-40870000D02*
X285750000Y-40220000D01*
X286870000Y-39620000D02*
X284630000Y-39620000D01*
X284630000Y-40220000D02*
X284630000Y-35980000D01*
X286870000Y-39380000D02*
X284630000Y-39380000D01*
X284630000Y-35980000D02*
X286870000Y-35980000D01*
X286870000Y-35980000D02*
X286870000Y-40220000D01*
X286870000Y-40220000D02*
X284630000Y-40220000D01*
X285750000Y-35330000D02*
X285750000Y-35980000D01*
X286870000Y-39500000D02*
X284630000Y-39500000D01*
%TO.C,D10*%
X134630000Y-65555000D02*
X134630000Y-67795000D01*
X130580000Y-66675000D02*
X131230000Y-66675000D01*
X131230000Y-65555000D02*
X135470000Y-65555000D01*
X135470000Y-65555000D02*
X135470000Y-67795000D01*
X134750000Y-65555000D02*
X134750000Y-67795000D01*
X131230000Y-67795000D02*
X131230000Y-65555000D01*
X136120000Y-66675000D02*
X135470000Y-66675000D01*
X135470000Y-67795000D02*
X131230000Y-67795000D01*
X134870000Y-65555000D02*
X134870000Y-67795000D01*
%TO.C,D19*%
X211070000Y-84605000D02*
X211070000Y-86845000D01*
X207430000Y-86845000D02*
X207430000Y-84605000D01*
X210950000Y-84605000D02*
X210950000Y-86845000D01*
X210830000Y-84605000D02*
X210830000Y-86845000D01*
X212320000Y-85725000D02*
X211670000Y-85725000D01*
X206780000Y-85725000D02*
X207430000Y-85725000D01*
X207430000Y-84605000D02*
X211670000Y-84605000D01*
X211670000Y-86845000D02*
X207430000Y-86845000D01*
X211670000Y-84605000D02*
X211670000Y-86845000D01*
%TO.C,D44*%
X198905000Y-116420000D02*
X198905000Y-112180000D01*
X198905000Y-113020000D02*
X201145000Y-113020000D01*
X201145000Y-112180000D02*
X201145000Y-116420000D01*
X200025000Y-117070000D02*
X200025000Y-116420000D01*
X198905000Y-112180000D02*
X201145000Y-112180000D01*
X200025000Y-111530000D02*
X200025000Y-112180000D01*
X198905000Y-112900000D02*
X201145000Y-112900000D01*
X198905000Y-112780000D02*
X201145000Y-112780000D01*
X201145000Y-116420000D02*
X198905000Y-116420000D01*
%TO.C,D49*%
X294155000Y-116420000D02*
X294155000Y-112180000D01*
X295275000Y-117070000D02*
X295275000Y-116420000D01*
X295275000Y-111530000D02*
X295275000Y-112180000D01*
X296395000Y-116420000D02*
X294155000Y-116420000D01*
X296395000Y-112180000D02*
X296395000Y-116420000D01*
X294155000Y-112180000D02*
X296395000Y-112180000D01*
X294155000Y-112780000D02*
X296395000Y-112780000D01*
X294155000Y-112900000D02*
X296395000Y-112900000D01*
X294155000Y-113020000D02*
X296395000Y-113020000D01*
%TO.C,D31*%
X216955000Y-105895000D02*
X216955000Y-103655000D01*
X221195000Y-105895000D02*
X216955000Y-105895000D01*
X220475000Y-103655000D02*
X220475000Y-105895000D01*
X221845000Y-104775000D02*
X221195000Y-104775000D01*
X216305000Y-104775000D02*
X216955000Y-104775000D01*
X220595000Y-103655000D02*
X220595000Y-105895000D01*
X216955000Y-103655000D02*
X221195000Y-103655000D01*
X220355000Y-103655000D02*
X220355000Y-105895000D01*
X221195000Y-103655000D02*
X221195000Y-105895000D01*
%TO.C,D45*%
X217955000Y-112780000D02*
X220195000Y-112780000D01*
X219075000Y-111530000D02*
X219075000Y-112180000D01*
X217955000Y-116420000D02*
X217955000Y-112180000D01*
X217955000Y-112900000D02*
X220195000Y-112900000D01*
X220195000Y-116420000D02*
X217955000Y-116420000D01*
X219075000Y-117070000D02*
X219075000Y-116420000D01*
X217955000Y-113020000D02*
X220195000Y-113020000D01*
X217955000Y-112180000D02*
X220195000Y-112180000D01*
X220195000Y-112180000D02*
X220195000Y-116420000D01*
%TO.C,D42*%
X160805000Y-113020000D02*
X163045000Y-113020000D01*
X161925000Y-111530000D02*
X161925000Y-112180000D01*
X161925000Y-117070000D02*
X161925000Y-116420000D01*
X163045000Y-112180000D02*
X163045000Y-116420000D01*
X160805000Y-112780000D02*
X163045000Y-112780000D01*
X160805000Y-112900000D02*
X163045000Y-112900000D01*
X160805000Y-116420000D02*
X160805000Y-112180000D01*
X160805000Y-112180000D02*
X163045000Y-112180000D01*
X163045000Y-116420000D02*
X160805000Y-116420000D01*
%TO.C,D15*%
X134750000Y-84605000D02*
X134750000Y-86845000D01*
X131230000Y-86845000D02*
X131230000Y-84605000D01*
X131230000Y-84605000D02*
X135470000Y-84605000D01*
X134630000Y-84605000D02*
X134630000Y-86845000D01*
X130580000Y-85725000D02*
X131230000Y-85725000D01*
X134870000Y-84605000D02*
X134870000Y-86845000D01*
X136120000Y-85725000D02*
X135470000Y-85725000D01*
X135470000Y-86845000D02*
X131230000Y-86845000D01*
X135470000Y-84605000D02*
X135470000Y-86845000D01*
%TO.C,D17*%
X172850000Y-84605000D02*
X172850000Y-86845000D01*
X173570000Y-84605000D02*
X173570000Y-86845000D01*
X172970000Y-84605000D02*
X172970000Y-86845000D01*
X172730000Y-84605000D02*
X172730000Y-86845000D01*
X169330000Y-84605000D02*
X173570000Y-84605000D01*
X168680000Y-85725000D02*
X169330000Y-85725000D01*
X173570000Y-86845000D02*
X169330000Y-86845000D01*
X174220000Y-85725000D02*
X173570000Y-85725000D01*
X169330000Y-86845000D02*
X169330000Y-84605000D01*
%TO.C,D1*%
X134630000Y-46505000D02*
X134630000Y-48745000D01*
X131230000Y-46505000D02*
X135470000Y-46505000D01*
X134870000Y-46505000D02*
X134870000Y-48745000D01*
X135470000Y-48745000D02*
X131230000Y-48745000D01*
X134750000Y-46505000D02*
X134750000Y-48745000D01*
X130580000Y-47625000D02*
X131230000Y-47625000D01*
X131230000Y-48745000D02*
X131230000Y-46505000D01*
X135470000Y-46505000D02*
X135470000Y-48745000D01*
X136120000Y-47625000D02*
X135470000Y-47625000D01*
%TO.C,D40*%
X122705000Y-112780000D02*
X124945000Y-112780000D01*
X124945000Y-116420000D02*
X122705000Y-116420000D01*
X122705000Y-112180000D02*
X124945000Y-112180000D01*
X123825000Y-111530000D02*
X123825000Y-112180000D01*
X122705000Y-113020000D02*
X124945000Y-113020000D01*
X123825000Y-117070000D02*
X123825000Y-116420000D01*
X124945000Y-112180000D02*
X124945000Y-116420000D01*
X122705000Y-116420000D02*
X122705000Y-112180000D01*
X122705000Y-112900000D02*
X124945000Y-112900000D01*
%TO.C,D32*%
X240895000Y-104775000D02*
X240245000Y-104775000D01*
X239405000Y-103655000D02*
X239405000Y-105895000D01*
X240245000Y-105895000D02*
X236005000Y-105895000D01*
X240245000Y-103655000D02*
X240245000Y-105895000D01*
X236005000Y-103655000D02*
X240245000Y-103655000D01*
X236005000Y-105895000D02*
X236005000Y-103655000D01*
X235355000Y-104775000D02*
X236005000Y-104775000D01*
X239645000Y-103655000D02*
X239645000Y-105895000D01*
X239525000Y-103655000D02*
X239525000Y-105895000D01*
%TO.C,D14*%
X207430000Y-65555000D02*
X211670000Y-65555000D01*
X212320000Y-66675000D02*
X211670000Y-66675000D01*
X207430000Y-67795000D02*
X207430000Y-65555000D01*
X211670000Y-65555000D02*
X211670000Y-67795000D01*
X211670000Y-67795000D02*
X207430000Y-67795000D01*
X210830000Y-65555000D02*
X210830000Y-67795000D01*
X210950000Y-65555000D02*
X210950000Y-67795000D01*
X211070000Y-65555000D02*
X211070000Y-67795000D01*
X206780000Y-66675000D02*
X207430000Y-66675000D01*
%TO.C,D38*%
X84605000Y-112900000D02*
X86845000Y-112900000D01*
X84605000Y-112180000D02*
X86845000Y-112180000D01*
X84605000Y-112780000D02*
X86845000Y-112780000D01*
X85725000Y-111530000D02*
X85725000Y-112180000D01*
X86845000Y-116420000D02*
X84605000Y-116420000D01*
X85725000Y-117070000D02*
X85725000Y-116420000D01*
X86845000Y-112180000D02*
X86845000Y-116420000D01*
X84605000Y-113020000D02*
X86845000Y-113020000D01*
X84605000Y-116420000D02*
X84605000Y-112180000D01*
%TO.C,D27*%
X106895000Y-105895000D02*
X102655000Y-105895000D01*
X102655000Y-103655000D02*
X106895000Y-103655000D01*
X106055000Y-103655000D02*
X106055000Y-105895000D01*
X106175000Y-103655000D02*
X106175000Y-105895000D01*
X106895000Y-103655000D02*
X106895000Y-105895000D01*
X107545000Y-104775000D02*
X106895000Y-104775000D01*
X106295000Y-103655000D02*
X106295000Y-105895000D01*
X102655000Y-105895000D02*
X102655000Y-103655000D01*
X102005000Y-104775000D02*
X102655000Y-104775000D01*
%TO.C,D22*%
X268820000Y-84605000D02*
X268820000Y-86845000D01*
X269470000Y-85725000D02*
X268820000Y-85725000D01*
X267980000Y-84605000D02*
X267980000Y-86845000D01*
X268220000Y-84605000D02*
X268220000Y-86845000D01*
X264580000Y-84605000D02*
X268820000Y-84605000D01*
X263930000Y-85725000D02*
X264580000Y-85725000D01*
X264580000Y-86845000D02*
X264580000Y-84605000D01*
X268100000Y-84605000D02*
X268100000Y-86845000D01*
X268820000Y-86845000D02*
X264580000Y-86845000D01*
%TO.C,D3*%
X172850000Y-46505000D02*
X172850000Y-48745000D01*
X173570000Y-46505000D02*
X173570000Y-48745000D01*
X168680000Y-47625000D02*
X169330000Y-47625000D01*
X174220000Y-47625000D02*
X173570000Y-47625000D01*
X169330000Y-48745000D02*
X169330000Y-46505000D01*
X173570000Y-48745000D02*
X169330000Y-48745000D01*
X172970000Y-46505000D02*
X172970000Y-48745000D01*
X169330000Y-46505000D02*
X173570000Y-46505000D01*
X172730000Y-46505000D02*
X172730000Y-48745000D01*
%TO.C,D26*%
X87845000Y-103655000D02*
X87845000Y-105895000D01*
X87125000Y-103655000D02*
X87125000Y-105895000D01*
X87005000Y-103655000D02*
X87005000Y-105895000D01*
X83605000Y-105895000D02*
X83605000Y-103655000D01*
X88495000Y-104775000D02*
X87845000Y-104775000D01*
X87845000Y-105895000D02*
X83605000Y-105895000D01*
X82955000Y-104775000D02*
X83605000Y-104775000D01*
X83605000Y-103655000D02*
X87845000Y-103655000D01*
X87245000Y-103655000D02*
X87245000Y-105895000D01*
%TO.C,D43*%
X179855000Y-113020000D02*
X182095000Y-113020000D01*
X182095000Y-116420000D02*
X179855000Y-116420000D01*
X179855000Y-112780000D02*
X182095000Y-112780000D01*
X180975000Y-111530000D02*
X180975000Y-112180000D01*
X179855000Y-116420000D02*
X179855000Y-112180000D01*
X182095000Y-112180000D02*
X182095000Y-116420000D01*
X180975000Y-117070000D02*
X180975000Y-116420000D01*
X179855000Y-112900000D02*
X182095000Y-112900000D01*
X179855000Y-112180000D02*
X182095000Y-112180000D01*
%TO.C,D11*%
X153680000Y-65555000D02*
X153680000Y-67795000D01*
X150280000Y-67795000D02*
X150280000Y-65555000D01*
X153800000Y-65555000D02*
X153800000Y-67795000D01*
X155170000Y-66675000D02*
X154520000Y-66675000D01*
X149630000Y-66675000D02*
X150280000Y-66675000D01*
X150280000Y-65555000D02*
X154520000Y-65555000D01*
X154520000Y-65555000D02*
X154520000Y-67795000D01*
X153920000Y-65555000D02*
X153920000Y-67795000D01*
X154520000Y-67795000D02*
X150280000Y-67795000D01*
%TO.C,D35*%
X315725000Y-103655000D02*
X315725000Y-105895000D01*
X316445000Y-103655000D02*
X316445000Y-105895000D01*
X316445000Y-105895000D02*
X312205000Y-105895000D01*
X315605000Y-103655000D02*
X315605000Y-105895000D01*
X312205000Y-103655000D02*
X316445000Y-103655000D01*
X312205000Y-105895000D02*
X312205000Y-103655000D01*
X311555000Y-104775000D02*
X312205000Y-104775000D01*
X317095000Y-104775000D02*
X316445000Y-104775000D01*
X315845000Y-103655000D02*
X315845000Y-105895000D01*
%TD*%
M02*
