M48
; DRILL file {KiCad 6.0.2-378541a8eb~116~ubuntu20.04.1} date Wed 23 Feb 2022 06:59:01 PM CST
; FORMAT={-:-/ absolute / inch / decimal}
; #@! TF.CreationDate,2022-02-23T18:59:01-06:00
; #@! TF.GenerationSoftware,Kicad,Pcbnew,6.0.2-378541a8eb~116~ubuntu20.04.1
; #@! TF.FileFunction,NonPlated,1,2,NPTH
FMAT,2
INCH
; #@! TA.AperFunction,NonPlated,NPTH,ComponentDrill
T1C0.0550
; #@! TA.AperFunction,NonPlated,NPTH,ComponentDrill
T2C0.0689
; #@! TA.AperFunction,NonPlated,NPTH,ComponentDrill
T3C0.1000
; #@! TA.AperFunction,NonPlated,NPTH,ComponentDrill
T4C0.1575
%
G90
G05
T1
X1.5786Y-3.8599
X1.5786Y-4.3851
X2.1786Y-3.8599
X2.1786Y-4.3851
T2
X2.8Y-4.5
X3.175Y-3.75
X3.2Y-4.5
X3.55Y-4.5
X3.575Y-3.75
X3.925Y-3.75
X3.95Y-4.5
X4.3Y-4.5
X4.325Y-3.75
X4.675Y-3.75
X4.7Y-4.5
X5.05Y-1.5
X5.05Y-2.25
X5.05Y-3.0
X5.05Y-4.5
X5.075Y-3.75
X5.45Y-1.5
X5.45Y-2.25
X5.45Y-3.0
X5.45Y-4.5
X5.8Y-1.5
X5.8Y-2.25
X5.8Y-3.0
X5.8Y-4.5
X6.175Y-3.75
X6.2Y-1.5
X6.2Y-2.25
X6.2Y-3.0
X6.2Y-4.5
X6.55Y-1.5
X6.55Y-2.25
X6.55Y-3.0
X6.55Y-4.5
X6.575Y-3.75
X6.925Y-3.75
X6.95Y-1.5
X6.95Y-2.25
X6.95Y-3.0
X6.95Y-4.5
X7.3Y-1.5
X7.3Y-2.25
X7.3Y-3.0
X7.3Y-4.5
X7.325Y-3.75
X7.7Y-1.5
X7.7Y-2.25
X7.7Y-3.0
X7.7Y-4.5
X8.05Y-1.5
X8.05Y-2.25
X8.05Y-3.0
X8.05Y-4.5
X8.425Y-3.75
X8.45Y-1.5
X8.45Y-2.25
X8.45Y-3.0
X8.45Y-4.5
X8.8Y-3.0
X8.8Y-4.5
X8.825Y-3.75
X9.175Y-3.75
X9.2Y-3.0
X9.2Y-4.5
X9.55Y-3.0
X9.55Y-4.5
X9.575Y-3.75
X9.925Y-3.75
X9.95Y-3.0
X9.95Y-4.5
X10.3Y-3.0
X10.3Y-4.5
X10.325Y-3.75
X10.7Y-3.0
X10.7Y-4.5
X11.05Y-3.0
X11.05Y-4.5
X11.425Y-3.75
X11.45Y-3.0
X11.45Y-4.5
X11.8Y-3.0
X11.8Y-4.5
X11.825Y-3.75
X12.175Y-3.75
X12.2Y-3.0
X12.2Y-4.5
X12.55Y-3.0
X12.55Y-4.5
X12.575Y-3.75
X12.95Y-3.0
X12.95Y-4.5
T4
X3.0Y-4.5
X3.375Y-3.75
X3.75Y-4.5
X4.125Y-3.75
X4.5Y-4.5
X4.875Y-3.75
X5.25Y-1.5
X5.25Y-2.25
X5.25Y-3.0
X5.25Y-4.5
X6.0Y-1.5
X6.0Y-2.25
X6.0Y-3.0
X6.0Y-4.5
X6.375Y-3.75
X6.75Y-1.5
X6.75Y-2.25
X6.75Y-3.0
X6.75Y-4.5
X7.125Y-3.75
X7.5Y-1.5
X7.5Y-2.25
X7.5Y-3.0
X7.5Y-4.5
X8.25Y-1.5
X8.25Y-2.25
X8.25Y-3.0
X8.25Y-4.5
X8.625Y-3.75
X9.0Y-3.0
X9.0Y-4.5
X9.375Y-3.75
X9.75Y-3.0
X9.75Y-4.5
X10.125Y-3.75
X10.5Y-3.0
X10.5Y-4.5
X11.25Y-3.0
X11.25Y-4.5
X11.625Y-3.75
X12.0Y-3.0
X12.0Y-4.5
X12.375Y-3.75
X12.75Y-3.0
X12.75Y-4.5
T3
G00X1.8786Y-4.1709
M15
G01X1.8786Y-4.0741
M16
G05
G00X5.625Y-1.5484
M15
G01X5.625Y-1.4516
M16
G05
G00X5.625Y-3.0484
M15
G01X5.625Y-2.9516
M16
G05
G00X7.875Y-3.0484
M15
G01X7.875Y-2.9516
M16
G05
G00X12.0938Y-1.5484
M15
G01X12.0938Y-1.4516
M16
G05
G00X12.8438Y-3.7016
M15
G01X12.8438Y-3.7984
M16
G05
T0
M30
